%TF.GenerationSoftware,KiCad,Pcbnew,(5.1.9)-1*%
%TF.CreationDate,2022-02-24T19:51:08-05:00*%
%TF.ProjectId,exorcisortry2,65786f72-6369-4736-9f72-747279322e6b,rev?*%
%TF.SameCoordinates,Original*%
%TF.FileFunction,Legend,Top*%
%TF.FilePolarity,Positive*%
%FSLAX46Y46*%
G04 Gerber Fmt 4.6, Leading zero omitted, Abs format (unit mm)*
G04 Created by KiCad (PCBNEW (5.1.9)-1) date 2022-02-24 19:51:08*
%MOMM*%
%LPD*%
G01*
G04 APERTURE LIST*
%ADD10C,0.250000*%
%ADD11C,0.200000*%
%ADD12C,0.150000*%
%ADD13C,0.300000*%
%ADD14C,0.750000*%
%ADD15C,0.400000*%
%ADD16C,0.120000*%
%ADD17O,1.700000X1.700000*%
%ADD18R,1.700000X1.700000*%
%ADD19O,2.400000X1.600000*%
%ADD20R,2.400000X1.600000*%
%ADD21R,1.980000X3.960000*%
%ADD22O,1.980000X3.960000*%
%ADD23C,2.200000*%
%ADD24R,1.800000X1.800000*%
%ADD25C,1.800000*%
%ADD26C,1.600000*%
%ADD27R,1.600000X1.600000*%
G04 APERTURE END LIST*
D10*
X111686309Y-149833333D02*
X111638690Y-149785714D01*
X111543452Y-149642857D01*
X111495833Y-149547619D01*
X111448214Y-149404761D01*
X111400595Y-149166666D01*
X111400595Y-148976190D01*
X111448214Y-148738095D01*
X111495833Y-148595238D01*
X111543452Y-148500000D01*
X111638690Y-148357142D01*
X111686309Y-148309523D01*
X112829166Y-149452380D02*
X112829166Y-148452380D01*
X114400595Y-148928571D02*
X114543452Y-148976190D01*
X114591071Y-149023809D01*
X114638690Y-149119047D01*
X114638690Y-149261904D01*
X114591071Y-149357142D01*
X114543452Y-149404761D01*
X114448214Y-149452380D01*
X114067261Y-149452380D01*
X114067261Y-148452380D01*
X114400595Y-148452380D01*
X114495833Y-148500000D01*
X114543452Y-148547619D01*
X114591071Y-148642857D01*
X114591071Y-148738095D01*
X114543452Y-148833333D01*
X114495833Y-148880952D01*
X114400595Y-148928571D01*
X114067261Y-148928571D01*
X115019642Y-149166666D02*
X115495833Y-149166666D01*
X114924404Y-149452380D02*
X115257738Y-148452380D01*
X115591071Y-149452380D01*
X116495833Y-149452380D02*
X116162500Y-148976190D01*
X115924404Y-149452380D02*
X115924404Y-148452380D01*
X116305357Y-148452380D01*
X116400595Y-148500000D01*
X116448214Y-148547619D01*
X116495833Y-148642857D01*
X116495833Y-148785714D01*
X116448214Y-148880952D01*
X116400595Y-148928571D01*
X116305357Y-148976190D01*
X115924404Y-148976190D01*
X116924404Y-148928571D02*
X117257738Y-148928571D01*
X117400595Y-149452380D02*
X116924404Y-149452380D01*
X116924404Y-148452380D01*
X117400595Y-148452380D01*
X118305357Y-149452380D02*
X117829166Y-149452380D01*
X117829166Y-148452380D01*
X118829166Y-148976190D02*
X118829166Y-149452380D01*
X118495833Y-148452380D02*
X118829166Y-148976190D01*
X119162500Y-148452380D01*
X120257738Y-149452380D02*
X120257738Y-148452380D01*
X120829166Y-149452380D02*
X120400595Y-148880952D01*
X120829166Y-148452380D02*
X120257738Y-149023809D01*
X121257738Y-149452380D02*
X121257738Y-148452380D01*
X121829166Y-149452380D01*
X121829166Y-148452380D01*
X122495833Y-148452380D02*
X122686309Y-148452380D01*
X122781547Y-148500000D01*
X122876785Y-148595238D01*
X122924404Y-148785714D01*
X122924404Y-149119047D01*
X122876785Y-149309523D01*
X122781547Y-149404761D01*
X122686309Y-149452380D01*
X122495833Y-149452380D01*
X122400595Y-149404761D01*
X122305357Y-149309523D01*
X122257738Y-149119047D01*
X122257738Y-148785714D01*
X122305357Y-148595238D01*
X122400595Y-148500000D01*
X122495833Y-148452380D01*
X123257738Y-148452380D02*
X123495833Y-149452380D01*
X123686309Y-148738095D01*
X123876785Y-149452380D01*
X124114880Y-148452380D01*
X125305357Y-148452380D02*
X125210119Y-148642857D01*
X125733928Y-148928571D02*
X126067261Y-148928571D01*
X126210119Y-149452380D02*
X125733928Y-149452380D01*
X125733928Y-148452380D01*
X126210119Y-148452380D01*
X127210119Y-149452380D02*
X126876785Y-148976190D01*
X126638690Y-149452380D02*
X126638690Y-148452380D01*
X127019642Y-148452380D01*
X127114880Y-148500000D01*
X127162500Y-148547619D01*
X127210119Y-148642857D01*
X127210119Y-148785714D01*
X127162500Y-148880952D01*
X127114880Y-148928571D01*
X127019642Y-148976190D01*
X126638690Y-148976190D01*
X127638690Y-149357142D02*
X127686309Y-149404761D01*
X127638690Y-149452380D01*
X127591071Y-149404761D01*
X127638690Y-149357142D01*
X127638690Y-149452380D01*
X127638690Y-149071428D02*
X127591071Y-148500000D01*
X127638690Y-148452380D01*
X127686309Y-148500000D01*
X127638690Y-149071428D01*
X127638690Y-148452380D01*
X128781547Y-149833333D02*
X128829166Y-149785714D01*
X128924404Y-149642857D01*
X128972023Y-149547619D01*
X129019642Y-149404761D01*
X129067261Y-149166666D01*
X129067261Y-148976190D01*
X129019642Y-148738095D01*
X128972023Y-148595238D01*
X128924404Y-148500000D01*
X128829166Y-148357142D01*
X128781547Y-148309523D01*
D11*
X122928571Y-50595238D02*
X122714285Y-50547619D01*
X122357142Y-50547619D01*
X122214285Y-50595238D01*
X122142857Y-50642857D01*
X122071428Y-50738095D01*
X122071428Y-50833333D01*
X122142857Y-50928571D01*
X122214285Y-50976190D01*
X122357142Y-51023809D01*
X122642857Y-51071428D01*
X122785714Y-51119047D01*
X122857142Y-51166666D01*
X122928571Y-51261904D01*
X122928571Y-51357142D01*
X122857142Y-51452380D01*
X122785714Y-51500000D01*
X122642857Y-51547619D01*
X122285714Y-51547619D01*
X122071428Y-51500000D01*
X120357142Y-51595238D02*
X121642857Y-50309523D01*
X119928571Y-50595238D02*
X119714285Y-50547619D01*
X119357142Y-50547619D01*
X119214285Y-50595238D01*
X119142857Y-50642857D01*
X119071428Y-50738095D01*
X119071428Y-50833333D01*
X119142857Y-50928571D01*
X119214285Y-50976190D01*
X119357142Y-51023809D01*
X119642857Y-51071428D01*
X119785714Y-51119047D01*
X119857142Y-51166666D01*
X119928571Y-51261904D01*
X119928571Y-51357142D01*
X119857142Y-51452380D01*
X119785714Y-51500000D01*
X119642857Y-51547619D01*
X119285714Y-51547619D01*
X119071428Y-51500000D01*
X126892857Y-50642857D02*
X126964285Y-50595238D01*
X127178571Y-50547619D01*
X127321428Y-50547619D01*
X127535714Y-50595238D01*
X127678571Y-50690476D01*
X127750000Y-50785714D01*
X127821428Y-50976190D01*
X127821428Y-51119047D01*
X127750000Y-51309523D01*
X127678571Y-51404761D01*
X127535714Y-51500000D01*
X127321428Y-51547619D01*
X127178571Y-51547619D01*
X126964285Y-51500000D01*
X126892857Y-51452380D01*
X125535714Y-50547619D02*
X126250000Y-50547619D01*
X126250000Y-51547619D01*
X125035714Y-50547619D02*
X125035714Y-51547619D01*
X124178571Y-50547619D02*
X124821428Y-51119047D01*
X124178571Y-51547619D02*
X125035714Y-50976190D01*
X131892857Y-50642857D02*
X131964285Y-50595238D01*
X132178571Y-50547619D01*
X132321428Y-50547619D01*
X132535714Y-50595238D01*
X132678571Y-50690476D01*
X132750000Y-50785714D01*
X132821428Y-50976190D01*
X132821428Y-51119047D01*
X132750000Y-51309523D01*
X132678571Y-51404761D01*
X132535714Y-51500000D01*
X132321428Y-51547619D01*
X132178571Y-51547619D01*
X131964285Y-51500000D01*
X131892857Y-51452380D01*
X130535714Y-50547619D02*
X131250000Y-50547619D01*
X131250000Y-51547619D01*
X130035714Y-50547619D02*
X130035714Y-51547619D01*
X129178571Y-50547619D02*
X129821428Y-51119047D01*
X129178571Y-51547619D02*
X130035714Y-50976190D01*
X137142857Y-51500000D02*
X137285714Y-51547619D01*
X137500000Y-51547619D01*
X137714285Y-51500000D01*
X137857142Y-51404761D01*
X137928571Y-51309523D01*
X138000000Y-51119047D01*
X138000000Y-50976190D01*
X137928571Y-50785714D01*
X137857142Y-50690476D01*
X137714285Y-50595238D01*
X137500000Y-50547619D01*
X137357142Y-50547619D01*
X137142857Y-50595238D01*
X137071428Y-50642857D01*
X137071428Y-50976190D01*
X137357142Y-50976190D01*
X136428571Y-50547619D02*
X136428571Y-51547619D01*
X135571428Y-50547619D01*
X135571428Y-51547619D01*
X134857142Y-50547619D02*
X134857142Y-51547619D01*
X134500000Y-51547619D01*
X134285714Y-51500000D01*
X134142857Y-51404761D01*
X134071428Y-51309523D01*
X134000000Y-51119047D01*
X134000000Y-50976190D01*
X134071428Y-50785714D01*
X134142857Y-50690476D01*
X134285714Y-50595238D01*
X134500000Y-50547619D01*
X134857142Y-50547619D01*
D12*
X130390595Y-145202380D02*
X130723928Y-146202380D01*
X131057261Y-145202380D01*
X131914404Y-146202380D02*
X131342976Y-146202380D01*
X131628690Y-146202380D02*
X131628690Y-145202380D01*
X131533452Y-145345238D01*
X131438214Y-145440476D01*
X131342976Y-145488095D01*
X132342976Y-146107142D02*
X132390595Y-146154761D01*
X132342976Y-146202380D01*
X132295357Y-146154761D01*
X132342976Y-146107142D01*
X132342976Y-146202380D01*
X133914404Y-145678571D02*
X133581071Y-145678571D01*
X133581071Y-146202380D02*
X133581071Y-145202380D01*
X134057261Y-145202380D01*
X134438214Y-145678571D02*
X134771547Y-145678571D01*
X134914404Y-146202380D02*
X134438214Y-146202380D01*
X134438214Y-145202380D01*
X134914404Y-145202380D01*
X135676309Y-145678571D02*
X135819166Y-145726190D01*
X135866785Y-145773809D01*
X135914404Y-145869047D01*
X135914404Y-146011904D01*
X135866785Y-146107142D01*
X135819166Y-146154761D01*
X135723928Y-146202380D01*
X135342976Y-146202380D01*
X135342976Y-145202380D01*
X135676309Y-145202380D01*
X135771547Y-145250000D01*
X135819166Y-145297619D01*
X135866785Y-145392857D01*
X135866785Y-145488095D01*
X135819166Y-145583333D01*
X135771547Y-145630952D01*
X135676309Y-145678571D01*
X135342976Y-145678571D01*
X136342976Y-145821428D02*
X137104880Y-145821428D01*
X137533452Y-145297619D02*
X137581071Y-145250000D01*
X137676309Y-145202380D01*
X137914404Y-145202380D01*
X138009642Y-145250000D01*
X138057261Y-145297619D01*
X138104880Y-145392857D01*
X138104880Y-145488095D01*
X138057261Y-145630952D01*
X137485833Y-146202380D01*
X138104880Y-146202380D01*
X138723928Y-145202380D02*
X138819166Y-145202380D01*
X138914404Y-145250000D01*
X138962023Y-145297619D01*
X139009642Y-145392857D01*
X139057261Y-145583333D01*
X139057261Y-145821428D01*
X139009642Y-146011904D01*
X138962023Y-146107142D01*
X138914404Y-146154761D01*
X138819166Y-146202380D01*
X138723928Y-146202380D01*
X138628690Y-146154761D01*
X138581071Y-146107142D01*
X138533452Y-146011904D01*
X138485833Y-145821428D01*
X138485833Y-145583333D01*
X138533452Y-145392857D01*
X138581071Y-145297619D01*
X138628690Y-145250000D01*
X138723928Y-145202380D01*
X139438214Y-145297619D02*
X139485833Y-145250000D01*
X139581071Y-145202380D01*
X139819166Y-145202380D01*
X139914404Y-145250000D01*
X139962023Y-145297619D01*
X140009642Y-145392857D01*
X140009642Y-145488095D01*
X139962023Y-145630952D01*
X139390595Y-146202380D01*
X140009642Y-146202380D01*
X140962023Y-146202380D02*
X140390595Y-146202380D01*
X140676309Y-146202380D02*
X140676309Y-145202380D01*
X140581071Y-145345238D01*
X140485833Y-145440476D01*
X140390595Y-145488095D01*
X137119047Y-148714285D02*
X137023809Y-148809523D01*
X136738095Y-148904761D01*
X136547619Y-148904761D01*
X136261904Y-148809523D01*
X136071428Y-148619047D01*
X135976190Y-148428571D01*
X135880952Y-148047619D01*
X135880952Y-147761904D01*
X135976190Y-147380952D01*
X136071428Y-147190476D01*
X136261904Y-147000000D01*
X136547619Y-146904761D01*
X136738095Y-146904761D01*
X137023809Y-147000000D01*
X137119047Y-147095238D01*
X138642857Y-147857142D02*
X138928571Y-147952380D01*
X139023809Y-148047619D01*
X139119047Y-148238095D01*
X139119047Y-148523809D01*
X139023809Y-148714285D01*
X138928571Y-148809523D01*
X138738095Y-148904761D01*
X137976190Y-148904761D01*
X137976190Y-146904761D01*
X138642857Y-146904761D01*
X138833333Y-147000000D01*
X138928571Y-147095238D01*
X139023809Y-147285714D01*
X139023809Y-147476190D01*
X138928571Y-147666666D01*
X138833333Y-147761904D01*
X138642857Y-147857142D01*
X137976190Y-147857142D01*
X140642857Y-147857142D02*
X140928571Y-147952380D01*
X141023809Y-148047619D01*
X141119047Y-148238095D01*
X141119047Y-148523809D01*
X141023809Y-148714285D01*
X140928571Y-148809523D01*
X140738095Y-148904761D01*
X139976190Y-148904761D01*
X139976190Y-146904761D01*
X140642857Y-146904761D01*
X140833333Y-147000000D01*
X140928571Y-147095238D01*
X141023809Y-147285714D01*
X141023809Y-147476190D01*
X140928571Y-147666666D01*
X140833333Y-147761904D01*
X140642857Y-147857142D01*
X139976190Y-147857142D01*
D13*
X105904761Y-105238095D02*
X105904761Y-103904761D01*
X107904761Y-104761904D01*
X106571428Y-102285714D02*
X107904761Y-102285714D01*
X105809523Y-102761904D02*
X107238095Y-103238095D01*
X107238095Y-102000000D01*
X107904761Y-100285714D02*
X107904761Y-101238095D01*
X105904761Y-101238095D01*
X107809523Y-99714285D02*
X107904761Y-99428571D01*
X107904761Y-98952380D01*
X107809523Y-98761904D01*
X107714285Y-98666666D01*
X107523809Y-98571428D01*
X107333333Y-98571428D01*
X107142857Y-98666666D01*
X107047619Y-98761904D01*
X106952380Y-98952380D01*
X106857142Y-99333333D01*
X106761904Y-99523809D01*
X106666666Y-99619047D01*
X106476190Y-99714285D01*
X106285714Y-99714285D01*
X106095238Y-99619047D01*
X106000000Y-99523809D01*
X105904761Y-99333333D01*
X105904761Y-98857142D01*
X106000000Y-98571428D01*
X107904761Y-96666666D02*
X107904761Y-97809523D01*
X107904761Y-97238095D02*
X105904761Y-97238095D01*
X106190476Y-97428571D01*
X106380952Y-97619047D01*
X106476190Y-97809523D01*
X105904761Y-94952380D02*
X105904761Y-95333333D01*
X106000000Y-95523809D01*
X106095238Y-95619047D01*
X106380952Y-95809523D01*
X106761904Y-95904761D01*
X107523809Y-95904761D01*
X107714285Y-95809523D01*
X107809523Y-95714285D01*
X107904761Y-95523809D01*
X107904761Y-95142857D01*
X107809523Y-94952380D01*
X107714285Y-94857142D01*
X107523809Y-94761904D01*
X107047619Y-94761904D01*
X106857142Y-94857142D01*
X106761904Y-94952380D01*
X106666666Y-95142857D01*
X106666666Y-95523809D01*
X106761904Y-95714285D01*
X106857142Y-95809523D01*
X107047619Y-95904761D01*
X105904761Y-94095238D02*
X105904761Y-92857142D01*
X106666666Y-93523809D01*
X106666666Y-93238095D01*
X106761904Y-93047619D01*
X106857142Y-92952380D01*
X107047619Y-92857142D01*
X107523809Y-92857142D01*
X107714285Y-92952380D01*
X107809523Y-93047619D01*
X107904761Y-93238095D01*
X107904761Y-93809523D01*
X107809523Y-94000000D01*
X107714285Y-94095238D01*
X122904761Y-105238095D02*
X122904761Y-103904761D01*
X124904761Y-104761904D01*
X123571428Y-102285714D02*
X124904761Y-102285714D01*
X122809523Y-102761904D02*
X124238095Y-103238095D01*
X124238095Y-102000000D01*
X124904761Y-100285714D02*
X124904761Y-101238095D01*
X122904761Y-101238095D01*
X124809523Y-99714285D02*
X124904761Y-99428571D01*
X124904761Y-98952380D01*
X124809523Y-98761904D01*
X124714285Y-98666666D01*
X124523809Y-98571428D01*
X124333333Y-98571428D01*
X124142857Y-98666666D01*
X124047619Y-98761904D01*
X123952380Y-98952380D01*
X123857142Y-99333333D01*
X123761904Y-99523809D01*
X123666666Y-99619047D01*
X123476190Y-99714285D01*
X123285714Y-99714285D01*
X123095238Y-99619047D01*
X123000000Y-99523809D01*
X122904761Y-99333333D01*
X122904761Y-98857142D01*
X123000000Y-98571428D01*
X124904761Y-96666666D02*
X124904761Y-97809523D01*
X124904761Y-97238095D02*
X122904761Y-97238095D01*
X123190476Y-97428571D01*
X123380952Y-97619047D01*
X123476190Y-97809523D01*
X122904761Y-94952380D02*
X122904761Y-95333333D01*
X123000000Y-95523809D01*
X123095238Y-95619047D01*
X123380952Y-95809523D01*
X123761904Y-95904761D01*
X124523809Y-95904761D01*
X124714285Y-95809523D01*
X124809523Y-95714285D01*
X124904761Y-95523809D01*
X124904761Y-95142857D01*
X124809523Y-94952380D01*
X124714285Y-94857142D01*
X124523809Y-94761904D01*
X124047619Y-94761904D01*
X123857142Y-94857142D01*
X123761904Y-94952380D01*
X123666666Y-95142857D01*
X123666666Y-95523809D01*
X123761904Y-95714285D01*
X123857142Y-95809523D01*
X124047619Y-95904761D01*
X122904761Y-94095238D02*
X122904761Y-92857142D01*
X123666666Y-93523809D01*
X123666666Y-93238095D01*
X123761904Y-93047619D01*
X123857142Y-92952380D01*
X124047619Y-92857142D01*
X124523809Y-92857142D01*
X124714285Y-92952380D01*
X124809523Y-93047619D01*
X124904761Y-93238095D01*
X124904761Y-93809523D01*
X124809523Y-94000000D01*
X124714285Y-94095238D01*
X88904761Y-105238095D02*
X88904761Y-103904761D01*
X90904761Y-104761904D01*
X89571428Y-102285714D02*
X90904761Y-102285714D01*
X88809523Y-102761904D02*
X90238095Y-103238095D01*
X90238095Y-102000000D01*
X90904761Y-100285714D02*
X90904761Y-101238095D01*
X88904761Y-101238095D01*
X90809523Y-99714285D02*
X90904761Y-99428571D01*
X90904761Y-98952380D01*
X90809523Y-98761904D01*
X90714285Y-98666666D01*
X90523809Y-98571428D01*
X90333333Y-98571428D01*
X90142857Y-98666666D01*
X90047619Y-98761904D01*
X89952380Y-98952380D01*
X89857142Y-99333333D01*
X89761904Y-99523809D01*
X89666666Y-99619047D01*
X89476190Y-99714285D01*
X89285714Y-99714285D01*
X89095238Y-99619047D01*
X89000000Y-99523809D01*
X88904761Y-99333333D01*
X88904761Y-98857142D01*
X89000000Y-98571428D01*
X90904761Y-96666666D02*
X90904761Y-97809523D01*
X90904761Y-97238095D02*
X88904761Y-97238095D01*
X89190476Y-97428571D01*
X89380952Y-97619047D01*
X89476190Y-97809523D01*
X88904761Y-94952380D02*
X88904761Y-95333333D01*
X89000000Y-95523809D01*
X89095238Y-95619047D01*
X89380952Y-95809523D01*
X89761904Y-95904761D01*
X90523809Y-95904761D01*
X90714285Y-95809523D01*
X90809523Y-95714285D01*
X90904761Y-95523809D01*
X90904761Y-95142857D01*
X90809523Y-94952380D01*
X90714285Y-94857142D01*
X90523809Y-94761904D01*
X90047619Y-94761904D01*
X89857142Y-94857142D01*
X89761904Y-94952380D01*
X89666666Y-95142857D01*
X89666666Y-95523809D01*
X89761904Y-95714285D01*
X89857142Y-95809523D01*
X90047619Y-95904761D01*
X88904761Y-94095238D02*
X88904761Y-92857142D01*
X89666666Y-93523809D01*
X89666666Y-93238095D01*
X89761904Y-93047619D01*
X89857142Y-92952380D01*
X90047619Y-92857142D01*
X90523809Y-92857142D01*
X90714285Y-92952380D01*
X90809523Y-93047619D01*
X90904761Y-93238095D01*
X90904761Y-93809523D01*
X90809523Y-94000000D01*
X90714285Y-94095238D01*
X71904761Y-105238095D02*
X71904761Y-103904761D01*
X73904761Y-104761904D01*
X72571428Y-102285714D02*
X73904761Y-102285714D01*
X71809523Y-102761904D02*
X73238095Y-103238095D01*
X73238095Y-102000000D01*
X73904761Y-100285714D02*
X73904761Y-101238095D01*
X71904761Y-101238095D01*
X73809523Y-99714285D02*
X73904761Y-99428571D01*
X73904761Y-98952380D01*
X73809523Y-98761904D01*
X73714285Y-98666666D01*
X73523809Y-98571428D01*
X73333333Y-98571428D01*
X73142857Y-98666666D01*
X73047619Y-98761904D01*
X72952380Y-98952380D01*
X72857142Y-99333333D01*
X72761904Y-99523809D01*
X72666666Y-99619047D01*
X72476190Y-99714285D01*
X72285714Y-99714285D01*
X72095238Y-99619047D01*
X72000000Y-99523809D01*
X71904761Y-99333333D01*
X71904761Y-98857142D01*
X72000000Y-98571428D01*
X73904761Y-96666666D02*
X73904761Y-97809523D01*
X73904761Y-97238095D02*
X71904761Y-97238095D01*
X72190476Y-97428571D01*
X72380952Y-97619047D01*
X72476190Y-97809523D01*
X71904761Y-94952380D02*
X71904761Y-95333333D01*
X72000000Y-95523809D01*
X72095238Y-95619047D01*
X72380952Y-95809523D01*
X72761904Y-95904761D01*
X73523809Y-95904761D01*
X73714285Y-95809523D01*
X73809523Y-95714285D01*
X73904761Y-95523809D01*
X73904761Y-95142857D01*
X73809523Y-94952380D01*
X73714285Y-94857142D01*
X73523809Y-94761904D01*
X73047619Y-94761904D01*
X72857142Y-94857142D01*
X72761904Y-94952380D01*
X72666666Y-95142857D01*
X72666666Y-95523809D01*
X72761904Y-95714285D01*
X72857142Y-95809523D01*
X73047619Y-95904761D01*
X71904761Y-94095238D02*
X71904761Y-92857142D01*
X72666666Y-93523809D01*
X72666666Y-93238095D01*
X72761904Y-93047619D01*
X72857142Y-92952380D01*
X73047619Y-92857142D01*
X73523809Y-92857142D01*
X73714285Y-92952380D01*
X73809523Y-93047619D01*
X73904761Y-93238095D01*
X73904761Y-93809523D01*
X73809523Y-94000000D01*
X73714285Y-94095238D01*
X139904761Y-133285714D02*
X139904761Y-131952380D01*
X141904761Y-132809523D01*
X140571428Y-130333333D02*
X141904761Y-130333333D01*
X139809523Y-130809523D02*
X141238095Y-131285714D01*
X141238095Y-130047619D01*
X141904761Y-128333333D02*
X141904761Y-129285714D01*
X139904761Y-129285714D01*
X141809523Y-127761904D02*
X141904761Y-127476190D01*
X141904761Y-127000000D01*
X141809523Y-126809523D01*
X141714285Y-126714285D01*
X141523809Y-126619047D01*
X141333333Y-126619047D01*
X141142857Y-126714285D01*
X141047619Y-126809523D01*
X140952380Y-127000000D01*
X140857142Y-127380952D01*
X140761904Y-127571428D01*
X140666666Y-127666666D01*
X140476190Y-127761904D01*
X140285714Y-127761904D01*
X140095238Y-127666666D01*
X140000000Y-127571428D01*
X139904761Y-127380952D01*
X139904761Y-126904761D01*
X140000000Y-126619047D01*
X140761904Y-125476190D02*
X140666666Y-125666666D01*
X140571428Y-125761904D01*
X140380952Y-125857142D01*
X140285714Y-125857142D01*
X140095238Y-125761904D01*
X140000000Y-125666666D01*
X139904761Y-125476190D01*
X139904761Y-125095238D01*
X140000000Y-124904761D01*
X140095238Y-124809523D01*
X140285714Y-124714285D01*
X140380952Y-124714285D01*
X140571428Y-124809523D01*
X140666666Y-124904761D01*
X140761904Y-125095238D01*
X140761904Y-125476190D01*
X140857142Y-125666666D01*
X140952380Y-125761904D01*
X141142857Y-125857142D01*
X141523809Y-125857142D01*
X141714285Y-125761904D01*
X141809523Y-125666666D01*
X141904761Y-125476190D01*
X141904761Y-125095238D01*
X141809523Y-124904761D01*
X141714285Y-124809523D01*
X141523809Y-124714285D01*
X141142857Y-124714285D01*
X140952380Y-124809523D01*
X140857142Y-124904761D01*
X140761904Y-125095238D01*
X139904761Y-123000000D02*
X139904761Y-123380952D01*
X140000000Y-123571428D01*
X140095238Y-123666666D01*
X140380952Y-123857142D01*
X140761904Y-123952380D01*
X141523809Y-123952380D01*
X141714285Y-123857142D01*
X141809523Y-123761904D01*
X141904761Y-123571428D01*
X141904761Y-123190476D01*
X141809523Y-123000000D01*
X141714285Y-122904761D01*
X141523809Y-122809523D01*
X141047619Y-122809523D01*
X140857142Y-122904761D01*
X140761904Y-123000000D01*
X140666666Y-123190476D01*
X140666666Y-123571428D01*
X140761904Y-123761904D01*
X140857142Y-123857142D01*
X141047619Y-123952380D01*
X105904761Y-133285714D02*
X105904761Y-131952380D01*
X107904761Y-132809523D01*
X106571428Y-130333333D02*
X107904761Y-130333333D01*
X105809523Y-130809523D02*
X107238095Y-131285714D01*
X107238095Y-130047619D01*
X107904761Y-128333333D02*
X107904761Y-129285714D01*
X105904761Y-129285714D01*
X107809523Y-127761904D02*
X107904761Y-127476190D01*
X107904761Y-127000000D01*
X107809523Y-126809523D01*
X107714285Y-126714285D01*
X107523809Y-126619047D01*
X107333333Y-126619047D01*
X107142857Y-126714285D01*
X107047619Y-126809523D01*
X106952380Y-127000000D01*
X106857142Y-127380952D01*
X106761904Y-127571428D01*
X106666666Y-127666666D01*
X106476190Y-127761904D01*
X106285714Y-127761904D01*
X106095238Y-127666666D01*
X106000000Y-127571428D01*
X105904761Y-127380952D01*
X105904761Y-126904761D01*
X106000000Y-126619047D01*
X106761904Y-125476190D02*
X106666666Y-125666666D01*
X106571428Y-125761904D01*
X106380952Y-125857142D01*
X106285714Y-125857142D01*
X106095238Y-125761904D01*
X106000000Y-125666666D01*
X105904761Y-125476190D01*
X105904761Y-125095238D01*
X106000000Y-124904761D01*
X106095238Y-124809523D01*
X106285714Y-124714285D01*
X106380952Y-124714285D01*
X106571428Y-124809523D01*
X106666666Y-124904761D01*
X106761904Y-125095238D01*
X106761904Y-125476190D01*
X106857142Y-125666666D01*
X106952380Y-125761904D01*
X107142857Y-125857142D01*
X107523809Y-125857142D01*
X107714285Y-125761904D01*
X107809523Y-125666666D01*
X107904761Y-125476190D01*
X107904761Y-125095238D01*
X107809523Y-124904761D01*
X107714285Y-124809523D01*
X107523809Y-124714285D01*
X107142857Y-124714285D01*
X106952380Y-124809523D01*
X106857142Y-124904761D01*
X106761904Y-125095238D01*
X105904761Y-123000000D02*
X105904761Y-123380952D01*
X106000000Y-123571428D01*
X106095238Y-123666666D01*
X106380952Y-123857142D01*
X106761904Y-123952380D01*
X107523809Y-123952380D01*
X107714285Y-123857142D01*
X107809523Y-123761904D01*
X107904761Y-123571428D01*
X107904761Y-123190476D01*
X107809523Y-123000000D01*
X107714285Y-122904761D01*
X107523809Y-122809523D01*
X107047619Y-122809523D01*
X106857142Y-122904761D01*
X106761904Y-123000000D01*
X106666666Y-123190476D01*
X106666666Y-123571428D01*
X106761904Y-123761904D01*
X106857142Y-123857142D01*
X107047619Y-123952380D01*
X122904761Y-133285714D02*
X122904761Y-131952380D01*
X124904761Y-132809523D01*
X123571428Y-130333333D02*
X124904761Y-130333333D01*
X122809523Y-130809523D02*
X124238095Y-131285714D01*
X124238095Y-130047619D01*
X124904761Y-128333333D02*
X124904761Y-129285714D01*
X122904761Y-129285714D01*
X124809523Y-127761904D02*
X124904761Y-127476190D01*
X124904761Y-127000000D01*
X124809523Y-126809523D01*
X124714285Y-126714285D01*
X124523809Y-126619047D01*
X124333333Y-126619047D01*
X124142857Y-126714285D01*
X124047619Y-126809523D01*
X123952380Y-127000000D01*
X123857142Y-127380952D01*
X123761904Y-127571428D01*
X123666666Y-127666666D01*
X123476190Y-127761904D01*
X123285714Y-127761904D01*
X123095238Y-127666666D01*
X123000000Y-127571428D01*
X122904761Y-127380952D01*
X122904761Y-126904761D01*
X123000000Y-126619047D01*
X123761904Y-125476190D02*
X123666666Y-125666666D01*
X123571428Y-125761904D01*
X123380952Y-125857142D01*
X123285714Y-125857142D01*
X123095238Y-125761904D01*
X123000000Y-125666666D01*
X122904761Y-125476190D01*
X122904761Y-125095238D01*
X123000000Y-124904761D01*
X123095238Y-124809523D01*
X123285714Y-124714285D01*
X123380952Y-124714285D01*
X123571428Y-124809523D01*
X123666666Y-124904761D01*
X123761904Y-125095238D01*
X123761904Y-125476190D01*
X123857142Y-125666666D01*
X123952380Y-125761904D01*
X124142857Y-125857142D01*
X124523809Y-125857142D01*
X124714285Y-125761904D01*
X124809523Y-125666666D01*
X124904761Y-125476190D01*
X124904761Y-125095238D01*
X124809523Y-124904761D01*
X124714285Y-124809523D01*
X124523809Y-124714285D01*
X124142857Y-124714285D01*
X123952380Y-124809523D01*
X123857142Y-124904761D01*
X123761904Y-125095238D01*
X122904761Y-123000000D02*
X122904761Y-123380952D01*
X123000000Y-123571428D01*
X123095238Y-123666666D01*
X123380952Y-123857142D01*
X123761904Y-123952380D01*
X124523809Y-123952380D01*
X124714285Y-123857142D01*
X124809523Y-123761904D01*
X124904761Y-123571428D01*
X124904761Y-123190476D01*
X124809523Y-123000000D01*
X124714285Y-122904761D01*
X124523809Y-122809523D01*
X124047619Y-122809523D01*
X123857142Y-122904761D01*
X123761904Y-123000000D01*
X123666666Y-123190476D01*
X123666666Y-123571428D01*
X123761904Y-123761904D01*
X123857142Y-123857142D01*
X124047619Y-123952380D01*
X88904761Y-133285714D02*
X88904761Y-131952380D01*
X90904761Y-132809523D01*
X89571428Y-130333333D02*
X90904761Y-130333333D01*
X88809523Y-130809523D02*
X90238095Y-131285714D01*
X90238095Y-130047619D01*
X90904761Y-128333333D02*
X90904761Y-129285714D01*
X88904761Y-129285714D01*
X90809523Y-127761904D02*
X90904761Y-127476190D01*
X90904761Y-127000000D01*
X90809523Y-126809523D01*
X90714285Y-126714285D01*
X90523809Y-126619047D01*
X90333333Y-126619047D01*
X90142857Y-126714285D01*
X90047619Y-126809523D01*
X89952380Y-127000000D01*
X89857142Y-127380952D01*
X89761904Y-127571428D01*
X89666666Y-127666666D01*
X89476190Y-127761904D01*
X89285714Y-127761904D01*
X89095238Y-127666666D01*
X89000000Y-127571428D01*
X88904761Y-127380952D01*
X88904761Y-126904761D01*
X89000000Y-126619047D01*
X89761904Y-125476190D02*
X89666666Y-125666666D01*
X89571428Y-125761904D01*
X89380952Y-125857142D01*
X89285714Y-125857142D01*
X89095238Y-125761904D01*
X89000000Y-125666666D01*
X88904761Y-125476190D01*
X88904761Y-125095238D01*
X89000000Y-124904761D01*
X89095238Y-124809523D01*
X89285714Y-124714285D01*
X89380952Y-124714285D01*
X89571428Y-124809523D01*
X89666666Y-124904761D01*
X89761904Y-125095238D01*
X89761904Y-125476190D01*
X89857142Y-125666666D01*
X89952380Y-125761904D01*
X90142857Y-125857142D01*
X90523809Y-125857142D01*
X90714285Y-125761904D01*
X90809523Y-125666666D01*
X90904761Y-125476190D01*
X90904761Y-125095238D01*
X90809523Y-124904761D01*
X90714285Y-124809523D01*
X90523809Y-124714285D01*
X90142857Y-124714285D01*
X89952380Y-124809523D01*
X89857142Y-124904761D01*
X89761904Y-125095238D01*
X88904761Y-123000000D02*
X88904761Y-123380952D01*
X89000000Y-123571428D01*
X89095238Y-123666666D01*
X89380952Y-123857142D01*
X89761904Y-123952380D01*
X90523809Y-123952380D01*
X90714285Y-123857142D01*
X90809523Y-123761904D01*
X90904761Y-123571428D01*
X90904761Y-123190476D01*
X90809523Y-123000000D01*
X90714285Y-122904761D01*
X90523809Y-122809523D01*
X90047619Y-122809523D01*
X89857142Y-122904761D01*
X89761904Y-123000000D01*
X89666666Y-123190476D01*
X89666666Y-123571428D01*
X89761904Y-123761904D01*
X89857142Y-123857142D01*
X90047619Y-123952380D01*
X71904761Y-133285714D02*
X71904761Y-131952380D01*
X73904761Y-132809523D01*
X72571428Y-130333333D02*
X73904761Y-130333333D01*
X71809523Y-130809523D02*
X73238095Y-131285714D01*
X73238095Y-130047619D01*
X73904761Y-128333333D02*
X73904761Y-129285714D01*
X71904761Y-129285714D01*
X73809523Y-127761904D02*
X73904761Y-127476190D01*
X73904761Y-127000000D01*
X73809523Y-126809523D01*
X73714285Y-126714285D01*
X73523809Y-126619047D01*
X73333333Y-126619047D01*
X73142857Y-126714285D01*
X73047619Y-126809523D01*
X72952380Y-127000000D01*
X72857142Y-127380952D01*
X72761904Y-127571428D01*
X72666666Y-127666666D01*
X72476190Y-127761904D01*
X72285714Y-127761904D01*
X72095238Y-127666666D01*
X72000000Y-127571428D01*
X71904761Y-127380952D01*
X71904761Y-126904761D01*
X72000000Y-126619047D01*
X72761904Y-125476190D02*
X72666666Y-125666666D01*
X72571428Y-125761904D01*
X72380952Y-125857142D01*
X72285714Y-125857142D01*
X72095238Y-125761904D01*
X72000000Y-125666666D01*
X71904761Y-125476190D01*
X71904761Y-125095238D01*
X72000000Y-124904761D01*
X72095238Y-124809523D01*
X72285714Y-124714285D01*
X72380952Y-124714285D01*
X72571428Y-124809523D01*
X72666666Y-124904761D01*
X72761904Y-125095238D01*
X72761904Y-125476190D01*
X72857142Y-125666666D01*
X72952380Y-125761904D01*
X73142857Y-125857142D01*
X73523809Y-125857142D01*
X73714285Y-125761904D01*
X73809523Y-125666666D01*
X73904761Y-125476190D01*
X73904761Y-125095238D01*
X73809523Y-124904761D01*
X73714285Y-124809523D01*
X73523809Y-124714285D01*
X73142857Y-124714285D01*
X72952380Y-124809523D01*
X72857142Y-124904761D01*
X72761904Y-125095238D01*
X71904761Y-123000000D02*
X71904761Y-123380952D01*
X72000000Y-123571428D01*
X72095238Y-123666666D01*
X72380952Y-123857142D01*
X72761904Y-123952380D01*
X73523809Y-123952380D01*
X73714285Y-123857142D01*
X73809523Y-123761904D01*
X73904761Y-123571428D01*
X73904761Y-123190476D01*
X73809523Y-123000000D01*
X73714285Y-122904761D01*
X73523809Y-122809523D01*
X73047619Y-122809523D01*
X72857142Y-122904761D01*
X72761904Y-123000000D01*
X72666666Y-123190476D01*
X72666666Y-123571428D01*
X72761904Y-123761904D01*
X72857142Y-123857142D01*
X73047619Y-123952380D01*
X139904761Y-75523809D02*
X139904761Y-74190476D01*
X141904761Y-75047619D01*
X140571428Y-72571428D02*
X141904761Y-72571428D01*
X139809523Y-73047619D02*
X141238095Y-73523809D01*
X141238095Y-72285714D01*
X141904761Y-70476190D02*
X141904761Y-71619047D01*
X141904761Y-71047619D02*
X139904761Y-71047619D01*
X140190476Y-71238095D01*
X140380952Y-71428571D01*
X140476190Y-71619047D01*
X139904761Y-69809523D02*
X139904761Y-68476190D01*
X141904761Y-69333333D01*
X122904761Y-77285714D02*
X122904761Y-75952380D01*
X124904761Y-76809523D01*
X123571428Y-74333333D02*
X124904761Y-74333333D01*
X122809523Y-74809523D02*
X124238095Y-75285714D01*
X124238095Y-74047619D01*
X124904761Y-72333333D02*
X124904761Y-73285714D01*
X122904761Y-73285714D01*
X124809523Y-71761904D02*
X124904761Y-71476190D01*
X124904761Y-71000000D01*
X124809523Y-70809523D01*
X124714285Y-70714285D01*
X124523809Y-70619047D01*
X124333333Y-70619047D01*
X124142857Y-70714285D01*
X124047619Y-70809523D01*
X123952380Y-71000000D01*
X123857142Y-71380952D01*
X123761904Y-71571428D01*
X123666666Y-71666666D01*
X123476190Y-71761904D01*
X123285714Y-71761904D01*
X123095238Y-71666666D01*
X123000000Y-71571428D01*
X122904761Y-71380952D01*
X122904761Y-70904761D01*
X123000000Y-70619047D01*
X122904761Y-69952380D02*
X122904761Y-68714285D01*
X123666666Y-69380952D01*
X123666666Y-69095238D01*
X123761904Y-68904761D01*
X123857142Y-68809523D01*
X124047619Y-68714285D01*
X124523809Y-68714285D01*
X124714285Y-68809523D01*
X124809523Y-68904761D01*
X124904761Y-69095238D01*
X124904761Y-69666666D01*
X124809523Y-69857142D01*
X124714285Y-69952380D01*
X123095238Y-67952380D02*
X123000000Y-67857142D01*
X122904761Y-67666666D01*
X122904761Y-67190476D01*
X123000000Y-67000000D01*
X123095238Y-66904761D01*
X123285714Y-66809523D01*
X123476190Y-66809523D01*
X123761904Y-66904761D01*
X124904761Y-68047619D01*
X124904761Y-66809523D01*
X105904761Y-78238095D02*
X105904761Y-76904761D01*
X107904761Y-77761904D01*
X106571428Y-75285714D02*
X107904761Y-75285714D01*
X105809523Y-75761904D02*
X107238095Y-76238095D01*
X107238095Y-75000000D01*
X107904761Y-73285714D02*
X107904761Y-74238095D01*
X105904761Y-74238095D01*
X107809523Y-72714285D02*
X107904761Y-72428571D01*
X107904761Y-71952380D01*
X107809523Y-71761904D01*
X107714285Y-71666666D01*
X107523809Y-71571428D01*
X107333333Y-71571428D01*
X107142857Y-71666666D01*
X107047619Y-71761904D01*
X106952380Y-71952380D01*
X106857142Y-72333333D01*
X106761904Y-72523809D01*
X106666666Y-72619047D01*
X106476190Y-72714285D01*
X106285714Y-72714285D01*
X106095238Y-72619047D01*
X106000000Y-72523809D01*
X105904761Y-72333333D01*
X105904761Y-71857142D01*
X106000000Y-71571428D01*
X107904761Y-69666666D02*
X107904761Y-70809523D01*
X107904761Y-70238095D02*
X105904761Y-70238095D01*
X106190476Y-70428571D01*
X106380952Y-70619047D01*
X106476190Y-70809523D01*
X105904761Y-68428571D02*
X105904761Y-68238095D01*
X106000000Y-68047619D01*
X106095238Y-67952380D01*
X106285714Y-67857142D01*
X106666666Y-67761904D01*
X107142857Y-67761904D01*
X107523809Y-67857142D01*
X107714285Y-67952380D01*
X107809523Y-68047619D01*
X107904761Y-68238095D01*
X107904761Y-68428571D01*
X107809523Y-68619047D01*
X107714285Y-68714285D01*
X107523809Y-68809523D01*
X107142857Y-68904761D01*
X106666666Y-68904761D01*
X106285714Y-68809523D01*
X106095238Y-68714285D01*
X106000000Y-68619047D01*
X105904761Y-68428571D01*
X105904761Y-67095238D02*
X105904761Y-65761904D01*
X107904761Y-66619047D01*
X88904761Y-77285714D02*
X88904761Y-75952380D01*
X90904761Y-76809523D01*
X89571428Y-74333333D02*
X90904761Y-74333333D01*
X88809523Y-74809523D02*
X90238095Y-75285714D01*
X90238095Y-74047619D01*
X90904761Y-72333333D02*
X90904761Y-73285714D01*
X88904761Y-73285714D01*
X90809523Y-71761904D02*
X90904761Y-71476190D01*
X90904761Y-71000000D01*
X90809523Y-70809523D01*
X90714285Y-70714285D01*
X90523809Y-70619047D01*
X90333333Y-70619047D01*
X90142857Y-70714285D01*
X90047619Y-70809523D01*
X89952380Y-71000000D01*
X89857142Y-71380952D01*
X89761904Y-71571428D01*
X89666666Y-71666666D01*
X89476190Y-71761904D01*
X89285714Y-71761904D01*
X89095238Y-71666666D01*
X89000000Y-71571428D01*
X88904761Y-71380952D01*
X88904761Y-70904761D01*
X89000000Y-70619047D01*
X88904761Y-69380952D02*
X88904761Y-69190476D01*
X89000000Y-69000000D01*
X89095238Y-68904761D01*
X89285714Y-68809523D01*
X89666666Y-68714285D01*
X90142857Y-68714285D01*
X90523809Y-68809523D01*
X90714285Y-68904761D01*
X90809523Y-69000000D01*
X90904761Y-69190476D01*
X90904761Y-69380952D01*
X90809523Y-69571428D01*
X90714285Y-69666666D01*
X90523809Y-69761904D01*
X90142857Y-69857142D01*
X89666666Y-69857142D01*
X89285714Y-69761904D01*
X89095238Y-69666666D01*
X89000000Y-69571428D01*
X88904761Y-69380952D01*
X89571428Y-67000000D02*
X90904761Y-67000000D01*
X88809523Y-67476190D02*
X90238095Y-67952380D01*
X90238095Y-66714285D01*
X71904761Y-77285714D02*
X71904761Y-75952380D01*
X73904761Y-76809523D01*
X72571428Y-74333333D02*
X73904761Y-74333333D01*
X71809523Y-74809523D02*
X73238095Y-75285714D01*
X73238095Y-74047619D01*
X73904761Y-72333333D02*
X73904761Y-73285714D01*
X71904761Y-73285714D01*
X73809523Y-71761904D02*
X73904761Y-71476190D01*
X73904761Y-71000000D01*
X73809523Y-70809523D01*
X73714285Y-70714285D01*
X73523809Y-70619047D01*
X73333333Y-70619047D01*
X73142857Y-70714285D01*
X73047619Y-70809523D01*
X72952380Y-71000000D01*
X72857142Y-71380952D01*
X72761904Y-71571428D01*
X72666666Y-71666666D01*
X72476190Y-71761904D01*
X72285714Y-71761904D01*
X72095238Y-71666666D01*
X72000000Y-71571428D01*
X71904761Y-71380952D01*
X71904761Y-70904761D01*
X72000000Y-70619047D01*
X71904761Y-69380952D02*
X71904761Y-69190476D01*
X72000000Y-69000000D01*
X72095238Y-68904761D01*
X72285714Y-68809523D01*
X72666666Y-68714285D01*
X73142857Y-68714285D01*
X73523809Y-68809523D01*
X73714285Y-68904761D01*
X73809523Y-69000000D01*
X73904761Y-69190476D01*
X73904761Y-69380952D01*
X73809523Y-69571428D01*
X73714285Y-69666666D01*
X73523809Y-69761904D01*
X73142857Y-69857142D01*
X72666666Y-69857142D01*
X72285714Y-69761904D01*
X72095238Y-69666666D01*
X72000000Y-69571428D01*
X71904761Y-69380952D01*
X72571428Y-67000000D02*
X73904761Y-67000000D01*
X71809523Y-67476190D02*
X73238095Y-67952380D01*
X73238095Y-66714285D01*
D14*
X60666071Y-147571428D02*
X60523214Y-147714285D01*
X60094642Y-147857142D01*
X59808928Y-147857142D01*
X59380357Y-147714285D01*
X59094642Y-147428571D01*
X58951785Y-147142857D01*
X58808928Y-146571428D01*
X58808928Y-146142857D01*
X58951785Y-145571428D01*
X59094642Y-145285714D01*
X59380357Y-145000000D01*
X59808928Y-144857142D01*
X60094642Y-144857142D01*
X60523214Y-145000000D01*
X60666071Y-145142857D01*
X61951785Y-147857142D02*
X61951785Y-145857142D01*
X61951785Y-144857142D02*
X61808928Y-145000000D01*
X61951785Y-145142857D01*
X62094642Y-145000000D01*
X61951785Y-144857142D01*
X61951785Y-145142857D01*
X63380357Y-145857142D02*
X63380357Y-147857142D01*
X63380357Y-146142857D02*
X63523214Y-146000000D01*
X63808928Y-145857142D01*
X64237500Y-145857142D01*
X64523214Y-146000000D01*
X64666071Y-146285714D01*
X64666071Y-147857142D01*
X67237500Y-147714285D02*
X66951785Y-147857142D01*
X66380357Y-147857142D01*
X66094642Y-147714285D01*
X65951785Y-147428571D01*
X65951785Y-146285714D01*
X66094642Y-146000000D01*
X66380357Y-145857142D01*
X66951785Y-145857142D01*
X67237500Y-146000000D01*
X67380357Y-146285714D01*
X67380357Y-146571428D01*
X65951785Y-146857142D01*
X68666071Y-147857142D02*
X68666071Y-145857142D01*
X68666071Y-146142857D02*
X68808928Y-146000000D01*
X69094642Y-145857142D01*
X69523214Y-145857142D01*
X69808928Y-146000000D01*
X69951785Y-146285714D01*
X69951785Y-147857142D01*
X69951785Y-146285714D02*
X70094642Y-146000000D01*
X70380357Y-145857142D01*
X70808928Y-145857142D01*
X71094642Y-146000000D01*
X71237500Y-146285714D01*
X71237500Y-147857142D01*
X73951785Y-147857142D02*
X73951785Y-146285714D01*
X73808928Y-146000000D01*
X73523214Y-145857142D01*
X72951785Y-145857142D01*
X72666071Y-146000000D01*
X73951785Y-147714285D02*
X73666071Y-147857142D01*
X72951785Y-147857142D01*
X72666071Y-147714285D01*
X72523214Y-147428571D01*
X72523214Y-147142857D01*
X72666071Y-146857142D01*
X72951785Y-146714285D01*
X73666071Y-146714285D01*
X73951785Y-146571428D01*
X74951785Y-145857142D02*
X76094642Y-145857142D01*
X75380357Y-144857142D02*
X75380357Y-147428571D01*
X75523214Y-147714285D01*
X75808928Y-147857142D01*
X76094642Y-147857142D01*
X77094642Y-147857142D02*
X77094642Y-145857142D01*
X77094642Y-146428571D02*
X77237500Y-146142857D01*
X77380357Y-146000000D01*
X77666071Y-145857142D01*
X77951785Y-145857142D01*
X79380357Y-147857142D02*
X79094642Y-147714285D01*
X78951785Y-147571428D01*
X78808928Y-147285714D01*
X78808928Y-146428571D01*
X78951785Y-146142857D01*
X79094642Y-146000000D01*
X79380357Y-145857142D01*
X79808928Y-145857142D01*
X80094642Y-146000000D01*
X80237500Y-146142857D01*
X80380357Y-146428571D01*
X80380357Y-147285714D01*
X80237500Y-147571428D01*
X80094642Y-147714285D01*
X79808928Y-147857142D01*
X79380357Y-147857142D01*
X81666071Y-145857142D02*
X81666071Y-147857142D01*
X81666071Y-146142857D02*
X81808928Y-146000000D01*
X82094642Y-145857142D01*
X82523214Y-145857142D01*
X82808928Y-146000000D01*
X82951785Y-146285714D01*
X82951785Y-147857142D01*
X84380357Y-147857142D02*
X84380357Y-145857142D01*
X84380357Y-144857142D02*
X84237500Y-145000000D01*
X84380357Y-145142857D01*
X84523214Y-145000000D01*
X84380357Y-144857142D01*
X84380357Y-145142857D01*
X87094642Y-147714285D02*
X86808928Y-147857142D01*
X86237500Y-147857142D01*
X85951785Y-147714285D01*
X85808928Y-147571428D01*
X85666071Y-147285714D01*
X85666071Y-146428571D01*
X85808928Y-146142857D01*
X85951785Y-146000000D01*
X86237500Y-145857142D01*
X86808928Y-145857142D01*
X87094642Y-146000000D01*
X88237500Y-147714285D02*
X88523214Y-147857142D01*
X89094642Y-147857142D01*
X89380357Y-147714285D01*
X89523214Y-147428571D01*
X89523214Y-147285714D01*
X89380357Y-147000000D01*
X89094642Y-146857142D01*
X88666071Y-146857142D01*
X88380357Y-146714285D01*
X88237500Y-146428571D01*
X88237500Y-146285714D01*
X88380357Y-146000000D01*
X88666071Y-145857142D01*
X89094642Y-145857142D01*
X89380357Y-146000000D01*
X94808928Y-147571428D02*
X94666071Y-147714285D01*
X94237500Y-147857142D01*
X93951785Y-147857142D01*
X93523214Y-147714285D01*
X93237500Y-147428571D01*
X93094642Y-147142857D01*
X92951785Y-146571428D01*
X92951785Y-146142857D01*
X93094642Y-145571428D01*
X93237500Y-145285714D01*
X93523214Y-145000000D01*
X93951785Y-144857142D01*
X94237500Y-144857142D01*
X94666071Y-145000000D01*
X94808928Y-145142857D01*
X97808928Y-147571428D02*
X97666071Y-147714285D01*
X97237500Y-147857142D01*
X96951785Y-147857142D01*
X96523214Y-147714285D01*
X96237500Y-147428571D01*
X96094642Y-147142857D01*
X95951785Y-146571428D01*
X95951785Y-146142857D01*
X96094642Y-145571428D01*
X96237500Y-145285714D01*
X96523214Y-145000000D01*
X96951785Y-144857142D01*
X97237500Y-144857142D01*
X97666071Y-145000000D01*
X97808928Y-145142857D01*
X99094642Y-147857142D02*
X99094642Y-144857142D01*
X100237500Y-144857142D01*
X100523214Y-145000000D01*
X100666071Y-145142857D01*
X100808928Y-145428571D01*
X100808928Y-145857142D01*
X100666071Y-146142857D01*
X100523214Y-146285714D01*
X100237500Y-146428571D01*
X99094642Y-146428571D01*
X102094642Y-144857142D02*
X102094642Y-147285714D01*
X102237500Y-147571428D01*
X102380357Y-147714285D01*
X102666071Y-147857142D01*
X103237500Y-147857142D01*
X103523214Y-147714285D01*
X103666071Y-147571428D01*
X103808928Y-147285714D01*
X103808928Y-144857142D01*
X107523214Y-146285714D02*
X108523214Y-146285714D01*
X108951785Y-147857142D02*
X107523214Y-147857142D01*
X107523214Y-144857142D01*
X108951785Y-144857142D01*
X109951785Y-147857142D02*
X111523214Y-145857142D01*
X109951785Y-145857142D02*
X111523214Y-147857142D01*
X113094642Y-147857142D02*
X112808928Y-147714285D01*
X112666071Y-147571428D01*
X112523214Y-147285714D01*
X112523214Y-146428571D01*
X112666071Y-146142857D01*
X112808928Y-146000000D01*
X113094642Y-145857142D01*
X113523214Y-145857142D01*
X113808928Y-146000000D01*
X113951785Y-146142857D01*
X114094642Y-146428571D01*
X114094642Y-147285714D01*
X113951785Y-147571428D01*
X113808928Y-147714285D01*
X113523214Y-147857142D01*
X113094642Y-147857142D01*
X115380357Y-147857142D02*
X115380357Y-145857142D01*
X115380357Y-146428571D02*
X115523214Y-146142857D01*
X115666071Y-146000000D01*
X115951785Y-145857142D01*
X116237500Y-145857142D01*
X118523214Y-147714285D02*
X118237500Y-147857142D01*
X117666071Y-147857142D01*
X117380357Y-147714285D01*
X117237500Y-147571428D01*
X117094642Y-147285714D01*
X117094642Y-146428571D01*
X117237500Y-146142857D01*
X117380357Y-146000000D01*
X117666071Y-145857142D01*
X118237500Y-145857142D01*
X118523214Y-146000000D01*
X119808928Y-147857142D02*
X119808928Y-145857142D01*
X119808928Y-144857142D02*
X119666071Y-145000000D01*
X119808928Y-145142857D01*
X119951785Y-145000000D01*
X119808928Y-144857142D01*
X119808928Y-145142857D01*
X121094642Y-147714285D02*
X121380357Y-147857142D01*
X121951785Y-147857142D01*
X122237500Y-147714285D01*
X122380357Y-147428571D01*
X122380357Y-147285714D01*
X122237500Y-147000000D01*
X121951785Y-146857142D01*
X121523214Y-146857142D01*
X121237500Y-146714285D01*
X121094642Y-146428571D01*
X121094642Y-146285714D01*
X121237500Y-146000000D01*
X121523214Y-145857142D01*
X121951785Y-145857142D01*
X122237500Y-146000000D01*
X124094642Y-147857142D02*
X123808928Y-147714285D01*
X123666071Y-147571428D01*
X123523214Y-147285714D01*
X123523214Y-146428571D01*
X123666071Y-146142857D01*
X123808928Y-146000000D01*
X124094642Y-145857142D01*
X124523214Y-145857142D01*
X124808928Y-146000000D01*
X124951785Y-146142857D01*
X125094642Y-146428571D01*
X125094642Y-147285714D01*
X124951785Y-147571428D01*
X124808928Y-147714285D01*
X124523214Y-147857142D01*
X124094642Y-147857142D01*
X126380357Y-147857142D02*
X126380357Y-145857142D01*
X126380357Y-146428571D02*
X126523214Y-146142857D01*
X126666071Y-146000000D01*
X126951785Y-145857142D01*
X127237499Y-145857142D01*
D15*
X52380952Y-52595238D02*
X53333333Y-52595238D01*
X53428571Y-51642857D01*
X53333333Y-51738095D01*
X53142857Y-51833333D01*
X52666666Y-51833333D01*
X52476190Y-51738095D01*
X52380952Y-51642857D01*
X52285714Y-51452380D01*
X52285714Y-50976190D01*
X52380952Y-50785714D01*
X52476190Y-50690476D01*
X52666666Y-50595238D01*
X53142857Y-50595238D01*
X53333333Y-50690476D01*
X53428571Y-50785714D01*
X51714285Y-52595238D02*
X51047619Y-50595238D01*
X50380952Y-52595238D01*
X59023809Y-52500000D02*
X59214285Y-52595238D01*
X59500000Y-52595238D01*
X59785714Y-52500000D01*
X59976190Y-52309523D01*
X60071428Y-52119047D01*
X60166666Y-51738095D01*
X60166666Y-51452380D01*
X60071428Y-51071428D01*
X59976190Y-50880952D01*
X59785714Y-50690476D01*
X59500000Y-50595238D01*
X59309523Y-50595238D01*
X59023809Y-50690476D01*
X58928571Y-50785714D01*
X58928571Y-51452380D01*
X59309523Y-51452380D01*
X58071428Y-50595238D02*
X58071428Y-52595238D01*
X56928571Y-50595238D01*
X56928571Y-52595238D01*
X55976190Y-50595238D02*
X55976190Y-52595238D01*
X55500000Y-52595238D01*
X55214285Y-52500000D01*
X55023809Y-52309523D01*
X54928571Y-52119047D01*
X54833333Y-51738095D01*
X54833333Y-51452380D01*
X54928571Y-51071428D01*
X55023809Y-50880952D01*
X55214285Y-50690476D01*
X55500000Y-50595238D01*
X55976190Y-50595238D01*
X97571428Y-51190476D02*
X97285714Y-51095238D01*
X96809523Y-51095238D01*
X96619047Y-51190476D01*
X96523809Y-51285714D01*
X96428571Y-51476190D01*
X96428571Y-51666666D01*
X96523809Y-51857142D01*
X96619047Y-51952380D01*
X96809523Y-52047619D01*
X97190476Y-52142857D01*
X97380952Y-52238095D01*
X97476190Y-52333333D01*
X97571428Y-52523809D01*
X97571428Y-52714285D01*
X97476190Y-52904761D01*
X97380952Y-53000000D01*
X97190476Y-53095238D01*
X96714285Y-53095238D01*
X96428571Y-53000000D01*
X94142857Y-53190476D02*
X95857142Y-50619047D01*
X93571428Y-51190476D02*
X93285714Y-51095238D01*
X92809523Y-51095238D01*
X92619047Y-51190476D01*
X92523809Y-51285714D01*
X92428571Y-51476190D01*
X92428571Y-51666666D01*
X92523809Y-51857142D01*
X92619047Y-51952380D01*
X92809523Y-52047619D01*
X93190476Y-52142857D01*
X93380952Y-52238095D01*
X93476190Y-52333333D01*
X93571428Y-52523809D01*
X93571428Y-52714285D01*
X93476190Y-52904761D01*
X93380952Y-53000000D01*
X93190476Y-53095238D01*
X92714285Y-53095238D01*
X92428571Y-53000000D01*
X102690476Y-51285714D02*
X102785714Y-51190476D01*
X103071428Y-51095238D01*
X103261904Y-51095238D01*
X103547619Y-51190476D01*
X103738095Y-51380952D01*
X103833333Y-51571428D01*
X103928571Y-51952380D01*
X103928571Y-52238095D01*
X103833333Y-52619047D01*
X103738095Y-52809523D01*
X103547619Y-53000000D01*
X103261904Y-53095238D01*
X103071428Y-53095238D01*
X102785714Y-53000000D01*
X102690476Y-52904761D01*
X100880952Y-51095238D02*
X101833333Y-51095238D01*
X101833333Y-53095238D01*
X100214285Y-51095238D02*
X100214285Y-53095238D01*
X99071428Y-51095238D02*
X99928571Y-52238095D01*
X99071428Y-53095238D02*
X100214285Y-51952380D01*
X109190476Y-51285714D02*
X109285714Y-51190476D01*
X109571428Y-51095238D01*
X109761904Y-51095238D01*
X110047619Y-51190476D01*
X110238095Y-51380952D01*
X110333333Y-51571428D01*
X110428571Y-51952380D01*
X110428571Y-52238095D01*
X110333333Y-52619047D01*
X110238095Y-52809523D01*
X110047619Y-53000000D01*
X109761904Y-53095238D01*
X109571428Y-53095238D01*
X109285714Y-53000000D01*
X109190476Y-52904761D01*
X107380952Y-51095238D02*
X108333333Y-51095238D01*
X108333333Y-53095238D01*
X106714285Y-51095238D02*
X106714285Y-53095238D01*
X105571428Y-51095238D02*
X106428571Y-52238095D01*
X105571428Y-53095238D02*
X106714285Y-51952380D01*
X116523809Y-53000000D02*
X116714285Y-53095238D01*
X117000000Y-53095238D01*
X117285714Y-53000000D01*
X117476190Y-52809523D01*
X117571428Y-52619047D01*
X117666666Y-52238095D01*
X117666666Y-51952380D01*
X117571428Y-51571428D01*
X117476190Y-51380952D01*
X117285714Y-51190476D01*
X117000000Y-51095238D01*
X116809523Y-51095238D01*
X116523809Y-51190476D01*
X116428571Y-51285714D01*
X116428571Y-51952380D01*
X116809523Y-51952380D01*
X115571428Y-51095238D02*
X115571428Y-53095238D01*
X114428571Y-51095238D01*
X114428571Y-53095238D01*
X113476190Y-51095238D02*
X113476190Y-53095238D01*
X113000000Y-53095238D01*
X112714285Y-53000000D01*
X112523809Y-52809523D01*
X112428571Y-52619047D01*
X112333333Y-52238095D01*
X112333333Y-51952380D01*
X112428571Y-51571428D01*
X112523809Y-51380952D01*
X112714285Y-51190476D01*
X113000000Y-51095238D01*
X113476190Y-51095238D01*
D16*
%TO.C,J3*%
X140670000Y-89420000D02*
X142000000Y-89420000D01*
X140670000Y-90750000D02*
X140670000Y-89420000D01*
X143270000Y-89420000D02*
X145870000Y-89420000D01*
X143270000Y-92020000D02*
X143270000Y-89420000D01*
X140670000Y-92020000D02*
X143270000Y-92020000D01*
X145870000Y-89420000D02*
X145870000Y-109860000D01*
X140670000Y-92020000D02*
X140670000Y-109860000D01*
X140670000Y-109860000D02*
X145870000Y-109860000D01*
X58920000Y-89420000D02*
X60250000Y-89420000D01*
X58920000Y-90750000D02*
X58920000Y-89420000D01*
X61520000Y-89420000D02*
X64120000Y-89420000D01*
X61520000Y-92020000D02*
X61520000Y-89420000D01*
X58920000Y-92020000D02*
X61520000Y-92020000D01*
X64120000Y-89420000D02*
X64120000Y-109860000D01*
X58920000Y-92020000D02*
X58920000Y-109860000D01*
X58920000Y-109860000D02*
X64120000Y-109860000D01*
%TO.C,C2*%
X56461252Y-58340000D02*
X55038748Y-58340000D01*
X56461252Y-60160000D02*
X55038748Y-60160000D01*
%TO.C,C6*%
X105711252Y-81590000D02*
X104288748Y-81590000D01*
X105711252Y-83410000D02*
X104288748Y-83410000D01*
%TO.C,UB5*%
X126060000Y-89170000D02*
X124810000Y-89170000D01*
X126060000Y-109610000D02*
X126060000Y-89170000D01*
X121560000Y-109610000D02*
X126060000Y-109610000D01*
X121560000Y-89170000D02*
X121560000Y-109610000D01*
X122810000Y-89170000D02*
X121560000Y-89170000D01*
X124810000Y-89170000D02*
G75*
G02*
X122810000Y-89170000I-1000000J0D01*
G01*
%TO.C,J5*%
X118350000Y-47700000D02*
X139150000Y-47700000D01*
X139150000Y-47700000D02*
X139150000Y-52750000D01*
X139150000Y-52750000D02*
X138650000Y-52500000D01*
X138650000Y-52500000D02*
X138650000Y-57900000D01*
X138650000Y-57900000D02*
X139200000Y-57600000D01*
X139200000Y-57600000D02*
X139200000Y-59650000D01*
X139200000Y-59650000D02*
X138650000Y-59350000D01*
X138650000Y-59350000D02*
X138650000Y-60300000D01*
X138650000Y-60300000D02*
X118350000Y-60300000D01*
X118350000Y-60300000D02*
X118350000Y-47700000D01*
%TO.C,J4*%
X60350000Y-47700000D02*
X60350000Y-60300000D01*
X60350000Y-60300000D02*
X70700000Y-60300000D01*
X70700000Y-60300000D02*
X70700000Y-59350000D01*
X70700000Y-59350000D02*
X71200000Y-59600000D01*
X71200000Y-59600000D02*
X71200000Y-57700000D01*
X71200000Y-57700000D02*
X71200000Y-57650000D01*
X71200000Y-57650000D02*
X70700000Y-57900000D01*
X70700000Y-57900000D02*
X70700000Y-52500000D01*
X70700000Y-52500000D02*
X71200000Y-52800000D01*
X71200000Y-52800000D02*
X71200000Y-47700000D01*
X71200000Y-47700000D02*
X60350000Y-47700000D01*
%TO.C,J2*%
X50670000Y-116890000D02*
X52000000Y-116890000D01*
X50670000Y-118220000D02*
X50670000Y-116890000D01*
X53270000Y-116890000D02*
X55870000Y-116890000D01*
X53270000Y-119490000D02*
X53270000Y-116890000D01*
X50670000Y-119490000D02*
X53270000Y-119490000D01*
X55870000Y-116890000D02*
X55870000Y-137330000D01*
X50670000Y-119490000D02*
X50670000Y-137330000D01*
X50670000Y-137330000D02*
X55870000Y-137330000D01*
%TO.C,J3*%
X50670000Y-89420000D02*
X52000000Y-89420000D01*
X50670000Y-90750000D02*
X50670000Y-89420000D01*
X53270000Y-89420000D02*
X55870000Y-89420000D01*
X53270000Y-92020000D02*
X53270000Y-89420000D01*
X50670000Y-92020000D02*
X53270000Y-92020000D01*
X55870000Y-89420000D02*
X55870000Y-109860000D01*
X50670000Y-92020000D02*
X50670000Y-109860000D01*
X50670000Y-109860000D02*
X55870000Y-109860000D01*
%TO.C,J1*%
X50670000Y-62670000D02*
X52000000Y-62670000D01*
X50670000Y-64000000D02*
X50670000Y-62670000D01*
X53270000Y-62670000D02*
X55870000Y-62670000D01*
X53270000Y-65270000D02*
X53270000Y-62670000D01*
X50670000Y-65270000D02*
X53270000Y-65270000D01*
X55870000Y-62670000D02*
X55870000Y-83110000D01*
X50670000Y-65270000D02*
X50670000Y-83110000D01*
X50670000Y-83110000D02*
X55870000Y-83110000D01*
%TO.C,UB3*%
X92060000Y-89170000D02*
X90810000Y-89170000D01*
X92060000Y-109610000D02*
X92060000Y-89170000D01*
X87560000Y-109610000D02*
X92060000Y-109610000D01*
X87560000Y-89170000D02*
X87560000Y-109610000D01*
X88810000Y-89170000D02*
X87560000Y-89170000D01*
X90810000Y-89170000D02*
G75*
G02*
X88810000Y-89170000I-1000000J0D01*
G01*
%TO.C,C17*%
X139461252Y-138090000D02*
X138038748Y-138090000D01*
X139461252Y-139910000D02*
X138038748Y-139910000D01*
%TO.C,C16*%
X122461252Y-138090000D02*
X121038748Y-138090000D01*
X122461252Y-139910000D02*
X121038748Y-139910000D01*
%TO.C,C15*%
X105273752Y-138090000D02*
X103851248Y-138090000D01*
X105273752Y-139910000D02*
X103851248Y-139910000D01*
%TO.C,C14*%
X88273752Y-138090000D02*
X86851248Y-138090000D01*
X88273752Y-139910000D02*
X86851248Y-139910000D01*
%TO.C,UA5*%
X126060000Y-119170000D02*
X124810000Y-119170000D01*
X126060000Y-137070000D02*
X126060000Y-119170000D01*
X121560000Y-137070000D02*
X126060000Y-137070000D01*
X121560000Y-119170000D02*
X121560000Y-137070000D01*
X122810000Y-119170000D02*
X121560000Y-119170000D01*
X124810000Y-119170000D02*
G75*
G02*
X122810000Y-119170000I-1000000J0D01*
G01*
%TO.C,UC6*%
X143060000Y-62670000D02*
X141810000Y-62670000D01*
X143060000Y-80570000D02*
X143060000Y-62670000D01*
X138560000Y-80570000D02*
X143060000Y-80570000D01*
X138560000Y-62670000D02*
X138560000Y-80570000D01*
X139810000Y-62670000D02*
X138560000Y-62670000D01*
X141810000Y-62670000D02*
G75*
G02*
X139810000Y-62670000I-1000000J0D01*
G01*
%TO.C,UC5*%
X126060000Y-62670000D02*
X124810000Y-62670000D01*
X126060000Y-80570000D02*
X126060000Y-62670000D01*
X121560000Y-80570000D02*
X126060000Y-80570000D01*
X121560000Y-62670000D02*
X121560000Y-80570000D01*
X122810000Y-62670000D02*
X121560000Y-62670000D01*
X124810000Y-62670000D02*
G75*
G02*
X122810000Y-62670000I-1000000J0D01*
G01*
%TO.C,UC4*%
X109060000Y-62670000D02*
X107810000Y-62670000D01*
X109060000Y-80570000D02*
X109060000Y-62670000D01*
X104560000Y-80570000D02*
X109060000Y-80570000D01*
X104560000Y-62670000D02*
X104560000Y-80570000D01*
X105810000Y-62670000D02*
X104560000Y-62670000D01*
X107810000Y-62670000D02*
G75*
G02*
X105810000Y-62670000I-1000000J0D01*
G01*
%TO.C,UC3*%
X75060000Y-62670000D02*
X73810000Y-62670000D01*
X75060000Y-80570000D02*
X75060000Y-62670000D01*
X70560000Y-80570000D02*
X75060000Y-80570000D01*
X70560000Y-62670000D02*
X70560000Y-80570000D01*
X71810000Y-62670000D02*
X70560000Y-62670000D01*
X73810000Y-62670000D02*
G75*
G02*
X71810000Y-62670000I-1000000J0D01*
G01*
%TO.C,UC2*%
X92060000Y-62670000D02*
X90810000Y-62670000D01*
X92060000Y-80570000D02*
X92060000Y-62670000D01*
X87560000Y-80570000D02*
X92060000Y-80570000D01*
X87560000Y-62670000D02*
X87560000Y-80570000D01*
X88810000Y-62670000D02*
X87560000Y-62670000D01*
X90810000Y-62670000D02*
G75*
G02*
X88810000Y-62670000I-1000000J0D01*
G01*
%TO.C,UB4*%
X109060000Y-89170000D02*
X107810000Y-89170000D01*
X109060000Y-109610000D02*
X109060000Y-89170000D01*
X104560000Y-109610000D02*
X109060000Y-109610000D01*
X104560000Y-89170000D02*
X104560000Y-109610000D01*
X105810000Y-89170000D02*
X104560000Y-89170000D01*
X107810000Y-89170000D02*
G75*
G02*
X105810000Y-89170000I-1000000J0D01*
G01*
%TO.C,UB2*%
X75060000Y-89170000D02*
X73810000Y-89170000D01*
X75060000Y-109610000D02*
X75060000Y-89170000D01*
X70560000Y-109610000D02*
X75060000Y-109610000D01*
X70560000Y-89170000D02*
X70560000Y-109610000D01*
X71810000Y-89170000D02*
X70560000Y-89170000D01*
X73810000Y-89170000D02*
G75*
G02*
X71810000Y-89170000I-1000000J0D01*
G01*
%TO.C,UA6*%
X139810000Y-119170000D02*
X138560000Y-119170000D01*
X138560000Y-119170000D02*
X138560000Y-137070000D01*
X138560000Y-137070000D02*
X143060000Y-137070000D01*
X143060000Y-137070000D02*
X143060000Y-119170000D01*
X143060000Y-119170000D02*
X141810000Y-119170000D01*
X141810000Y-119170000D02*
G75*
G02*
X139810000Y-119170000I-1000000J0D01*
G01*
%TO.C,UA4*%
X109060000Y-119170000D02*
X107810000Y-119170000D01*
X109060000Y-137070000D02*
X109060000Y-119170000D01*
X104560000Y-137070000D02*
X109060000Y-137070000D01*
X104560000Y-119170000D02*
X104560000Y-137070000D01*
X105810000Y-119170000D02*
X104560000Y-119170000D01*
X107810000Y-119170000D02*
G75*
G02*
X105810000Y-119170000I-1000000J0D01*
G01*
%TO.C,UA3*%
X92060000Y-119170000D02*
X90810000Y-119170000D01*
X92060000Y-137070000D02*
X92060000Y-119170000D01*
X87560000Y-137070000D02*
X92060000Y-137070000D01*
X87560000Y-119170000D02*
X87560000Y-137070000D01*
X88810000Y-119170000D02*
X87560000Y-119170000D01*
X90810000Y-119170000D02*
G75*
G02*
X88810000Y-119170000I-1000000J0D01*
G01*
%TO.C,UA2*%
X75060000Y-119170000D02*
X73810000Y-119170000D01*
X75060000Y-137070000D02*
X75060000Y-119170000D01*
X70560000Y-137070000D02*
X75060000Y-137070000D01*
X70560000Y-119170000D02*
X70560000Y-137070000D01*
X71810000Y-119170000D02*
X70560000Y-119170000D01*
X73810000Y-119170000D02*
G75*
G02*
X71810000Y-119170000I-1000000J0D01*
G01*
%TO.C,R5*%
X82288748Y-58090000D02*
X83711252Y-58090000D01*
X82288748Y-59910000D02*
X83711252Y-59910000D01*
%TO.C,R4*%
X144788748Y-81590000D02*
X146211252Y-81590000D01*
X144788748Y-83410000D02*
X146211252Y-83410000D01*
%TO.C,R3*%
X140840000Y-58961252D02*
X140840000Y-57538748D01*
X142660000Y-58961252D02*
X142660000Y-57538748D01*
%TO.C,R2*%
X70288748Y-86910000D02*
X71711252Y-86910000D01*
X70288748Y-85090000D02*
X71711252Y-85090000D01*
%TO.C,R1*%
X132840000Y-81961252D02*
X132840000Y-80538748D01*
X134660000Y-81961252D02*
X134660000Y-80538748D01*
%TO.C,D1*%
X85770000Y-54000000D02*
G75*
G03*
X85770000Y-54000000I-2500000J0D01*
G01*
X80710000Y-52360000D02*
X80710000Y-55640000D01*
X86309999Y-54001958D02*
G75*
G03*
X80710000Y-52360488I-3039999J1958D01*
G01*
X86309999Y-53998042D02*
G75*
G02*
X80710000Y-55639512I-3039999J-1958D01*
G01*
%TO.C,C13*%
X71711252Y-138090000D02*
X70288748Y-138090000D01*
X71711252Y-139910000D02*
X70288748Y-139910000D01*
%TO.C,C12*%
X122711252Y-110590000D02*
X121288748Y-110590000D01*
X122711252Y-112410000D02*
X121288748Y-112410000D01*
%TO.C,C11*%
X105711252Y-110590000D02*
X104288748Y-110590000D01*
X105711252Y-112410000D02*
X104288748Y-112410000D01*
%TO.C,C10*%
X88711252Y-110590000D02*
X87288748Y-110590000D01*
X88711252Y-112410000D02*
X87288748Y-112410000D01*
%TO.C,C9*%
X71711252Y-110590000D02*
X70288748Y-110590000D01*
X71711252Y-112410000D02*
X70288748Y-112410000D01*
%TO.C,C8*%
X139711252Y-83410000D02*
X138288748Y-83410000D01*
X139711252Y-81590000D02*
X138288748Y-81590000D01*
%TO.C,C7*%
X122711252Y-81590000D02*
X121288748Y-81590000D01*
X122711252Y-83410000D02*
X121288748Y-83410000D01*
%TO.C,C5*%
X88711252Y-81590000D02*
X87288748Y-81590000D01*
X88711252Y-83410000D02*
X87288748Y-83410000D01*
%TO.C,C4*%
X71711252Y-81590000D02*
X70288748Y-81590000D01*
X71711252Y-83410000D02*
X70288748Y-83410000D01*
%TO.C,C3*%
X73846000Y-58435241D02*
X74476000Y-58435241D01*
X74161000Y-58750241D02*
X74161000Y-58120241D01*
X75598000Y-52009000D02*
X76402000Y-52009000D01*
X75367000Y-52049000D02*
X76633000Y-52049000D01*
X75198000Y-52089000D02*
X76802000Y-52089000D01*
X75060000Y-52129000D02*
X76940000Y-52129000D01*
X74941000Y-52169000D02*
X77059000Y-52169000D01*
X74835000Y-52209000D02*
X77165000Y-52209000D01*
X74738000Y-52249000D02*
X77262000Y-52249000D01*
X74650000Y-52289000D02*
X77350000Y-52289000D01*
X74568000Y-52329000D02*
X77432000Y-52329000D01*
X74491000Y-52369000D02*
X77509000Y-52369000D01*
X74419000Y-52409000D02*
X77581000Y-52409000D01*
X74350000Y-52449000D02*
X77650000Y-52449000D01*
X74286000Y-52489000D02*
X77714000Y-52489000D01*
X74224000Y-52529000D02*
X77776000Y-52529000D01*
X74166000Y-52569000D02*
X77834000Y-52569000D01*
X74110000Y-52609000D02*
X77890000Y-52609000D01*
X74056000Y-52649000D02*
X77944000Y-52649000D01*
X74005000Y-52689000D02*
X77995000Y-52689000D01*
X73956000Y-52729000D02*
X78044000Y-52729000D01*
X73908000Y-52769000D02*
X78092000Y-52769000D01*
X73863000Y-52809000D02*
X78137000Y-52809000D01*
X73818000Y-52849000D02*
X78182000Y-52849000D01*
X73776000Y-52889000D02*
X78224000Y-52889000D01*
X73735000Y-52929000D02*
X78265000Y-52929000D01*
X77040000Y-52969000D02*
X78305000Y-52969000D01*
X73695000Y-52969000D02*
X74960000Y-52969000D01*
X77040000Y-53009000D02*
X78343000Y-53009000D01*
X73657000Y-53009000D02*
X74960000Y-53009000D01*
X77040000Y-53049000D02*
X78380000Y-53049000D01*
X73620000Y-53049000D02*
X74960000Y-53049000D01*
X77040000Y-53089000D02*
X78416000Y-53089000D01*
X73584000Y-53089000D02*
X74960000Y-53089000D01*
X77040000Y-53129000D02*
X78450000Y-53129000D01*
X73550000Y-53129000D02*
X74960000Y-53129000D01*
X77040000Y-53169000D02*
X78484000Y-53169000D01*
X73516000Y-53169000D02*
X74960000Y-53169000D01*
X77040000Y-53209000D02*
X78516000Y-53209000D01*
X73484000Y-53209000D02*
X74960000Y-53209000D01*
X77040000Y-53249000D02*
X78548000Y-53249000D01*
X73452000Y-53249000D02*
X74960000Y-53249000D01*
X77040000Y-53289000D02*
X78578000Y-53289000D01*
X73422000Y-53289000D02*
X74960000Y-53289000D01*
X77040000Y-53329000D02*
X78607000Y-53329000D01*
X73393000Y-53329000D02*
X74960000Y-53329000D01*
X77040000Y-53369000D02*
X78636000Y-53369000D01*
X73364000Y-53369000D02*
X74960000Y-53369000D01*
X77040000Y-53409000D02*
X78664000Y-53409000D01*
X73336000Y-53409000D02*
X74960000Y-53409000D01*
X77040000Y-53449000D02*
X78690000Y-53449000D01*
X73310000Y-53449000D02*
X74960000Y-53449000D01*
X77040000Y-53489000D02*
X78716000Y-53489000D01*
X73284000Y-53489000D02*
X74960000Y-53489000D01*
X77040000Y-53529000D02*
X78742000Y-53529000D01*
X73258000Y-53529000D02*
X74960000Y-53529000D01*
X77040000Y-53569000D02*
X78766000Y-53569000D01*
X73234000Y-53569000D02*
X74960000Y-53569000D01*
X77040000Y-53609000D02*
X78790000Y-53609000D01*
X73210000Y-53609000D02*
X74960000Y-53609000D01*
X77040000Y-53649000D02*
X78812000Y-53649000D01*
X73188000Y-53649000D02*
X74960000Y-53649000D01*
X77040000Y-53689000D02*
X78834000Y-53689000D01*
X73166000Y-53689000D02*
X74960000Y-53689000D01*
X77040000Y-53729000D02*
X78856000Y-53729000D01*
X73144000Y-53729000D02*
X74960000Y-53729000D01*
X77040000Y-53769000D02*
X78876000Y-53769000D01*
X73124000Y-53769000D02*
X74960000Y-53769000D01*
X77040000Y-53809000D02*
X78896000Y-53809000D01*
X73104000Y-53809000D02*
X74960000Y-53809000D01*
X77040000Y-53849000D02*
X78916000Y-53849000D01*
X73084000Y-53849000D02*
X74960000Y-53849000D01*
X77040000Y-53889000D02*
X78934000Y-53889000D01*
X73066000Y-53889000D02*
X74960000Y-53889000D01*
X77040000Y-53929000D02*
X78952000Y-53929000D01*
X73048000Y-53929000D02*
X74960000Y-53929000D01*
X77040000Y-53969000D02*
X78970000Y-53969000D01*
X73030000Y-53969000D02*
X74960000Y-53969000D01*
X77040000Y-54009000D02*
X78986000Y-54009000D01*
X73014000Y-54009000D02*
X74960000Y-54009000D01*
X77040000Y-54049000D02*
X79002000Y-54049000D01*
X72998000Y-54049000D02*
X74960000Y-54049000D01*
X77040000Y-54089000D02*
X79018000Y-54089000D01*
X72982000Y-54089000D02*
X74960000Y-54089000D01*
X77040000Y-54129000D02*
X79033000Y-54129000D01*
X72967000Y-54129000D02*
X74960000Y-54129000D01*
X77040000Y-54169000D02*
X79047000Y-54169000D01*
X72953000Y-54169000D02*
X74960000Y-54169000D01*
X77040000Y-54209000D02*
X79061000Y-54209000D01*
X72939000Y-54209000D02*
X74960000Y-54209000D01*
X77040000Y-54249000D02*
X79074000Y-54249000D01*
X72926000Y-54249000D02*
X74960000Y-54249000D01*
X77040000Y-54289000D02*
X79086000Y-54289000D01*
X72914000Y-54289000D02*
X74960000Y-54289000D01*
X77040000Y-54329000D02*
X79098000Y-54329000D01*
X72902000Y-54329000D02*
X74960000Y-54329000D01*
X77040000Y-54369000D02*
X79110000Y-54369000D01*
X72890000Y-54369000D02*
X74960000Y-54369000D01*
X77040000Y-54409000D02*
X79121000Y-54409000D01*
X72879000Y-54409000D02*
X74960000Y-54409000D01*
X77040000Y-54449000D02*
X79131000Y-54449000D01*
X72869000Y-54449000D02*
X74960000Y-54449000D01*
X77040000Y-54489000D02*
X79141000Y-54489000D01*
X72859000Y-54489000D02*
X74960000Y-54489000D01*
X77040000Y-54529000D02*
X79150000Y-54529000D01*
X72850000Y-54529000D02*
X74960000Y-54529000D01*
X77040000Y-54570000D02*
X79159000Y-54570000D01*
X72841000Y-54570000D02*
X74960000Y-54570000D01*
X77040000Y-54610000D02*
X79167000Y-54610000D01*
X72833000Y-54610000D02*
X74960000Y-54610000D01*
X77040000Y-54650000D02*
X79175000Y-54650000D01*
X72825000Y-54650000D02*
X74960000Y-54650000D01*
X77040000Y-54690000D02*
X79182000Y-54690000D01*
X72818000Y-54690000D02*
X74960000Y-54690000D01*
X77040000Y-54730000D02*
X79189000Y-54730000D01*
X72811000Y-54730000D02*
X74960000Y-54730000D01*
X77040000Y-54770000D02*
X79195000Y-54770000D01*
X72805000Y-54770000D02*
X74960000Y-54770000D01*
X77040000Y-54810000D02*
X79201000Y-54810000D01*
X72799000Y-54810000D02*
X74960000Y-54810000D01*
X77040000Y-54850000D02*
X79206000Y-54850000D01*
X72794000Y-54850000D02*
X74960000Y-54850000D01*
X77040000Y-54890000D02*
X79211000Y-54890000D01*
X72789000Y-54890000D02*
X74960000Y-54890000D01*
X77040000Y-54930000D02*
X79215000Y-54930000D01*
X72785000Y-54930000D02*
X74960000Y-54930000D01*
X77040000Y-54970000D02*
X79218000Y-54970000D01*
X72782000Y-54970000D02*
X74960000Y-54970000D01*
X77040000Y-55010000D02*
X79222000Y-55010000D01*
X72778000Y-55010000D02*
X74960000Y-55010000D01*
X72776000Y-55050000D02*
X79224000Y-55050000D01*
X72773000Y-55090000D02*
X79227000Y-55090000D01*
X72772000Y-55130000D02*
X79228000Y-55130000D01*
X72770000Y-55170000D02*
X79230000Y-55170000D01*
X72770000Y-55210000D02*
X79230000Y-55210000D01*
X72770000Y-55250000D02*
X79230000Y-55250000D01*
X79270000Y-55250000D02*
G75*
G03*
X79270000Y-55250000I-3270000J0D01*
G01*
%TO.C,J3*%
D12*
X142936666Y-87872380D02*
X142936666Y-88586666D01*
X142889047Y-88729523D01*
X142793809Y-88824761D01*
X142650952Y-88872380D01*
X142555714Y-88872380D01*
X143317619Y-87872380D02*
X143936666Y-87872380D01*
X143603333Y-88253333D01*
X143746190Y-88253333D01*
X143841428Y-88300952D01*
X143889047Y-88348571D01*
X143936666Y-88443809D01*
X143936666Y-88681904D01*
X143889047Y-88777142D01*
X143841428Y-88824761D01*
X143746190Y-88872380D01*
X143460476Y-88872380D01*
X143365238Y-88824761D01*
X143317619Y-88777142D01*
X61186666Y-87872380D02*
X61186666Y-88586666D01*
X61139047Y-88729523D01*
X61043809Y-88824761D01*
X60900952Y-88872380D01*
X60805714Y-88872380D01*
X61567619Y-87872380D02*
X62186666Y-87872380D01*
X61853333Y-88253333D01*
X61996190Y-88253333D01*
X62091428Y-88300952D01*
X62139047Y-88348571D01*
X62186666Y-88443809D01*
X62186666Y-88681904D01*
X62139047Y-88777142D01*
X62091428Y-88824761D01*
X61996190Y-88872380D01*
X61710476Y-88872380D01*
X61615238Y-88824761D01*
X61567619Y-88777142D01*
%TO.C,C2*%
X55583333Y-61457142D02*
X55535714Y-61504761D01*
X55392857Y-61552380D01*
X55297619Y-61552380D01*
X55154761Y-61504761D01*
X55059523Y-61409523D01*
X55011904Y-61314285D01*
X54964285Y-61123809D01*
X54964285Y-60980952D01*
X55011904Y-60790476D01*
X55059523Y-60695238D01*
X55154761Y-60600000D01*
X55297619Y-60552380D01*
X55392857Y-60552380D01*
X55535714Y-60600000D01*
X55583333Y-60647619D01*
X55964285Y-60647619D02*
X56011904Y-60600000D01*
X56107142Y-60552380D01*
X56345238Y-60552380D01*
X56440476Y-60600000D01*
X56488095Y-60647619D01*
X56535714Y-60742857D01*
X56535714Y-60838095D01*
X56488095Y-60980952D01*
X55916666Y-61552380D01*
X56535714Y-61552380D01*
%TO.C,C6*%
X104833333Y-84707142D02*
X104785714Y-84754761D01*
X104642857Y-84802380D01*
X104547619Y-84802380D01*
X104404761Y-84754761D01*
X104309523Y-84659523D01*
X104261904Y-84564285D01*
X104214285Y-84373809D01*
X104214285Y-84230952D01*
X104261904Y-84040476D01*
X104309523Y-83945238D01*
X104404761Y-83850000D01*
X104547619Y-83802380D01*
X104642857Y-83802380D01*
X104785714Y-83850000D01*
X104833333Y-83897619D01*
X105690476Y-83802380D02*
X105500000Y-83802380D01*
X105404761Y-83850000D01*
X105357142Y-83897619D01*
X105261904Y-84040476D01*
X105214285Y-84230952D01*
X105214285Y-84611904D01*
X105261904Y-84707142D01*
X105309523Y-84754761D01*
X105404761Y-84802380D01*
X105595238Y-84802380D01*
X105690476Y-84754761D01*
X105738095Y-84707142D01*
X105785714Y-84611904D01*
X105785714Y-84373809D01*
X105738095Y-84278571D01*
X105690476Y-84230952D01*
X105595238Y-84183333D01*
X105404761Y-84183333D01*
X105309523Y-84230952D01*
X105261904Y-84278571D01*
X105214285Y-84373809D01*
%TO.C,UB5*%
X122548095Y-87622380D02*
X122548095Y-88431904D01*
X122595714Y-88527142D01*
X122643333Y-88574761D01*
X122738571Y-88622380D01*
X122929047Y-88622380D01*
X123024285Y-88574761D01*
X123071904Y-88527142D01*
X123119523Y-88431904D01*
X123119523Y-87622380D01*
X123929047Y-88098571D02*
X124071904Y-88146190D01*
X124119523Y-88193809D01*
X124167142Y-88289047D01*
X124167142Y-88431904D01*
X124119523Y-88527142D01*
X124071904Y-88574761D01*
X123976666Y-88622380D01*
X123595714Y-88622380D01*
X123595714Y-87622380D01*
X123929047Y-87622380D01*
X124024285Y-87670000D01*
X124071904Y-87717619D01*
X124119523Y-87812857D01*
X124119523Y-87908095D01*
X124071904Y-88003333D01*
X124024285Y-88050952D01*
X123929047Y-88098571D01*
X123595714Y-88098571D01*
X125071904Y-87622380D02*
X124595714Y-87622380D01*
X124548095Y-88098571D01*
X124595714Y-88050952D01*
X124690952Y-88003333D01*
X124929047Y-88003333D01*
X125024285Y-88050952D01*
X125071904Y-88098571D01*
X125119523Y-88193809D01*
X125119523Y-88431904D01*
X125071904Y-88527142D01*
X125024285Y-88574761D01*
X124929047Y-88622380D01*
X124690952Y-88622380D01*
X124595714Y-88574761D01*
X124548095Y-88527142D01*
%TO.C,J5*%
D15*
X116666666Y-56095238D02*
X116666666Y-54666666D01*
X116761904Y-54380952D01*
X116952380Y-54190476D01*
X117238095Y-54095238D01*
X117428571Y-54095238D01*
X114761904Y-56095238D02*
X115714285Y-56095238D01*
X115809523Y-55142857D01*
X115714285Y-55238095D01*
X115523809Y-55333333D01*
X115047619Y-55333333D01*
X114857142Y-55238095D01*
X114761904Y-55142857D01*
X114666666Y-54952380D01*
X114666666Y-54476190D01*
X114761904Y-54285714D01*
X114857142Y-54190476D01*
X115047619Y-54095238D01*
X115523809Y-54095238D01*
X115714285Y-54190476D01*
X115809523Y-54285714D01*
%TO.C,J4*%
X59166666Y-55595238D02*
X59166666Y-54166666D01*
X59261904Y-53880952D01*
X59452380Y-53690476D01*
X59738095Y-53595238D01*
X59928571Y-53595238D01*
X57357142Y-54928571D02*
X57357142Y-53595238D01*
X57833333Y-55690476D02*
X58309523Y-54261904D01*
X57071428Y-54261904D01*
%TO.C,J2*%
X52345238Y-114083333D02*
X50916666Y-114083333D01*
X50630952Y-113988095D01*
X50440476Y-113797619D01*
X50345238Y-113511904D01*
X50345238Y-113321428D01*
X52154761Y-114940476D02*
X52250000Y-115035714D01*
X52345238Y-115226190D01*
X52345238Y-115702380D01*
X52250000Y-115892857D01*
X52154761Y-115988095D01*
X51964285Y-116083333D01*
X51773809Y-116083333D01*
X51488095Y-115988095D01*
X50345238Y-114845238D01*
X50345238Y-116083333D01*
%TO.C,J3*%
X52595238Y-86583333D02*
X51166666Y-86583333D01*
X50880952Y-86488095D01*
X50690476Y-86297619D01*
X50595238Y-86011904D01*
X50595238Y-85821428D01*
X52595238Y-87345238D02*
X52595238Y-88583333D01*
X51833333Y-87916666D01*
X51833333Y-88202380D01*
X51738095Y-88392857D01*
X51642857Y-88488095D01*
X51452380Y-88583333D01*
X50976190Y-88583333D01*
X50785714Y-88488095D01*
X50690476Y-88392857D01*
X50595238Y-88202380D01*
X50595238Y-87630952D01*
X50690476Y-87440476D01*
X50785714Y-87345238D01*
%TO.C,J1*%
X52345238Y-60083333D02*
X50916666Y-60083333D01*
X50630952Y-59988095D01*
X50440476Y-59797619D01*
X50345238Y-59511904D01*
X50345238Y-59321428D01*
X50345238Y-62083333D02*
X50345238Y-60940476D01*
X50345238Y-61511904D02*
X52345238Y-61511904D01*
X52059523Y-61321428D01*
X51869047Y-61130952D01*
X51773809Y-60940476D01*
%TO.C,UB3*%
D12*
X88548095Y-87622380D02*
X88548095Y-88431904D01*
X88595714Y-88527142D01*
X88643333Y-88574761D01*
X88738571Y-88622380D01*
X88929047Y-88622380D01*
X89024285Y-88574761D01*
X89071904Y-88527142D01*
X89119523Y-88431904D01*
X89119523Y-87622380D01*
X89929047Y-88098571D02*
X90071904Y-88146190D01*
X90119523Y-88193809D01*
X90167142Y-88289047D01*
X90167142Y-88431904D01*
X90119523Y-88527142D01*
X90071904Y-88574761D01*
X89976666Y-88622380D01*
X89595714Y-88622380D01*
X89595714Y-87622380D01*
X89929047Y-87622380D01*
X90024285Y-87670000D01*
X90071904Y-87717619D01*
X90119523Y-87812857D01*
X90119523Y-87908095D01*
X90071904Y-88003333D01*
X90024285Y-88050952D01*
X89929047Y-88098571D01*
X89595714Y-88098571D01*
X90500476Y-87622380D02*
X91119523Y-87622380D01*
X90786190Y-88003333D01*
X90929047Y-88003333D01*
X91024285Y-88050952D01*
X91071904Y-88098571D01*
X91119523Y-88193809D01*
X91119523Y-88431904D01*
X91071904Y-88527142D01*
X91024285Y-88574761D01*
X90929047Y-88622380D01*
X90643333Y-88622380D01*
X90548095Y-88574761D01*
X90500476Y-88527142D01*
%TO.C,*%
%TO.C,C17*%
X138107142Y-141207142D02*
X138059523Y-141254761D01*
X137916666Y-141302380D01*
X137821428Y-141302380D01*
X137678571Y-141254761D01*
X137583333Y-141159523D01*
X137535714Y-141064285D01*
X137488095Y-140873809D01*
X137488095Y-140730952D01*
X137535714Y-140540476D01*
X137583333Y-140445238D01*
X137678571Y-140350000D01*
X137821428Y-140302380D01*
X137916666Y-140302380D01*
X138059523Y-140350000D01*
X138107142Y-140397619D01*
X139059523Y-141302380D02*
X138488095Y-141302380D01*
X138773809Y-141302380D02*
X138773809Y-140302380D01*
X138678571Y-140445238D01*
X138583333Y-140540476D01*
X138488095Y-140588095D01*
X139392857Y-140302380D02*
X140059523Y-140302380D01*
X139630952Y-141302380D01*
%TO.C,C16*%
X121107142Y-141207142D02*
X121059523Y-141254761D01*
X120916666Y-141302380D01*
X120821428Y-141302380D01*
X120678571Y-141254761D01*
X120583333Y-141159523D01*
X120535714Y-141064285D01*
X120488095Y-140873809D01*
X120488095Y-140730952D01*
X120535714Y-140540476D01*
X120583333Y-140445238D01*
X120678571Y-140350000D01*
X120821428Y-140302380D01*
X120916666Y-140302380D01*
X121059523Y-140350000D01*
X121107142Y-140397619D01*
X122059523Y-141302380D02*
X121488095Y-141302380D01*
X121773809Y-141302380D02*
X121773809Y-140302380D01*
X121678571Y-140445238D01*
X121583333Y-140540476D01*
X121488095Y-140588095D01*
X122916666Y-140302380D02*
X122726190Y-140302380D01*
X122630952Y-140350000D01*
X122583333Y-140397619D01*
X122488095Y-140540476D01*
X122440476Y-140730952D01*
X122440476Y-141111904D01*
X122488095Y-141207142D01*
X122535714Y-141254761D01*
X122630952Y-141302380D01*
X122821428Y-141302380D01*
X122916666Y-141254761D01*
X122964285Y-141207142D01*
X123011904Y-141111904D01*
X123011904Y-140873809D01*
X122964285Y-140778571D01*
X122916666Y-140730952D01*
X122821428Y-140683333D01*
X122630952Y-140683333D01*
X122535714Y-140730952D01*
X122488095Y-140778571D01*
X122440476Y-140873809D01*
%TO.C,C15*%
X103919642Y-141207142D02*
X103872023Y-141254761D01*
X103729166Y-141302380D01*
X103633928Y-141302380D01*
X103491071Y-141254761D01*
X103395833Y-141159523D01*
X103348214Y-141064285D01*
X103300595Y-140873809D01*
X103300595Y-140730952D01*
X103348214Y-140540476D01*
X103395833Y-140445238D01*
X103491071Y-140350000D01*
X103633928Y-140302380D01*
X103729166Y-140302380D01*
X103872023Y-140350000D01*
X103919642Y-140397619D01*
X104872023Y-141302380D02*
X104300595Y-141302380D01*
X104586309Y-141302380D02*
X104586309Y-140302380D01*
X104491071Y-140445238D01*
X104395833Y-140540476D01*
X104300595Y-140588095D01*
X105776785Y-140302380D02*
X105300595Y-140302380D01*
X105252976Y-140778571D01*
X105300595Y-140730952D01*
X105395833Y-140683333D01*
X105633928Y-140683333D01*
X105729166Y-140730952D01*
X105776785Y-140778571D01*
X105824404Y-140873809D01*
X105824404Y-141111904D01*
X105776785Y-141207142D01*
X105729166Y-141254761D01*
X105633928Y-141302380D01*
X105395833Y-141302380D01*
X105300595Y-141254761D01*
X105252976Y-141207142D01*
%TO.C,C14*%
X86919642Y-141207142D02*
X86872023Y-141254761D01*
X86729166Y-141302380D01*
X86633928Y-141302380D01*
X86491071Y-141254761D01*
X86395833Y-141159523D01*
X86348214Y-141064285D01*
X86300595Y-140873809D01*
X86300595Y-140730952D01*
X86348214Y-140540476D01*
X86395833Y-140445238D01*
X86491071Y-140350000D01*
X86633928Y-140302380D01*
X86729166Y-140302380D01*
X86872023Y-140350000D01*
X86919642Y-140397619D01*
X87872023Y-141302380D02*
X87300595Y-141302380D01*
X87586309Y-141302380D02*
X87586309Y-140302380D01*
X87491071Y-140445238D01*
X87395833Y-140540476D01*
X87300595Y-140588095D01*
X88729166Y-140635714D02*
X88729166Y-141302380D01*
X88491071Y-140254761D02*
X88252976Y-140969047D01*
X88872023Y-140969047D01*
%TO.C,UA5*%
X122619523Y-117622380D02*
X122619523Y-118431904D01*
X122667142Y-118527142D01*
X122714761Y-118574761D01*
X122810000Y-118622380D01*
X123000476Y-118622380D01*
X123095714Y-118574761D01*
X123143333Y-118527142D01*
X123190952Y-118431904D01*
X123190952Y-117622380D01*
X123619523Y-118336666D02*
X124095714Y-118336666D01*
X123524285Y-118622380D02*
X123857619Y-117622380D01*
X124190952Y-118622380D01*
X125000476Y-117622380D02*
X124524285Y-117622380D01*
X124476666Y-118098571D01*
X124524285Y-118050952D01*
X124619523Y-118003333D01*
X124857619Y-118003333D01*
X124952857Y-118050952D01*
X125000476Y-118098571D01*
X125048095Y-118193809D01*
X125048095Y-118431904D01*
X125000476Y-118527142D01*
X124952857Y-118574761D01*
X124857619Y-118622380D01*
X124619523Y-118622380D01*
X124524285Y-118574761D01*
X124476666Y-118527142D01*
%TO.C,UC6*%
X139548095Y-61122380D02*
X139548095Y-61931904D01*
X139595714Y-62027142D01*
X139643333Y-62074761D01*
X139738571Y-62122380D01*
X139929047Y-62122380D01*
X140024285Y-62074761D01*
X140071904Y-62027142D01*
X140119523Y-61931904D01*
X140119523Y-61122380D01*
X141167142Y-62027142D02*
X141119523Y-62074761D01*
X140976666Y-62122380D01*
X140881428Y-62122380D01*
X140738571Y-62074761D01*
X140643333Y-61979523D01*
X140595714Y-61884285D01*
X140548095Y-61693809D01*
X140548095Y-61550952D01*
X140595714Y-61360476D01*
X140643333Y-61265238D01*
X140738571Y-61170000D01*
X140881428Y-61122380D01*
X140976666Y-61122380D01*
X141119523Y-61170000D01*
X141167142Y-61217619D01*
X142024285Y-61122380D02*
X141833809Y-61122380D01*
X141738571Y-61170000D01*
X141690952Y-61217619D01*
X141595714Y-61360476D01*
X141548095Y-61550952D01*
X141548095Y-61931904D01*
X141595714Y-62027142D01*
X141643333Y-62074761D01*
X141738571Y-62122380D01*
X141929047Y-62122380D01*
X142024285Y-62074761D01*
X142071904Y-62027142D01*
X142119523Y-61931904D01*
X142119523Y-61693809D01*
X142071904Y-61598571D01*
X142024285Y-61550952D01*
X141929047Y-61503333D01*
X141738571Y-61503333D01*
X141643333Y-61550952D01*
X141595714Y-61598571D01*
X141548095Y-61693809D01*
%TO.C,UC5*%
X122548095Y-61122380D02*
X122548095Y-61931904D01*
X122595714Y-62027142D01*
X122643333Y-62074761D01*
X122738571Y-62122380D01*
X122929047Y-62122380D01*
X123024285Y-62074761D01*
X123071904Y-62027142D01*
X123119523Y-61931904D01*
X123119523Y-61122380D01*
X124167142Y-62027142D02*
X124119523Y-62074761D01*
X123976666Y-62122380D01*
X123881428Y-62122380D01*
X123738571Y-62074761D01*
X123643333Y-61979523D01*
X123595714Y-61884285D01*
X123548095Y-61693809D01*
X123548095Y-61550952D01*
X123595714Y-61360476D01*
X123643333Y-61265238D01*
X123738571Y-61170000D01*
X123881428Y-61122380D01*
X123976666Y-61122380D01*
X124119523Y-61170000D01*
X124167142Y-61217619D01*
X125071904Y-61122380D02*
X124595714Y-61122380D01*
X124548095Y-61598571D01*
X124595714Y-61550952D01*
X124690952Y-61503333D01*
X124929047Y-61503333D01*
X125024285Y-61550952D01*
X125071904Y-61598571D01*
X125119523Y-61693809D01*
X125119523Y-61931904D01*
X125071904Y-62027142D01*
X125024285Y-62074761D01*
X124929047Y-62122380D01*
X124690952Y-62122380D01*
X124595714Y-62074761D01*
X124548095Y-62027142D01*
%TO.C,UC4*%
X105548095Y-61122380D02*
X105548095Y-61931904D01*
X105595714Y-62027142D01*
X105643333Y-62074761D01*
X105738571Y-62122380D01*
X105929047Y-62122380D01*
X106024285Y-62074761D01*
X106071904Y-62027142D01*
X106119523Y-61931904D01*
X106119523Y-61122380D01*
X107167142Y-62027142D02*
X107119523Y-62074761D01*
X106976666Y-62122380D01*
X106881428Y-62122380D01*
X106738571Y-62074761D01*
X106643333Y-61979523D01*
X106595714Y-61884285D01*
X106548095Y-61693809D01*
X106548095Y-61550952D01*
X106595714Y-61360476D01*
X106643333Y-61265238D01*
X106738571Y-61170000D01*
X106881428Y-61122380D01*
X106976666Y-61122380D01*
X107119523Y-61170000D01*
X107167142Y-61217619D01*
X108024285Y-61455714D02*
X108024285Y-62122380D01*
X107786190Y-61074761D02*
X107548095Y-61789047D01*
X108167142Y-61789047D01*
%TO.C,UC3*%
X71548095Y-61122380D02*
X71548095Y-61931904D01*
X71595714Y-62027142D01*
X71643333Y-62074761D01*
X71738571Y-62122380D01*
X71929047Y-62122380D01*
X72024285Y-62074761D01*
X72071904Y-62027142D01*
X72119523Y-61931904D01*
X72119523Y-61122380D01*
X73167142Y-62027142D02*
X73119523Y-62074761D01*
X72976666Y-62122380D01*
X72881428Y-62122380D01*
X72738571Y-62074761D01*
X72643333Y-61979523D01*
X72595714Y-61884285D01*
X72548095Y-61693809D01*
X72548095Y-61550952D01*
X72595714Y-61360476D01*
X72643333Y-61265238D01*
X72738571Y-61170000D01*
X72881428Y-61122380D01*
X72976666Y-61122380D01*
X73119523Y-61170000D01*
X73167142Y-61217619D01*
X73500476Y-61122380D02*
X74119523Y-61122380D01*
X73786190Y-61503333D01*
X73929047Y-61503333D01*
X74024285Y-61550952D01*
X74071904Y-61598571D01*
X74119523Y-61693809D01*
X74119523Y-61931904D01*
X74071904Y-62027142D01*
X74024285Y-62074761D01*
X73929047Y-62122380D01*
X73643333Y-62122380D01*
X73548095Y-62074761D01*
X73500476Y-62027142D01*
%TO.C,UC2*%
X88548095Y-61122380D02*
X88548095Y-61931904D01*
X88595714Y-62027142D01*
X88643333Y-62074761D01*
X88738571Y-62122380D01*
X88929047Y-62122380D01*
X89024285Y-62074761D01*
X89071904Y-62027142D01*
X89119523Y-61931904D01*
X89119523Y-61122380D01*
X90167142Y-62027142D02*
X90119523Y-62074761D01*
X89976666Y-62122380D01*
X89881428Y-62122380D01*
X89738571Y-62074761D01*
X89643333Y-61979523D01*
X89595714Y-61884285D01*
X89548095Y-61693809D01*
X89548095Y-61550952D01*
X89595714Y-61360476D01*
X89643333Y-61265238D01*
X89738571Y-61170000D01*
X89881428Y-61122380D01*
X89976666Y-61122380D01*
X90119523Y-61170000D01*
X90167142Y-61217619D01*
X90548095Y-61217619D02*
X90595714Y-61170000D01*
X90690952Y-61122380D01*
X90929047Y-61122380D01*
X91024285Y-61170000D01*
X91071904Y-61217619D01*
X91119523Y-61312857D01*
X91119523Y-61408095D01*
X91071904Y-61550952D01*
X90500476Y-62122380D01*
X91119523Y-62122380D01*
%TO.C,UB4*%
X105548095Y-87622380D02*
X105548095Y-88431904D01*
X105595714Y-88527142D01*
X105643333Y-88574761D01*
X105738571Y-88622380D01*
X105929047Y-88622380D01*
X106024285Y-88574761D01*
X106071904Y-88527142D01*
X106119523Y-88431904D01*
X106119523Y-87622380D01*
X106929047Y-88098571D02*
X107071904Y-88146190D01*
X107119523Y-88193809D01*
X107167142Y-88289047D01*
X107167142Y-88431904D01*
X107119523Y-88527142D01*
X107071904Y-88574761D01*
X106976666Y-88622380D01*
X106595714Y-88622380D01*
X106595714Y-87622380D01*
X106929047Y-87622380D01*
X107024285Y-87670000D01*
X107071904Y-87717619D01*
X107119523Y-87812857D01*
X107119523Y-87908095D01*
X107071904Y-88003333D01*
X107024285Y-88050952D01*
X106929047Y-88098571D01*
X106595714Y-88098571D01*
X108024285Y-87955714D02*
X108024285Y-88622380D01*
X107786190Y-87574761D02*
X107548095Y-88289047D01*
X108167142Y-88289047D01*
%TO.C,UB2*%
X71548095Y-87622380D02*
X71548095Y-88431904D01*
X71595714Y-88527142D01*
X71643333Y-88574761D01*
X71738571Y-88622380D01*
X71929047Y-88622380D01*
X72024285Y-88574761D01*
X72071904Y-88527142D01*
X72119523Y-88431904D01*
X72119523Y-87622380D01*
X72929047Y-88098571D02*
X73071904Y-88146190D01*
X73119523Y-88193809D01*
X73167142Y-88289047D01*
X73167142Y-88431904D01*
X73119523Y-88527142D01*
X73071904Y-88574761D01*
X72976666Y-88622380D01*
X72595714Y-88622380D01*
X72595714Y-87622380D01*
X72929047Y-87622380D01*
X73024285Y-87670000D01*
X73071904Y-87717619D01*
X73119523Y-87812857D01*
X73119523Y-87908095D01*
X73071904Y-88003333D01*
X73024285Y-88050952D01*
X72929047Y-88098571D01*
X72595714Y-88098571D01*
X73548095Y-87717619D02*
X73595714Y-87670000D01*
X73690952Y-87622380D01*
X73929047Y-87622380D01*
X74024285Y-87670000D01*
X74071904Y-87717619D01*
X74119523Y-87812857D01*
X74119523Y-87908095D01*
X74071904Y-88050952D01*
X73500476Y-88622380D01*
X74119523Y-88622380D01*
%TO.C,UA6*%
X139619523Y-117622380D02*
X139619523Y-118431904D01*
X139667142Y-118527142D01*
X139714761Y-118574761D01*
X139810000Y-118622380D01*
X140000476Y-118622380D01*
X140095714Y-118574761D01*
X140143333Y-118527142D01*
X140190952Y-118431904D01*
X140190952Y-117622380D01*
X140619523Y-118336666D02*
X141095714Y-118336666D01*
X140524285Y-118622380D02*
X140857619Y-117622380D01*
X141190952Y-118622380D01*
X141952857Y-117622380D02*
X141762380Y-117622380D01*
X141667142Y-117670000D01*
X141619523Y-117717619D01*
X141524285Y-117860476D01*
X141476666Y-118050952D01*
X141476666Y-118431904D01*
X141524285Y-118527142D01*
X141571904Y-118574761D01*
X141667142Y-118622380D01*
X141857619Y-118622380D01*
X141952857Y-118574761D01*
X142000476Y-118527142D01*
X142048095Y-118431904D01*
X142048095Y-118193809D01*
X142000476Y-118098571D01*
X141952857Y-118050952D01*
X141857619Y-118003333D01*
X141667142Y-118003333D01*
X141571904Y-118050952D01*
X141524285Y-118098571D01*
X141476666Y-118193809D01*
%TO.C,UA4*%
X105619523Y-117622380D02*
X105619523Y-118431904D01*
X105667142Y-118527142D01*
X105714761Y-118574761D01*
X105810000Y-118622380D01*
X106000476Y-118622380D01*
X106095714Y-118574761D01*
X106143333Y-118527142D01*
X106190952Y-118431904D01*
X106190952Y-117622380D01*
X106619523Y-118336666D02*
X107095714Y-118336666D01*
X106524285Y-118622380D02*
X106857619Y-117622380D01*
X107190952Y-118622380D01*
X107952857Y-117955714D02*
X107952857Y-118622380D01*
X107714761Y-117574761D02*
X107476666Y-118289047D01*
X108095714Y-118289047D01*
%TO.C,UA3*%
X88619523Y-117622380D02*
X88619523Y-118431904D01*
X88667142Y-118527142D01*
X88714761Y-118574761D01*
X88810000Y-118622380D01*
X89000476Y-118622380D01*
X89095714Y-118574761D01*
X89143333Y-118527142D01*
X89190952Y-118431904D01*
X89190952Y-117622380D01*
X89619523Y-118336666D02*
X90095714Y-118336666D01*
X89524285Y-118622380D02*
X89857619Y-117622380D01*
X90190952Y-118622380D01*
X90429047Y-117622380D02*
X91048095Y-117622380D01*
X90714761Y-118003333D01*
X90857619Y-118003333D01*
X90952857Y-118050952D01*
X91000476Y-118098571D01*
X91048095Y-118193809D01*
X91048095Y-118431904D01*
X91000476Y-118527142D01*
X90952857Y-118574761D01*
X90857619Y-118622380D01*
X90571904Y-118622380D01*
X90476666Y-118574761D01*
X90429047Y-118527142D01*
%TO.C,UA2*%
X71619523Y-117622380D02*
X71619523Y-118431904D01*
X71667142Y-118527142D01*
X71714761Y-118574761D01*
X71810000Y-118622380D01*
X72000476Y-118622380D01*
X72095714Y-118574761D01*
X72143333Y-118527142D01*
X72190952Y-118431904D01*
X72190952Y-117622380D01*
X72619523Y-118336666D02*
X73095714Y-118336666D01*
X72524285Y-118622380D02*
X72857619Y-117622380D01*
X73190952Y-118622380D01*
X73476666Y-117717619D02*
X73524285Y-117670000D01*
X73619523Y-117622380D01*
X73857619Y-117622380D01*
X73952857Y-117670000D01*
X74000476Y-117717619D01*
X74048095Y-117812857D01*
X74048095Y-117908095D01*
X74000476Y-118050952D01*
X73429047Y-118622380D01*
X74048095Y-118622380D01*
%TO.C,R5*%
X86833333Y-59452380D02*
X86500000Y-58976190D01*
X86261904Y-59452380D02*
X86261904Y-58452380D01*
X86642857Y-58452380D01*
X86738095Y-58500000D01*
X86785714Y-58547619D01*
X86833333Y-58642857D01*
X86833333Y-58785714D01*
X86785714Y-58880952D01*
X86738095Y-58928571D01*
X86642857Y-58976190D01*
X86261904Y-58976190D01*
X87738095Y-58452380D02*
X87261904Y-58452380D01*
X87214285Y-58928571D01*
X87261904Y-58880952D01*
X87357142Y-58833333D01*
X87595238Y-58833333D01*
X87690476Y-58880952D01*
X87738095Y-58928571D01*
X87785714Y-59023809D01*
X87785714Y-59261904D01*
X87738095Y-59357142D01*
X87690476Y-59404761D01*
X87595238Y-59452380D01*
X87357142Y-59452380D01*
X87261904Y-59404761D01*
X87214285Y-59357142D01*
%TO.C,R4*%
X145333333Y-84952380D02*
X145000000Y-84476190D01*
X144761904Y-84952380D02*
X144761904Y-83952380D01*
X145142857Y-83952380D01*
X145238095Y-84000000D01*
X145285714Y-84047619D01*
X145333333Y-84142857D01*
X145333333Y-84285714D01*
X145285714Y-84380952D01*
X145238095Y-84428571D01*
X145142857Y-84476190D01*
X144761904Y-84476190D01*
X146190476Y-84285714D02*
X146190476Y-84952380D01*
X145952380Y-83904761D02*
X145714285Y-84619047D01*
X146333333Y-84619047D01*
%TO.C,R3*%
X143833333Y-60452380D02*
X143500000Y-59976190D01*
X143261904Y-60452380D02*
X143261904Y-59452380D01*
X143642857Y-59452380D01*
X143738095Y-59500000D01*
X143785714Y-59547619D01*
X143833333Y-59642857D01*
X143833333Y-59785714D01*
X143785714Y-59880952D01*
X143738095Y-59928571D01*
X143642857Y-59976190D01*
X143261904Y-59976190D01*
X144166666Y-59452380D02*
X144785714Y-59452380D01*
X144452380Y-59833333D01*
X144595238Y-59833333D01*
X144690476Y-59880952D01*
X144738095Y-59928571D01*
X144785714Y-60023809D01*
X144785714Y-60261904D01*
X144738095Y-60357142D01*
X144690476Y-60404761D01*
X144595238Y-60452380D01*
X144309523Y-60452380D01*
X144214285Y-60404761D01*
X144166666Y-60357142D01*
%TO.C,R2*%
X74833333Y-86452380D02*
X74500000Y-85976190D01*
X74261904Y-86452380D02*
X74261904Y-85452380D01*
X74642857Y-85452380D01*
X74738095Y-85500000D01*
X74785714Y-85547619D01*
X74833333Y-85642857D01*
X74833333Y-85785714D01*
X74785714Y-85880952D01*
X74738095Y-85928571D01*
X74642857Y-85976190D01*
X74261904Y-85976190D01*
X75214285Y-85547619D02*
X75261904Y-85500000D01*
X75357142Y-85452380D01*
X75595238Y-85452380D01*
X75690476Y-85500000D01*
X75738095Y-85547619D01*
X75785714Y-85642857D01*
X75785714Y-85738095D01*
X75738095Y-85880952D01*
X75166666Y-86452380D01*
X75785714Y-86452380D01*
%TO.C,R1*%
X132352380Y-81416666D02*
X131876190Y-81750000D01*
X132352380Y-81988095D02*
X131352380Y-81988095D01*
X131352380Y-81607142D01*
X131400000Y-81511904D01*
X131447619Y-81464285D01*
X131542857Y-81416666D01*
X131685714Y-81416666D01*
X131780952Y-81464285D01*
X131828571Y-81511904D01*
X131876190Y-81607142D01*
X131876190Y-81988095D01*
X132352380Y-80464285D02*
X132352380Y-81035714D01*
X132352380Y-80750000D02*
X131352380Y-80750000D01*
X131495238Y-80845238D01*
X131590476Y-80940476D01*
X131638095Y-81035714D01*
%TO.C,D1*%
X87261904Y-54452380D02*
X87261904Y-53452380D01*
X87500000Y-53452380D01*
X87642857Y-53500000D01*
X87738095Y-53595238D01*
X87785714Y-53690476D01*
X87833333Y-53880952D01*
X87833333Y-54023809D01*
X87785714Y-54214285D01*
X87738095Y-54309523D01*
X87642857Y-54404761D01*
X87500000Y-54452380D01*
X87261904Y-54452380D01*
X88785714Y-54452380D02*
X88214285Y-54452380D01*
X88500000Y-54452380D02*
X88500000Y-53452380D01*
X88404761Y-53595238D01*
X88309523Y-53690476D01*
X88214285Y-53738095D01*
%TO.C,C13*%
X70357142Y-141207142D02*
X70309523Y-141254761D01*
X70166666Y-141302380D01*
X70071428Y-141302380D01*
X69928571Y-141254761D01*
X69833333Y-141159523D01*
X69785714Y-141064285D01*
X69738095Y-140873809D01*
X69738095Y-140730952D01*
X69785714Y-140540476D01*
X69833333Y-140445238D01*
X69928571Y-140350000D01*
X70071428Y-140302380D01*
X70166666Y-140302380D01*
X70309523Y-140350000D01*
X70357142Y-140397619D01*
X71309523Y-141302380D02*
X70738095Y-141302380D01*
X71023809Y-141302380D02*
X71023809Y-140302380D01*
X70928571Y-140445238D01*
X70833333Y-140540476D01*
X70738095Y-140588095D01*
X71642857Y-140302380D02*
X72261904Y-140302380D01*
X71928571Y-140683333D01*
X72071428Y-140683333D01*
X72166666Y-140730952D01*
X72214285Y-140778571D01*
X72261904Y-140873809D01*
X72261904Y-141111904D01*
X72214285Y-141207142D01*
X72166666Y-141254761D01*
X72071428Y-141302380D01*
X71785714Y-141302380D01*
X71690476Y-141254761D01*
X71642857Y-141207142D01*
%TO.C,C12*%
X121357142Y-113707142D02*
X121309523Y-113754761D01*
X121166666Y-113802380D01*
X121071428Y-113802380D01*
X120928571Y-113754761D01*
X120833333Y-113659523D01*
X120785714Y-113564285D01*
X120738095Y-113373809D01*
X120738095Y-113230952D01*
X120785714Y-113040476D01*
X120833333Y-112945238D01*
X120928571Y-112850000D01*
X121071428Y-112802380D01*
X121166666Y-112802380D01*
X121309523Y-112850000D01*
X121357142Y-112897619D01*
X122309523Y-113802380D02*
X121738095Y-113802380D01*
X122023809Y-113802380D02*
X122023809Y-112802380D01*
X121928571Y-112945238D01*
X121833333Y-113040476D01*
X121738095Y-113088095D01*
X122690476Y-112897619D02*
X122738095Y-112850000D01*
X122833333Y-112802380D01*
X123071428Y-112802380D01*
X123166666Y-112850000D01*
X123214285Y-112897619D01*
X123261904Y-112992857D01*
X123261904Y-113088095D01*
X123214285Y-113230952D01*
X122642857Y-113802380D01*
X123261904Y-113802380D01*
%TO.C,C11*%
X104357142Y-113707142D02*
X104309523Y-113754761D01*
X104166666Y-113802380D01*
X104071428Y-113802380D01*
X103928571Y-113754761D01*
X103833333Y-113659523D01*
X103785714Y-113564285D01*
X103738095Y-113373809D01*
X103738095Y-113230952D01*
X103785714Y-113040476D01*
X103833333Y-112945238D01*
X103928571Y-112850000D01*
X104071428Y-112802380D01*
X104166666Y-112802380D01*
X104309523Y-112850000D01*
X104357142Y-112897619D01*
X105309523Y-113802380D02*
X104738095Y-113802380D01*
X105023809Y-113802380D02*
X105023809Y-112802380D01*
X104928571Y-112945238D01*
X104833333Y-113040476D01*
X104738095Y-113088095D01*
X106261904Y-113802380D02*
X105690476Y-113802380D01*
X105976190Y-113802380D02*
X105976190Y-112802380D01*
X105880952Y-112945238D01*
X105785714Y-113040476D01*
X105690476Y-113088095D01*
%TO.C,C10*%
X87357142Y-113707142D02*
X87309523Y-113754761D01*
X87166666Y-113802380D01*
X87071428Y-113802380D01*
X86928571Y-113754761D01*
X86833333Y-113659523D01*
X86785714Y-113564285D01*
X86738095Y-113373809D01*
X86738095Y-113230952D01*
X86785714Y-113040476D01*
X86833333Y-112945238D01*
X86928571Y-112850000D01*
X87071428Y-112802380D01*
X87166666Y-112802380D01*
X87309523Y-112850000D01*
X87357142Y-112897619D01*
X88309523Y-113802380D02*
X87738095Y-113802380D01*
X88023809Y-113802380D02*
X88023809Y-112802380D01*
X87928571Y-112945238D01*
X87833333Y-113040476D01*
X87738095Y-113088095D01*
X88928571Y-112802380D02*
X89023809Y-112802380D01*
X89119047Y-112850000D01*
X89166666Y-112897619D01*
X89214285Y-112992857D01*
X89261904Y-113183333D01*
X89261904Y-113421428D01*
X89214285Y-113611904D01*
X89166666Y-113707142D01*
X89119047Y-113754761D01*
X89023809Y-113802380D01*
X88928571Y-113802380D01*
X88833333Y-113754761D01*
X88785714Y-113707142D01*
X88738095Y-113611904D01*
X88690476Y-113421428D01*
X88690476Y-113183333D01*
X88738095Y-112992857D01*
X88785714Y-112897619D01*
X88833333Y-112850000D01*
X88928571Y-112802380D01*
%TO.C,C9*%
X70833333Y-113707142D02*
X70785714Y-113754761D01*
X70642857Y-113802380D01*
X70547619Y-113802380D01*
X70404761Y-113754761D01*
X70309523Y-113659523D01*
X70261904Y-113564285D01*
X70214285Y-113373809D01*
X70214285Y-113230952D01*
X70261904Y-113040476D01*
X70309523Y-112945238D01*
X70404761Y-112850000D01*
X70547619Y-112802380D01*
X70642857Y-112802380D01*
X70785714Y-112850000D01*
X70833333Y-112897619D01*
X71309523Y-113802380D02*
X71500000Y-113802380D01*
X71595238Y-113754761D01*
X71642857Y-113707142D01*
X71738095Y-113564285D01*
X71785714Y-113373809D01*
X71785714Y-112992857D01*
X71738095Y-112897619D01*
X71690476Y-112850000D01*
X71595238Y-112802380D01*
X71404761Y-112802380D01*
X71309523Y-112850000D01*
X71261904Y-112897619D01*
X71214285Y-112992857D01*
X71214285Y-113230952D01*
X71261904Y-113326190D01*
X71309523Y-113373809D01*
X71404761Y-113421428D01*
X71595238Y-113421428D01*
X71690476Y-113373809D01*
X71738095Y-113326190D01*
X71785714Y-113230952D01*
%TO.C,C8*%
X138833333Y-84707142D02*
X138785714Y-84754761D01*
X138642857Y-84802380D01*
X138547619Y-84802380D01*
X138404761Y-84754761D01*
X138309523Y-84659523D01*
X138261904Y-84564285D01*
X138214285Y-84373809D01*
X138214285Y-84230952D01*
X138261904Y-84040476D01*
X138309523Y-83945238D01*
X138404761Y-83850000D01*
X138547619Y-83802380D01*
X138642857Y-83802380D01*
X138785714Y-83850000D01*
X138833333Y-83897619D01*
X139404761Y-84230952D02*
X139309523Y-84183333D01*
X139261904Y-84135714D01*
X139214285Y-84040476D01*
X139214285Y-83992857D01*
X139261904Y-83897619D01*
X139309523Y-83850000D01*
X139404761Y-83802380D01*
X139595238Y-83802380D01*
X139690476Y-83850000D01*
X139738095Y-83897619D01*
X139785714Y-83992857D01*
X139785714Y-84040476D01*
X139738095Y-84135714D01*
X139690476Y-84183333D01*
X139595238Y-84230952D01*
X139404761Y-84230952D01*
X139309523Y-84278571D01*
X139261904Y-84326190D01*
X139214285Y-84421428D01*
X139214285Y-84611904D01*
X139261904Y-84707142D01*
X139309523Y-84754761D01*
X139404761Y-84802380D01*
X139595238Y-84802380D01*
X139690476Y-84754761D01*
X139738095Y-84707142D01*
X139785714Y-84611904D01*
X139785714Y-84421428D01*
X139738095Y-84326190D01*
X139690476Y-84278571D01*
X139595238Y-84230952D01*
%TO.C,C7*%
X121833333Y-84707142D02*
X121785714Y-84754761D01*
X121642857Y-84802380D01*
X121547619Y-84802380D01*
X121404761Y-84754761D01*
X121309523Y-84659523D01*
X121261904Y-84564285D01*
X121214285Y-84373809D01*
X121214285Y-84230952D01*
X121261904Y-84040476D01*
X121309523Y-83945238D01*
X121404761Y-83850000D01*
X121547619Y-83802380D01*
X121642857Y-83802380D01*
X121785714Y-83850000D01*
X121833333Y-83897619D01*
X122166666Y-83802380D02*
X122833333Y-83802380D01*
X122404761Y-84802380D01*
%TO.C,C5*%
X87833333Y-84707142D02*
X87785714Y-84754761D01*
X87642857Y-84802380D01*
X87547619Y-84802380D01*
X87404761Y-84754761D01*
X87309523Y-84659523D01*
X87261904Y-84564285D01*
X87214285Y-84373809D01*
X87214285Y-84230952D01*
X87261904Y-84040476D01*
X87309523Y-83945238D01*
X87404761Y-83850000D01*
X87547619Y-83802380D01*
X87642857Y-83802380D01*
X87785714Y-83850000D01*
X87833333Y-83897619D01*
X88738095Y-83802380D02*
X88261904Y-83802380D01*
X88214285Y-84278571D01*
X88261904Y-84230952D01*
X88357142Y-84183333D01*
X88595238Y-84183333D01*
X88690476Y-84230952D01*
X88738095Y-84278571D01*
X88785714Y-84373809D01*
X88785714Y-84611904D01*
X88738095Y-84707142D01*
X88690476Y-84754761D01*
X88595238Y-84802380D01*
X88357142Y-84802380D01*
X88261904Y-84754761D01*
X88214285Y-84707142D01*
%TO.C,C4*%
X74833333Y-83357142D02*
X74785714Y-83404761D01*
X74642857Y-83452380D01*
X74547619Y-83452380D01*
X74404761Y-83404761D01*
X74309523Y-83309523D01*
X74261904Y-83214285D01*
X74214285Y-83023809D01*
X74214285Y-82880952D01*
X74261904Y-82690476D01*
X74309523Y-82595238D01*
X74404761Y-82500000D01*
X74547619Y-82452380D01*
X74642857Y-82452380D01*
X74785714Y-82500000D01*
X74833333Y-82547619D01*
X75690476Y-82785714D02*
X75690476Y-83452380D01*
X75452380Y-82404761D02*
X75214285Y-83119047D01*
X75833333Y-83119047D01*
%TO.C,C3*%
X75833333Y-59857142D02*
X75785714Y-59904761D01*
X75642857Y-59952380D01*
X75547619Y-59952380D01*
X75404761Y-59904761D01*
X75309523Y-59809523D01*
X75261904Y-59714285D01*
X75214285Y-59523809D01*
X75214285Y-59380952D01*
X75261904Y-59190476D01*
X75309523Y-59095238D01*
X75404761Y-59000000D01*
X75547619Y-58952380D01*
X75642857Y-58952380D01*
X75785714Y-59000000D01*
X75833333Y-59047619D01*
X76166666Y-58952380D02*
X76785714Y-58952380D01*
X76452380Y-59333333D01*
X76595238Y-59333333D01*
X76690476Y-59380952D01*
X76738095Y-59428571D01*
X76785714Y-59523809D01*
X76785714Y-59761904D01*
X76738095Y-59857142D01*
X76690476Y-59904761D01*
X76595238Y-59952380D01*
X76309523Y-59952380D01*
X76214285Y-59904761D01*
X76166666Y-59857142D01*
%TD*%
%LPC*%
D17*
%TO.C,J3*%
X144540000Y-90750000D03*
X144540000Y-93290000D03*
X144540000Y-95830000D03*
X144540000Y-98370000D03*
X144540000Y-100910000D03*
X144540000Y-103450000D03*
X144540000Y-105990000D03*
X144540000Y-108530000D03*
X142000000Y-108530000D03*
X142000000Y-105990000D03*
X142000000Y-103450000D03*
X142000000Y-100910000D03*
X142000000Y-98370000D03*
X142000000Y-95830000D03*
X142000000Y-93290000D03*
D18*
X142000000Y-90750000D03*
%TD*%
D17*
%TO.C,J3*%
X62790000Y-90750000D03*
X62790000Y-93290000D03*
X62790000Y-95830000D03*
X62790000Y-98370000D03*
X62790000Y-100910000D03*
X62790000Y-103450000D03*
X62790000Y-105990000D03*
X62790000Y-108530000D03*
X60250000Y-108530000D03*
X60250000Y-105990000D03*
X60250000Y-103450000D03*
X60250000Y-100910000D03*
X60250000Y-98370000D03*
X60250000Y-95830000D03*
X60250000Y-93290000D03*
D18*
X60250000Y-90750000D03*
%TD*%
%TO.C,C2*%
G36*
G01*
X54850000Y-58599998D02*
X54850000Y-59900002D01*
G75*
G02*
X54600002Y-60150000I-249998J0D01*
G01*
X53774998Y-60150000D01*
G75*
G02*
X53525000Y-59900002I0J249998D01*
G01*
X53525000Y-58599998D01*
G75*
G02*
X53774998Y-58350000I249998J0D01*
G01*
X54600002Y-58350000D01*
G75*
G02*
X54850000Y-58599998I0J-249998D01*
G01*
G37*
G36*
G01*
X57975000Y-58599998D02*
X57975000Y-59900002D01*
G75*
G02*
X57725002Y-60150000I-249998J0D01*
G01*
X56899998Y-60150000D01*
G75*
G02*
X56650000Y-59900002I0J249998D01*
G01*
X56650000Y-58599998D01*
G75*
G02*
X56899998Y-58350000I249998J0D01*
G01*
X57725002Y-58350000D01*
G75*
G02*
X57975000Y-58599998I0J-249998D01*
G01*
G37*
%TD*%
%TO.C,C6*%
G36*
G01*
X104100000Y-81849998D02*
X104100000Y-83150002D01*
G75*
G02*
X103850002Y-83400000I-249998J0D01*
G01*
X103024998Y-83400000D01*
G75*
G02*
X102775000Y-83150002I0J249998D01*
G01*
X102775000Y-81849998D01*
G75*
G02*
X103024998Y-81600000I249998J0D01*
G01*
X103850002Y-81600000D01*
G75*
G02*
X104100000Y-81849998I0J-249998D01*
G01*
G37*
G36*
G01*
X107225000Y-81849998D02*
X107225000Y-83150002D01*
G75*
G02*
X106975002Y-83400000I-249998J0D01*
G01*
X106149998Y-83400000D01*
G75*
G02*
X105900000Y-83150002I0J249998D01*
G01*
X105900000Y-81849998D01*
G75*
G02*
X106149998Y-81600000I249998J0D01*
G01*
X106975002Y-81600000D01*
G75*
G02*
X107225000Y-81849998I0J-249998D01*
G01*
G37*
%TD*%
D19*
%TO.C,UB5*%
X127620000Y-90500000D03*
X120000000Y-108280000D03*
X127620000Y-93040000D03*
X120000000Y-105740000D03*
X127620000Y-95580000D03*
X120000000Y-103200000D03*
X127620000Y-98120000D03*
X120000000Y-100660000D03*
X127620000Y-100660000D03*
X120000000Y-98120000D03*
X127620000Y-103200000D03*
X120000000Y-95580000D03*
X127620000Y-105740000D03*
X120000000Y-93040000D03*
X127620000Y-108280000D03*
D20*
X120000000Y-90500000D03*
%TD*%
D21*
%TO.C,J5*%
X121000000Y-54000000D03*
D22*
X126000000Y-54000000D03*
X136000000Y-54000000D03*
X131000000Y-54000000D03*
%TD*%
D23*
%TO.C,REF\u002A\u002A*%
X145000000Y-55000000D03*
%TD*%
D21*
%TO.C,J4*%
X63000000Y-54000000D03*
D22*
X68000000Y-54000000D03*
%TD*%
D17*
%TO.C,J2*%
X54540000Y-118220000D03*
X54540000Y-120760000D03*
X54540000Y-123300000D03*
X54540000Y-125840000D03*
X54540000Y-128380000D03*
X54540000Y-130920000D03*
X54540000Y-133460000D03*
X54540000Y-136000000D03*
X52000000Y-136000000D03*
X52000000Y-133460000D03*
X52000000Y-130920000D03*
X52000000Y-128380000D03*
X52000000Y-125840000D03*
X52000000Y-123300000D03*
X52000000Y-120760000D03*
D18*
X52000000Y-118220000D03*
%TD*%
D17*
%TO.C,J3*%
X54540000Y-90750000D03*
X54540000Y-93290000D03*
X54540000Y-95830000D03*
X54540000Y-98370000D03*
X54540000Y-100910000D03*
X54540000Y-103450000D03*
X54540000Y-105990000D03*
X54540000Y-108530000D03*
X52000000Y-108530000D03*
X52000000Y-105990000D03*
X52000000Y-103450000D03*
X52000000Y-100910000D03*
X52000000Y-98370000D03*
X52000000Y-95830000D03*
X52000000Y-93290000D03*
D18*
X52000000Y-90750000D03*
%TD*%
D17*
%TO.C,J1*%
X54540000Y-64000000D03*
X54540000Y-66540000D03*
X54540000Y-69080000D03*
X54540000Y-71620000D03*
X54540000Y-74160000D03*
X54540000Y-76700000D03*
X54540000Y-79240000D03*
X54540000Y-81780000D03*
X52000000Y-81780000D03*
X52000000Y-79240000D03*
X52000000Y-76700000D03*
X52000000Y-74160000D03*
X52000000Y-71620000D03*
X52000000Y-69080000D03*
X52000000Y-66540000D03*
D18*
X52000000Y-64000000D03*
%TD*%
D19*
%TO.C,UB3*%
X93620000Y-90500000D03*
X86000000Y-108280000D03*
X93620000Y-93040000D03*
X86000000Y-105740000D03*
X93620000Y-95580000D03*
X86000000Y-103200000D03*
X93620000Y-98120000D03*
X86000000Y-100660000D03*
X93620000Y-100660000D03*
X86000000Y-98120000D03*
X93620000Y-103200000D03*
X86000000Y-95580000D03*
X93620000Y-105740000D03*
X86000000Y-93040000D03*
X93620000Y-108280000D03*
D20*
X86000000Y-90500000D03*
%TD*%
D23*
%TO.C,REF\u002A\u002A*%
X145000000Y-145000000D03*
%TD*%
%TO.C,REF\u002A\u002A*%
X55000000Y-145000000D03*
%TD*%
%TO.C,REF\u002A\u002A*%
X55000000Y-55000000D03*
%TD*%
%TO.C,C17*%
G36*
G01*
X137850000Y-138349998D02*
X137850000Y-139650002D01*
G75*
G02*
X137600002Y-139900000I-249998J0D01*
G01*
X136774998Y-139900000D01*
G75*
G02*
X136525000Y-139650002I0J249998D01*
G01*
X136525000Y-138349998D01*
G75*
G02*
X136774998Y-138100000I249998J0D01*
G01*
X137600002Y-138100000D01*
G75*
G02*
X137850000Y-138349998I0J-249998D01*
G01*
G37*
G36*
G01*
X140975000Y-138349998D02*
X140975000Y-139650002D01*
G75*
G02*
X140725002Y-139900000I-249998J0D01*
G01*
X139899998Y-139900000D01*
G75*
G02*
X139650000Y-139650002I0J249998D01*
G01*
X139650000Y-138349998D01*
G75*
G02*
X139899998Y-138100000I249998J0D01*
G01*
X140725002Y-138100000D01*
G75*
G02*
X140975000Y-138349998I0J-249998D01*
G01*
G37*
%TD*%
%TO.C,C16*%
G36*
G01*
X120850000Y-138349998D02*
X120850000Y-139650002D01*
G75*
G02*
X120600002Y-139900000I-249998J0D01*
G01*
X119774998Y-139900000D01*
G75*
G02*
X119525000Y-139650002I0J249998D01*
G01*
X119525000Y-138349998D01*
G75*
G02*
X119774998Y-138100000I249998J0D01*
G01*
X120600002Y-138100000D01*
G75*
G02*
X120850000Y-138349998I0J-249998D01*
G01*
G37*
G36*
G01*
X123975000Y-138349998D02*
X123975000Y-139650002D01*
G75*
G02*
X123725002Y-139900000I-249998J0D01*
G01*
X122899998Y-139900000D01*
G75*
G02*
X122650000Y-139650002I0J249998D01*
G01*
X122650000Y-138349998D01*
G75*
G02*
X122899998Y-138100000I249998J0D01*
G01*
X123725002Y-138100000D01*
G75*
G02*
X123975000Y-138349998I0J-249998D01*
G01*
G37*
%TD*%
%TO.C,C15*%
G36*
G01*
X103662500Y-138349998D02*
X103662500Y-139650002D01*
G75*
G02*
X103412502Y-139900000I-249998J0D01*
G01*
X102587498Y-139900000D01*
G75*
G02*
X102337500Y-139650002I0J249998D01*
G01*
X102337500Y-138349998D01*
G75*
G02*
X102587498Y-138100000I249998J0D01*
G01*
X103412502Y-138100000D01*
G75*
G02*
X103662500Y-138349998I0J-249998D01*
G01*
G37*
G36*
G01*
X106787500Y-138349998D02*
X106787500Y-139650002D01*
G75*
G02*
X106537502Y-139900000I-249998J0D01*
G01*
X105712498Y-139900000D01*
G75*
G02*
X105462500Y-139650002I0J249998D01*
G01*
X105462500Y-138349998D01*
G75*
G02*
X105712498Y-138100000I249998J0D01*
G01*
X106537502Y-138100000D01*
G75*
G02*
X106787500Y-138349998I0J-249998D01*
G01*
G37*
%TD*%
%TO.C,C14*%
G36*
G01*
X86662500Y-138349998D02*
X86662500Y-139650002D01*
G75*
G02*
X86412502Y-139900000I-249998J0D01*
G01*
X85587498Y-139900000D01*
G75*
G02*
X85337500Y-139650002I0J249998D01*
G01*
X85337500Y-138349998D01*
G75*
G02*
X85587498Y-138100000I249998J0D01*
G01*
X86412502Y-138100000D01*
G75*
G02*
X86662500Y-138349998I0J-249998D01*
G01*
G37*
G36*
G01*
X89787500Y-138349998D02*
X89787500Y-139650002D01*
G75*
G02*
X89537502Y-139900000I-249998J0D01*
G01*
X88712498Y-139900000D01*
G75*
G02*
X88462500Y-139650002I0J249998D01*
G01*
X88462500Y-138349998D01*
G75*
G02*
X88712498Y-138100000I249998J0D01*
G01*
X89537502Y-138100000D01*
G75*
G02*
X89787500Y-138349998I0J-249998D01*
G01*
G37*
%TD*%
D19*
%TO.C,UA5*%
X127620000Y-120500000D03*
X120000000Y-135740000D03*
X127620000Y-123040000D03*
X120000000Y-133200000D03*
X127620000Y-125580000D03*
X120000000Y-130660000D03*
X127620000Y-128120000D03*
X120000000Y-128120000D03*
X127620000Y-130660000D03*
X120000000Y-125580000D03*
X127620000Y-133200000D03*
X120000000Y-123040000D03*
X127620000Y-135740000D03*
D20*
X120000000Y-120500000D03*
%TD*%
D19*
%TO.C,UC6*%
X144620000Y-64000000D03*
X137000000Y-79240000D03*
X144620000Y-66540000D03*
X137000000Y-76700000D03*
X144620000Y-69080000D03*
X137000000Y-74160000D03*
X144620000Y-71620000D03*
X137000000Y-71620000D03*
X144620000Y-74160000D03*
X137000000Y-69080000D03*
X144620000Y-76700000D03*
X137000000Y-66540000D03*
X144620000Y-79240000D03*
D20*
X137000000Y-64000000D03*
%TD*%
D19*
%TO.C,UC5*%
X127620000Y-64000000D03*
X120000000Y-79240000D03*
X127620000Y-66540000D03*
X120000000Y-76700000D03*
X127620000Y-69080000D03*
X120000000Y-74160000D03*
X127620000Y-71620000D03*
X120000000Y-71620000D03*
X127620000Y-74160000D03*
X120000000Y-69080000D03*
X127620000Y-76700000D03*
X120000000Y-66540000D03*
X127620000Y-79240000D03*
D20*
X120000000Y-64000000D03*
%TD*%
D19*
%TO.C,UC4*%
X110620000Y-64000000D03*
X103000000Y-79240000D03*
X110620000Y-66540000D03*
X103000000Y-76700000D03*
X110620000Y-69080000D03*
X103000000Y-74160000D03*
X110620000Y-71620000D03*
X103000000Y-71620000D03*
X110620000Y-74160000D03*
X103000000Y-69080000D03*
X110620000Y-76700000D03*
X103000000Y-66540000D03*
X110620000Y-79240000D03*
D20*
X103000000Y-64000000D03*
%TD*%
D19*
%TO.C,UC3*%
X76620000Y-64000000D03*
X69000000Y-79240000D03*
X76620000Y-66540000D03*
X69000000Y-76700000D03*
X76620000Y-69080000D03*
X69000000Y-74160000D03*
X76620000Y-71620000D03*
X69000000Y-71620000D03*
X76620000Y-74160000D03*
X69000000Y-69080000D03*
X76620000Y-76700000D03*
X69000000Y-66540000D03*
X76620000Y-79240000D03*
D20*
X69000000Y-64000000D03*
%TD*%
D19*
%TO.C,UC2*%
X93620000Y-64000000D03*
X86000000Y-79240000D03*
X93620000Y-66540000D03*
X86000000Y-76700000D03*
X93620000Y-69080000D03*
X86000000Y-74160000D03*
X93620000Y-71620000D03*
X86000000Y-71620000D03*
X93620000Y-74160000D03*
X86000000Y-69080000D03*
X93620000Y-76700000D03*
X86000000Y-66540000D03*
X93620000Y-79240000D03*
D20*
X86000000Y-64000000D03*
%TD*%
D19*
%TO.C,UB4*%
X110620000Y-90500000D03*
X103000000Y-108280000D03*
X110620000Y-93040000D03*
X103000000Y-105740000D03*
X110620000Y-95580000D03*
X103000000Y-103200000D03*
X110620000Y-98120000D03*
X103000000Y-100660000D03*
X110620000Y-100660000D03*
X103000000Y-98120000D03*
X110620000Y-103200000D03*
X103000000Y-95580000D03*
X110620000Y-105740000D03*
X103000000Y-93040000D03*
X110620000Y-108280000D03*
D20*
X103000000Y-90500000D03*
%TD*%
D19*
%TO.C,UB2*%
X76620000Y-90500000D03*
X69000000Y-108280000D03*
X76620000Y-93040000D03*
X69000000Y-105740000D03*
X76620000Y-95580000D03*
X69000000Y-103200000D03*
X76620000Y-98120000D03*
X69000000Y-100660000D03*
X76620000Y-100660000D03*
X69000000Y-98120000D03*
X76620000Y-103200000D03*
X69000000Y-95580000D03*
X76620000Y-105740000D03*
X69000000Y-93040000D03*
X76620000Y-108280000D03*
D20*
X69000000Y-90500000D03*
%TD*%
%TO.C,UA6*%
X137000000Y-120500000D03*
D19*
X144620000Y-135740000D03*
X137000000Y-123040000D03*
X144620000Y-133200000D03*
X137000000Y-125580000D03*
X144620000Y-130660000D03*
X137000000Y-128120000D03*
X144620000Y-128120000D03*
X137000000Y-130660000D03*
X144620000Y-125580000D03*
X137000000Y-133200000D03*
X144620000Y-123040000D03*
X137000000Y-135740000D03*
X144620000Y-120500000D03*
%TD*%
%TO.C,UA4*%
X110620000Y-120500000D03*
X103000000Y-135740000D03*
X110620000Y-123040000D03*
X103000000Y-133200000D03*
X110620000Y-125580000D03*
X103000000Y-130660000D03*
X110620000Y-128120000D03*
X103000000Y-128120000D03*
X110620000Y-130660000D03*
X103000000Y-125580000D03*
X110620000Y-133200000D03*
X103000000Y-123040000D03*
X110620000Y-135740000D03*
D20*
X103000000Y-120500000D03*
%TD*%
D19*
%TO.C,UA3*%
X93620000Y-120500000D03*
X86000000Y-135740000D03*
X93620000Y-123040000D03*
X86000000Y-133200000D03*
X93620000Y-125580000D03*
X86000000Y-130660000D03*
X93620000Y-128120000D03*
X86000000Y-128120000D03*
X93620000Y-130660000D03*
X86000000Y-125580000D03*
X93620000Y-133200000D03*
X86000000Y-123040000D03*
X93620000Y-135740000D03*
D20*
X86000000Y-120500000D03*
%TD*%
D19*
%TO.C,UA2*%
X76620000Y-120500000D03*
X69000000Y-135740000D03*
X76620000Y-123040000D03*
X69000000Y-133200000D03*
X76620000Y-125580000D03*
X69000000Y-130660000D03*
X76620000Y-128120000D03*
X69000000Y-128120000D03*
X76620000Y-130660000D03*
X69000000Y-125580000D03*
X76620000Y-133200000D03*
X69000000Y-123040000D03*
X76620000Y-135740000D03*
D20*
X69000000Y-120500000D03*
%TD*%
%TO.C,R5*%
G36*
G01*
X80775000Y-59650002D02*
X80775000Y-58349998D01*
G75*
G02*
X81024998Y-58100000I249998J0D01*
G01*
X81850002Y-58100000D01*
G75*
G02*
X82100000Y-58349998I0J-249998D01*
G01*
X82100000Y-59650002D01*
G75*
G02*
X81850002Y-59900000I-249998J0D01*
G01*
X81024998Y-59900000D01*
G75*
G02*
X80775000Y-59650002I0J249998D01*
G01*
G37*
G36*
G01*
X83900000Y-59650002D02*
X83900000Y-58349998D01*
G75*
G02*
X84149998Y-58100000I249998J0D01*
G01*
X84975002Y-58100000D01*
G75*
G02*
X85225000Y-58349998I0J-249998D01*
G01*
X85225000Y-59650002D01*
G75*
G02*
X84975002Y-59900000I-249998J0D01*
G01*
X84149998Y-59900000D01*
G75*
G02*
X83900000Y-59650002I0J249998D01*
G01*
G37*
%TD*%
%TO.C,R4*%
G36*
G01*
X143275000Y-83150002D02*
X143275000Y-81849998D01*
G75*
G02*
X143524998Y-81600000I249998J0D01*
G01*
X144350002Y-81600000D01*
G75*
G02*
X144600000Y-81849998I0J-249998D01*
G01*
X144600000Y-83150002D01*
G75*
G02*
X144350002Y-83400000I-249998J0D01*
G01*
X143524998Y-83400000D01*
G75*
G02*
X143275000Y-83150002I0J249998D01*
G01*
G37*
G36*
G01*
X146400000Y-83150002D02*
X146400000Y-81849998D01*
G75*
G02*
X146649998Y-81600000I249998J0D01*
G01*
X147475002Y-81600000D01*
G75*
G02*
X147725000Y-81849998I0J-249998D01*
G01*
X147725000Y-83150002D01*
G75*
G02*
X147475002Y-83400000I-249998J0D01*
G01*
X146649998Y-83400000D01*
G75*
G02*
X146400000Y-83150002I0J249998D01*
G01*
G37*
%TD*%
%TO.C,R3*%
G36*
G01*
X142400002Y-60475000D02*
X141099998Y-60475000D01*
G75*
G02*
X140850000Y-60225002I0J249998D01*
G01*
X140850000Y-59399998D01*
G75*
G02*
X141099998Y-59150000I249998J0D01*
G01*
X142400002Y-59150000D01*
G75*
G02*
X142650000Y-59399998I0J-249998D01*
G01*
X142650000Y-60225002D01*
G75*
G02*
X142400002Y-60475000I-249998J0D01*
G01*
G37*
G36*
G01*
X142400002Y-57350000D02*
X141099998Y-57350000D01*
G75*
G02*
X140850000Y-57100002I0J249998D01*
G01*
X140850000Y-56274998D01*
G75*
G02*
X141099998Y-56025000I249998J0D01*
G01*
X142400002Y-56025000D01*
G75*
G02*
X142650000Y-56274998I0J-249998D01*
G01*
X142650000Y-57100002D01*
G75*
G02*
X142400002Y-57350000I-249998J0D01*
G01*
G37*
%TD*%
%TO.C,R2*%
G36*
G01*
X71900000Y-86650002D02*
X71900000Y-85349998D01*
G75*
G02*
X72149998Y-85100000I249998J0D01*
G01*
X72975002Y-85100000D01*
G75*
G02*
X73225000Y-85349998I0J-249998D01*
G01*
X73225000Y-86650002D01*
G75*
G02*
X72975002Y-86900000I-249998J0D01*
G01*
X72149998Y-86900000D01*
G75*
G02*
X71900000Y-86650002I0J249998D01*
G01*
G37*
G36*
G01*
X68775000Y-86650002D02*
X68775000Y-85349998D01*
G75*
G02*
X69024998Y-85100000I249998J0D01*
G01*
X69850002Y-85100000D01*
G75*
G02*
X70100000Y-85349998I0J-249998D01*
G01*
X70100000Y-86650002D01*
G75*
G02*
X69850002Y-86900000I-249998J0D01*
G01*
X69024998Y-86900000D01*
G75*
G02*
X68775000Y-86650002I0J249998D01*
G01*
G37*
%TD*%
%TO.C,R1*%
G36*
G01*
X134400002Y-83475000D02*
X133099998Y-83475000D01*
G75*
G02*
X132850000Y-83225002I0J249998D01*
G01*
X132850000Y-82399998D01*
G75*
G02*
X133099998Y-82150000I249998J0D01*
G01*
X134400002Y-82150000D01*
G75*
G02*
X134650000Y-82399998I0J-249998D01*
G01*
X134650000Y-83225002D01*
G75*
G02*
X134400002Y-83475000I-249998J0D01*
G01*
G37*
G36*
G01*
X134400002Y-80350000D02*
X133099998Y-80350000D01*
G75*
G02*
X132850000Y-80100002I0J249998D01*
G01*
X132850000Y-79274998D01*
G75*
G02*
X133099998Y-79025000I249998J0D01*
G01*
X134400002Y-79025000D01*
G75*
G02*
X134650000Y-79274998I0J-249998D01*
G01*
X134650000Y-80100002D01*
G75*
G02*
X134400002Y-80350000I-249998J0D01*
G01*
G37*
%TD*%
D24*
%TO.C,D1*%
X82000000Y-54000000D03*
D25*
X84540000Y-54000000D03*
%TD*%
%TO.C,C13*%
G36*
G01*
X70100000Y-138349998D02*
X70100000Y-139650002D01*
G75*
G02*
X69850002Y-139900000I-249998J0D01*
G01*
X69024998Y-139900000D01*
G75*
G02*
X68775000Y-139650002I0J249998D01*
G01*
X68775000Y-138349998D01*
G75*
G02*
X69024998Y-138100000I249998J0D01*
G01*
X69850002Y-138100000D01*
G75*
G02*
X70100000Y-138349998I0J-249998D01*
G01*
G37*
G36*
G01*
X73225000Y-138349998D02*
X73225000Y-139650002D01*
G75*
G02*
X72975002Y-139900000I-249998J0D01*
G01*
X72149998Y-139900000D01*
G75*
G02*
X71900000Y-139650002I0J249998D01*
G01*
X71900000Y-138349998D01*
G75*
G02*
X72149998Y-138100000I249998J0D01*
G01*
X72975002Y-138100000D01*
G75*
G02*
X73225000Y-138349998I0J-249998D01*
G01*
G37*
%TD*%
%TO.C,C12*%
G36*
G01*
X121100000Y-110849998D02*
X121100000Y-112150002D01*
G75*
G02*
X120850002Y-112400000I-249998J0D01*
G01*
X120024998Y-112400000D01*
G75*
G02*
X119775000Y-112150002I0J249998D01*
G01*
X119775000Y-110849998D01*
G75*
G02*
X120024998Y-110600000I249998J0D01*
G01*
X120850002Y-110600000D01*
G75*
G02*
X121100000Y-110849998I0J-249998D01*
G01*
G37*
G36*
G01*
X124225000Y-110849998D02*
X124225000Y-112150002D01*
G75*
G02*
X123975002Y-112400000I-249998J0D01*
G01*
X123149998Y-112400000D01*
G75*
G02*
X122900000Y-112150002I0J249998D01*
G01*
X122900000Y-110849998D01*
G75*
G02*
X123149998Y-110600000I249998J0D01*
G01*
X123975002Y-110600000D01*
G75*
G02*
X124225000Y-110849998I0J-249998D01*
G01*
G37*
%TD*%
%TO.C,C11*%
G36*
G01*
X104100000Y-110849998D02*
X104100000Y-112150002D01*
G75*
G02*
X103850002Y-112400000I-249998J0D01*
G01*
X103024998Y-112400000D01*
G75*
G02*
X102775000Y-112150002I0J249998D01*
G01*
X102775000Y-110849998D01*
G75*
G02*
X103024998Y-110600000I249998J0D01*
G01*
X103850002Y-110600000D01*
G75*
G02*
X104100000Y-110849998I0J-249998D01*
G01*
G37*
G36*
G01*
X107225000Y-110849998D02*
X107225000Y-112150002D01*
G75*
G02*
X106975002Y-112400000I-249998J0D01*
G01*
X106149998Y-112400000D01*
G75*
G02*
X105900000Y-112150002I0J249998D01*
G01*
X105900000Y-110849998D01*
G75*
G02*
X106149998Y-110600000I249998J0D01*
G01*
X106975002Y-110600000D01*
G75*
G02*
X107225000Y-110849998I0J-249998D01*
G01*
G37*
%TD*%
%TO.C,C10*%
G36*
G01*
X87100000Y-110849998D02*
X87100000Y-112150002D01*
G75*
G02*
X86850002Y-112400000I-249998J0D01*
G01*
X86024998Y-112400000D01*
G75*
G02*
X85775000Y-112150002I0J249998D01*
G01*
X85775000Y-110849998D01*
G75*
G02*
X86024998Y-110600000I249998J0D01*
G01*
X86850002Y-110600000D01*
G75*
G02*
X87100000Y-110849998I0J-249998D01*
G01*
G37*
G36*
G01*
X90225000Y-110849998D02*
X90225000Y-112150002D01*
G75*
G02*
X89975002Y-112400000I-249998J0D01*
G01*
X89149998Y-112400000D01*
G75*
G02*
X88900000Y-112150002I0J249998D01*
G01*
X88900000Y-110849998D01*
G75*
G02*
X89149998Y-110600000I249998J0D01*
G01*
X89975002Y-110600000D01*
G75*
G02*
X90225000Y-110849998I0J-249998D01*
G01*
G37*
%TD*%
%TO.C,C9*%
G36*
G01*
X70100000Y-110849998D02*
X70100000Y-112150002D01*
G75*
G02*
X69850002Y-112400000I-249998J0D01*
G01*
X69024998Y-112400000D01*
G75*
G02*
X68775000Y-112150002I0J249998D01*
G01*
X68775000Y-110849998D01*
G75*
G02*
X69024998Y-110600000I249998J0D01*
G01*
X69850002Y-110600000D01*
G75*
G02*
X70100000Y-110849998I0J-249998D01*
G01*
G37*
G36*
G01*
X73225000Y-110849998D02*
X73225000Y-112150002D01*
G75*
G02*
X72975002Y-112400000I-249998J0D01*
G01*
X72149998Y-112400000D01*
G75*
G02*
X71900000Y-112150002I0J249998D01*
G01*
X71900000Y-110849998D01*
G75*
G02*
X72149998Y-110600000I249998J0D01*
G01*
X72975002Y-110600000D01*
G75*
G02*
X73225000Y-110849998I0J-249998D01*
G01*
G37*
%TD*%
%TO.C,C8*%
G36*
G01*
X141225000Y-81849998D02*
X141225000Y-83150002D01*
G75*
G02*
X140975002Y-83400000I-249998J0D01*
G01*
X140149998Y-83400000D01*
G75*
G02*
X139900000Y-83150002I0J249998D01*
G01*
X139900000Y-81849998D01*
G75*
G02*
X140149998Y-81600000I249998J0D01*
G01*
X140975002Y-81600000D01*
G75*
G02*
X141225000Y-81849998I0J-249998D01*
G01*
G37*
G36*
G01*
X138100000Y-81849998D02*
X138100000Y-83150002D01*
G75*
G02*
X137850002Y-83400000I-249998J0D01*
G01*
X137024998Y-83400000D01*
G75*
G02*
X136775000Y-83150002I0J249998D01*
G01*
X136775000Y-81849998D01*
G75*
G02*
X137024998Y-81600000I249998J0D01*
G01*
X137850002Y-81600000D01*
G75*
G02*
X138100000Y-81849998I0J-249998D01*
G01*
G37*
%TD*%
%TO.C,C7*%
G36*
G01*
X121100000Y-81849998D02*
X121100000Y-83150002D01*
G75*
G02*
X120850002Y-83400000I-249998J0D01*
G01*
X120024998Y-83400000D01*
G75*
G02*
X119775000Y-83150002I0J249998D01*
G01*
X119775000Y-81849998D01*
G75*
G02*
X120024998Y-81600000I249998J0D01*
G01*
X120850002Y-81600000D01*
G75*
G02*
X121100000Y-81849998I0J-249998D01*
G01*
G37*
G36*
G01*
X124225000Y-81849998D02*
X124225000Y-83150002D01*
G75*
G02*
X123975002Y-83400000I-249998J0D01*
G01*
X123149998Y-83400000D01*
G75*
G02*
X122900000Y-83150002I0J249998D01*
G01*
X122900000Y-81849998D01*
G75*
G02*
X123149998Y-81600000I249998J0D01*
G01*
X123975002Y-81600000D01*
G75*
G02*
X124225000Y-81849998I0J-249998D01*
G01*
G37*
%TD*%
%TO.C,C5*%
G36*
G01*
X87100000Y-81849998D02*
X87100000Y-83150002D01*
G75*
G02*
X86850002Y-83400000I-249998J0D01*
G01*
X86024998Y-83400000D01*
G75*
G02*
X85775000Y-83150002I0J249998D01*
G01*
X85775000Y-81849998D01*
G75*
G02*
X86024998Y-81600000I249998J0D01*
G01*
X86850002Y-81600000D01*
G75*
G02*
X87100000Y-81849998I0J-249998D01*
G01*
G37*
G36*
G01*
X90225000Y-81849998D02*
X90225000Y-83150002D01*
G75*
G02*
X89975002Y-83400000I-249998J0D01*
G01*
X89149998Y-83400000D01*
G75*
G02*
X88900000Y-83150002I0J249998D01*
G01*
X88900000Y-81849998D01*
G75*
G02*
X89149998Y-81600000I249998J0D01*
G01*
X89975002Y-81600000D01*
G75*
G02*
X90225000Y-81849998I0J-249998D01*
G01*
G37*
%TD*%
%TO.C,C4*%
G36*
G01*
X70100000Y-81849998D02*
X70100000Y-83150002D01*
G75*
G02*
X69850002Y-83400000I-249998J0D01*
G01*
X69024998Y-83400000D01*
G75*
G02*
X68775000Y-83150002I0J249998D01*
G01*
X68775000Y-81849998D01*
G75*
G02*
X69024998Y-81600000I249998J0D01*
G01*
X69850002Y-81600000D01*
G75*
G02*
X70100000Y-81849998I0J-249998D01*
G01*
G37*
G36*
G01*
X73225000Y-81849998D02*
X73225000Y-83150002D01*
G75*
G02*
X72975002Y-83400000I-249998J0D01*
G01*
X72149998Y-83400000D01*
G75*
G02*
X71900000Y-83150002I0J249998D01*
G01*
X71900000Y-81849998D01*
G75*
G02*
X72149998Y-81600000I249998J0D01*
G01*
X72975002Y-81600000D01*
G75*
G02*
X73225000Y-81849998I0J-249998D01*
G01*
G37*
%TD*%
D26*
%TO.C,C3*%
X76000000Y-54000000D03*
D27*
X76000000Y-56500000D03*
%TD*%
M02*
