%TF.GenerationSoftware,KiCad,Pcbnew,(5.1.9)-1*%
%TF.CreationDate,2022-02-24T19:51:09-05:00*%
%TF.ProjectId,exorcisortry2,65786f72-6369-4736-9f72-747279322e6b,rev?*%
%TF.SameCoordinates,Original*%
%TF.FileFunction,Soldermask,Bot*%
%TF.FilePolarity,Negative*%
%FSLAX46Y46*%
G04 Gerber Fmt 4.6, Leading zero omitted, Abs format (unit mm)*
G04 Created by KiCad (PCBNEW (5.1.9)-1) date 2022-02-24 19:51:09*
%MOMM*%
%LPD*%
G01*
G04 APERTURE LIST*
%ADD10O,1.700000X1.700000*%
%ADD11R,1.700000X1.700000*%
%ADD12O,2.400000X1.600000*%
%ADD13R,2.400000X1.600000*%
%ADD14R,1.980000X3.960000*%
%ADD15O,1.980000X3.960000*%
%ADD16C,2.200000*%
%ADD17R,1.800000X1.800000*%
%ADD18C,1.800000*%
%ADD19C,1.600000*%
%ADD20R,1.600000X1.600000*%
G04 APERTURE END LIST*
D10*
%TO.C,J3*%
X144540000Y-90750000D03*
X144540000Y-93290000D03*
X144540000Y-95830000D03*
X144540000Y-98370000D03*
X144540000Y-100910000D03*
X144540000Y-103450000D03*
X144540000Y-105990000D03*
X144540000Y-108530000D03*
X142000000Y-108530000D03*
X142000000Y-105990000D03*
X142000000Y-103450000D03*
X142000000Y-100910000D03*
X142000000Y-98370000D03*
X142000000Y-95830000D03*
X142000000Y-93290000D03*
D11*
X142000000Y-90750000D03*
%TD*%
D10*
%TO.C,J3*%
X62790000Y-90750000D03*
X62790000Y-93290000D03*
X62790000Y-95830000D03*
X62790000Y-98370000D03*
X62790000Y-100910000D03*
X62790000Y-103450000D03*
X62790000Y-105990000D03*
X62790000Y-108530000D03*
X60250000Y-108530000D03*
X60250000Y-105990000D03*
X60250000Y-103450000D03*
X60250000Y-100910000D03*
X60250000Y-98370000D03*
X60250000Y-95830000D03*
X60250000Y-93290000D03*
D11*
X60250000Y-90750000D03*
%TD*%
D12*
%TO.C,UB5*%
X127620000Y-90500000D03*
X120000000Y-108280000D03*
X127620000Y-93040000D03*
X120000000Y-105740000D03*
X127620000Y-95580000D03*
X120000000Y-103200000D03*
X127620000Y-98120000D03*
X120000000Y-100660000D03*
X127620000Y-100660000D03*
X120000000Y-98120000D03*
X127620000Y-103200000D03*
X120000000Y-95580000D03*
X127620000Y-105740000D03*
X120000000Y-93040000D03*
X127620000Y-108280000D03*
D13*
X120000000Y-90500000D03*
%TD*%
D14*
%TO.C,J5*%
X121000000Y-54000000D03*
D15*
X126000000Y-54000000D03*
X136000000Y-54000000D03*
X131000000Y-54000000D03*
%TD*%
D16*
%TO.C,REF\u002A\u002A*%
X145000000Y-55000000D03*
%TD*%
D14*
%TO.C,J4*%
X63000000Y-54000000D03*
D15*
X68000000Y-54000000D03*
%TD*%
D10*
%TO.C,J2*%
X54540000Y-118220000D03*
X54540000Y-120760000D03*
X54540000Y-123300000D03*
X54540000Y-125840000D03*
X54540000Y-128380000D03*
X54540000Y-130920000D03*
X54540000Y-133460000D03*
X54540000Y-136000000D03*
X52000000Y-136000000D03*
X52000000Y-133460000D03*
X52000000Y-130920000D03*
X52000000Y-128380000D03*
X52000000Y-125840000D03*
X52000000Y-123300000D03*
X52000000Y-120760000D03*
D11*
X52000000Y-118220000D03*
%TD*%
D10*
%TO.C,J3*%
X54540000Y-90750000D03*
X54540000Y-93290000D03*
X54540000Y-95830000D03*
X54540000Y-98370000D03*
X54540000Y-100910000D03*
X54540000Y-103450000D03*
X54540000Y-105990000D03*
X54540000Y-108530000D03*
X52000000Y-108530000D03*
X52000000Y-105990000D03*
X52000000Y-103450000D03*
X52000000Y-100910000D03*
X52000000Y-98370000D03*
X52000000Y-95830000D03*
X52000000Y-93290000D03*
D11*
X52000000Y-90750000D03*
%TD*%
D10*
%TO.C,J1*%
X54540000Y-64000000D03*
X54540000Y-66540000D03*
X54540000Y-69080000D03*
X54540000Y-71620000D03*
X54540000Y-74160000D03*
X54540000Y-76700000D03*
X54540000Y-79240000D03*
X54540000Y-81780000D03*
X52000000Y-81780000D03*
X52000000Y-79240000D03*
X52000000Y-76700000D03*
X52000000Y-74160000D03*
X52000000Y-71620000D03*
X52000000Y-69080000D03*
X52000000Y-66540000D03*
D11*
X52000000Y-64000000D03*
%TD*%
D12*
%TO.C,UB3*%
X93620000Y-90500000D03*
X86000000Y-108280000D03*
X93620000Y-93040000D03*
X86000000Y-105740000D03*
X93620000Y-95580000D03*
X86000000Y-103200000D03*
X93620000Y-98120000D03*
X86000000Y-100660000D03*
X93620000Y-100660000D03*
X86000000Y-98120000D03*
X93620000Y-103200000D03*
X86000000Y-95580000D03*
X93620000Y-105740000D03*
X86000000Y-93040000D03*
X93620000Y-108280000D03*
D13*
X86000000Y-90500000D03*
%TD*%
D16*
%TO.C,REF\u002A\u002A*%
X145000000Y-145000000D03*
%TD*%
%TO.C,REF\u002A\u002A*%
X55000000Y-145000000D03*
%TD*%
%TO.C,REF\u002A\u002A*%
X55000000Y-55000000D03*
%TD*%
D12*
%TO.C,UA5*%
X127620000Y-120500000D03*
X120000000Y-135740000D03*
X127620000Y-123040000D03*
X120000000Y-133200000D03*
X127620000Y-125580000D03*
X120000000Y-130660000D03*
X127620000Y-128120000D03*
X120000000Y-128120000D03*
X127620000Y-130660000D03*
X120000000Y-125580000D03*
X127620000Y-133200000D03*
X120000000Y-123040000D03*
X127620000Y-135740000D03*
D13*
X120000000Y-120500000D03*
%TD*%
D12*
%TO.C,UC6*%
X144620000Y-64000000D03*
X137000000Y-79240000D03*
X144620000Y-66540000D03*
X137000000Y-76700000D03*
X144620000Y-69080000D03*
X137000000Y-74160000D03*
X144620000Y-71620000D03*
X137000000Y-71620000D03*
X144620000Y-74160000D03*
X137000000Y-69080000D03*
X144620000Y-76700000D03*
X137000000Y-66540000D03*
X144620000Y-79240000D03*
D13*
X137000000Y-64000000D03*
%TD*%
D12*
%TO.C,UC5*%
X127620000Y-64000000D03*
X120000000Y-79240000D03*
X127620000Y-66540000D03*
X120000000Y-76700000D03*
X127620000Y-69080000D03*
X120000000Y-74160000D03*
X127620000Y-71620000D03*
X120000000Y-71620000D03*
X127620000Y-74160000D03*
X120000000Y-69080000D03*
X127620000Y-76700000D03*
X120000000Y-66540000D03*
X127620000Y-79240000D03*
D13*
X120000000Y-64000000D03*
%TD*%
D12*
%TO.C,UC4*%
X110620000Y-64000000D03*
X103000000Y-79240000D03*
X110620000Y-66540000D03*
X103000000Y-76700000D03*
X110620000Y-69080000D03*
X103000000Y-74160000D03*
X110620000Y-71620000D03*
X103000000Y-71620000D03*
X110620000Y-74160000D03*
X103000000Y-69080000D03*
X110620000Y-76700000D03*
X103000000Y-66540000D03*
X110620000Y-79240000D03*
D13*
X103000000Y-64000000D03*
%TD*%
D12*
%TO.C,UC3*%
X76620000Y-64000000D03*
X69000000Y-79240000D03*
X76620000Y-66540000D03*
X69000000Y-76700000D03*
X76620000Y-69080000D03*
X69000000Y-74160000D03*
X76620000Y-71620000D03*
X69000000Y-71620000D03*
X76620000Y-74160000D03*
X69000000Y-69080000D03*
X76620000Y-76700000D03*
X69000000Y-66540000D03*
X76620000Y-79240000D03*
D13*
X69000000Y-64000000D03*
%TD*%
D12*
%TO.C,UC2*%
X93620000Y-64000000D03*
X86000000Y-79240000D03*
X93620000Y-66540000D03*
X86000000Y-76700000D03*
X93620000Y-69080000D03*
X86000000Y-74160000D03*
X93620000Y-71620000D03*
X86000000Y-71620000D03*
X93620000Y-74160000D03*
X86000000Y-69080000D03*
X93620000Y-76700000D03*
X86000000Y-66540000D03*
X93620000Y-79240000D03*
D13*
X86000000Y-64000000D03*
%TD*%
D12*
%TO.C,UB4*%
X110620000Y-90500000D03*
X103000000Y-108280000D03*
X110620000Y-93040000D03*
X103000000Y-105740000D03*
X110620000Y-95580000D03*
X103000000Y-103200000D03*
X110620000Y-98120000D03*
X103000000Y-100660000D03*
X110620000Y-100660000D03*
X103000000Y-98120000D03*
X110620000Y-103200000D03*
X103000000Y-95580000D03*
X110620000Y-105740000D03*
X103000000Y-93040000D03*
X110620000Y-108280000D03*
D13*
X103000000Y-90500000D03*
%TD*%
D12*
%TO.C,UB2*%
X76620000Y-90500000D03*
X69000000Y-108280000D03*
X76620000Y-93040000D03*
X69000000Y-105740000D03*
X76620000Y-95580000D03*
X69000000Y-103200000D03*
X76620000Y-98120000D03*
X69000000Y-100660000D03*
X76620000Y-100660000D03*
X69000000Y-98120000D03*
X76620000Y-103200000D03*
X69000000Y-95580000D03*
X76620000Y-105740000D03*
X69000000Y-93040000D03*
X76620000Y-108280000D03*
D13*
X69000000Y-90500000D03*
%TD*%
%TO.C,UA6*%
X137000000Y-120500000D03*
D12*
X144620000Y-135740000D03*
X137000000Y-123040000D03*
X144620000Y-133200000D03*
X137000000Y-125580000D03*
X144620000Y-130660000D03*
X137000000Y-128120000D03*
X144620000Y-128120000D03*
X137000000Y-130660000D03*
X144620000Y-125580000D03*
X137000000Y-133200000D03*
X144620000Y-123040000D03*
X137000000Y-135740000D03*
X144620000Y-120500000D03*
%TD*%
%TO.C,UA4*%
X110620000Y-120500000D03*
X103000000Y-135740000D03*
X110620000Y-123040000D03*
X103000000Y-133200000D03*
X110620000Y-125580000D03*
X103000000Y-130660000D03*
X110620000Y-128120000D03*
X103000000Y-128120000D03*
X110620000Y-130660000D03*
X103000000Y-125580000D03*
X110620000Y-133200000D03*
X103000000Y-123040000D03*
X110620000Y-135740000D03*
D13*
X103000000Y-120500000D03*
%TD*%
D12*
%TO.C,UA3*%
X93620000Y-120500000D03*
X86000000Y-135740000D03*
X93620000Y-123040000D03*
X86000000Y-133200000D03*
X93620000Y-125580000D03*
X86000000Y-130660000D03*
X93620000Y-128120000D03*
X86000000Y-128120000D03*
X93620000Y-130660000D03*
X86000000Y-125580000D03*
X93620000Y-133200000D03*
X86000000Y-123040000D03*
X93620000Y-135740000D03*
D13*
X86000000Y-120500000D03*
%TD*%
D12*
%TO.C,UA2*%
X76620000Y-120500000D03*
X69000000Y-135740000D03*
X76620000Y-123040000D03*
X69000000Y-133200000D03*
X76620000Y-125580000D03*
X69000000Y-130660000D03*
X76620000Y-128120000D03*
X69000000Y-128120000D03*
X76620000Y-130660000D03*
X69000000Y-125580000D03*
X76620000Y-133200000D03*
X69000000Y-123040000D03*
X76620000Y-135740000D03*
D13*
X69000000Y-120500000D03*
%TD*%
D17*
%TO.C,D1*%
X82000000Y-54000000D03*
D18*
X84540000Y-54000000D03*
%TD*%
D19*
%TO.C,C3*%
X76000000Y-54000000D03*
D20*
X76000000Y-56500000D03*
%TD*%
M02*
