%TF.GenerationSoftware,KiCad,Pcbnew,(5.1.9)-1*%
%TF.CreationDate,2022-02-24T19:51:08-05:00*%
%TF.ProjectId,exorcisortry2,65786f72-6369-4736-9f72-747279322e6b,rev?*%
%TF.SameCoordinates,Original*%
%TF.FileFunction,Copper,L1,Top*%
%TF.FilePolarity,Positive*%
%FSLAX46Y46*%
G04 Gerber Fmt 4.6, Leading zero omitted, Abs format (unit mm)*
G04 Created by KiCad (PCBNEW (5.1.9)-1) date 2022-02-24 19:51:08*
%MOMM*%
%LPD*%
G01*
G04 APERTURE LIST*
%TA.AperFunction,ComponentPad*%
%ADD10O,1.700000X1.700000*%
%TD*%
%TA.AperFunction,ComponentPad*%
%ADD11R,1.700000X1.700000*%
%TD*%
%TA.AperFunction,ComponentPad*%
%ADD12O,2.400000X1.600000*%
%TD*%
%TA.AperFunction,ComponentPad*%
%ADD13R,2.400000X1.600000*%
%TD*%
%TA.AperFunction,ComponentPad*%
%ADD14R,1.980000X3.960000*%
%TD*%
%TA.AperFunction,ComponentPad*%
%ADD15O,1.980000X3.960000*%
%TD*%
%TA.AperFunction,ComponentPad*%
%ADD16R,1.800000X1.800000*%
%TD*%
%TA.AperFunction,ComponentPad*%
%ADD17C,1.800000*%
%TD*%
%TA.AperFunction,ComponentPad*%
%ADD18C,1.600000*%
%TD*%
%TA.AperFunction,ComponentPad*%
%ADD19R,1.600000X1.600000*%
%TD*%
%TA.AperFunction,ViaPad*%
%ADD20C,0.800000*%
%TD*%
%TA.AperFunction,Conductor*%
%ADD21C,0.500000*%
%TD*%
%TA.AperFunction,Conductor*%
%ADD22C,0.250000*%
%TD*%
G04 APERTURE END LIST*
D10*
%TO.P,J3,16*%
%TO.N,Net-(J3-Pad16)*%
X144540000Y-90750000D03*
%TO.P,J3,15*%
%TO.N,Net-(J3-Pad15)*%
X144540000Y-93290000D03*
%TO.P,J3,14*%
%TO.N,Net-(J3-Pad14)*%
X144540000Y-95830000D03*
%TO.P,J3,13*%
%TO.N,GND*%
X144540000Y-98370000D03*
%TO.P,J3,12*%
X144540000Y-100910000D03*
%TO.P,J3,11*%
%TO.N,Net-(J3-Pad11)*%
X144540000Y-103450000D03*
%TO.P,J3,10*%
%TO.N,Net-(J3-Pad10)*%
X144540000Y-105990000D03*
%TO.P,J3,9*%
%TO.N,Net-(J3-Pad9)*%
X144540000Y-108530000D03*
%TO.P,J3,8*%
%TO.N,GND*%
X142000000Y-108530000D03*
%TO.P,J3,7*%
X142000000Y-105990000D03*
%TO.P,J3,6*%
X142000000Y-103450000D03*
%TO.P,J3,5*%
%TO.N,Net-(J3-Pad5)*%
X142000000Y-100910000D03*
%TO.P,J3,4*%
%TO.N,Net-(J3-Pad4)*%
X142000000Y-98370000D03*
%TO.P,J3,3*%
%TO.N,GND*%
X142000000Y-95830000D03*
%TO.P,J3,2*%
X142000000Y-93290000D03*
D11*
%TO.P,J3,1*%
X142000000Y-90750000D03*
%TD*%
D10*
%TO.P,J3,16*%
%TO.N,Net-(J3_2-Pad16)*%
X62790000Y-90750000D03*
%TO.P,J3,15*%
%TO.N,Net-(J3_2-Pad15)*%
X62790000Y-93290000D03*
%TO.P,J3,14*%
%TO.N,Net-(J3_2-Pad14)*%
X62790000Y-95830000D03*
%TO.P,J3,13*%
%TO.N,Net-(J3_2-Pad13)*%
X62790000Y-98370000D03*
%TO.P,J3,12*%
%TO.N,Net-(J3_2-Pad12)*%
X62790000Y-100910000D03*
%TO.P,J3,11*%
%TO.N,Net-(J3_2-Pad11)*%
X62790000Y-103450000D03*
%TO.P,J3,10*%
%TO.N,Net-(J3_2-Pad10)*%
X62790000Y-105990000D03*
%TO.P,J3,9*%
%TO.N,Net-(J3_2-Pad9)*%
X62790000Y-108530000D03*
%TO.P,J3,8*%
%TO.N,Net-(J3_2-Pad8)*%
X60250000Y-108530000D03*
%TO.P,J3,7*%
%TO.N,Net-(J3_2-Pad7)*%
X60250000Y-105990000D03*
%TO.P,J3,6*%
%TO.N,Net-(J3_2-Pad6)*%
X60250000Y-103450000D03*
%TO.P,J3,5*%
%TO.N,Net-(J3_2-Pad5)*%
X60250000Y-100910000D03*
%TO.P,J3,4*%
%TO.N,Net-(J3_2-Pad4)*%
X60250000Y-98370000D03*
%TO.P,J3,3*%
%TO.N,Net-(J3_2-Pad3)*%
X60250000Y-95830000D03*
%TO.P,J3,2*%
%TO.N,Net-(J3_2-Pad2)*%
X60250000Y-93290000D03*
D11*
%TO.P,J3,1*%
%TO.N,Net-(J3_2-Pad1)*%
X60250000Y-90750000D03*
%TD*%
%TO.P,C2,2*%
%TO.N,GND*%
%TA.AperFunction,SMDPad,CuDef*%
G36*
G01*
X54850000Y-58599998D02*
X54850000Y-59900002D01*
G75*
G02*
X54600002Y-60150000I-249998J0D01*
G01*
X53774998Y-60150000D01*
G75*
G02*
X53525000Y-59900002I0J249998D01*
G01*
X53525000Y-58599998D01*
G75*
G02*
X53774998Y-58350000I249998J0D01*
G01*
X54600002Y-58350000D01*
G75*
G02*
X54850000Y-58599998I0J-249998D01*
G01*
G37*
%TD.AperFunction*%
%TO.P,C2,1*%
%TO.N,Net-(C2-Pad1)*%
%TA.AperFunction,SMDPad,CuDef*%
G36*
G01*
X57975000Y-58599998D02*
X57975000Y-59900002D01*
G75*
G02*
X57725002Y-60150000I-249998J0D01*
G01*
X56899998Y-60150000D01*
G75*
G02*
X56650000Y-59900002I0J249998D01*
G01*
X56650000Y-58599998D01*
G75*
G02*
X56899998Y-58350000I249998J0D01*
G01*
X57725002Y-58350000D01*
G75*
G02*
X57975000Y-58599998I0J-249998D01*
G01*
G37*
%TD.AperFunction*%
%TD*%
%TO.P,C6,2*%
%TO.N,GND*%
%TA.AperFunction,SMDPad,CuDef*%
G36*
G01*
X104100000Y-81849998D02*
X104100000Y-83150002D01*
G75*
G02*
X103850002Y-83400000I-249998J0D01*
G01*
X103024998Y-83400000D01*
G75*
G02*
X102775000Y-83150002I0J249998D01*
G01*
X102775000Y-81849998D01*
G75*
G02*
X103024998Y-81600000I249998J0D01*
G01*
X103850002Y-81600000D01*
G75*
G02*
X104100000Y-81849998I0J-249998D01*
G01*
G37*
%TD.AperFunction*%
%TO.P,C6,1*%
%TO.N,+5V*%
%TA.AperFunction,SMDPad,CuDef*%
G36*
G01*
X107225000Y-81849998D02*
X107225000Y-83150002D01*
G75*
G02*
X106975002Y-83400000I-249998J0D01*
G01*
X106149998Y-83400000D01*
G75*
G02*
X105900000Y-83150002I0J249998D01*
G01*
X105900000Y-81849998D01*
G75*
G02*
X106149998Y-81600000I249998J0D01*
G01*
X106975002Y-81600000D01*
G75*
G02*
X107225000Y-81849998I0J-249998D01*
G01*
G37*
%TD.AperFunction*%
%TD*%
D12*
%TO.P,UB5,16*%
%TO.N,+5V*%
X127620000Y-90500000D03*
%TO.P,UB5,8*%
%TO.N,GND*%
X120000000Y-108280000D03*
%TO.P,UB5,15*%
%TO.N,Net-(UB5-Pad15)*%
X127620000Y-93040000D03*
%TO.P,UB5,7*%
%TO.N,Net-(UB2-Pad15)*%
X120000000Y-105740000D03*
%TO.P,UB5,14*%
%TO.N,Net-(UA3-Pad12)*%
X127620000Y-95580000D03*
%TO.P,UB5,6*%
%TO.N,Net-(UB5-Pad6)*%
X120000000Y-103200000D03*
%TO.P,UB5,13*%
%TO.N,Net-(UA2-Pad12)*%
X127620000Y-98120000D03*
%TO.P,UB5,5*%
%TO.N,Net-(UB5-Pad5)*%
X120000000Y-100660000D03*
%TO.P,UB5,12*%
%TO.N,Net-(UA5-Pad9)*%
X127620000Y-100660000D03*
%TO.P,UB5,4*%
%TO.N,Net-(UB5-Pad4)*%
X120000000Y-98120000D03*
%TO.P,UB5,11*%
%TO.N,Net-(UB5-Pad11)*%
X127620000Y-103200000D03*
%TO.P,UB5,3*%
%TO.N,Net-(UB5-Pad3)*%
X120000000Y-95580000D03*
%TO.P,UB5,10*%
%TO.N,Net-(UB4-Pad15)*%
X127620000Y-105740000D03*
%TO.P,UB5,2*%
%TO.N,Net-(UB2-Pad2)*%
X120000000Y-93040000D03*
%TO.P,UB5,9*%
%TO.N,Net-(R2-Pad1)*%
X127620000Y-108280000D03*
D13*
%TO.P,UB5,1*%
X120000000Y-90500000D03*
%TD*%
D14*
%TO.P,J5,1*%
%TO.N,Net-(J5-Pad1)*%
X121000000Y-54000000D03*
D15*
%TO.P,J5,2*%
%TO.N,Net-(J5-Pad2)*%
X126000000Y-54000000D03*
%TO.P,J5,4*%
%TO.N,GND*%
X136000000Y-54000000D03*
%TO.P,J5,3*%
%TO.N,Net-(J5-Pad2)*%
X131000000Y-54000000D03*
%TD*%
D14*
%TO.P,J4,1*%
%TO.N,+5V*%
X63000000Y-54000000D03*
D15*
%TO.P,J4,2*%
%TO.N,GND*%
X68000000Y-54000000D03*
%TD*%
D10*
%TO.P,J2,16*%
%TO.N,Net-(J2-Pad16)*%
X54540000Y-118220000D03*
%TO.P,J2,15*%
%TO.N,Net-(J2-Pad15)*%
X54540000Y-120760000D03*
%TO.P,J2,14*%
%TO.N,Net-(J2-Pad14)*%
X54540000Y-123300000D03*
%TO.P,J2,13*%
%TO.N,Net-(J2-Pad13)*%
X54540000Y-125840000D03*
%TO.P,J2,12*%
%TO.N,Net-(J2-Pad12)*%
X54540000Y-128380000D03*
%TO.P,J2,11*%
%TO.N,Net-(J2-Pad11)*%
X54540000Y-130920000D03*
%TO.P,J2,10*%
%TO.N,GND*%
X54540000Y-133460000D03*
%TO.P,J2,9*%
X54540000Y-136000000D03*
%TO.P,J2,8*%
X52000000Y-136000000D03*
%TO.P,J2,7*%
X52000000Y-133460000D03*
%TO.P,J2,6*%
%TO.N,Net-(J2-Pad6)*%
X52000000Y-130920000D03*
%TO.P,J2,5*%
%TO.N,Net-(J2-Pad5)*%
X52000000Y-128380000D03*
%TO.P,J2,4*%
%TO.N,Net-(J2-Pad4)*%
X52000000Y-125840000D03*
%TO.P,J2,3*%
%TO.N,Net-(J2-Pad3)*%
X52000000Y-123300000D03*
%TO.P,J2,2*%
%TO.N,Net-(J2-Pad2)*%
X52000000Y-120760000D03*
D11*
%TO.P,J2,1*%
%TO.N,Net-(J2-Pad1)*%
X52000000Y-118220000D03*
%TD*%
D10*
%TO.P,J3,16*%
%TO.N,Net-(J3_2-Pad16)*%
X54540000Y-90750000D03*
%TO.P,J3,15*%
%TO.N,Net-(J3_2-Pad15)*%
X54540000Y-93290000D03*
%TO.P,J3,14*%
%TO.N,Net-(J3_2-Pad14)*%
X54540000Y-95830000D03*
%TO.P,J3,13*%
%TO.N,Net-(J3_2-Pad13)*%
X54540000Y-98370000D03*
%TO.P,J3,12*%
%TO.N,Net-(J3_2-Pad12)*%
X54540000Y-100910000D03*
%TO.P,J3,11*%
%TO.N,Net-(J3_2-Pad11)*%
X54540000Y-103450000D03*
%TO.P,J3,10*%
%TO.N,Net-(J3_2-Pad10)*%
X54540000Y-105990000D03*
%TO.P,J3,9*%
%TO.N,Net-(J3_2-Pad9)*%
X54540000Y-108530000D03*
%TO.P,J3,8*%
%TO.N,Net-(J3_2-Pad8)*%
X52000000Y-108530000D03*
%TO.P,J3,7*%
%TO.N,Net-(J3_2-Pad7)*%
X52000000Y-105990000D03*
%TO.P,J3,6*%
%TO.N,Net-(J3_2-Pad6)*%
X52000000Y-103450000D03*
%TO.P,J3,5*%
%TO.N,Net-(J3_2-Pad5)*%
X52000000Y-100910000D03*
%TO.P,J3,4*%
%TO.N,Net-(J3_2-Pad4)*%
X52000000Y-98370000D03*
%TO.P,J3,3*%
%TO.N,Net-(J3_2-Pad3)*%
X52000000Y-95830000D03*
%TO.P,J3,2*%
%TO.N,Net-(J3_2-Pad2)*%
X52000000Y-93290000D03*
D11*
%TO.P,J3,1*%
%TO.N,Net-(J3_2-Pad1)*%
X52000000Y-90750000D03*
%TD*%
D10*
%TO.P,J1,16*%
%TO.N,Net-(J1-Pad16)*%
X54540000Y-64000000D03*
%TO.P,J1,15*%
%TO.N,Net-(J1-Pad15)*%
X54540000Y-66540000D03*
%TO.P,J1,14*%
%TO.N,Net-(J1-Pad14)*%
X54540000Y-69080000D03*
%TO.P,J1,13*%
%TO.N,Net-(J1-Pad13)*%
X54540000Y-71620000D03*
%TO.P,J1,12*%
%TO.N,Net-(J1-Pad12)*%
X54540000Y-74160000D03*
%TO.P,J1,11*%
%TO.N,Net-(J1-Pad11)*%
X54540000Y-76700000D03*
%TO.P,J1,10*%
%TO.N,Net-(J1-Pad10)*%
X54540000Y-79240000D03*
%TO.P,J1,9*%
%TO.N,Net-(J1-Pad9)*%
X54540000Y-81780000D03*
%TO.P,J1,8*%
%TO.N,GND*%
X52000000Y-81780000D03*
%TO.P,J1,7*%
X52000000Y-79240000D03*
%TO.P,J1,6*%
X52000000Y-76700000D03*
%TO.P,J1,5*%
X52000000Y-74160000D03*
%TO.P,J1,4*%
X52000000Y-71620000D03*
%TO.P,J1,3*%
X52000000Y-69080000D03*
%TO.P,J1,2*%
X52000000Y-66540000D03*
D11*
%TO.P,J1,1*%
X52000000Y-64000000D03*
%TD*%
D12*
%TO.P,UB3,16*%
%TO.N,+5V*%
X93620000Y-90500000D03*
%TO.P,UB3,8*%
%TO.N,GND*%
X86000000Y-108280000D03*
%TO.P,UB3,15*%
%TO.N,Net-(UB3-Pad15)*%
X93620000Y-93040000D03*
%TO.P,UB3,7*%
%TO.N,Net-(UB2-Pad15)*%
X86000000Y-105740000D03*
%TO.P,UB3,14*%
%TO.N,Net-(UB3-Pad14)*%
X93620000Y-95580000D03*
%TO.P,UB3,6*%
%TO.N,Net-(UB3-Pad6)*%
X86000000Y-103200000D03*
%TO.P,UB3,13*%
%TO.N,Net-(UB3-Pad13)*%
X93620000Y-98120000D03*
%TO.P,UB3,5*%
%TO.N,Net-(UB3-Pad5)*%
X86000000Y-100660000D03*
%TO.P,UB3,12*%
%TO.N,Net-(UB3-Pad12)*%
X93620000Y-100660000D03*
%TO.P,UB3,4*%
%TO.N,Net-(UB3-Pad4)*%
X86000000Y-98120000D03*
%TO.P,UB3,11*%
%TO.N,Net-(UB3-Pad11)*%
X93620000Y-103200000D03*
%TO.P,UB3,3*%
%TO.N,Net-(UB3-Pad3)*%
X86000000Y-95580000D03*
%TO.P,UB3,10*%
%TO.N,Net-(UB2-Pad15)*%
X93620000Y-105740000D03*
%TO.P,UB3,2*%
%TO.N,Net-(UB2-Pad2)*%
X86000000Y-93040000D03*
%TO.P,UB3,9*%
%TO.N,Net-(R2-Pad1)*%
X93620000Y-108280000D03*
D13*
%TO.P,UB3,1*%
X86000000Y-90500000D03*
%TD*%
%TO.P,C17,2*%
%TO.N,GND*%
%TA.AperFunction,SMDPad,CuDef*%
G36*
G01*
X137850000Y-138349998D02*
X137850000Y-139650002D01*
G75*
G02*
X137600002Y-139900000I-249998J0D01*
G01*
X136774998Y-139900000D01*
G75*
G02*
X136525000Y-139650002I0J249998D01*
G01*
X136525000Y-138349998D01*
G75*
G02*
X136774998Y-138100000I249998J0D01*
G01*
X137600002Y-138100000D01*
G75*
G02*
X137850000Y-138349998I0J-249998D01*
G01*
G37*
%TD.AperFunction*%
%TO.P,C17,1*%
%TO.N,+5V*%
%TA.AperFunction,SMDPad,CuDef*%
G36*
G01*
X140975000Y-138349998D02*
X140975000Y-139650002D01*
G75*
G02*
X140725002Y-139900000I-249998J0D01*
G01*
X139899998Y-139900000D01*
G75*
G02*
X139650000Y-139650002I0J249998D01*
G01*
X139650000Y-138349998D01*
G75*
G02*
X139899998Y-138100000I249998J0D01*
G01*
X140725002Y-138100000D01*
G75*
G02*
X140975000Y-138349998I0J-249998D01*
G01*
G37*
%TD.AperFunction*%
%TD*%
%TO.P,C16,2*%
%TO.N,GND*%
%TA.AperFunction,SMDPad,CuDef*%
G36*
G01*
X120850000Y-138349998D02*
X120850000Y-139650002D01*
G75*
G02*
X120600002Y-139900000I-249998J0D01*
G01*
X119774998Y-139900000D01*
G75*
G02*
X119525000Y-139650002I0J249998D01*
G01*
X119525000Y-138349998D01*
G75*
G02*
X119774998Y-138100000I249998J0D01*
G01*
X120600002Y-138100000D01*
G75*
G02*
X120850000Y-138349998I0J-249998D01*
G01*
G37*
%TD.AperFunction*%
%TO.P,C16,1*%
%TO.N,+5V*%
%TA.AperFunction,SMDPad,CuDef*%
G36*
G01*
X123975000Y-138349998D02*
X123975000Y-139650002D01*
G75*
G02*
X123725002Y-139900000I-249998J0D01*
G01*
X122899998Y-139900000D01*
G75*
G02*
X122650000Y-139650002I0J249998D01*
G01*
X122650000Y-138349998D01*
G75*
G02*
X122899998Y-138100000I249998J0D01*
G01*
X123725002Y-138100000D01*
G75*
G02*
X123975000Y-138349998I0J-249998D01*
G01*
G37*
%TD.AperFunction*%
%TD*%
%TO.P,C15,2*%
%TO.N,GND*%
%TA.AperFunction,SMDPad,CuDef*%
G36*
G01*
X103662500Y-138349998D02*
X103662500Y-139650002D01*
G75*
G02*
X103412502Y-139900000I-249998J0D01*
G01*
X102587498Y-139900000D01*
G75*
G02*
X102337500Y-139650002I0J249998D01*
G01*
X102337500Y-138349998D01*
G75*
G02*
X102587498Y-138100000I249998J0D01*
G01*
X103412502Y-138100000D01*
G75*
G02*
X103662500Y-138349998I0J-249998D01*
G01*
G37*
%TD.AperFunction*%
%TO.P,C15,1*%
%TO.N,+5V*%
%TA.AperFunction,SMDPad,CuDef*%
G36*
G01*
X106787500Y-138349998D02*
X106787500Y-139650002D01*
G75*
G02*
X106537502Y-139900000I-249998J0D01*
G01*
X105712498Y-139900000D01*
G75*
G02*
X105462500Y-139650002I0J249998D01*
G01*
X105462500Y-138349998D01*
G75*
G02*
X105712498Y-138100000I249998J0D01*
G01*
X106537502Y-138100000D01*
G75*
G02*
X106787500Y-138349998I0J-249998D01*
G01*
G37*
%TD.AperFunction*%
%TD*%
%TO.P,C14,2*%
%TO.N,GND*%
%TA.AperFunction,SMDPad,CuDef*%
G36*
G01*
X86662500Y-138349998D02*
X86662500Y-139650002D01*
G75*
G02*
X86412502Y-139900000I-249998J0D01*
G01*
X85587498Y-139900000D01*
G75*
G02*
X85337500Y-139650002I0J249998D01*
G01*
X85337500Y-138349998D01*
G75*
G02*
X85587498Y-138100000I249998J0D01*
G01*
X86412502Y-138100000D01*
G75*
G02*
X86662500Y-138349998I0J-249998D01*
G01*
G37*
%TD.AperFunction*%
%TO.P,C14,1*%
%TO.N,+5V*%
%TA.AperFunction,SMDPad,CuDef*%
G36*
G01*
X89787500Y-138349998D02*
X89787500Y-139650002D01*
G75*
G02*
X89537502Y-139900000I-249998J0D01*
G01*
X88712498Y-139900000D01*
G75*
G02*
X88462500Y-139650002I0J249998D01*
G01*
X88462500Y-138349998D01*
G75*
G02*
X88712498Y-138100000I249998J0D01*
G01*
X89537502Y-138100000D01*
G75*
G02*
X89787500Y-138349998I0J-249998D01*
G01*
G37*
%TD.AperFunction*%
%TD*%
D12*
%TO.P,UA5,14*%
%TO.N,+5V*%
X127620000Y-120500000D03*
%TO.P,UA5,7*%
%TO.N,GND*%
X120000000Y-135740000D03*
%TO.P,UA5,13*%
%TO.N,Net-(UA4-Pad10)*%
X127620000Y-123040000D03*
%TO.P,UA5,6*%
%TO.N,Net-(J3-Pad11)*%
X120000000Y-133200000D03*
%TO.P,UA5,12*%
%TO.N,Net-(UA2-Pad4)*%
X127620000Y-125580000D03*
%TO.P,UA5,5*%
%TO.N,Net-(UA3-Pad10)*%
X120000000Y-130660000D03*
%TO.P,UA5,11*%
%TO.N,Net-(J3-Pad5)*%
X127620000Y-128120000D03*
%TO.P,UA5,4*%
%TO.N,Net-(UA3-Pad12)*%
X120000000Y-128120000D03*
%TO.P,UA5,10*%
%TO.N,Net-(UA5-Pad10)*%
X127620000Y-130660000D03*
%TO.P,UA5,3*%
%TO.N,Net-(J3-Pad4)*%
X120000000Y-125580000D03*
%TO.P,UA5,9*%
%TO.N,Net-(UA5-Pad9)*%
X127620000Y-133200000D03*
%TO.P,UA5,2*%
%TO.N,Net-(UA3-Pad10)*%
X120000000Y-123040000D03*
%TO.P,UA5,8*%
%TO.N,Net-(UA5-Pad8)*%
X127620000Y-135740000D03*
D13*
%TO.P,UA5,1*%
%TO.N,Net-(UA2-Pad1)*%
X120000000Y-120500000D03*
%TD*%
D12*
%TO.P,UC6,14*%
%TO.N,+5V*%
X144620000Y-64000000D03*
%TO.P,UC6,7*%
%TO.N,GND*%
X137000000Y-79240000D03*
%TO.P,UC6,13*%
%TO.N,N/C*%
X144620000Y-66540000D03*
%TO.P,UC6,6*%
X137000000Y-76700000D03*
%TO.P,UC6,12*%
X144620000Y-69080000D03*
%TO.P,UC6,5*%
X137000000Y-74160000D03*
%TO.P,UC6,11*%
X144620000Y-71620000D03*
%TO.P,UC6,4*%
X137000000Y-71620000D03*
%TO.P,UC6,10*%
X144620000Y-74160000D03*
%TO.P,UC6,3*%
X137000000Y-69080000D03*
%TO.P,UC6,9*%
X144620000Y-76700000D03*
%TO.P,UC6,2*%
%TO.N,Net-(R1-Pad2)*%
X137000000Y-66540000D03*
%TO.P,UC6,8*%
%TO.N,N/C*%
X144620000Y-79240000D03*
D13*
%TO.P,UC6,1*%
%TO.N,Net-(C2-Pad1)*%
X137000000Y-64000000D03*
%TD*%
D12*
%TO.P,UC5,14*%
%TO.N,+5V*%
X127620000Y-64000000D03*
%TO.P,UC5,7*%
%TO.N,GND*%
X120000000Y-79240000D03*
%TO.P,UC5,13*%
%TO.N,N/C*%
X127620000Y-66540000D03*
%TO.P,UC5,6*%
X120000000Y-76700000D03*
%TO.P,UC5,12*%
X127620000Y-69080000D03*
%TO.P,UC5,5*%
X120000000Y-74160000D03*
%TO.P,UC5,11*%
X127620000Y-71620000D03*
%TO.P,UC5,4*%
X120000000Y-71620000D03*
%TO.P,UC5,10*%
%TO.N,Net-(UB3-Pad13)*%
X127620000Y-74160000D03*
%TO.P,UC5,3*%
%TO.N,Net-(J5-Pad1)*%
X120000000Y-69080000D03*
%TO.P,UC5,9*%
%TO.N,Net-(UB5-Pad11)*%
X127620000Y-76700000D03*
%TO.P,UC5,2*%
%TO.N,Net-(UC4-Pad3)*%
X120000000Y-66540000D03*
%TO.P,UC5,8*%
%TO.N,Net-(UA5-Pad10)*%
X127620000Y-79240000D03*
D13*
%TO.P,UC5,1*%
%TO.N,Net-(UC4-Pad3)*%
X120000000Y-64000000D03*
%TD*%
D12*
%TO.P,UC4,14*%
%TO.N,+5V*%
X110620000Y-64000000D03*
%TO.P,UC4,7*%
%TO.N,GND*%
X103000000Y-79240000D03*
%TO.P,UC4,13*%
%TO.N,Net-(R2-Pad1)*%
X110620000Y-66540000D03*
%TO.P,UC4,6*%
%TO.N,Net-(UC4-Pad6)*%
X103000000Y-76700000D03*
%TO.P,UC4,12*%
%TO.N,Net-(R1-Pad2)*%
X110620000Y-69080000D03*
%TO.P,UC4,5*%
%TO.N,Net-(UC2-Pad5)*%
X103000000Y-74160000D03*
%TO.P,UC4,11*%
%TO.N,Net-(UC2-Pad2)*%
X110620000Y-71620000D03*
%TO.P,UC4,4*%
%TO.N,Net-(UC2-Pad4)*%
X103000000Y-71620000D03*
%TO.P,UC4,10*%
%TO.N,Net-(R2-Pad1)*%
X110620000Y-74160000D03*
%TO.P,UC4,3*%
%TO.N,Net-(UC4-Pad3)*%
X103000000Y-69080000D03*
%TO.P,UC4,9*%
%TO.N,Net-(R1-Pad2)*%
X110620000Y-76700000D03*
%TO.P,UC4,2*%
%TO.N,Net-(UC4-Pad2)*%
X103000000Y-66540000D03*
%TO.P,UC4,8*%
%TO.N,Net-(UA5-Pad8)*%
X110620000Y-79240000D03*
D13*
%TO.P,UC4,1*%
%TO.N,Net-(UB5-Pad15)*%
X103000000Y-64000000D03*
%TD*%
D12*
%TO.P,UC3,14*%
%TO.N,+5V*%
X76620000Y-64000000D03*
%TO.P,UC3,7*%
%TO.N,GND*%
X69000000Y-79240000D03*
%TO.P,UC3,13*%
%TO.N,Net-(UB3-Pad12)*%
X76620000Y-66540000D03*
%TO.P,UC3,6*%
%TO.N,Net-(J1-Pad15)*%
X69000000Y-76700000D03*
%TO.P,UC3,12*%
%TO.N,Net-(J1-Pad14)*%
X76620000Y-69080000D03*
%TO.P,UC3,5*%
%TO.N,Net-(UB3-Pad11)*%
X69000000Y-74160000D03*
%TO.P,UC3,11*%
%TO.N,Net-(UB3-Pad13)*%
X76620000Y-71620000D03*
%TO.P,UC3,4*%
%TO.N,Net-(J1-Pad16)*%
X69000000Y-71620000D03*
%TO.P,UC3,10*%
%TO.N,Net-(J1-Pad13)*%
X76620000Y-74160000D03*
%TO.P,UC3,3*%
%TO.N,Net-(UB4-Pad14)*%
X69000000Y-69080000D03*
%TO.P,UC3,9*%
%TO.N,Net-(UB3-Pad14)*%
X76620000Y-76700000D03*
%TO.P,UC3,2*%
%TO.N,Net-(UB2-Pad2)*%
X69000000Y-66540000D03*
%TO.P,UC3,8*%
%TO.N,Net-(J1-Pad12)*%
X76620000Y-79240000D03*
D13*
%TO.P,UC3,1*%
%TO.N,Net-(C2-Pad1)*%
X69000000Y-64000000D03*
%TD*%
D12*
%TO.P,UC2,14*%
%TO.N,+5V*%
X93620000Y-64000000D03*
%TO.P,UC2,7*%
%TO.N,GND*%
X86000000Y-79240000D03*
%TO.P,UC2,13*%
%TO.N,Net-(UA3-Pad13)*%
X93620000Y-66540000D03*
%TO.P,UC2,6*%
%TO.N,Net-(J3-Pad16)*%
X86000000Y-76700000D03*
%TO.P,UC2,12*%
%TO.N,Net-(J1-Pad11)*%
X93620000Y-69080000D03*
%TO.P,UC2,5*%
%TO.N,Net-(UC2-Pad5)*%
X86000000Y-74160000D03*
%TO.P,UC2,11*%
%TO.N,Net-(UA4-Pad10)*%
X93620000Y-71620000D03*
%TO.P,UC2,4*%
%TO.N,Net-(UC2-Pad4)*%
X86000000Y-71620000D03*
%TO.P,UC2,10*%
%TO.N,Net-(J1-Pad10)*%
X93620000Y-74160000D03*
%TO.P,UC2,3*%
%TO.N,Net-(UB5-Pad15)*%
X86000000Y-69080000D03*
%TO.P,UC2,9*%
%TO.N,Net-(UA3-Pad10)*%
X93620000Y-76700000D03*
%TO.P,UC2,2*%
%TO.N,Net-(UC2-Pad2)*%
X86000000Y-66540000D03*
%TO.P,UC2,8*%
%TO.N,Net-(J1-Pad9)*%
X93620000Y-79240000D03*
D13*
%TO.P,UC2,1*%
%TO.N,Net-(UA5-Pad8)*%
X86000000Y-64000000D03*
%TD*%
D12*
%TO.P,UB4,16*%
%TO.N,+5V*%
X110620000Y-90500000D03*
%TO.P,UB4,8*%
%TO.N,GND*%
X103000000Y-108280000D03*
%TO.P,UB4,15*%
%TO.N,Net-(UB4-Pad15)*%
X110620000Y-93040000D03*
%TO.P,UB4,7*%
%TO.N,Net-(UB2-Pad15)*%
X103000000Y-105740000D03*
%TO.P,UB4,14*%
%TO.N,Net-(UB4-Pad14)*%
X110620000Y-95580000D03*
%TO.P,UB4,6*%
%TO.N,Net-(UB4-Pad6)*%
X103000000Y-103200000D03*
%TO.P,UB4,13*%
%TO.N,Net-(UA2-Pad1)*%
X110620000Y-98120000D03*
%TO.P,UB4,5*%
%TO.N,Net-(UB4-Pad5)*%
X103000000Y-100660000D03*
%TO.P,UB4,12*%
%TO.N,Net-(UA2-Pad4)*%
X110620000Y-100660000D03*
%TO.P,UB4,4*%
%TO.N,Net-(UB4-Pad4)*%
X103000000Y-98120000D03*
%TO.P,UB4,11*%
%TO.N,Net-(UA2-Pad9)*%
X110620000Y-103200000D03*
%TO.P,UB4,3*%
%TO.N,Net-(UB4-Pad3)*%
X103000000Y-95580000D03*
%TO.P,UB4,10*%
%TO.N,Net-(UB3-Pad15)*%
X110620000Y-105740000D03*
%TO.P,UB4,2*%
%TO.N,Net-(UB2-Pad2)*%
X103000000Y-93040000D03*
%TO.P,UB4,9*%
%TO.N,Net-(R2-Pad1)*%
X110620000Y-108280000D03*
D13*
%TO.P,UB4,1*%
X103000000Y-90500000D03*
%TD*%
D12*
%TO.P,UB2,16*%
%TO.N,+5V*%
X76620000Y-90500000D03*
%TO.P,UB2,8*%
%TO.N,GND*%
X69000000Y-108280000D03*
%TO.P,UB2,15*%
%TO.N,Net-(UB2-Pad15)*%
X76620000Y-93040000D03*
%TO.P,UB2,7*%
%TO.N,Net-(R2-Pad1)*%
X69000000Y-105740000D03*
%TO.P,UB2,14*%
%TO.N,Net-(UA2-Pad10)*%
X76620000Y-95580000D03*
%TO.P,UB2,6*%
%TO.N,Net-(UB2-Pad6)*%
X69000000Y-103200000D03*
%TO.P,UB2,13*%
%TO.N,Net-(UA3-Pad10)*%
X76620000Y-98120000D03*
%TO.P,UB2,5*%
%TO.N,Net-(UB2-Pad5)*%
X69000000Y-100660000D03*
%TO.P,UB2,12*%
%TO.N,Net-(UA4-Pad10)*%
X76620000Y-100660000D03*
%TO.P,UB2,4*%
%TO.N,Net-(UB2-Pad4)*%
X69000000Y-98120000D03*
%TO.P,UB2,11*%
%TO.N,Net-(UA3-Pad13)*%
X76620000Y-103200000D03*
%TO.P,UB2,3*%
%TO.N,Net-(UB2-Pad3)*%
X69000000Y-95580000D03*
%TO.P,UB2,10*%
%TO.N,Net-(R2-Pad1)*%
X76620000Y-105740000D03*
%TO.P,UB2,2*%
%TO.N,Net-(UB2-Pad2)*%
X69000000Y-93040000D03*
%TO.P,UB2,9*%
%TO.N,Net-(R2-Pad1)*%
X76620000Y-108280000D03*
D13*
%TO.P,UB2,1*%
X69000000Y-90500000D03*
%TD*%
%TO.P,UA6,1*%
%TO.N,Net-(UA2-Pad10)*%
X137000000Y-120500000D03*
D12*
%TO.P,UA6,8*%
%TO.N,Net-(J3-Pad10)*%
X144620000Y-135740000D03*
%TO.P,UA6,2*%
%TO.N,Net-(UA3-Pad12)*%
X137000000Y-123040000D03*
%TO.P,UA6,9*%
%TO.N,Net-(UA2-Pad12)*%
X144620000Y-133200000D03*
%TO.P,UA6,3*%
%TO.N,Net-(J3-Pad14)*%
X137000000Y-125580000D03*
%TO.P,UA6,10*%
%TO.N,Net-(UA3-Pad10)*%
X144620000Y-130660000D03*
%TO.P,UA6,4*%
%TO.N,N/C*%
X137000000Y-128120000D03*
%TO.P,UA6,11*%
%TO.N,Net-(J3-Pad9)*%
X144620000Y-128120000D03*
%TO.P,UA6,5*%
%TO.N,N/C*%
X137000000Y-130660000D03*
%TO.P,UA6,12*%
%TO.N,Net-(UA2-Pad12)*%
X144620000Y-125580000D03*
%TO.P,UA6,6*%
%TO.N,N/C*%
X137000000Y-133200000D03*
%TO.P,UA6,13*%
%TO.N,Net-(UA4-Pad10)*%
X144620000Y-123040000D03*
%TO.P,UA6,7*%
%TO.N,GND*%
X137000000Y-135740000D03*
%TO.P,UA6,14*%
%TO.N,+5V*%
X144620000Y-120500000D03*
%TD*%
%TO.P,UA4,14*%
%TO.N,+5V*%
X110620000Y-120500000D03*
%TO.P,UA4,7*%
%TO.N,GND*%
X103000000Y-135740000D03*
%TO.P,UA4,13*%
%TO.N,Net-(UA4-Pad10)*%
X110620000Y-123040000D03*
%TO.P,UA4,6*%
%TO.N,Net-(J2-Pad5)*%
X103000000Y-133200000D03*
%TO.P,UA4,12*%
%TO.N,Net-(UA3-Pad12)*%
X110620000Y-125580000D03*
%TO.P,UA4,5*%
%TO.N,Net-(UA2-Pad4)*%
X103000000Y-130660000D03*
%TO.P,UA4,11*%
%TO.N,Net-(J2-Pad6)*%
X110620000Y-128120000D03*
%TO.P,UA4,4*%
%TO.N,Net-(UA3-Pad13)*%
X103000000Y-128120000D03*
%TO.P,UA4,10*%
%TO.N,Net-(UA4-Pad10)*%
X110620000Y-130660000D03*
%TO.P,UA4,3*%
%TO.N,Net-(J2-Pad12)*%
X103000000Y-125580000D03*
%TO.P,UA4,9*%
%TO.N,Net-(UA2-Pad9)*%
X110620000Y-133200000D03*
%TO.P,UA4,2*%
%TO.N,Net-(UA4-Pad10)*%
X103000000Y-123040000D03*
%TO.P,UA4,8*%
%TO.N,Net-(J2-Pad11)*%
X110620000Y-135740000D03*
D13*
%TO.P,UA4,1*%
%TO.N,Net-(UA2-Pad1)*%
X103000000Y-120500000D03*
%TD*%
D12*
%TO.P,UA3,14*%
%TO.N,+5V*%
X93620000Y-120500000D03*
%TO.P,UA3,7*%
%TO.N,GND*%
X86000000Y-135740000D03*
%TO.P,UA3,13*%
%TO.N,Net-(UA3-Pad13)*%
X93620000Y-123040000D03*
%TO.P,UA3,6*%
%TO.N,Net-(J2-Pad3)*%
X86000000Y-133200000D03*
%TO.P,UA3,12*%
%TO.N,Net-(UA3-Pad12)*%
X93620000Y-125580000D03*
%TO.P,UA3,5*%
%TO.N,Net-(UA3-Pad10)*%
X86000000Y-130660000D03*
%TO.P,UA3,11*%
%TO.N,Net-(J2-Pad4)*%
X93620000Y-128120000D03*
%TO.P,UA3,4*%
%TO.N,Net-(UA2-Pad4)*%
X86000000Y-128120000D03*
%TO.P,UA3,10*%
%TO.N,Net-(UA3-Pad10)*%
X93620000Y-130660000D03*
%TO.P,UA3,3*%
%TO.N,Net-(J2-Pad14)*%
X86000000Y-125580000D03*
%TO.P,UA3,9*%
%TO.N,Net-(UA2-Pad9)*%
X93620000Y-133200000D03*
%TO.P,UA3,2*%
%TO.N,Net-(UA3-Pad13)*%
X86000000Y-123040000D03*
%TO.P,UA3,8*%
%TO.N,Net-(J2-Pad13)*%
X93620000Y-135740000D03*
D13*
%TO.P,UA3,1*%
%TO.N,Net-(UA2-Pad1)*%
X86000000Y-120500000D03*
%TD*%
D12*
%TO.P,UA2,14*%
%TO.N,+5V*%
X76620000Y-120500000D03*
%TO.P,UA2,7*%
%TO.N,GND*%
X69000000Y-135740000D03*
%TO.P,UA2,13*%
%TO.N,Net-(UA2-Pad10)*%
X76620000Y-123040000D03*
%TO.P,UA2,6*%
%TO.N,Net-(J2-Pad1)*%
X69000000Y-133200000D03*
%TO.P,UA2,12*%
%TO.N,Net-(UA2-Pad12)*%
X76620000Y-125580000D03*
%TO.P,UA2,5*%
%TO.N,Net-(UA2-Pad10)*%
X69000000Y-130660000D03*
%TO.P,UA2,11*%
%TO.N,Net-(J2-Pad2)*%
X76620000Y-128120000D03*
%TO.P,UA2,4*%
%TO.N,Net-(UA2-Pad4)*%
X69000000Y-128120000D03*
%TO.P,UA2,10*%
%TO.N,Net-(UA2-Pad10)*%
X76620000Y-130660000D03*
%TO.P,UA2,3*%
%TO.N,Net-(J2-Pad16)*%
X69000000Y-125580000D03*
%TO.P,UA2,9*%
%TO.N,Net-(UA2-Pad9)*%
X76620000Y-133200000D03*
%TO.P,UA2,2*%
%TO.N,Net-(UA2-Pad10)*%
X69000000Y-123040000D03*
%TO.P,UA2,8*%
%TO.N,Net-(J2-Pad15)*%
X76620000Y-135740000D03*
D13*
%TO.P,UA2,1*%
%TO.N,Net-(UA2-Pad1)*%
X69000000Y-120500000D03*
%TD*%
%TO.P,R5,1*%
%TO.N,+5V*%
%TA.AperFunction,SMDPad,CuDef*%
G36*
G01*
X80775000Y-59650002D02*
X80775000Y-58349998D01*
G75*
G02*
X81024998Y-58100000I249998J0D01*
G01*
X81850002Y-58100000D01*
G75*
G02*
X82100000Y-58349998I0J-249998D01*
G01*
X82100000Y-59650002D01*
G75*
G02*
X81850002Y-59900000I-249998J0D01*
G01*
X81024998Y-59900000D01*
G75*
G02*
X80775000Y-59650002I0J249998D01*
G01*
G37*
%TD.AperFunction*%
%TO.P,R5,2*%
%TO.N,Net-(D1-Pad2)*%
%TA.AperFunction,SMDPad,CuDef*%
G36*
G01*
X83900000Y-59650002D02*
X83900000Y-58349998D01*
G75*
G02*
X84149998Y-58100000I249998J0D01*
G01*
X84975002Y-58100000D01*
G75*
G02*
X85225000Y-58349998I0J-249998D01*
G01*
X85225000Y-59650002D01*
G75*
G02*
X84975002Y-59900000I-249998J0D01*
G01*
X84149998Y-59900000D01*
G75*
G02*
X83900000Y-59650002I0J249998D01*
G01*
G37*
%TD.AperFunction*%
%TD*%
%TO.P,R4,1*%
%TO.N,+5V*%
%TA.AperFunction,SMDPad,CuDef*%
G36*
G01*
X143275000Y-83150002D02*
X143275000Y-81849998D01*
G75*
G02*
X143524998Y-81600000I249998J0D01*
G01*
X144350002Y-81600000D01*
G75*
G02*
X144600000Y-81849998I0J-249998D01*
G01*
X144600000Y-83150002D01*
G75*
G02*
X144350002Y-83400000I-249998J0D01*
G01*
X143524998Y-83400000D01*
G75*
G02*
X143275000Y-83150002I0J249998D01*
G01*
G37*
%TD.AperFunction*%
%TO.P,R4,2*%
%TO.N,Net-(J3-Pad15)*%
%TA.AperFunction,SMDPad,CuDef*%
G36*
G01*
X146400000Y-83150002D02*
X146400000Y-81849998D01*
G75*
G02*
X146649998Y-81600000I249998J0D01*
G01*
X147475002Y-81600000D01*
G75*
G02*
X147725000Y-81849998I0J-249998D01*
G01*
X147725000Y-83150002D01*
G75*
G02*
X147475002Y-83400000I-249998J0D01*
G01*
X146649998Y-83400000D01*
G75*
G02*
X146400000Y-83150002I0J249998D01*
G01*
G37*
%TD.AperFunction*%
%TD*%
%TO.P,R3,1*%
%TO.N,Net-(C2-Pad1)*%
%TA.AperFunction,SMDPad,CuDef*%
G36*
G01*
X142400002Y-60475000D02*
X141099998Y-60475000D01*
G75*
G02*
X140850000Y-60225002I0J249998D01*
G01*
X140850000Y-59399998D01*
G75*
G02*
X141099998Y-59150000I249998J0D01*
G01*
X142400002Y-59150000D01*
G75*
G02*
X142650000Y-59399998I0J-249998D01*
G01*
X142650000Y-60225002D01*
G75*
G02*
X142400002Y-60475000I-249998J0D01*
G01*
G37*
%TD.AperFunction*%
%TO.P,R3,2*%
%TO.N,Net-(J5-Pad2)*%
%TA.AperFunction,SMDPad,CuDef*%
G36*
G01*
X142400002Y-57350000D02*
X141099998Y-57350000D01*
G75*
G02*
X140850000Y-57100002I0J249998D01*
G01*
X140850000Y-56274998D01*
G75*
G02*
X141099998Y-56025000I249998J0D01*
G01*
X142400002Y-56025000D01*
G75*
G02*
X142650000Y-56274998I0J-249998D01*
G01*
X142650000Y-57100002D01*
G75*
G02*
X142400002Y-57350000I-249998J0D01*
G01*
G37*
%TD.AperFunction*%
%TD*%
%TO.P,R2,2*%
%TO.N,+5V*%
%TA.AperFunction,SMDPad,CuDef*%
G36*
G01*
X71900000Y-86650002D02*
X71900000Y-85349998D01*
G75*
G02*
X72149998Y-85100000I249998J0D01*
G01*
X72975002Y-85100000D01*
G75*
G02*
X73225000Y-85349998I0J-249998D01*
G01*
X73225000Y-86650002D01*
G75*
G02*
X72975002Y-86900000I-249998J0D01*
G01*
X72149998Y-86900000D01*
G75*
G02*
X71900000Y-86650002I0J249998D01*
G01*
G37*
%TD.AperFunction*%
%TO.P,R2,1*%
%TO.N,Net-(R2-Pad1)*%
%TA.AperFunction,SMDPad,CuDef*%
G36*
G01*
X68775000Y-86650002D02*
X68775000Y-85349998D01*
G75*
G02*
X69024998Y-85100000I249998J0D01*
G01*
X69850002Y-85100000D01*
G75*
G02*
X70100000Y-85349998I0J-249998D01*
G01*
X70100000Y-86650002D01*
G75*
G02*
X69850002Y-86900000I-249998J0D01*
G01*
X69024998Y-86900000D01*
G75*
G02*
X68775000Y-86650002I0J249998D01*
G01*
G37*
%TD.AperFunction*%
%TD*%
%TO.P,R1,1*%
%TO.N,+5V*%
%TA.AperFunction,SMDPad,CuDef*%
G36*
G01*
X134400002Y-83475000D02*
X133099998Y-83475000D01*
G75*
G02*
X132850000Y-83225002I0J249998D01*
G01*
X132850000Y-82399998D01*
G75*
G02*
X133099998Y-82150000I249998J0D01*
G01*
X134400002Y-82150000D01*
G75*
G02*
X134650000Y-82399998I0J-249998D01*
G01*
X134650000Y-83225002D01*
G75*
G02*
X134400002Y-83475000I-249998J0D01*
G01*
G37*
%TD.AperFunction*%
%TO.P,R1,2*%
%TO.N,Net-(R1-Pad2)*%
%TA.AperFunction,SMDPad,CuDef*%
G36*
G01*
X134400002Y-80350000D02*
X133099998Y-80350000D01*
G75*
G02*
X132850000Y-80100002I0J249998D01*
G01*
X132850000Y-79274998D01*
G75*
G02*
X133099998Y-79025000I249998J0D01*
G01*
X134400002Y-79025000D01*
G75*
G02*
X134650000Y-79274998I0J-249998D01*
G01*
X134650000Y-80100002D01*
G75*
G02*
X134400002Y-80350000I-249998J0D01*
G01*
G37*
%TD.AperFunction*%
%TD*%
D16*
%TO.P,D1,1*%
%TO.N,GND*%
X82000000Y-54000000D03*
D17*
%TO.P,D1,2*%
%TO.N,Net-(D1-Pad2)*%
X84540000Y-54000000D03*
%TD*%
%TO.P,C13,2*%
%TO.N,GND*%
%TA.AperFunction,SMDPad,CuDef*%
G36*
G01*
X70100000Y-138349998D02*
X70100000Y-139650002D01*
G75*
G02*
X69850002Y-139900000I-249998J0D01*
G01*
X69024998Y-139900000D01*
G75*
G02*
X68775000Y-139650002I0J249998D01*
G01*
X68775000Y-138349998D01*
G75*
G02*
X69024998Y-138100000I249998J0D01*
G01*
X69850002Y-138100000D01*
G75*
G02*
X70100000Y-138349998I0J-249998D01*
G01*
G37*
%TD.AperFunction*%
%TO.P,C13,1*%
%TO.N,+5V*%
%TA.AperFunction,SMDPad,CuDef*%
G36*
G01*
X73225000Y-138349998D02*
X73225000Y-139650002D01*
G75*
G02*
X72975002Y-139900000I-249998J0D01*
G01*
X72149998Y-139900000D01*
G75*
G02*
X71900000Y-139650002I0J249998D01*
G01*
X71900000Y-138349998D01*
G75*
G02*
X72149998Y-138100000I249998J0D01*
G01*
X72975002Y-138100000D01*
G75*
G02*
X73225000Y-138349998I0J-249998D01*
G01*
G37*
%TD.AperFunction*%
%TD*%
%TO.P,C12,2*%
%TO.N,GND*%
%TA.AperFunction,SMDPad,CuDef*%
G36*
G01*
X121100000Y-110849998D02*
X121100000Y-112150002D01*
G75*
G02*
X120850002Y-112400000I-249998J0D01*
G01*
X120024998Y-112400000D01*
G75*
G02*
X119775000Y-112150002I0J249998D01*
G01*
X119775000Y-110849998D01*
G75*
G02*
X120024998Y-110600000I249998J0D01*
G01*
X120850002Y-110600000D01*
G75*
G02*
X121100000Y-110849998I0J-249998D01*
G01*
G37*
%TD.AperFunction*%
%TO.P,C12,1*%
%TO.N,+5V*%
%TA.AperFunction,SMDPad,CuDef*%
G36*
G01*
X124225000Y-110849998D02*
X124225000Y-112150002D01*
G75*
G02*
X123975002Y-112400000I-249998J0D01*
G01*
X123149998Y-112400000D01*
G75*
G02*
X122900000Y-112150002I0J249998D01*
G01*
X122900000Y-110849998D01*
G75*
G02*
X123149998Y-110600000I249998J0D01*
G01*
X123975002Y-110600000D01*
G75*
G02*
X124225000Y-110849998I0J-249998D01*
G01*
G37*
%TD.AperFunction*%
%TD*%
%TO.P,C11,2*%
%TO.N,GND*%
%TA.AperFunction,SMDPad,CuDef*%
G36*
G01*
X104100000Y-110849998D02*
X104100000Y-112150002D01*
G75*
G02*
X103850002Y-112400000I-249998J0D01*
G01*
X103024998Y-112400000D01*
G75*
G02*
X102775000Y-112150002I0J249998D01*
G01*
X102775000Y-110849998D01*
G75*
G02*
X103024998Y-110600000I249998J0D01*
G01*
X103850002Y-110600000D01*
G75*
G02*
X104100000Y-110849998I0J-249998D01*
G01*
G37*
%TD.AperFunction*%
%TO.P,C11,1*%
%TO.N,+5V*%
%TA.AperFunction,SMDPad,CuDef*%
G36*
G01*
X107225000Y-110849998D02*
X107225000Y-112150002D01*
G75*
G02*
X106975002Y-112400000I-249998J0D01*
G01*
X106149998Y-112400000D01*
G75*
G02*
X105900000Y-112150002I0J249998D01*
G01*
X105900000Y-110849998D01*
G75*
G02*
X106149998Y-110600000I249998J0D01*
G01*
X106975002Y-110600000D01*
G75*
G02*
X107225000Y-110849998I0J-249998D01*
G01*
G37*
%TD.AperFunction*%
%TD*%
%TO.P,C10,2*%
%TO.N,GND*%
%TA.AperFunction,SMDPad,CuDef*%
G36*
G01*
X87100000Y-110849998D02*
X87100000Y-112150002D01*
G75*
G02*
X86850002Y-112400000I-249998J0D01*
G01*
X86024998Y-112400000D01*
G75*
G02*
X85775000Y-112150002I0J249998D01*
G01*
X85775000Y-110849998D01*
G75*
G02*
X86024998Y-110600000I249998J0D01*
G01*
X86850002Y-110600000D01*
G75*
G02*
X87100000Y-110849998I0J-249998D01*
G01*
G37*
%TD.AperFunction*%
%TO.P,C10,1*%
%TO.N,+5V*%
%TA.AperFunction,SMDPad,CuDef*%
G36*
G01*
X90225000Y-110849998D02*
X90225000Y-112150002D01*
G75*
G02*
X89975002Y-112400000I-249998J0D01*
G01*
X89149998Y-112400000D01*
G75*
G02*
X88900000Y-112150002I0J249998D01*
G01*
X88900000Y-110849998D01*
G75*
G02*
X89149998Y-110600000I249998J0D01*
G01*
X89975002Y-110600000D01*
G75*
G02*
X90225000Y-110849998I0J-249998D01*
G01*
G37*
%TD.AperFunction*%
%TD*%
%TO.P,C9,2*%
%TO.N,GND*%
%TA.AperFunction,SMDPad,CuDef*%
G36*
G01*
X70100000Y-110849998D02*
X70100000Y-112150002D01*
G75*
G02*
X69850002Y-112400000I-249998J0D01*
G01*
X69024998Y-112400000D01*
G75*
G02*
X68775000Y-112150002I0J249998D01*
G01*
X68775000Y-110849998D01*
G75*
G02*
X69024998Y-110600000I249998J0D01*
G01*
X69850002Y-110600000D01*
G75*
G02*
X70100000Y-110849998I0J-249998D01*
G01*
G37*
%TD.AperFunction*%
%TO.P,C9,1*%
%TO.N,+5V*%
%TA.AperFunction,SMDPad,CuDef*%
G36*
G01*
X73225000Y-110849998D02*
X73225000Y-112150002D01*
G75*
G02*
X72975002Y-112400000I-249998J0D01*
G01*
X72149998Y-112400000D01*
G75*
G02*
X71900000Y-112150002I0J249998D01*
G01*
X71900000Y-110849998D01*
G75*
G02*
X72149998Y-110600000I249998J0D01*
G01*
X72975002Y-110600000D01*
G75*
G02*
X73225000Y-110849998I0J-249998D01*
G01*
G37*
%TD.AperFunction*%
%TD*%
%TO.P,C8,1*%
%TO.N,+5V*%
%TA.AperFunction,SMDPad,CuDef*%
G36*
G01*
X141225000Y-81849998D02*
X141225000Y-83150002D01*
G75*
G02*
X140975002Y-83400000I-249998J0D01*
G01*
X140149998Y-83400000D01*
G75*
G02*
X139900000Y-83150002I0J249998D01*
G01*
X139900000Y-81849998D01*
G75*
G02*
X140149998Y-81600000I249998J0D01*
G01*
X140975002Y-81600000D01*
G75*
G02*
X141225000Y-81849998I0J-249998D01*
G01*
G37*
%TD.AperFunction*%
%TO.P,C8,2*%
%TO.N,GND*%
%TA.AperFunction,SMDPad,CuDef*%
G36*
G01*
X138100000Y-81849998D02*
X138100000Y-83150002D01*
G75*
G02*
X137850002Y-83400000I-249998J0D01*
G01*
X137024998Y-83400000D01*
G75*
G02*
X136775000Y-83150002I0J249998D01*
G01*
X136775000Y-81849998D01*
G75*
G02*
X137024998Y-81600000I249998J0D01*
G01*
X137850002Y-81600000D01*
G75*
G02*
X138100000Y-81849998I0J-249998D01*
G01*
G37*
%TD.AperFunction*%
%TD*%
%TO.P,C7,2*%
%TO.N,GND*%
%TA.AperFunction,SMDPad,CuDef*%
G36*
G01*
X121100000Y-81849998D02*
X121100000Y-83150002D01*
G75*
G02*
X120850002Y-83400000I-249998J0D01*
G01*
X120024998Y-83400000D01*
G75*
G02*
X119775000Y-83150002I0J249998D01*
G01*
X119775000Y-81849998D01*
G75*
G02*
X120024998Y-81600000I249998J0D01*
G01*
X120850002Y-81600000D01*
G75*
G02*
X121100000Y-81849998I0J-249998D01*
G01*
G37*
%TD.AperFunction*%
%TO.P,C7,1*%
%TO.N,+5V*%
%TA.AperFunction,SMDPad,CuDef*%
G36*
G01*
X124225000Y-81849998D02*
X124225000Y-83150002D01*
G75*
G02*
X123975002Y-83400000I-249998J0D01*
G01*
X123149998Y-83400000D01*
G75*
G02*
X122900000Y-83150002I0J249998D01*
G01*
X122900000Y-81849998D01*
G75*
G02*
X123149998Y-81600000I249998J0D01*
G01*
X123975002Y-81600000D01*
G75*
G02*
X124225000Y-81849998I0J-249998D01*
G01*
G37*
%TD.AperFunction*%
%TD*%
%TO.P,C5,2*%
%TO.N,GND*%
%TA.AperFunction,SMDPad,CuDef*%
G36*
G01*
X87100000Y-81849998D02*
X87100000Y-83150002D01*
G75*
G02*
X86850002Y-83400000I-249998J0D01*
G01*
X86024998Y-83400000D01*
G75*
G02*
X85775000Y-83150002I0J249998D01*
G01*
X85775000Y-81849998D01*
G75*
G02*
X86024998Y-81600000I249998J0D01*
G01*
X86850002Y-81600000D01*
G75*
G02*
X87100000Y-81849998I0J-249998D01*
G01*
G37*
%TD.AperFunction*%
%TO.P,C5,1*%
%TO.N,+5V*%
%TA.AperFunction,SMDPad,CuDef*%
G36*
G01*
X90225000Y-81849998D02*
X90225000Y-83150002D01*
G75*
G02*
X89975002Y-83400000I-249998J0D01*
G01*
X89149998Y-83400000D01*
G75*
G02*
X88900000Y-83150002I0J249998D01*
G01*
X88900000Y-81849998D01*
G75*
G02*
X89149998Y-81600000I249998J0D01*
G01*
X89975002Y-81600000D01*
G75*
G02*
X90225000Y-81849998I0J-249998D01*
G01*
G37*
%TD.AperFunction*%
%TD*%
%TO.P,C4,2*%
%TO.N,GND*%
%TA.AperFunction,SMDPad,CuDef*%
G36*
G01*
X70100000Y-81849998D02*
X70100000Y-83150002D01*
G75*
G02*
X69850002Y-83400000I-249998J0D01*
G01*
X69024998Y-83400000D01*
G75*
G02*
X68775000Y-83150002I0J249998D01*
G01*
X68775000Y-81849998D01*
G75*
G02*
X69024998Y-81600000I249998J0D01*
G01*
X69850002Y-81600000D01*
G75*
G02*
X70100000Y-81849998I0J-249998D01*
G01*
G37*
%TD.AperFunction*%
%TO.P,C4,1*%
%TO.N,+5V*%
%TA.AperFunction,SMDPad,CuDef*%
G36*
G01*
X73225000Y-81849998D02*
X73225000Y-83150002D01*
G75*
G02*
X72975002Y-83400000I-249998J0D01*
G01*
X72149998Y-83400000D01*
G75*
G02*
X71900000Y-83150002I0J249998D01*
G01*
X71900000Y-81849998D01*
G75*
G02*
X72149998Y-81600000I249998J0D01*
G01*
X72975002Y-81600000D01*
G75*
G02*
X73225000Y-81849998I0J-249998D01*
G01*
G37*
%TD.AperFunction*%
%TD*%
D18*
%TO.P,C3,2*%
%TO.N,GND*%
X76000000Y-54000000D03*
D19*
%TO.P,C3,1*%
%TO.N,+5V*%
X76000000Y-56500000D03*
%TD*%
D20*
%TO.N,+5V*%
X74000000Y-86000000D03*
X142000000Y-139000000D03*
X125000000Y-139000000D03*
X108000000Y-139000000D03*
X91000000Y-139000000D03*
X74000000Y-139000000D03*
X125000000Y-111500000D03*
X108000000Y-111500000D03*
X91000000Y-111500000D03*
X74000000Y-111500000D03*
X108250000Y-82500000D03*
X91000000Y-82500000D03*
X125000000Y-82500000D03*
X142250000Y-82500000D03*
X135250000Y-84250000D03*
X74000000Y-82500000D03*
X79750000Y-59000000D03*
%TO.N,GND*%
X61500000Y-112000000D03*
X65500000Y-82500000D03*
X68000000Y-82500000D03*
%TO.N,Net-(C2-Pad1)*%
X59250000Y-59250000D03*
%TO.N,Net-(J1-Pad16)*%
X62250000Y-64000000D03*
X62250000Y-71500000D03*
%TO.N,Net-(J1-Pad15)*%
X61460000Y-66540000D03*
X61460000Y-76710000D03*
%TO.N,Net-(J1-Pad12)*%
X62410000Y-74160000D03*
X62410000Y-77840000D03*
%TO.N,Net-(J1-Pad11)*%
X91750000Y-76000000D03*
%TO.N,Net-(J1-Pad10)*%
X63240000Y-79240000D03*
X63240000Y-67760000D03*
X89954990Y-67954990D03*
X89954990Y-74204990D03*
%TO.N,Net-(J1-Pad9)*%
X87974999Y-84724999D03*
X87974999Y-79275001D03*
X54750000Y-85000000D03*
%TO.N,Net-(J2-Pad16)*%
X66970000Y-118220000D03*
X66970000Y-125470000D03*
%TO.N,Net-(J2-Pad15)*%
X72414990Y-121914990D03*
X72414990Y-135664990D03*
%TO.N,Net-(J2-Pad14)*%
X65200000Y-123300000D03*
X65200000Y-117300000D03*
X83950000Y-117300000D03*
X83950000Y-125200000D03*
%TO.N,Net-(J2-Pad6)*%
X65165010Y-132334990D03*
X65165010Y-141165010D03*
X113800000Y-141400000D03*
X113834990Y-128584990D03*
%TO.N,Net-(J2-Pad13)*%
X63160000Y-125840000D03*
X63160000Y-116090000D03*
X88500000Y-116000000D03*
X88500000Y-135750000D03*
%TO.N,Net-(J2-Pad5)*%
X63494990Y-129505010D03*
X63494990Y-143005010D03*
X100494990Y-143005010D03*
X100494990Y-133255010D03*
%TO.N,Net-(J2-Pad12)*%
X62370000Y-128380000D03*
X62370000Y-143880000D03*
X99370000Y-143880000D03*
X99370000Y-125630000D03*
%TO.N,Net-(J2-Pad4)*%
X62250000Y-127000000D03*
X62250000Y-115500000D03*
X89600001Y-115100001D03*
X89600001Y-127850001D03*
%TO.N,Net-(J2-Pad11)*%
X64420000Y-130920000D03*
X64420000Y-142170000D03*
X110830000Y-142170000D03*
%TO.N,Net-(J2-Pad3)*%
X64250000Y-124500000D03*
X64250000Y-116750000D03*
X82850001Y-116350001D03*
X82850001Y-132850001D03*
%TO.N,Net-(J2-Pad1)*%
X66095010Y-119345010D03*
X66095010Y-132654990D03*
%TO.N,Net-(J3-Pad16)*%
X97924990Y-77825010D03*
X97924990Y-87674990D03*
X144424990Y-87674990D03*
%TO.N,Net-(J3-Pad14)*%
X138500000Y-94500000D03*
X138920000Y-125580000D03*
%TO.N,Net-(J3-Pad5)*%
X133000000Y-128000000D03*
X133000000Y-101000000D03*
%TO.N,Net-(J3-Pad4)*%
X134000000Y-97250000D03*
X134000000Y-126000000D03*
%TO.N,Net-(J3-Pad11)*%
X139674990Y-134325010D03*
X139674990Y-105325010D03*
%TO.N,Net-(J3-Pad10)*%
X146740000Y-105740000D03*
X146740000Y-135740000D03*
%TO.N,Net-(J3-Pad9)*%
X148630000Y-128120000D03*
X148630000Y-108370000D03*
%TO.N,Net-(R1-Pad2)*%
X134955010Y-70205010D03*
X113294990Y-70205010D03*
X113294990Y-76955010D03*
%TO.N,Net-(R2-Pad1)*%
X106250000Y-91625010D03*
X70874990Y-91625010D03*
X70760000Y-105740000D03*
%TO.N,Net-(UA2-Pad10)*%
X75000000Y-123000000D03*
X82000000Y-125000000D03*
X82000000Y-114000000D03*
X137000000Y-114000000D03*
X81520009Y-95520009D03*
%TO.N,Net-(UA2-Pad12)*%
X147754990Y-99750000D03*
X147754990Y-125245010D03*
X147754990Y-132754990D03*
X113744990Y-126994990D03*
X113744990Y-97255010D03*
%TO.N,Net-(UA2-Pad4)*%
X129425010Y-102074990D03*
X129425010Y-125675010D03*
X122465010Y-129534990D03*
X122465010Y-125534990D03*
%TO.N,Net-(UA2-Pad9)*%
X115000000Y-133000000D03*
X115000000Y-103000000D03*
%TO.N,Net-(UA2-Pad1)*%
X106750000Y-98120000D03*
X106120000Y-120880000D03*
%TO.N,Net-(UA3-Pad13)*%
X96960000Y-66540000D03*
X97000000Y-87000000D03*
X80750000Y-87000000D03*
X80750000Y-103000000D03*
X80750000Y-123500000D03*
X100960000Y-123040000D03*
X100960000Y-127960000D03*
%TO.N,Net-(UA3-Pad12)*%
X134920000Y-95580000D03*
X134920000Y-122920000D03*
X116420000Y-125580000D03*
X116420000Y-128420000D03*
X124000000Y-128000000D03*
X124000000Y-122000000D03*
%TO.N,Net-(UA3-Pad10)*%
X95450000Y-76700000D03*
X95450000Y-85450000D03*
X79050000Y-85450000D03*
X79050000Y-97950000D03*
X79050000Y-130450000D03*
%TO.N,Net-(UA4-Pad10)*%
X96130000Y-71620000D03*
X96250000Y-86250000D03*
X80000000Y-86250000D03*
X80000000Y-100500000D03*
X80000000Y-122000000D03*
X112834990Y-123250000D03*
X112834990Y-130415010D03*
%TO.N,Net-(UA5-Pad10)*%
X131490000Y-79240000D03*
X131490000Y-130740000D03*
%TO.N,Net-(UA5-Pad9)*%
X130160000Y-100660000D03*
X130160000Y-133090000D03*
%TO.N,Net-(UA5-Pad8)*%
X89750000Y-64000000D03*
X89750000Y-66500000D03*
X106665010Y-67665010D03*
X106665010Y-79165010D03*
X113240000Y-79240000D03*
X113240000Y-86760000D03*
X132240000Y-86760000D03*
X132240000Y-135740000D03*
%TO.N,Net-(UB2-Pad15)*%
X83960000Y-93040000D03*
%TO.N,Net-(UB2-Pad2)*%
X88795010Y-94454990D03*
X67000000Y-94000000D03*
%TO.N,Net-(UB3-Pad15)*%
X109000000Y-105500000D03*
X105000000Y-105500000D03*
X105000000Y-97000000D03*
X95505010Y-96994990D03*
%TO.N,Net-(UB3-Pad14)*%
X78294990Y-96705010D03*
%TO.N,Net-(UB3-Pad13)*%
X82245010Y-99245010D03*
X82245010Y-72245010D03*
X129754990Y-99245010D03*
X129754990Y-74245010D03*
%TO.N,Net-(UB3-Pad12)*%
X83214990Y-101785010D03*
X83214990Y-67214990D03*
%TO.N,Net-(UB3-Pad11)*%
X72000000Y-104500000D03*
X72000000Y-74250000D03*
%TO.N,Net-(UB4-Pad15)*%
X117960000Y-93040000D03*
X117960000Y-104460000D03*
%TO.N,Net-(UB4-Pad14)*%
X96295010Y-94454990D03*
X96295010Y-88204990D03*
X67045010Y-88204990D03*
%TO.N,Net-(UB5-Pad15)*%
X88625010Y-62874990D03*
X88625010Y-68874990D03*
X130500000Y-93000000D03*
X130500000Y-85500000D03*
X100000000Y-85500000D03*
X100000000Y-64000000D03*
%TO.N,Net-(UB5-Pad11)*%
X122800000Y-103200000D03*
X122800000Y-84550000D03*
X130500000Y-83500000D03*
X130500000Y-77000000D03*
%TO.N,Net-(UC2-Pad2)*%
X87750000Y-66500000D03*
X112500000Y-84500000D03*
X87755010Y-70494990D03*
%TD*%
D21*
%TO.N,+5V*%
X89562500Y-82500000D02*
X91000000Y-81062500D01*
X91000000Y-81062500D02*
X91000000Y-66620000D01*
X91000000Y-66620000D02*
X93620000Y-64000000D01*
X140562500Y-139000000D02*
X142000000Y-139000000D01*
X123562500Y-139000000D02*
X125000000Y-139000000D01*
X106562500Y-139000000D02*
X108000000Y-139000000D01*
X89562500Y-139000000D02*
X91000000Y-139000000D01*
X72562500Y-139000000D02*
X74000000Y-139000000D01*
X123562500Y-82500000D02*
X125000000Y-82500000D01*
X89562500Y-82500000D02*
X91000000Y-82500000D01*
X123562500Y-111500000D02*
X125000000Y-111500000D01*
X106562500Y-111500000D02*
X108000000Y-111500000D01*
X72562500Y-111500000D02*
X74000000Y-111500000D01*
X72562500Y-82500000D02*
X74000000Y-81062500D01*
X74000000Y-66620000D02*
X76620000Y-64000000D01*
X74000000Y-81062500D02*
X74000000Y-66620000D01*
X106562500Y-82500000D02*
X108250000Y-82500000D01*
X140562500Y-82500000D02*
X143937500Y-82500000D01*
X123562500Y-82500000D02*
X125000000Y-82500000D01*
X135187500Y-84250000D02*
X133750000Y-82812500D01*
X135250000Y-84250000D02*
X135187500Y-84250000D01*
X74000000Y-82500000D02*
X72562500Y-82500000D01*
X107750000Y-66870000D02*
X110620000Y-64000000D01*
X107750000Y-81312500D02*
X107750000Y-66870000D01*
X106562500Y-82500000D02*
X107750000Y-81312500D01*
X123562500Y-82500000D02*
X123562500Y-82187500D01*
X123562500Y-82187500D02*
X125000000Y-80750000D01*
X125000000Y-66620000D02*
X127620000Y-64000000D01*
X125000000Y-80750000D02*
X125000000Y-66620000D01*
X140562500Y-82500000D02*
X140562500Y-82187500D01*
X140562500Y-82187500D02*
X142000000Y-80750000D01*
X142000000Y-66620000D02*
X144620000Y-64000000D01*
X142000000Y-80750000D02*
X142000000Y-66620000D01*
X74000000Y-86000000D02*
X74000000Y-82500000D01*
X74000000Y-86000000D02*
X72562500Y-86000000D01*
X63000000Y-54000000D02*
X63000000Y-55250000D01*
X81437500Y-59000000D02*
X81437500Y-58437500D01*
X79750000Y-59000000D02*
X81437500Y-59000000D01*
X89562500Y-111500000D02*
X91000000Y-111500000D01*
X72562500Y-111500000D02*
X72562500Y-111187500D01*
X72562500Y-111187500D02*
X74000000Y-109750000D01*
X74000000Y-93120000D02*
X76620000Y-90500000D01*
X89562500Y-111500000D02*
X89562500Y-111187500D01*
X89562500Y-111187500D02*
X91000000Y-109750000D01*
X92750000Y-90500000D02*
X93620000Y-90500000D01*
X91000000Y-92250000D02*
X92750000Y-90500000D01*
X109750000Y-90500000D02*
X110620000Y-90500000D01*
X108149999Y-92100001D02*
X109750000Y-90500000D01*
X108149999Y-108850001D02*
X108149999Y-92100001D01*
X106562500Y-110437500D02*
X108149999Y-108850001D01*
X106562500Y-111500000D02*
X106562500Y-110437500D01*
X123562500Y-111500000D02*
X123562500Y-110687500D01*
X123562500Y-110687500D02*
X125000000Y-109250000D01*
X126750000Y-90500000D02*
X127620000Y-90500000D01*
X125000000Y-92250000D02*
X126750000Y-90500000D01*
X140312500Y-139000000D02*
X140312500Y-138687500D01*
X140312500Y-138687500D02*
X142250000Y-136750000D01*
X142250000Y-136750000D02*
X142250000Y-122000000D01*
X143750000Y-120500000D02*
X144620000Y-120500000D01*
X142250000Y-122000000D02*
X143750000Y-120500000D01*
X123312500Y-139000000D02*
X123312500Y-138687500D01*
X123312500Y-138687500D02*
X125250000Y-136750000D01*
X126500000Y-120500000D02*
X127620000Y-120500000D01*
X125250000Y-121750000D02*
X126500000Y-120500000D01*
X106125000Y-139000000D02*
X106125000Y-138875000D01*
X106125000Y-138875000D02*
X108000000Y-137000000D01*
X109750000Y-120500000D02*
X110620000Y-120500000D01*
X108000000Y-122250000D02*
X109750000Y-120500000D01*
X92500000Y-120500000D02*
X93620000Y-120500000D01*
X90750000Y-122250000D02*
X92500000Y-120500000D01*
X90750000Y-137000000D02*
X90750000Y-122250000D01*
X89125000Y-138625000D02*
X90750000Y-137000000D01*
X89125000Y-139000000D02*
X89125000Y-138625000D01*
X72562500Y-139000000D02*
X72562500Y-138687500D01*
X72562500Y-138687500D02*
X74000000Y-137250000D01*
X75500000Y-120500000D02*
X76620000Y-120500000D01*
X74000000Y-122000000D02*
X75500000Y-120500000D01*
X91000000Y-109750000D02*
X91000000Y-92250000D01*
X108000000Y-137000000D02*
X108000000Y-122250000D01*
X74000000Y-58500000D02*
X76000000Y-56500000D01*
X74000000Y-82500000D02*
X74000000Y-58500000D01*
X74000000Y-86000000D02*
X74000000Y-108250000D01*
X74000000Y-108250000D02*
X74000000Y-93120000D01*
X74000000Y-123258002D02*
X74000000Y-126750000D01*
X74000000Y-111500000D02*
X74000000Y-123258002D01*
X74000000Y-126750000D02*
X74000000Y-122000000D01*
X74000000Y-137250000D02*
X74000000Y-126750000D01*
X125000000Y-109250000D02*
X125000000Y-92250000D01*
X125250000Y-111750000D02*
X125000000Y-111500000D01*
X125250000Y-136750000D02*
X125250000Y-123250000D01*
X125250000Y-123250000D02*
X125250000Y-111750000D01*
X125250000Y-123250000D02*
X125250000Y-121750000D01*
X125000000Y-92250000D02*
X125000000Y-80750000D01*
X74000000Y-108750000D02*
X74000000Y-108250000D01*
X74000000Y-111500000D02*
X74000000Y-108750000D01*
X74000000Y-109750000D02*
X74000000Y-108750000D01*
%TO.N,GND*%
X137000000Y-135750000D02*
X137000000Y-138532500D01*
X120000000Y-138500000D02*
X120000000Y-135717500D01*
X103000000Y-139000000D02*
X103000000Y-136217500D01*
X86000000Y-135967500D02*
X86000000Y-138750000D01*
X69250000Y-136250000D02*
X69250000Y-139032500D01*
X120500000Y-108750000D02*
X120500000Y-111532500D01*
X86500000Y-108750000D02*
X86500000Y-111532500D01*
X69437500Y-108717500D02*
X69437500Y-111500000D01*
X142000000Y-95830000D02*
X142000000Y-90750000D01*
X144620000Y-98120000D02*
X144620000Y-100660000D01*
X142000000Y-103500000D02*
X142000000Y-108580000D01*
X52000000Y-81780000D02*
X52000000Y-64000000D01*
X65500000Y-61500000D02*
X68000000Y-59000000D01*
X137000000Y-79240000D02*
X137760000Y-79240000D01*
X136000000Y-54500000D02*
X136000000Y-54000000D01*
X52000000Y-64000000D02*
X52000000Y-63000000D01*
X53500000Y-61500000D02*
X65500000Y-61500000D01*
X52000000Y-63000000D02*
X53500000Y-61500000D01*
X54540000Y-136000000D02*
X57500000Y-136000000D01*
X57500000Y-136000000D02*
X59000000Y-134500000D01*
X59000000Y-134500000D02*
X59000000Y-114500000D01*
X59000000Y-114500000D02*
X61500000Y-112000000D01*
X65500000Y-61500000D02*
X65500000Y-82500000D01*
X61600000Y-111900000D02*
X61500000Y-112000000D01*
X69437500Y-79677500D02*
X69000000Y-79240000D01*
X69437500Y-82500000D02*
X69437500Y-79677500D01*
X86437500Y-79677500D02*
X86000000Y-79240000D01*
X86437500Y-82500000D02*
X86437500Y-79677500D01*
X103437500Y-79677500D02*
X103000000Y-79240000D01*
X103437500Y-82500000D02*
X103437500Y-79677500D01*
X120437500Y-79677500D02*
X120000000Y-79240000D01*
X120437500Y-82500000D02*
X120437500Y-79677500D01*
X137437500Y-79677500D02*
X137000000Y-79240000D01*
X137437500Y-82500000D02*
X137437500Y-79677500D01*
X68000000Y-59000000D02*
X68000000Y-54000000D01*
X103437500Y-108717500D02*
X103437500Y-111500000D01*
X65500000Y-82500000D02*
X65500000Y-82900000D01*
X68000000Y-82500000D02*
X69437500Y-82500000D01*
X54187500Y-60812500D02*
X53500000Y-61500000D01*
X54187500Y-59250000D02*
X54187500Y-60812500D01*
X65500000Y-82500000D02*
X65500000Y-110250000D01*
X63750000Y-112000000D02*
X61500000Y-112000000D01*
X65500000Y-110250000D02*
X63750000Y-112000000D01*
D22*
%TO.N,Net-(C2-Pad1)*%
X137000000Y-61500000D02*
X137000000Y-64000000D01*
X138687500Y-59812500D02*
X137000000Y-61500000D01*
X141750000Y-59812500D02*
X138687500Y-59812500D01*
X59250000Y-59250000D02*
X57312500Y-59250000D01*
%TO.N,Net-(D1-Pad2)*%
X84562500Y-54022500D02*
X84540000Y-54000000D01*
X84562500Y-59000000D02*
X84562500Y-54022500D01*
%TO.N,Net-(J1-Pad16)*%
X62250000Y-64000000D02*
X62250000Y-71500000D01*
X62250000Y-71500000D02*
X62250000Y-71500000D01*
%TO.N,Net-(J1-Pad15)*%
X61460000Y-66540000D02*
X61460000Y-76710000D01*
X61460000Y-76710000D02*
X61460000Y-76710000D01*
%TO.N,Net-(J1-Pad12)*%
X62410000Y-74160000D02*
X62410000Y-77840000D01*
X62410000Y-77840000D02*
X62410000Y-77910000D01*
%TO.N,Net-(J1-Pad11)*%
X92670000Y-69080000D02*
X93620000Y-69080000D01*
X92170000Y-69080000D02*
X93620000Y-69080000D01*
X91750000Y-69500000D02*
X92170000Y-69080000D01*
X91750000Y-76000000D02*
X91750000Y-69500000D01*
%TO.N,Net-(J1-Pad10)*%
X63240000Y-79240000D02*
X63240000Y-67760000D01*
X63240000Y-67760000D02*
X63240000Y-67760000D01*
X89954990Y-67954990D02*
X89954990Y-74204990D01*
X89954990Y-74204990D02*
X89954990Y-74204990D01*
%TO.N,Net-(J1-Pad9)*%
X87974999Y-84724999D02*
X87974999Y-79275001D01*
X87974999Y-79275001D02*
X87974999Y-79275001D01*
X54500000Y-81820000D02*
X54540000Y-81780000D01*
X54750000Y-81990000D02*
X54540000Y-81780000D01*
X54750000Y-85000000D02*
X54750000Y-81990000D01*
%TO.N,Net-(J2-Pad16)*%
X66970000Y-118220000D02*
X66970000Y-125470000D01*
X66970000Y-125470000D02*
X66970000Y-125470000D01*
%TO.N,Net-(J2-Pad15)*%
X72414990Y-121914990D02*
X72414990Y-135664990D01*
X72414990Y-135664990D02*
X72414990Y-135664990D01*
%TO.N,Net-(J2-Pad14)*%
X65200000Y-123300000D02*
X65200000Y-117300000D01*
X65200000Y-117300000D02*
X65200000Y-117300000D01*
X83950000Y-117300000D02*
X83950000Y-125200000D01*
X83950000Y-125200000D02*
X83950000Y-125200000D01*
%TO.N,Net-(J2-Pad6)*%
X65165010Y-132334990D02*
X65165010Y-141165010D01*
X65165010Y-141165010D02*
X65165010Y-141165010D01*
X113834990Y-128584990D02*
X113834990Y-128584990D01*
X113800000Y-128619980D02*
X113834990Y-128584990D01*
X113800000Y-141400000D02*
X113800000Y-128619980D01*
%TO.N,Net-(J2-Pad13)*%
X63160000Y-125840000D02*
X63160000Y-116090000D01*
X63160000Y-116090000D02*
X63160000Y-116090000D01*
X88500000Y-116000000D02*
X88500000Y-135750000D01*
X88500000Y-135750000D02*
X88500000Y-135750000D01*
%TO.N,Net-(J2-Pad5)*%
X63494990Y-129505010D02*
X63494990Y-143005010D01*
X63494990Y-143005010D02*
X63494990Y-143244990D01*
X100494990Y-143005010D02*
X100494990Y-133255010D01*
X100494990Y-133255010D02*
X100494990Y-133255010D01*
%TO.N,Net-(J2-Pad12)*%
X62370000Y-128380000D02*
X62370000Y-143880000D01*
X62370000Y-143880000D02*
X62370000Y-144120000D01*
X99370000Y-143880000D02*
X99370000Y-125630000D01*
X99370000Y-125630000D02*
X99370000Y-125620000D01*
%TO.N,Net-(J2-Pad4)*%
X62250000Y-127000000D02*
X62250000Y-115500000D01*
X62250000Y-115500000D02*
X62250000Y-115500000D01*
X89600001Y-115100001D02*
X89600001Y-127850001D01*
%TO.N,Net-(J2-Pad11)*%
X64420000Y-130920000D02*
X64420000Y-141830000D01*
X64420000Y-141830000D02*
X64420000Y-142170000D01*
X64420000Y-142170000D02*
X64420000Y-142170000D01*
X110830000Y-135950000D02*
X110620000Y-135740000D01*
X110830000Y-142170000D02*
X110830000Y-135950000D01*
%TO.N,Net-(J2-Pad3)*%
X64250000Y-124500000D02*
X64250000Y-116750000D01*
X64250000Y-116750000D02*
X64250000Y-116750000D01*
X82850001Y-116350001D02*
X82850001Y-132850001D01*
X82850001Y-132850001D02*
X82850001Y-132850001D01*
%TO.N,Net-(J2-Pad1)*%
X66095010Y-119345010D02*
X66095010Y-132654990D01*
X66095010Y-132654990D02*
X66095010Y-132845010D01*
%TO.N,Net-(J3-Pad16)*%
X97924990Y-77825010D02*
X97924990Y-87674990D01*
X97924990Y-87674990D02*
X97924990Y-87674990D01*
X144424990Y-90304990D02*
X144620000Y-90500000D01*
X144424990Y-87674990D02*
X144424990Y-90304990D01*
%TO.N,Net-(J3-Pad15)*%
X147250000Y-82687500D02*
X147062500Y-82500000D01*
X147250000Y-92250000D02*
X147250000Y-82687500D01*
X146460000Y-93040000D02*
X147250000Y-92250000D01*
X144620000Y-93040000D02*
X146460000Y-93040000D01*
%TO.N,Net-(J3-Pad14)*%
X138920000Y-125580000D02*
X138920000Y-109670000D01*
X138500000Y-109250000D02*
X138500000Y-94500000D01*
X138920000Y-109670000D02*
X138500000Y-109250000D01*
%TO.N,Net-(J3-Pad5)*%
X133000000Y-128000000D02*
X133000000Y-101000000D01*
X133000000Y-101000000D02*
X133000000Y-101000000D01*
%TO.N,Net-(J3-Pad4)*%
X134000000Y-97250000D02*
X134000000Y-123073002D01*
X134000000Y-123073002D02*
X134000000Y-126000000D01*
X134000000Y-126000000D02*
X134000000Y-126000000D01*
%TO.N,Net-(J3-Pad11)*%
X139674990Y-134325010D02*
X139674990Y-105325010D01*
X139674990Y-105325010D02*
X139674990Y-105325010D01*
%TO.N,Net-(J3-Pad10)*%
X146740000Y-105740000D02*
X146740000Y-135740000D01*
X146740000Y-135740000D02*
X146740000Y-135740000D01*
%TO.N,Net-(J3-Pad9)*%
X143909980Y-108280000D02*
X144620000Y-108280000D01*
X148630000Y-128120000D02*
X148630000Y-108370000D01*
X148630000Y-108370000D02*
X148630000Y-108370000D01*
%TO.N,Net-(J5-Pad2)*%
X131000000Y-54000000D02*
X126000000Y-54000000D01*
X133687500Y-56687500D02*
X131000000Y-54000000D01*
X141750000Y-56687500D02*
X133687500Y-56687500D01*
%TO.N,Net-(J5-Pad1)*%
X120000000Y-69080000D02*
X120920000Y-69080000D01*
X120920000Y-69080000D02*
X122000000Y-68000000D01*
X122000000Y-68000000D02*
X122000000Y-57000000D01*
X121000000Y-56000000D02*
X121000000Y-54000000D01*
X122000000Y-57000000D02*
X121000000Y-56000000D01*
%TO.N,Net-(R1-Pad2)*%
X134955010Y-70205010D02*
X134955010Y-67044990D01*
X135460000Y-66540000D02*
X137000000Y-66540000D01*
X134955010Y-67044990D02*
X135460000Y-66540000D01*
X113294990Y-70205010D02*
X113294990Y-76955010D01*
X113294990Y-76955010D02*
X113294990Y-76955010D01*
X133750000Y-71410020D02*
X134955010Y-70205010D01*
X133750000Y-79687500D02*
X133750000Y-71410020D01*
%TO.N,Net-(R2-Pad1)*%
X76620000Y-108280000D02*
X76620000Y-105740000D01*
X109840000Y-74160000D02*
X110620000Y-74160000D01*
X109000000Y-75000000D02*
X109840000Y-74160000D01*
X70874990Y-105625010D02*
X70760000Y-105740000D01*
X70874990Y-91625010D02*
X70874990Y-105625010D01*
X109000000Y-75000000D02*
X109000000Y-67250000D01*
X109710000Y-66540000D02*
X110620000Y-66540000D01*
X109000000Y-67250000D02*
X109710000Y-66540000D01*
X69000000Y-90500000D02*
X68500000Y-90500000D01*
X68500000Y-90500000D02*
X68000000Y-90000000D01*
X109000000Y-75000000D02*
X109000000Y-87250000D01*
X109000000Y-87250000D02*
X106250000Y-90000000D01*
X106250000Y-90000000D02*
X106250000Y-91500000D01*
X69000000Y-86437500D02*
X69437500Y-86000000D01*
X69000000Y-90500000D02*
X69000000Y-86437500D01*
%TO.N,Net-(UA2-Pad10)*%
X76580000Y-123000000D02*
X76620000Y-123040000D01*
X75000000Y-123000000D02*
X76580000Y-123000000D01*
X75000000Y-123000000D02*
X75000000Y-123000000D01*
X70525010Y-129134990D02*
X70525010Y-124565010D01*
X70525010Y-124565010D02*
X69000000Y-123040000D01*
X69000000Y-130660000D02*
X70525010Y-129134990D01*
X82000000Y-125000000D02*
X82000000Y-114000000D01*
X82000000Y-114000000D02*
X82000000Y-114000000D01*
X137000000Y-114000000D02*
X137000000Y-120500000D01*
X82000000Y-114000000D02*
X82000000Y-114000000D01*
X82000000Y-114000000D02*
X82000000Y-101500000D01*
X81520009Y-101020009D02*
X81520009Y-95520009D01*
X82000000Y-101500000D02*
X81520009Y-101020009D01*
X81520009Y-95520009D02*
X81520009Y-95520009D01*
%TO.N,Net-(UA2-Pad12)*%
X147754990Y-125245010D02*
X147754990Y-132754990D01*
X147754990Y-132754990D02*
X147754990Y-132754990D01*
X113744990Y-126994990D02*
X113744990Y-97255010D01*
X113744990Y-97255010D02*
X113744990Y-97255010D01*
X147754990Y-99750000D02*
X147754990Y-125245010D01*
%TO.N,Net-(UA2-Pad4)*%
X129425010Y-102074990D02*
X129425010Y-125675010D01*
X129425010Y-125675010D02*
X129425010Y-125675010D01*
X122465010Y-129534990D02*
X122465010Y-125534990D01*
X122465010Y-125534990D02*
X122465010Y-125465010D01*
%TO.N,Net-(UA2-Pad9)*%
X115000000Y-133000000D02*
X115000000Y-103000000D01*
X115000000Y-103000000D02*
X115000000Y-103000000D01*
%TO.N,Net-(UA2-Pad1)*%
X106120000Y-120880000D02*
X106120000Y-120880000D01*
X106120000Y-120880000D02*
X106120000Y-116370000D01*
X106120000Y-116370000D02*
X105000000Y-115250000D01*
X105000000Y-115250000D02*
X105000000Y-109500000D01*
X105000000Y-109500000D02*
X106750000Y-107750000D01*
X106750000Y-107750000D02*
X106750000Y-98250000D01*
%TO.N,Net-(UA3-Pad13)*%
X96960000Y-66540000D02*
X97000000Y-66580000D01*
X97000000Y-66580000D02*
X97000000Y-87000000D01*
X97000000Y-87000000D02*
X97000000Y-87000000D01*
X80750000Y-87000000D02*
X80750000Y-103000000D01*
X80750000Y-103000000D02*
X80750000Y-103000000D01*
X80750000Y-103000000D02*
X80750000Y-123500000D01*
X80750000Y-123500000D02*
X80750000Y-123500000D01*
X100960000Y-123040000D02*
X100960000Y-127960000D01*
X100960000Y-127960000D02*
X100960000Y-127960000D01*
%TO.N,Net-(UA3-Pad12)*%
X134920000Y-95580000D02*
X134920000Y-122920000D01*
X134920000Y-122920000D02*
X134920000Y-122920000D01*
X116420000Y-125580000D02*
X116420000Y-128420000D01*
X116420000Y-128420000D02*
X116420000Y-128420000D01*
X124000000Y-128000000D02*
X124000000Y-122000000D01*
X124000000Y-122000000D02*
X124000000Y-122000000D01*
%TO.N,Net-(UA3-Pad10)*%
X95450000Y-76700000D02*
X95450000Y-85450000D01*
X95450000Y-85450000D02*
X95450000Y-85450000D01*
X79050000Y-85450000D02*
X79050000Y-97950000D01*
X79050000Y-97950000D02*
X79050000Y-97950000D01*
X79050000Y-97950000D02*
X79050000Y-130450000D01*
X79050000Y-130450000D02*
X79050000Y-130450000D01*
X121525010Y-124565010D02*
X120000000Y-123040000D01*
X121525010Y-129134990D02*
X121525010Y-124565010D01*
X120000000Y-130660000D02*
X121525010Y-129134990D01*
%TO.N,Net-(UA4-Pad10)*%
X96130000Y-71620000D02*
X96250000Y-71740000D01*
X96250000Y-71740000D02*
X96250000Y-82500000D01*
X96250000Y-82500000D02*
X96250000Y-86250000D01*
X96250000Y-86250000D02*
X96250000Y-86250000D01*
X80000000Y-86250000D02*
X80000000Y-100500000D01*
X80000000Y-100500000D02*
X80000000Y-100500000D01*
X80000000Y-100500000D02*
X80000000Y-122000000D01*
X80000000Y-122000000D02*
X80000000Y-122000000D01*
X112834990Y-124165010D02*
X112834990Y-130415010D01*
X112834990Y-130415010D02*
X112834990Y-130415010D01*
X112834990Y-124165010D02*
X112834990Y-123250000D01*
%TO.N,Net-(UA5-Pad10)*%
X131490000Y-79240000D02*
X131490000Y-130740000D01*
X131490000Y-130740000D02*
X131490000Y-130740000D01*
%TO.N,Net-(UA5-Pad9)*%
X130160000Y-100660000D02*
X130160000Y-133090000D01*
X130160000Y-133090000D02*
X130160000Y-133090000D01*
%TO.N,Net-(UA5-Pad8)*%
X89750000Y-64000000D02*
X89750000Y-66500000D01*
X89750000Y-66500000D02*
X89750000Y-66500000D01*
X106665010Y-67665010D02*
X106665010Y-79165010D01*
X106665010Y-79165010D02*
X106665010Y-79165010D01*
X113240000Y-79240000D02*
X113240000Y-86760000D01*
X113240000Y-86760000D02*
X113240000Y-86990000D01*
X132240000Y-86760000D02*
X132240000Y-135740000D01*
X132240000Y-135740000D02*
X132240000Y-135740000D01*
%TO.N,Net-(UB2-Pad15)*%
X83960000Y-93040000D02*
X83960000Y-104960000D01*
X84740000Y-105740000D02*
X86000000Y-105740000D01*
X83960000Y-104960000D02*
X84740000Y-105740000D01*
%TO.N,Net-(UB2-Pad2)*%
X67960000Y-66540000D02*
X69000000Y-66540000D01*
X66320009Y-93320009D02*
X66320009Y-67179991D01*
X67000000Y-94000000D02*
X66320009Y-93320009D01*
X66960000Y-66540000D02*
X69000000Y-66540000D01*
X66320009Y-67179991D02*
X66960000Y-66540000D01*
%TO.N,Net-(UB3-Pad15)*%
X110620000Y-105740000D02*
X109240000Y-105740000D01*
X109240000Y-105740000D02*
X109000000Y-105500000D01*
X109000000Y-105500000D02*
X109000000Y-105500000D01*
X105000000Y-105500000D02*
X105000000Y-97000000D01*
X105000000Y-97000000D02*
X105000000Y-97000000D01*
X95505010Y-96994990D02*
X95505010Y-93505010D01*
X95040000Y-93040000D02*
X93620000Y-93040000D01*
X95505010Y-93505010D02*
X95040000Y-93040000D01*
%TO.N,Net-(UB3-Pad14)*%
X78294990Y-96705010D02*
X78294990Y-77544990D01*
X77450000Y-76700000D02*
X76620000Y-76700000D01*
X78294990Y-77544990D02*
X77450000Y-76700000D01*
%TO.N,Net-(UB3-Pad13)*%
X82245010Y-99245010D02*
X82245010Y-72245010D01*
X82245010Y-72245010D02*
X82245010Y-72245010D01*
X129754990Y-99245010D02*
X129754990Y-74245010D01*
X129754990Y-74245010D02*
X129754990Y-74245010D01*
%TO.N,Net-(UB3-Pad12)*%
X83214990Y-101785010D02*
X83214990Y-67214990D01*
X83214990Y-67214990D02*
X83214990Y-67214990D01*
%TO.N,Net-(UB3-Pad11)*%
X72000000Y-74250000D02*
X72000000Y-74250000D01*
X72000000Y-79250000D02*
X72000000Y-74250000D01*
X71000000Y-88000000D02*
X71000000Y-80250000D01*
X72000000Y-89000000D02*
X71000000Y-88000000D01*
X71000000Y-80250000D02*
X72000000Y-79250000D01*
X72000000Y-104500000D02*
X72000000Y-89000000D01*
%TO.N,Net-(UB4-Pad15)*%
X117960000Y-93040000D02*
X117960000Y-104460000D01*
X117960000Y-104460000D02*
X117960000Y-104460000D01*
%TO.N,Net-(UB4-Pad14)*%
X96295010Y-94454990D02*
X96295010Y-88204990D01*
X96295010Y-88204990D02*
X96295010Y-88204990D01*
X67045010Y-88204990D02*
X67045010Y-69954990D01*
X67920000Y-69080000D02*
X69000000Y-69080000D01*
X67045010Y-69954990D02*
X67920000Y-69080000D01*
%TO.N,Net-(UB5-Pad15)*%
X84920000Y-69080000D02*
X86000000Y-69080000D01*
X88625010Y-62874990D02*
X88625010Y-68874990D01*
X88625010Y-68874990D02*
X88625010Y-68874990D01*
X130500000Y-93000000D02*
X130500000Y-93250000D01*
X101874990Y-62874990D02*
X103000000Y-64000000D01*
X88625010Y-62874990D02*
X101874990Y-62874990D01*
X130500000Y-93000000D02*
X130500000Y-85500000D01*
X130500000Y-85500000D02*
X130500000Y-85500000D01*
X100000000Y-85500000D02*
X100000000Y-64500000D01*
X100000000Y-64500000D02*
X100000000Y-64000000D01*
X100000000Y-64000000D02*
X100000000Y-64000000D01*
%TO.N,Net-(UB5-Pad11)*%
X127620000Y-76700000D02*
X126550000Y-76700000D01*
X126950000Y-103200000D02*
X127620000Y-103200000D01*
X127050000Y-76700000D02*
X127620000Y-76700000D01*
X122800000Y-103200000D02*
X122800000Y-84550000D01*
X122800000Y-84550000D02*
X122800000Y-84550000D01*
X130500000Y-83500000D02*
X130500000Y-82934315D01*
X130500000Y-82934315D02*
X130500000Y-79156998D01*
X130500000Y-79156998D02*
X130500000Y-77000000D01*
X130500000Y-77000000D02*
X130500000Y-77000000D01*
%TO.N,Net-(UC2-Pad5)*%
X87160000Y-74160000D02*
X86000000Y-74160000D01*
%TO.N,Net-(UC2-Pad2)*%
X87750000Y-66500000D02*
X87750000Y-69500000D01*
X111870000Y-71620000D02*
X110620000Y-71620000D01*
X112500000Y-72250000D02*
X111870000Y-71620000D01*
X112500000Y-84500000D02*
X112500000Y-72250000D01*
X87755010Y-69505010D02*
X87750000Y-69500000D01*
X87755010Y-70494990D02*
X87755010Y-69505010D01*
%TO.N,Net-(UC4-Pad3)*%
X120000000Y-66540000D02*
X120000000Y-64000000D01*
%TO.N,Net-(J3_2-Pad8)*%
X59074999Y-109705001D02*
X53175001Y-109705001D01*
X53175001Y-109705001D02*
X52000000Y-108530000D01*
X60250000Y-108530000D02*
X59074999Y-109705001D01*
%TO.N,Net-(J3_2-Pad7)*%
X59074999Y-107165001D02*
X60250000Y-105990000D01*
X53175001Y-107165001D02*
X59074999Y-107165001D01*
X52000000Y-105990000D02*
X53175001Y-107165001D01*
%TO.N,Net-(J3_2-Pad6)*%
X59074999Y-104625001D02*
X53175001Y-104625001D01*
X53175001Y-104625001D02*
X52000000Y-103450000D01*
X60250000Y-103450000D02*
X59074999Y-104625001D01*
%TO.N,Net-(J3_2-Pad5)*%
X59074999Y-102085001D02*
X60250000Y-100910000D01*
X53175001Y-102085001D02*
X59074999Y-102085001D01*
X52000000Y-100910000D02*
X53175001Y-102085001D01*
%TO.N,Net-(J3_2-Pad4)*%
X53175001Y-99545001D02*
X52000000Y-98370000D01*
X59074999Y-99545001D02*
X53175001Y-99545001D01*
X60250000Y-98370000D02*
X59074999Y-99545001D01*
%TO.N,Net-(J3_2-Pad3)*%
X59074999Y-97005001D02*
X60250000Y-95830000D01*
X53175001Y-97005001D02*
X59074999Y-97005001D01*
X52000000Y-95830000D02*
X53175001Y-97005001D01*
%TO.N,Net-(J3_2-Pad2)*%
X53364999Y-94654999D02*
X52000000Y-93290000D01*
X58885001Y-94654999D02*
X53364999Y-94654999D01*
X60250000Y-93290000D02*
X58885001Y-94654999D01*
%TO.N,Net-(J3_2-Pad1)*%
X53175001Y-91925001D02*
X52000000Y-90750000D01*
X59074999Y-91925001D02*
X53175001Y-91925001D01*
X60250000Y-90750000D02*
X59074999Y-91925001D01*
%TD*%
M02*
