%TF.GenerationSoftware,KiCad,Pcbnew,(5.1.9)-1*%
%TF.CreationDate,2022-02-24T19:51:08-05:00*%
%TF.ProjectId,exorcisortry2,65786f72-6369-4736-9f72-747279322e6b,rev?*%
%TF.SameCoordinates,Original*%
%TF.FileFunction,Copper,L2,Bot*%
%TF.FilePolarity,Positive*%
%FSLAX46Y46*%
G04 Gerber Fmt 4.6, Leading zero omitted, Abs format (unit mm)*
G04 Created by KiCad (PCBNEW (5.1.9)-1) date 2022-02-24 19:51:08*
%MOMM*%
%LPD*%
G01*
G04 APERTURE LIST*
%TA.AperFunction,ComponentPad*%
%ADD10O,1.700000X1.700000*%
%TD*%
%TA.AperFunction,ComponentPad*%
%ADD11R,1.700000X1.700000*%
%TD*%
%TA.AperFunction,ComponentPad*%
%ADD12O,2.400000X1.600000*%
%TD*%
%TA.AperFunction,ComponentPad*%
%ADD13R,2.400000X1.600000*%
%TD*%
%TA.AperFunction,ComponentPad*%
%ADD14R,1.980000X3.960000*%
%TD*%
%TA.AperFunction,ComponentPad*%
%ADD15O,1.980000X3.960000*%
%TD*%
%TA.AperFunction,ComponentPad*%
%ADD16R,1.800000X1.800000*%
%TD*%
%TA.AperFunction,ComponentPad*%
%ADD17C,1.800000*%
%TD*%
%TA.AperFunction,ComponentPad*%
%ADD18C,1.600000*%
%TD*%
%TA.AperFunction,ComponentPad*%
%ADD19R,1.600000X1.600000*%
%TD*%
%TA.AperFunction,ViaPad*%
%ADD20C,0.800000*%
%TD*%
%TA.AperFunction,Conductor*%
%ADD21C,0.500000*%
%TD*%
%TA.AperFunction,Conductor*%
%ADD22C,0.250000*%
%TD*%
G04 APERTURE END LIST*
D10*
%TO.P,J3,16*%
%TO.N,Net-(J3-Pad16)*%
X144540000Y-90750000D03*
%TO.P,J3,15*%
%TO.N,Net-(J3-Pad15)*%
X144540000Y-93290000D03*
%TO.P,J3,14*%
%TO.N,Net-(J3-Pad14)*%
X144540000Y-95830000D03*
%TO.P,J3,13*%
%TO.N,GND*%
X144540000Y-98370000D03*
%TO.P,J3,12*%
X144540000Y-100910000D03*
%TO.P,J3,11*%
%TO.N,Net-(J3-Pad11)*%
X144540000Y-103450000D03*
%TO.P,J3,10*%
%TO.N,Net-(J3-Pad10)*%
X144540000Y-105990000D03*
%TO.P,J3,9*%
%TO.N,Net-(J3-Pad9)*%
X144540000Y-108530000D03*
%TO.P,J3,8*%
%TO.N,GND*%
X142000000Y-108530000D03*
%TO.P,J3,7*%
X142000000Y-105990000D03*
%TO.P,J3,6*%
X142000000Y-103450000D03*
%TO.P,J3,5*%
%TO.N,Net-(J3-Pad5)*%
X142000000Y-100910000D03*
%TO.P,J3,4*%
%TO.N,Net-(J3-Pad4)*%
X142000000Y-98370000D03*
%TO.P,J3,3*%
%TO.N,GND*%
X142000000Y-95830000D03*
%TO.P,J3,2*%
X142000000Y-93290000D03*
D11*
%TO.P,J3,1*%
X142000000Y-90750000D03*
%TD*%
D10*
%TO.P,J3,16*%
%TO.N,Net-(J3_2-Pad16)*%
X62790000Y-90750000D03*
%TO.P,J3,15*%
%TO.N,Net-(J3_2-Pad15)*%
X62790000Y-93290000D03*
%TO.P,J3,14*%
%TO.N,Net-(J3_2-Pad14)*%
X62790000Y-95830000D03*
%TO.P,J3,13*%
%TO.N,Net-(J3_2-Pad13)*%
X62790000Y-98370000D03*
%TO.P,J3,12*%
%TO.N,Net-(J3_2-Pad12)*%
X62790000Y-100910000D03*
%TO.P,J3,11*%
%TO.N,Net-(J3_2-Pad11)*%
X62790000Y-103450000D03*
%TO.P,J3,10*%
%TO.N,Net-(J3_2-Pad10)*%
X62790000Y-105990000D03*
%TO.P,J3,9*%
%TO.N,Net-(J3_2-Pad9)*%
X62790000Y-108530000D03*
%TO.P,J3,8*%
%TO.N,Net-(J3_2-Pad8)*%
X60250000Y-108530000D03*
%TO.P,J3,7*%
%TO.N,Net-(J3_2-Pad7)*%
X60250000Y-105990000D03*
%TO.P,J3,6*%
%TO.N,Net-(J3_2-Pad6)*%
X60250000Y-103450000D03*
%TO.P,J3,5*%
%TO.N,Net-(J3_2-Pad5)*%
X60250000Y-100910000D03*
%TO.P,J3,4*%
%TO.N,Net-(J3_2-Pad4)*%
X60250000Y-98370000D03*
%TO.P,J3,3*%
%TO.N,Net-(J3_2-Pad3)*%
X60250000Y-95830000D03*
%TO.P,J3,2*%
%TO.N,Net-(J3_2-Pad2)*%
X60250000Y-93290000D03*
D11*
%TO.P,J3,1*%
%TO.N,Net-(J3_2-Pad1)*%
X60250000Y-90750000D03*
%TD*%
D12*
%TO.P,UB5,16*%
%TO.N,+5V*%
X127620000Y-90500000D03*
%TO.P,UB5,8*%
%TO.N,GND*%
X120000000Y-108280000D03*
%TO.P,UB5,15*%
%TO.N,Net-(UB5-Pad15)*%
X127620000Y-93040000D03*
%TO.P,UB5,7*%
%TO.N,Net-(UB2-Pad15)*%
X120000000Y-105740000D03*
%TO.P,UB5,14*%
%TO.N,Net-(UA3-Pad12)*%
X127620000Y-95580000D03*
%TO.P,UB5,6*%
%TO.N,Net-(UB5-Pad6)*%
X120000000Y-103200000D03*
%TO.P,UB5,13*%
%TO.N,Net-(UA2-Pad12)*%
X127620000Y-98120000D03*
%TO.P,UB5,5*%
%TO.N,Net-(UB5-Pad5)*%
X120000000Y-100660000D03*
%TO.P,UB5,12*%
%TO.N,Net-(UA5-Pad9)*%
X127620000Y-100660000D03*
%TO.P,UB5,4*%
%TO.N,Net-(UB5-Pad4)*%
X120000000Y-98120000D03*
%TO.P,UB5,11*%
%TO.N,Net-(UB5-Pad11)*%
X127620000Y-103200000D03*
%TO.P,UB5,3*%
%TO.N,Net-(UB5-Pad3)*%
X120000000Y-95580000D03*
%TO.P,UB5,10*%
%TO.N,Net-(UB4-Pad15)*%
X127620000Y-105740000D03*
%TO.P,UB5,2*%
%TO.N,Net-(UB2-Pad2)*%
X120000000Y-93040000D03*
%TO.P,UB5,9*%
%TO.N,Net-(R2-Pad1)*%
X127620000Y-108280000D03*
D13*
%TO.P,UB5,1*%
X120000000Y-90500000D03*
%TD*%
D14*
%TO.P,J5,1*%
%TO.N,Net-(J5-Pad1)*%
X121000000Y-54000000D03*
D15*
%TO.P,J5,2*%
%TO.N,Net-(J5-Pad2)*%
X126000000Y-54000000D03*
%TO.P,J5,4*%
%TO.N,GND*%
X136000000Y-54000000D03*
%TO.P,J5,3*%
%TO.N,Net-(J5-Pad2)*%
X131000000Y-54000000D03*
%TD*%
D14*
%TO.P,J4,1*%
%TO.N,+5V*%
X63000000Y-54000000D03*
D15*
%TO.P,J4,2*%
%TO.N,GND*%
X68000000Y-54000000D03*
%TD*%
D10*
%TO.P,J2,16*%
%TO.N,Net-(J2-Pad16)*%
X54540000Y-118220000D03*
%TO.P,J2,15*%
%TO.N,Net-(J2-Pad15)*%
X54540000Y-120760000D03*
%TO.P,J2,14*%
%TO.N,Net-(J2-Pad14)*%
X54540000Y-123300000D03*
%TO.P,J2,13*%
%TO.N,Net-(J2-Pad13)*%
X54540000Y-125840000D03*
%TO.P,J2,12*%
%TO.N,Net-(J2-Pad12)*%
X54540000Y-128380000D03*
%TO.P,J2,11*%
%TO.N,Net-(J2-Pad11)*%
X54540000Y-130920000D03*
%TO.P,J2,10*%
%TO.N,GND*%
X54540000Y-133460000D03*
%TO.P,J2,9*%
X54540000Y-136000000D03*
%TO.P,J2,8*%
X52000000Y-136000000D03*
%TO.P,J2,7*%
X52000000Y-133460000D03*
%TO.P,J2,6*%
%TO.N,Net-(J2-Pad6)*%
X52000000Y-130920000D03*
%TO.P,J2,5*%
%TO.N,Net-(J2-Pad5)*%
X52000000Y-128380000D03*
%TO.P,J2,4*%
%TO.N,Net-(J2-Pad4)*%
X52000000Y-125840000D03*
%TO.P,J2,3*%
%TO.N,Net-(J2-Pad3)*%
X52000000Y-123300000D03*
%TO.P,J2,2*%
%TO.N,Net-(J2-Pad2)*%
X52000000Y-120760000D03*
D11*
%TO.P,J2,1*%
%TO.N,Net-(J2-Pad1)*%
X52000000Y-118220000D03*
%TD*%
D10*
%TO.P,J3,16*%
%TO.N,Net-(J3_2-Pad16)*%
X54540000Y-90750000D03*
%TO.P,J3,15*%
%TO.N,Net-(J3_2-Pad15)*%
X54540000Y-93290000D03*
%TO.P,J3,14*%
%TO.N,Net-(J3_2-Pad14)*%
X54540000Y-95830000D03*
%TO.P,J3,13*%
%TO.N,Net-(J3_2-Pad13)*%
X54540000Y-98370000D03*
%TO.P,J3,12*%
%TO.N,Net-(J3_2-Pad12)*%
X54540000Y-100910000D03*
%TO.P,J3,11*%
%TO.N,Net-(J3_2-Pad11)*%
X54540000Y-103450000D03*
%TO.P,J3,10*%
%TO.N,Net-(J3_2-Pad10)*%
X54540000Y-105990000D03*
%TO.P,J3,9*%
%TO.N,Net-(J3_2-Pad9)*%
X54540000Y-108530000D03*
%TO.P,J3,8*%
%TO.N,Net-(J3_2-Pad8)*%
X52000000Y-108530000D03*
%TO.P,J3,7*%
%TO.N,Net-(J3_2-Pad7)*%
X52000000Y-105990000D03*
%TO.P,J3,6*%
%TO.N,Net-(J3_2-Pad6)*%
X52000000Y-103450000D03*
%TO.P,J3,5*%
%TO.N,Net-(J3_2-Pad5)*%
X52000000Y-100910000D03*
%TO.P,J3,4*%
%TO.N,Net-(J3_2-Pad4)*%
X52000000Y-98370000D03*
%TO.P,J3,3*%
%TO.N,Net-(J3_2-Pad3)*%
X52000000Y-95830000D03*
%TO.P,J3,2*%
%TO.N,Net-(J3_2-Pad2)*%
X52000000Y-93290000D03*
D11*
%TO.P,J3,1*%
%TO.N,Net-(J3_2-Pad1)*%
X52000000Y-90750000D03*
%TD*%
D10*
%TO.P,J1,16*%
%TO.N,Net-(J1-Pad16)*%
X54540000Y-64000000D03*
%TO.P,J1,15*%
%TO.N,Net-(J1-Pad15)*%
X54540000Y-66540000D03*
%TO.P,J1,14*%
%TO.N,Net-(J1-Pad14)*%
X54540000Y-69080000D03*
%TO.P,J1,13*%
%TO.N,Net-(J1-Pad13)*%
X54540000Y-71620000D03*
%TO.P,J1,12*%
%TO.N,Net-(J1-Pad12)*%
X54540000Y-74160000D03*
%TO.P,J1,11*%
%TO.N,Net-(J1-Pad11)*%
X54540000Y-76700000D03*
%TO.P,J1,10*%
%TO.N,Net-(J1-Pad10)*%
X54540000Y-79240000D03*
%TO.P,J1,9*%
%TO.N,Net-(J1-Pad9)*%
X54540000Y-81780000D03*
%TO.P,J1,8*%
%TO.N,GND*%
X52000000Y-81780000D03*
%TO.P,J1,7*%
X52000000Y-79240000D03*
%TO.P,J1,6*%
X52000000Y-76700000D03*
%TO.P,J1,5*%
X52000000Y-74160000D03*
%TO.P,J1,4*%
X52000000Y-71620000D03*
%TO.P,J1,3*%
X52000000Y-69080000D03*
%TO.P,J1,2*%
X52000000Y-66540000D03*
D11*
%TO.P,J1,1*%
X52000000Y-64000000D03*
%TD*%
D12*
%TO.P,UB3,16*%
%TO.N,+5V*%
X93620000Y-90500000D03*
%TO.P,UB3,8*%
%TO.N,GND*%
X86000000Y-108280000D03*
%TO.P,UB3,15*%
%TO.N,Net-(UB3-Pad15)*%
X93620000Y-93040000D03*
%TO.P,UB3,7*%
%TO.N,Net-(UB2-Pad15)*%
X86000000Y-105740000D03*
%TO.P,UB3,14*%
%TO.N,Net-(UB3-Pad14)*%
X93620000Y-95580000D03*
%TO.P,UB3,6*%
%TO.N,Net-(UB3-Pad6)*%
X86000000Y-103200000D03*
%TO.P,UB3,13*%
%TO.N,Net-(UB3-Pad13)*%
X93620000Y-98120000D03*
%TO.P,UB3,5*%
%TO.N,Net-(UB3-Pad5)*%
X86000000Y-100660000D03*
%TO.P,UB3,12*%
%TO.N,Net-(UB3-Pad12)*%
X93620000Y-100660000D03*
%TO.P,UB3,4*%
%TO.N,Net-(UB3-Pad4)*%
X86000000Y-98120000D03*
%TO.P,UB3,11*%
%TO.N,Net-(UB3-Pad11)*%
X93620000Y-103200000D03*
%TO.P,UB3,3*%
%TO.N,Net-(UB3-Pad3)*%
X86000000Y-95580000D03*
%TO.P,UB3,10*%
%TO.N,Net-(UB2-Pad15)*%
X93620000Y-105740000D03*
%TO.P,UB3,2*%
%TO.N,Net-(UB2-Pad2)*%
X86000000Y-93040000D03*
%TO.P,UB3,9*%
%TO.N,Net-(R2-Pad1)*%
X93620000Y-108280000D03*
D13*
%TO.P,UB3,1*%
X86000000Y-90500000D03*
%TD*%
D12*
%TO.P,UA5,14*%
%TO.N,+5V*%
X127620000Y-120500000D03*
%TO.P,UA5,7*%
%TO.N,GND*%
X120000000Y-135740000D03*
%TO.P,UA5,13*%
%TO.N,Net-(UA4-Pad10)*%
X127620000Y-123040000D03*
%TO.P,UA5,6*%
%TO.N,Net-(J3-Pad11)*%
X120000000Y-133200000D03*
%TO.P,UA5,12*%
%TO.N,Net-(UA2-Pad4)*%
X127620000Y-125580000D03*
%TO.P,UA5,5*%
%TO.N,Net-(UA3-Pad10)*%
X120000000Y-130660000D03*
%TO.P,UA5,11*%
%TO.N,Net-(J3-Pad5)*%
X127620000Y-128120000D03*
%TO.P,UA5,4*%
%TO.N,Net-(UA3-Pad12)*%
X120000000Y-128120000D03*
%TO.P,UA5,10*%
%TO.N,Net-(UA5-Pad10)*%
X127620000Y-130660000D03*
%TO.P,UA5,3*%
%TO.N,Net-(J3-Pad4)*%
X120000000Y-125580000D03*
%TO.P,UA5,9*%
%TO.N,Net-(UA5-Pad9)*%
X127620000Y-133200000D03*
%TO.P,UA5,2*%
%TO.N,Net-(UA3-Pad10)*%
X120000000Y-123040000D03*
%TO.P,UA5,8*%
%TO.N,Net-(UA5-Pad8)*%
X127620000Y-135740000D03*
D13*
%TO.P,UA5,1*%
%TO.N,Net-(UA2-Pad1)*%
X120000000Y-120500000D03*
%TD*%
D12*
%TO.P,UC6,14*%
%TO.N,+5V*%
X144620000Y-64000000D03*
%TO.P,UC6,7*%
%TO.N,GND*%
X137000000Y-79240000D03*
%TO.P,UC6,13*%
%TO.N,N/C*%
X144620000Y-66540000D03*
%TO.P,UC6,6*%
X137000000Y-76700000D03*
%TO.P,UC6,12*%
X144620000Y-69080000D03*
%TO.P,UC6,5*%
X137000000Y-74160000D03*
%TO.P,UC6,11*%
X144620000Y-71620000D03*
%TO.P,UC6,4*%
X137000000Y-71620000D03*
%TO.P,UC6,10*%
X144620000Y-74160000D03*
%TO.P,UC6,3*%
X137000000Y-69080000D03*
%TO.P,UC6,9*%
X144620000Y-76700000D03*
%TO.P,UC6,2*%
%TO.N,Net-(R1-Pad2)*%
X137000000Y-66540000D03*
%TO.P,UC6,8*%
%TO.N,N/C*%
X144620000Y-79240000D03*
D13*
%TO.P,UC6,1*%
%TO.N,Net-(C2-Pad1)*%
X137000000Y-64000000D03*
%TD*%
D12*
%TO.P,UC5,14*%
%TO.N,+5V*%
X127620000Y-64000000D03*
%TO.P,UC5,7*%
%TO.N,GND*%
X120000000Y-79240000D03*
%TO.P,UC5,13*%
%TO.N,N/C*%
X127620000Y-66540000D03*
%TO.P,UC5,6*%
X120000000Y-76700000D03*
%TO.P,UC5,12*%
X127620000Y-69080000D03*
%TO.P,UC5,5*%
X120000000Y-74160000D03*
%TO.P,UC5,11*%
X127620000Y-71620000D03*
%TO.P,UC5,4*%
X120000000Y-71620000D03*
%TO.P,UC5,10*%
%TO.N,Net-(UB3-Pad13)*%
X127620000Y-74160000D03*
%TO.P,UC5,3*%
%TO.N,Net-(J5-Pad1)*%
X120000000Y-69080000D03*
%TO.P,UC5,9*%
%TO.N,Net-(UB5-Pad11)*%
X127620000Y-76700000D03*
%TO.P,UC5,2*%
%TO.N,Net-(UC4-Pad3)*%
X120000000Y-66540000D03*
%TO.P,UC5,8*%
%TO.N,Net-(UA5-Pad10)*%
X127620000Y-79240000D03*
D13*
%TO.P,UC5,1*%
%TO.N,Net-(UC4-Pad3)*%
X120000000Y-64000000D03*
%TD*%
D12*
%TO.P,UC4,14*%
%TO.N,+5V*%
X110620000Y-64000000D03*
%TO.P,UC4,7*%
%TO.N,GND*%
X103000000Y-79240000D03*
%TO.P,UC4,13*%
%TO.N,Net-(R2-Pad1)*%
X110620000Y-66540000D03*
%TO.P,UC4,6*%
%TO.N,Net-(UC4-Pad6)*%
X103000000Y-76700000D03*
%TO.P,UC4,12*%
%TO.N,Net-(R1-Pad2)*%
X110620000Y-69080000D03*
%TO.P,UC4,5*%
%TO.N,Net-(UC2-Pad5)*%
X103000000Y-74160000D03*
%TO.P,UC4,11*%
%TO.N,Net-(UC2-Pad2)*%
X110620000Y-71620000D03*
%TO.P,UC4,4*%
%TO.N,Net-(UC2-Pad4)*%
X103000000Y-71620000D03*
%TO.P,UC4,10*%
%TO.N,Net-(R2-Pad1)*%
X110620000Y-74160000D03*
%TO.P,UC4,3*%
%TO.N,Net-(UC4-Pad3)*%
X103000000Y-69080000D03*
%TO.P,UC4,9*%
%TO.N,Net-(R1-Pad2)*%
X110620000Y-76700000D03*
%TO.P,UC4,2*%
%TO.N,Net-(UC4-Pad2)*%
X103000000Y-66540000D03*
%TO.P,UC4,8*%
%TO.N,Net-(UA5-Pad8)*%
X110620000Y-79240000D03*
D13*
%TO.P,UC4,1*%
%TO.N,Net-(UB5-Pad15)*%
X103000000Y-64000000D03*
%TD*%
D12*
%TO.P,UC3,14*%
%TO.N,+5V*%
X76620000Y-64000000D03*
%TO.P,UC3,7*%
%TO.N,GND*%
X69000000Y-79240000D03*
%TO.P,UC3,13*%
%TO.N,Net-(UB3-Pad12)*%
X76620000Y-66540000D03*
%TO.P,UC3,6*%
%TO.N,Net-(J1-Pad15)*%
X69000000Y-76700000D03*
%TO.P,UC3,12*%
%TO.N,Net-(J1-Pad14)*%
X76620000Y-69080000D03*
%TO.P,UC3,5*%
%TO.N,Net-(UB3-Pad11)*%
X69000000Y-74160000D03*
%TO.P,UC3,11*%
%TO.N,Net-(UB3-Pad13)*%
X76620000Y-71620000D03*
%TO.P,UC3,4*%
%TO.N,Net-(J1-Pad16)*%
X69000000Y-71620000D03*
%TO.P,UC3,10*%
%TO.N,Net-(J1-Pad13)*%
X76620000Y-74160000D03*
%TO.P,UC3,3*%
%TO.N,Net-(UB4-Pad14)*%
X69000000Y-69080000D03*
%TO.P,UC3,9*%
%TO.N,Net-(UB3-Pad14)*%
X76620000Y-76700000D03*
%TO.P,UC3,2*%
%TO.N,Net-(UB2-Pad2)*%
X69000000Y-66540000D03*
%TO.P,UC3,8*%
%TO.N,Net-(J1-Pad12)*%
X76620000Y-79240000D03*
D13*
%TO.P,UC3,1*%
%TO.N,Net-(C2-Pad1)*%
X69000000Y-64000000D03*
%TD*%
D12*
%TO.P,UC2,14*%
%TO.N,+5V*%
X93620000Y-64000000D03*
%TO.P,UC2,7*%
%TO.N,GND*%
X86000000Y-79240000D03*
%TO.P,UC2,13*%
%TO.N,Net-(UA3-Pad13)*%
X93620000Y-66540000D03*
%TO.P,UC2,6*%
%TO.N,Net-(J3-Pad16)*%
X86000000Y-76700000D03*
%TO.P,UC2,12*%
%TO.N,Net-(J1-Pad11)*%
X93620000Y-69080000D03*
%TO.P,UC2,5*%
%TO.N,Net-(UC2-Pad5)*%
X86000000Y-74160000D03*
%TO.P,UC2,11*%
%TO.N,Net-(UA4-Pad10)*%
X93620000Y-71620000D03*
%TO.P,UC2,4*%
%TO.N,Net-(UC2-Pad4)*%
X86000000Y-71620000D03*
%TO.P,UC2,10*%
%TO.N,Net-(J1-Pad10)*%
X93620000Y-74160000D03*
%TO.P,UC2,3*%
%TO.N,Net-(UB5-Pad15)*%
X86000000Y-69080000D03*
%TO.P,UC2,9*%
%TO.N,Net-(UA3-Pad10)*%
X93620000Y-76700000D03*
%TO.P,UC2,2*%
%TO.N,Net-(UC2-Pad2)*%
X86000000Y-66540000D03*
%TO.P,UC2,8*%
%TO.N,Net-(J1-Pad9)*%
X93620000Y-79240000D03*
D13*
%TO.P,UC2,1*%
%TO.N,Net-(UA5-Pad8)*%
X86000000Y-64000000D03*
%TD*%
D12*
%TO.P,UB4,16*%
%TO.N,+5V*%
X110620000Y-90500000D03*
%TO.P,UB4,8*%
%TO.N,GND*%
X103000000Y-108280000D03*
%TO.P,UB4,15*%
%TO.N,Net-(UB4-Pad15)*%
X110620000Y-93040000D03*
%TO.P,UB4,7*%
%TO.N,Net-(UB2-Pad15)*%
X103000000Y-105740000D03*
%TO.P,UB4,14*%
%TO.N,Net-(UB4-Pad14)*%
X110620000Y-95580000D03*
%TO.P,UB4,6*%
%TO.N,Net-(UB4-Pad6)*%
X103000000Y-103200000D03*
%TO.P,UB4,13*%
%TO.N,Net-(UA2-Pad1)*%
X110620000Y-98120000D03*
%TO.P,UB4,5*%
%TO.N,Net-(UB4-Pad5)*%
X103000000Y-100660000D03*
%TO.P,UB4,12*%
%TO.N,Net-(UA2-Pad4)*%
X110620000Y-100660000D03*
%TO.P,UB4,4*%
%TO.N,Net-(UB4-Pad4)*%
X103000000Y-98120000D03*
%TO.P,UB4,11*%
%TO.N,Net-(UA2-Pad9)*%
X110620000Y-103200000D03*
%TO.P,UB4,3*%
%TO.N,Net-(UB4-Pad3)*%
X103000000Y-95580000D03*
%TO.P,UB4,10*%
%TO.N,Net-(UB3-Pad15)*%
X110620000Y-105740000D03*
%TO.P,UB4,2*%
%TO.N,Net-(UB2-Pad2)*%
X103000000Y-93040000D03*
%TO.P,UB4,9*%
%TO.N,Net-(R2-Pad1)*%
X110620000Y-108280000D03*
D13*
%TO.P,UB4,1*%
X103000000Y-90500000D03*
%TD*%
D12*
%TO.P,UB2,16*%
%TO.N,+5V*%
X76620000Y-90500000D03*
%TO.P,UB2,8*%
%TO.N,GND*%
X69000000Y-108280000D03*
%TO.P,UB2,15*%
%TO.N,Net-(UB2-Pad15)*%
X76620000Y-93040000D03*
%TO.P,UB2,7*%
%TO.N,Net-(R2-Pad1)*%
X69000000Y-105740000D03*
%TO.P,UB2,14*%
%TO.N,Net-(UA2-Pad10)*%
X76620000Y-95580000D03*
%TO.P,UB2,6*%
%TO.N,Net-(UB2-Pad6)*%
X69000000Y-103200000D03*
%TO.P,UB2,13*%
%TO.N,Net-(UA3-Pad10)*%
X76620000Y-98120000D03*
%TO.P,UB2,5*%
%TO.N,Net-(UB2-Pad5)*%
X69000000Y-100660000D03*
%TO.P,UB2,12*%
%TO.N,Net-(UA4-Pad10)*%
X76620000Y-100660000D03*
%TO.P,UB2,4*%
%TO.N,Net-(UB2-Pad4)*%
X69000000Y-98120000D03*
%TO.P,UB2,11*%
%TO.N,Net-(UA3-Pad13)*%
X76620000Y-103200000D03*
%TO.P,UB2,3*%
%TO.N,Net-(UB2-Pad3)*%
X69000000Y-95580000D03*
%TO.P,UB2,10*%
%TO.N,Net-(R2-Pad1)*%
X76620000Y-105740000D03*
%TO.P,UB2,2*%
%TO.N,Net-(UB2-Pad2)*%
X69000000Y-93040000D03*
%TO.P,UB2,9*%
%TO.N,Net-(R2-Pad1)*%
X76620000Y-108280000D03*
D13*
%TO.P,UB2,1*%
X69000000Y-90500000D03*
%TD*%
%TO.P,UA6,1*%
%TO.N,Net-(UA2-Pad10)*%
X137000000Y-120500000D03*
D12*
%TO.P,UA6,8*%
%TO.N,Net-(J3-Pad10)*%
X144620000Y-135740000D03*
%TO.P,UA6,2*%
%TO.N,Net-(UA3-Pad12)*%
X137000000Y-123040000D03*
%TO.P,UA6,9*%
%TO.N,Net-(UA2-Pad12)*%
X144620000Y-133200000D03*
%TO.P,UA6,3*%
%TO.N,Net-(J3-Pad14)*%
X137000000Y-125580000D03*
%TO.P,UA6,10*%
%TO.N,Net-(UA3-Pad10)*%
X144620000Y-130660000D03*
%TO.P,UA6,4*%
%TO.N,N/C*%
X137000000Y-128120000D03*
%TO.P,UA6,11*%
%TO.N,Net-(J3-Pad9)*%
X144620000Y-128120000D03*
%TO.P,UA6,5*%
%TO.N,N/C*%
X137000000Y-130660000D03*
%TO.P,UA6,12*%
%TO.N,Net-(UA2-Pad12)*%
X144620000Y-125580000D03*
%TO.P,UA6,6*%
%TO.N,N/C*%
X137000000Y-133200000D03*
%TO.P,UA6,13*%
%TO.N,Net-(UA4-Pad10)*%
X144620000Y-123040000D03*
%TO.P,UA6,7*%
%TO.N,GND*%
X137000000Y-135740000D03*
%TO.P,UA6,14*%
%TO.N,+5V*%
X144620000Y-120500000D03*
%TD*%
%TO.P,UA4,14*%
%TO.N,+5V*%
X110620000Y-120500000D03*
%TO.P,UA4,7*%
%TO.N,GND*%
X103000000Y-135740000D03*
%TO.P,UA4,13*%
%TO.N,Net-(UA4-Pad10)*%
X110620000Y-123040000D03*
%TO.P,UA4,6*%
%TO.N,Net-(J2-Pad5)*%
X103000000Y-133200000D03*
%TO.P,UA4,12*%
%TO.N,Net-(UA3-Pad12)*%
X110620000Y-125580000D03*
%TO.P,UA4,5*%
%TO.N,Net-(UA2-Pad4)*%
X103000000Y-130660000D03*
%TO.P,UA4,11*%
%TO.N,Net-(J2-Pad6)*%
X110620000Y-128120000D03*
%TO.P,UA4,4*%
%TO.N,Net-(UA3-Pad13)*%
X103000000Y-128120000D03*
%TO.P,UA4,10*%
%TO.N,Net-(UA4-Pad10)*%
X110620000Y-130660000D03*
%TO.P,UA4,3*%
%TO.N,Net-(J2-Pad12)*%
X103000000Y-125580000D03*
%TO.P,UA4,9*%
%TO.N,Net-(UA2-Pad9)*%
X110620000Y-133200000D03*
%TO.P,UA4,2*%
%TO.N,Net-(UA4-Pad10)*%
X103000000Y-123040000D03*
%TO.P,UA4,8*%
%TO.N,Net-(J2-Pad11)*%
X110620000Y-135740000D03*
D13*
%TO.P,UA4,1*%
%TO.N,Net-(UA2-Pad1)*%
X103000000Y-120500000D03*
%TD*%
D12*
%TO.P,UA3,14*%
%TO.N,+5V*%
X93620000Y-120500000D03*
%TO.P,UA3,7*%
%TO.N,GND*%
X86000000Y-135740000D03*
%TO.P,UA3,13*%
%TO.N,Net-(UA3-Pad13)*%
X93620000Y-123040000D03*
%TO.P,UA3,6*%
%TO.N,Net-(J2-Pad3)*%
X86000000Y-133200000D03*
%TO.P,UA3,12*%
%TO.N,Net-(UA3-Pad12)*%
X93620000Y-125580000D03*
%TO.P,UA3,5*%
%TO.N,Net-(UA3-Pad10)*%
X86000000Y-130660000D03*
%TO.P,UA3,11*%
%TO.N,Net-(J2-Pad4)*%
X93620000Y-128120000D03*
%TO.P,UA3,4*%
%TO.N,Net-(UA2-Pad4)*%
X86000000Y-128120000D03*
%TO.P,UA3,10*%
%TO.N,Net-(UA3-Pad10)*%
X93620000Y-130660000D03*
%TO.P,UA3,3*%
%TO.N,Net-(J2-Pad14)*%
X86000000Y-125580000D03*
%TO.P,UA3,9*%
%TO.N,Net-(UA2-Pad9)*%
X93620000Y-133200000D03*
%TO.P,UA3,2*%
%TO.N,Net-(UA3-Pad13)*%
X86000000Y-123040000D03*
%TO.P,UA3,8*%
%TO.N,Net-(J2-Pad13)*%
X93620000Y-135740000D03*
D13*
%TO.P,UA3,1*%
%TO.N,Net-(UA2-Pad1)*%
X86000000Y-120500000D03*
%TD*%
D12*
%TO.P,UA2,14*%
%TO.N,+5V*%
X76620000Y-120500000D03*
%TO.P,UA2,7*%
%TO.N,GND*%
X69000000Y-135740000D03*
%TO.P,UA2,13*%
%TO.N,Net-(UA2-Pad10)*%
X76620000Y-123040000D03*
%TO.P,UA2,6*%
%TO.N,Net-(J2-Pad1)*%
X69000000Y-133200000D03*
%TO.P,UA2,12*%
%TO.N,Net-(UA2-Pad12)*%
X76620000Y-125580000D03*
%TO.P,UA2,5*%
%TO.N,Net-(UA2-Pad10)*%
X69000000Y-130660000D03*
%TO.P,UA2,11*%
%TO.N,Net-(J2-Pad2)*%
X76620000Y-128120000D03*
%TO.P,UA2,4*%
%TO.N,Net-(UA2-Pad4)*%
X69000000Y-128120000D03*
%TO.P,UA2,10*%
%TO.N,Net-(UA2-Pad10)*%
X76620000Y-130660000D03*
%TO.P,UA2,3*%
%TO.N,Net-(J2-Pad16)*%
X69000000Y-125580000D03*
%TO.P,UA2,9*%
%TO.N,Net-(UA2-Pad9)*%
X76620000Y-133200000D03*
%TO.P,UA2,2*%
%TO.N,Net-(UA2-Pad10)*%
X69000000Y-123040000D03*
%TO.P,UA2,8*%
%TO.N,Net-(J2-Pad15)*%
X76620000Y-135740000D03*
D13*
%TO.P,UA2,1*%
%TO.N,Net-(UA2-Pad1)*%
X69000000Y-120500000D03*
%TD*%
D16*
%TO.P,D1,1*%
%TO.N,GND*%
X82000000Y-54000000D03*
D17*
%TO.P,D1,2*%
%TO.N,Net-(D1-Pad2)*%
X84540000Y-54000000D03*
%TD*%
D18*
%TO.P,C3,2*%
%TO.N,GND*%
X76000000Y-54000000D03*
D19*
%TO.P,C3,1*%
%TO.N,+5V*%
X76000000Y-56500000D03*
%TD*%
D20*
%TO.N,+5V*%
X74000000Y-86000000D03*
X142000000Y-139000000D03*
X125000000Y-139000000D03*
X108000000Y-139000000D03*
X91000000Y-139000000D03*
X74000000Y-139000000D03*
X125000000Y-111500000D03*
X108000000Y-111500000D03*
X91000000Y-111500000D03*
X74000000Y-111500000D03*
X108250000Y-82500000D03*
X91000000Y-82500000D03*
X125000000Y-82500000D03*
X142250000Y-82500000D03*
X135250000Y-84250000D03*
X74000000Y-82500000D03*
X79750000Y-59000000D03*
%TO.N,GND*%
X61500000Y-112000000D03*
X65500000Y-82500000D03*
X68000000Y-82500000D03*
%TO.N,Net-(C2-Pad1)*%
X59250000Y-59250000D03*
%TO.N,Net-(J1-Pad16)*%
X62250000Y-64000000D03*
X62250000Y-71500000D03*
%TO.N,Net-(J1-Pad15)*%
X61460000Y-66540000D03*
X61460000Y-76710000D03*
%TO.N,Net-(J1-Pad12)*%
X62410000Y-74160000D03*
X62410000Y-77840000D03*
%TO.N,Net-(J1-Pad11)*%
X91750000Y-76000000D03*
%TO.N,Net-(J1-Pad10)*%
X63240000Y-79240000D03*
X63240000Y-67760000D03*
X89954990Y-67954990D03*
X89954990Y-74204990D03*
%TO.N,Net-(J1-Pad9)*%
X87974999Y-84724999D03*
X87974999Y-79275001D03*
X54750000Y-85000000D03*
%TO.N,Net-(J2-Pad16)*%
X66970000Y-118220000D03*
X66970000Y-125470000D03*
%TO.N,Net-(J2-Pad15)*%
X72414990Y-121914990D03*
X72414990Y-135664990D03*
%TO.N,Net-(J2-Pad14)*%
X65200000Y-123300000D03*
X65200000Y-117300000D03*
X83950000Y-117300000D03*
X83950000Y-125200000D03*
%TO.N,Net-(J2-Pad6)*%
X65165010Y-132334990D03*
X65165010Y-141165010D03*
X113800000Y-141400000D03*
X113834990Y-128584990D03*
%TO.N,Net-(J2-Pad13)*%
X63160000Y-125840000D03*
X63160000Y-116090000D03*
X88500000Y-116000000D03*
X88500000Y-135750000D03*
%TO.N,Net-(J2-Pad5)*%
X63494990Y-129505010D03*
X63494990Y-143005010D03*
X100494990Y-143005010D03*
X100494990Y-133255010D03*
%TO.N,Net-(J2-Pad12)*%
X62370000Y-128380000D03*
X62370000Y-143880000D03*
X99370000Y-143880000D03*
X99370000Y-125630000D03*
%TO.N,Net-(J2-Pad4)*%
X62250000Y-127000000D03*
X62250000Y-115500000D03*
X89600001Y-115100001D03*
X89600001Y-127850001D03*
%TO.N,Net-(J2-Pad11)*%
X64420000Y-130920000D03*
X64420000Y-142170000D03*
X110830000Y-142170000D03*
%TO.N,Net-(J2-Pad3)*%
X64250000Y-124500000D03*
X64250000Y-116750000D03*
X82850001Y-116350001D03*
X82850001Y-132850001D03*
%TO.N,Net-(J2-Pad1)*%
X66095010Y-119345010D03*
X66095010Y-132654990D03*
%TO.N,Net-(J3-Pad16)*%
X97924990Y-77825010D03*
X97924990Y-87674990D03*
X144424990Y-87674990D03*
%TO.N,Net-(J3-Pad14)*%
X138500000Y-94500000D03*
X138920000Y-125580000D03*
%TO.N,Net-(J3-Pad5)*%
X133000000Y-128000000D03*
X133000000Y-101000000D03*
%TO.N,Net-(J3-Pad4)*%
X134000000Y-97250000D03*
X134000000Y-126000000D03*
%TO.N,Net-(J3-Pad11)*%
X139674990Y-134325010D03*
X139674990Y-105325010D03*
%TO.N,Net-(J3-Pad10)*%
X146740000Y-105740000D03*
X146740000Y-135740000D03*
%TO.N,Net-(J3-Pad9)*%
X148630000Y-128120000D03*
X148630000Y-108370000D03*
%TO.N,Net-(R1-Pad2)*%
X134955010Y-70205010D03*
X113294990Y-70205010D03*
X113294990Y-76955010D03*
%TO.N,Net-(R2-Pad1)*%
X106250000Y-91625010D03*
X70874990Y-91625010D03*
X70760000Y-105740000D03*
%TO.N,Net-(UA2-Pad10)*%
X75000000Y-123000000D03*
X82000000Y-125000000D03*
X82000000Y-114000000D03*
X137000000Y-114000000D03*
X81520009Y-95520009D03*
%TO.N,Net-(UA2-Pad12)*%
X147754990Y-99750000D03*
X147754990Y-125245010D03*
X147754990Y-132754990D03*
X113744990Y-126994990D03*
X113744990Y-97255010D03*
%TO.N,Net-(UA2-Pad4)*%
X129425010Y-102074990D03*
X129425010Y-125675010D03*
X122465010Y-129534990D03*
X122465010Y-125534990D03*
%TO.N,Net-(UA2-Pad9)*%
X115000000Y-133000000D03*
X115000000Y-103000000D03*
%TO.N,Net-(UA2-Pad1)*%
X106750000Y-98120000D03*
X106120000Y-120880000D03*
%TO.N,Net-(UA3-Pad13)*%
X96960000Y-66540000D03*
X97000000Y-87000000D03*
X80750000Y-87000000D03*
X80750000Y-103000000D03*
X80750000Y-123500000D03*
X100960000Y-123040000D03*
X100960000Y-127960000D03*
%TO.N,Net-(UA3-Pad12)*%
X134920000Y-95580000D03*
X134920000Y-122920000D03*
X116420000Y-125580000D03*
X116420000Y-128420000D03*
X124000000Y-128000000D03*
X124000000Y-122000000D03*
%TO.N,Net-(UA3-Pad10)*%
X95450000Y-76700000D03*
X95450000Y-85450000D03*
X79050000Y-85450000D03*
X79050000Y-97950000D03*
X79050000Y-130450000D03*
%TO.N,Net-(UA4-Pad10)*%
X96130000Y-71620000D03*
X96250000Y-86250000D03*
X80000000Y-86250000D03*
X80000000Y-100500000D03*
X80000000Y-122000000D03*
X112834990Y-123250000D03*
X112834990Y-130415010D03*
%TO.N,Net-(UA5-Pad10)*%
X131490000Y-79240000D03*
X131490000Y-130740000D03*
%TO.N,Net-(UA5-Pad9)*%
X130160000Y-100660000D03*
X130160000Y-133090000D03*
%TO.N,Net-(UA5-Pad8)*%
X89750000Y-64000000D03*
X89750000Y-66500000D03*
X106665010Y-67665010D03*
X106665010Y-79165010D03*
X113240000Y-79240000D03*
X113240000Y-86760000D03*
X132240000Y-86760000D03*
X132240000Y-135740000D03*
%TO.N,Net-(UB2-Pad15)*%
X83960000Y-93040000D03*
%TO.N,Net-(UB2-Pad2)*%
X88795010Y-94454990D03*
X67000000Y-94000000D03*
%TO.N,Net-(UB3-Pad15)*%
X109000000Y-105500000D03*
X105000000Y-105500000D03*
X105000000Y-97000000D03*
X95505010Y-96994990D03*
%TO.N,Net-(UB3-Pad14)*%
X78294990Y-96705010D03*
%TO.N,Net-(UB3-Pad13)*%
X82245010Y-99245010D03*
X82245010Y-72245010D03*
X129754990Y-99245010D03*
X129754990Y-74245010D03*
%TO.N,Net-(UB3-Pad12)*%
X83214990Y-101785010D03*
X83214990Y-67214990D03*
%TO.N,Net-(UB3-Pad11)*%
X72000000Y-104500000D03*
X72000000Y-74250000D03*
%TO.N,Net-(UB4-Pad15)*%
X117960000Y-93040000D03*
X117960000Y-104460000D03*
%TO.N,Net-(UB4-Pad14)*%
X96295010Y-94454990D03*
X96295010Y-88204990D03*
X67045010Y-88204990D03*
%TO.N,Net-(UB5-Pad15)*%
X88625010Y-62874990D03*
X88625010Y-68874990D03*
X130500000Y-93000000D03*
X130500000Y-85500000D03*
X100000000Y-85500000D03*
X100000000Y-64000000D03*
%TO.N,Net-(UB5-Pad11)*%
X122800000Y-103200000D03*
X122800000Y-84550000D03*
X130500000Y-83500000D03*
X130500000Y-77000000D03*
%TO.N,Net-(UC2-Pad2)*%
X87750000Y-66500000D03*
X112500000Y-84500000D03*
X87755010Y-70494990D03*
%TD*%
D21*
%TO.N,+5V*%
X140562500Y-82500000D02*
X142000000Y-82500000D01*
X74000000Y-111500000D02*
X74000000Y-111500000D01*
X142000000Y-82500000D02*
X142250000Y-82500000D01*
X76000000Y-56000000D02*
X76000000Y-56500000D01*
X93620000Y-64000000D02*
X93620000Y-63880000D01*
X110620000Y-64000000D02*
X110620000Y-63880000D01*
X127620000Y-64000000D02*
X127620000Y-63880000D01*
X138562500Y-84500000D02*
X140562500Y-82500000D01*
X108000000Y-82500000D02*
X108250000Y-82500000D01*
X91000000Y-82500000D02*
X91000000Y-82500000D01*
X125000000Y-82500000D02*
X125000000Y-82500000D01*
X135250000Y-84250000D02*
X135500000Y-84500000D01*
X74000000Y-82500000D02*
X74000000Y-82500000D01*
X76000000Y-56500000D02*
X78250000Y-56500000D01*
X78250000Y-56500000D02*
X79750000Y-58000000D01*
X79750000Y-58000000D02*
X79750000Y-59000000D01*
X76000000Y-56500000D02*
X72500000Y-56500000D01*
X72500000Y-56500000D02*
X71250000Y-57750000D01*
X71250000Y-57750000D02*
X64250000Y-57750000D01*
X63000000Y-56500000D02*
X63000000Y-54000000D01*
X64250000Y-57750000D02*
X63000000Y-56500000D01*
X79750000Y-59000000D02*
X79750000Y-59000000D01*
X74000000Y-139000000D02*
X91000000Y-139000000D01*
X91000000Y-139000000D02*
X108000000Y-139000000D01*
X108000000Y-139000000D02*
X125000000Y-139000000D01*
X125000000Y-139000000D02*
X142000000Y-139000000D01*
X125000000Y-111500000D02*
X108000000Y-111500000D01*
X108000000Y-111500000D02*
X91000000Y-111500000D01*
X91000000Y-111500000D02*
X74000000Y-111500000D01*
X135500000Y-84500000D02*
X138562500Y-84500000D01*
X125000000Y-82500000D02*
X108250000Y-82500000D01*
X108250000Y-82500000D02*
X91000000Y-82500000D01*
X91000000Y-82500000D02*
X74000000Y-82500000D01*
X133500000Y-82500000D02*
X135250000Y-84250000D01*
X125000000Y-82500000D02*
X133500000Y-82500000D01*
%TO.N,GND*%
X69437500Y-108717500D02*
X69000000Y-108280000D01*
X142080000Y-95580000D02*
X144620000Y-98120000D01*
X142080000Y-103200000D02*
X144620000Y-100660000D01*
X75500000Y-54000000D02*
X76000000Y-53500000D01*
X81500000Y-53500000D02*
X82000000Y-54000000D01*
X84749990Y-80490010D02*
X86000000Y-79240000D01*
X70250010Y-80490010D02*
X84749990Y-80490010D01*
X69000000Y-79240000D02*
X70250010Y-80490010D01*
X101749990Y-80490010D02*
X103000000Y-79240000D01*
X87250010Y-80490010D02*
X101749990Y-80490010D01*
X86000000Y-79240000D02*
X87250010Y-80490010D01*
X118749990Y-80490010D02*
X120000000Y-79240000D01*
X104250010Y-80490010D02*
X118749990Y-80490010D01*
X103000000Y-79240000D02*
X104250010Y-80490010D01*
X120000000Y-79240000D02*
X123990000Y-79240000D01*
X123990000Y-79240000D02*
X126000000Y-81250000D01*
X134990000Y-81250000D02*
X137000000Y-79240000D01*
X126000000Y-81250000D02*
X134990000Y-81250000D01*
X84749990Y-109530010D02*
X86000000Y-108280000D01*
X70250010Y-109530010D02*
X84749990Y-109530010D01*
X69000000Y-108280000D02*
X70250010Y-109530010D01*
X101749990Y-109530010D02*
X103000000Y-108280000D01*
X87250010Y-109530010D02*
X101749990Y-109530010D01*
X86000000Y-108280000D02*
X87250010Y-109530010D01*
X118749990Y-109530010D02*
X120000000Y-108280000D01*
X104250010Y-109530010D02*
X118749990Y-109530010D01*
X103000000Y-108280000D02*
X104250010Y-109530010D01*
X68740000Y-136000000D02*
X69000000Y-135740000D01*
X84749990Y-136990010D02*
X86000000Y-135740000D01*
X70250010Y-136990010D02*
X84749990Y-136990010D01*
X69000000Y-135740000D02*
X70250010Y-136990010D01*
X101749990Y-136990010D02*
X103000000Y-135740000D01*
X87250010Y-136990010D02*
X101749990Y-136990010D01*
X86000000Y-135740000D02*
X87250010Y-136990010D01*
X118749990Y-136990010D02*
X120000000Y-135740000D01*
X104250010Y-136990010D02*
X118749990Y-136990010D01*
X103000000Y-135740000D02*
X104250010Y-136990010D01*
X135749990Y-136990010D02*
X137000000Y-135740000D01*
X121250010Y-136990010D02*
X135749990Y-136990010D01*
X120000000Y-135740000D02*
X121250010Y-136990010D01*
X54800000Y-135740000D02*
X54540000Y-136000000D01*
X69000000Y-135740000D02*
X54800000Y-135740000D01*
X54540000Y-136000000D02*
X52000000Y-136000000D01*
X52000000Y-136000000D02*
X52000000Y-133460000D01*
X52000000Y-133460000D02*
X54540000Y-133460000D01*
X54540000Y-133460000D02*
X54540000Y-136000000D01*
X68000000Y-54000000D02*
X82000000Y-54000000D01*
X137000000Y-79240000D02*
X138260000Y-79240000D01*
X138260000Y-79240000D02*
X139750000Y-77750000D01*
X139750000Y-57750000D02*
X136000000Y-54000000D01*
X139750000Y-77750000D02*
X139750000Y-57750000D01*
X65280000Y-112000000D02*
X69000000Y-108280000D01*
X61500000Y-112000000D02*
X65280000Y-112000000D01*
X52000000Y-83000000D02*
X52000000Y-81780000D01*
X53000000Y-84000000D02*
X52000000Y-83000000D01*
X61500000Y-84000000D02*
X53000000Y-84000000D01*
X63000000Y-82500000D02*
X61500000Y-84000000D01*
X68000000Y-82500000D02*
X68000000Y-82500000D01*
X68000000Y-82500000D02*
X63000000Y-82500000D01*
X140999990Y-109530010D02*
X142000000Y-108530000D01*
X121250010Y-109530010D02*
X140999990Y-109530010D01*
X120000000Y-108280000D02*
X121250010Y-109530010D01*
D22*
%TO.N,Net-(C2-Pad1)*%
X135874999Y-65125001D02*
X137000000Y-64000000D01*
X70125001Y-65125001D02*
X135874999Y-65125001D01*
X69000000Y-64000000D02*
X70125001Y-65125001D01*
X69000000Y-64000000D02*
X69000000Y-63500000D01*
X69000000Y-64000000D02*
X69000000Y-62750000D01*
X69000000Y-62750000D02*
X65500000Y-59250000D01*
X65500000Y-59250000D02*
X59250000Y-59250000D01*
X59250000Y-59250000D02*
X59250000Y-59250000D01*
%TO.N,Net-(J1-Pad16)*%
X59620000Y-64000000D02*
X62250000Y-64000000D01*
X62250000Y-64000000D02*
X62250000Y-64000000D01*
X68880000Y-71500000D02*
X69000000Y-71620000D01*
X62250000Y-71500000D02*
X68880000Y-71500000D01*
X59620000Y-64000000D02*
X54540000Y-64000000D01*
%TO.N,Net-(J1-Pad15)*%
X59620000Y-66540000D02*
X61460000Y-66540000D01*
X61460000Y-66540000D02*
X61460000Y-66540000D01*
X68990000Y-76710000D02*
X69000000Y-76700000D01*
X61460000Y-76710000D02*
X68990000Y-76710000D01*
X59620000Y-66540000D02*
X54540000Y-66540000D01*
%TO.N,Net-(J1-Pad14)*%
X75494990Y-70205010D02*
X76620000Y-69080000D01*
X60745010Y-70205010D02*
X75494990Y-70205010D01*
X59620000Y-69080000D02*
X60745010Y-70205010D01*
X59620000Y-69080000D02*
X54540000Y-69080000D01*
%TO.N,Net-(J1-Pad13)*%
X75205010Y-72745010D02*
X76620000Y-74160000D01*
X60745010Y-72745010D02*
X75205010Y-72745010D01*
X59620000Y-71620000D02*
X60745010Y-72745010D01*
X59620000Y-71620000D02*
X54540000Y-71620000D01*
%TO.N,Net-(J1-Pad12)*%
X59620000Y-74160000D02*
X62410000Y-74160000D01*
X62410000Y-74160000D02*
X62410000Y-74160000D01*
X62410000Y-77840000D02*
X73090000Y-77840000D01*
X74490000Y-79240000D02*
X76620000Y-79240000D01*
X73090000Y-77840000D02*
X74490000Y-79240000D01*
X59620000Y-74160000D02*
X54540000Y-74160000D01*
%TO.N,Net-(J1-Pad11)*%
X59620000Y-76700000D02*
X60745010Y-75574990D01*
X59620000Y-76700000D02*
X54540000Y-76700000D01*
X60745010Y-75574990D02*
X88074990Y-75574990D01*
X88500000Y-76000000D02*
X91750000Y-76000000D01*
X88074990Y-75574990D02*
X88500000Y-76000000D01*
%TO.N,Net-(J1-Pad10)*%
X59620000Y-79240000D02*
X63240000Y-79240000D01*
X63240000Y-79240000D02*
X63240000Y-79240000D01*
X63434990Y-67954990D02*
X89954990Y-67954990D01*
X63240000Y-67760000D02*
X63434990Y-67954990D01*
X89954990Y-67954990D02*
X89954990Y-67954990D01*
X93575010Y-74204990D02*
X93620000Y-74160000D01*
X89954990Y-74204990D02*
X93575010Y-74204990D01*
X59620000Y-79240000D02*
X54540000Y-79240000D01*
%TO.N,Net-(J1-Pad9)*%
X87974999Y-84724999D02*
X87974999Y-84724999D01*
X93584999Y-79275001D02*
X93620000Y-79240000D01*
X87974999Y-79275001D02*
X93584999Y-79275001D01*
X78701999Y-84724999D02*
X78652008Y-84774990D01*
X78652008Y-84774990D02*
X54725010Y-84774990D01*
X87974999Y-84724999D02*
X78701999Y-84724999D01*
X54750000Y-84799980D02*
X54725010Y-84774990D01*
X54750000Y-85000000D02*
X54750000Y-84799980D01*
%TO.N,Net-(J2-Pad16)*%
X66970000Y-118220000D02*
X66970000Y-118220000D01*
X67080000Y-125580000D02*
X66970000Y-125470000D01*
X69000000Y-125580000D02*
X67080000Y-125580000D01*
X66970000Y-118220000D02*
X54540000Y-118220000D01*
%TO.N,Net-(J2-Pad15)*%
X67829988Y-121914990D02*
X72414990Y-121914990D01*
X66674998Y-120760000D02*
X67829988Y-121914990D01*
X72414990Y-121914990D02*
X72414990Y-121914990D01*
X76544990Y-135664990D02*
X76620000Y-135740000D01*
X72414990Y-135664990D02*
X76544990Y-135664990D01*
X66674998Y-120760000D02*
X54540000Y-120760000D01*
%TO.N,Net-(J2-Pad14)*%
X65200000Y-123300000D02*
X65200000Y-123300000D01*
X65200000Y-117300000D02*
X83950000Y-117300000D01*
X83950000Y-117300000D02*
X83950000Y-117300000D01*
X85620000Y-125200000D02*
X86000000Y-125580000D01*
X83950000Y-125200000D02*
X85620000Y-125200000D01*
X65200000Y-123300000D02*
X54540000Y-123300000D01*
%TO.N,Net-(J2-Pad6)*%
X65165010Y-132334990D02*
X65165010Y-132334990D01*
X113834990Y-141165010D02*
X113834990Y-141165010D01*
X111084990Y-128584990D02*
X110620000Y-128120000D01*
X113834990Y-128584990D02*
X111084990Y-128584990D01*
X65115019Y-132284999D02*
X53034999Y-132284999D01*
X65165010Y-132334990D02*
X65115019Y-132284999D01*
X52000000Y-131250000D02*
X52000000Y-130920000D01*
X53034999Y-132284999D02*
X52000000Y-131250000D01*
X65400000Y-141400000D02*
X65165010Y-141165010D01*
X113800000Y-141400000D02*
X65400000Y-141400000D01*
%TO.N,Net-(J2-Pad13)*%
X63160000Y-125840000D02*
X63160000Y-125840000D01*
X63625000Y-115625000D02*
X88125000Y-115625000D01*
X63160000Y-116090000D02*
X63625000Y-115625000D01*
X88125000Y-115625000D02*
X88500000Y-116000000D01*
X88500000Y-116000000D02*
X88500000Y-116000000D01*
X93610000Y-135750000D02*
X93620000Y-135740000D01*
X88500000Y-135750000D02*
X93610000Y-135750000D01*
X63160000Y-125840000D02*
X54540000Y-125840000D01*
%TO.N,Net-(J2-Pad5)*%
X63494990Y-129505010D02*
X63494990Y-129505010D01*
X63494990Y-143005010D02*
X100494990Y-143005010D01*
X100494990Y-143005010D02*
X100494990Y-143005010D01*
X102944990Y-133255010D02*
X103000000Y-133200000D01*
X100494990Y-133255010D02*
X102944990Y-133255010D01*
X53175001Y-129555001D02*
X52000000Y-128380000D01*
X55104001Y-129555001D02*
X53175001Y-129555001D01*
X55153992Y-129505010D02*
X55104001Y-129555001D01*
X63494990Y-129505010D02*
X55153992Y-129505010D01*
%TO.N,Net-(J2-Pad12)*%
X62120000Y-128380000D02*
X62370000Y-128380000D01*
X62370000Y-128380000D02*
X62380000Y-128380000D01*
X62370000Y-143880000D02*
X99370000Y-143880000D01*
X99370000Y-143880000D02*
X99370000Y-143880000D01*
X102950000Y-125630000D02*
X103000000Y-125580000D01*
X99370000Y-125630000D02*
X102950000Y-125630000D01*
X62370000Y-128380000D02*
X54540000Y-128380000D01*
%TO.N,Net-(J2-Pad4)*%
X62250000Y-127000000D02*
X62250000Y-127000000D01*
X93350001Y-127850001D02*
X93620000Y-128120000D01*
X53175001Y-127015001D02*
X52000000Y-125840000D01*
X55104001Y-127015001D02*
X53175001Y-127015001D01*
X55119002Y-127000000D02*
X55104001Y-127015001D01*
X62250000Y-127000000D02*
X55119002Y-127000000D01*
X89870000Y-128120000D02*
X89600001Y-127850001D01*
X93620000Y-128120000D02*
X89870000Y-128120000D01*
X62649999Y-115100001D02*
X62250000Y-115500000D01*
X89600001Y-115100001D02*
X62649999Y-115100001D01*
%TO.N,Net-(J2-Pad11)*%
X64420000Y-130920000D02*
X64420000Y-130920000D01*
X64420000Y-142170000D02*
X110830000Y-142170000D01*
X110830000Y-142170000D02*
X110830000Y-142170000D01*
X64420000Y-130920000D02*
X54540000Y-130920000D01*
%TO.N,Net-(J2-Pad3)*%
X64250000Y-124500000D02*
X64250000Y-124500000D01*
X64649999Y-116350001D02*
X82850001Y-116350001D01*
X64250000Y-116750000D02*
X64649999Y-116350001D01*
X82850001Y-116350001D02*
X82850001Y-116350001D01*
X85650001Y-132850001D02*
X86000000Y-133200000D01*
X82850001Y-132850001D02*
X85650001Y-132850001D01*
X53200000Y-124500000D02*
X52000000Y-123300000D01*
X64250000Y-124500000D02*
X53200000Y-124500000D01*
%TO.N,Net-(J2-Pad2)*%
X72954990Y-124454990D02*
X67704990Y-124454990D01*
X76620000Y-128120000D02*
X72954990Y-124454990D01*
X67704990Y-124454990D02*
X65135010Y-121885010D01*
X53175001Y-121935001D02*
X52000000Y-120760000D01*
X55104001Y-121935001D02*
X53175001Y-121935001D01*
X55153992Y-121885010D02*
X55104001Y-121935001D01*
X65135010Y-121885010D02*
X55153992Y-121885010D01*
%TO.N,Net-(J2-Pad1)*%
X66095010Y-119345010D02*
X66095010Y-119345010D01*
X66640020Y-133200000D02*
X66095010Y-132654990D01*
X69000000Y-133200000D02*
X66640020Y-133200000D01*
X53175001Y-119395001D02*
X52000000Y-118220000D01*
X66045019Y-119395001D02*
X53175001Y-119395001D01*
X66095010Y-119345010D02*
X66045019Y-119395001D01*
%TO.N,Net-(J3-Pad16)*%
X86000000Y-76700000D02*
X90200000Y-76700000D01*
X91325010Y-77825010D02*
X97924990Y-77825010D01*
X90200000Y-76700000D02*
X91325010Y-77825010D01*
X97924990Y-77825010D02*
X97924990Y-77825010D01*
X97924990Y-87674990D02*
X135075010Y-87674990D01*
X135075010Y-87674990D02*
X144424990Y-87674990D01*
X144424990Y-87674990D02*
X144424990Y-87674990D01*
%TO.N,Net-(J3-Pad14)*%
X137000000Y-125580000D02*
X138920000Y-125580000D01*
X143859002Y-95830000D02*
X144540000Y-95830000D01*
X142529002Y-94500000D02*
X143859002Y-95830000D01*
X138500000Y-94500000D02*
X142529002Y-94500000D01*
%TO.N,Net-(J3-Pad5)*%
X127620000Y-128120000D02*
X132880000Y-128120000D01*
X132880000Y-128120000D02*
X133000000Y-128000000D01*
X133000000Y-128000000D02*
X133000000Y-128000000D01*
X141910000Y-101000000D02*
X142000000Y-100910000D01*
X133000000Y-101000000D02*
X141910000Y-101000000D01*
%TO.N,Net-(J3-Pad4)*%
X134000000Y-97250000D02*
X134000000Y-97250000D01*
X121955010Y-126705010D02*
X120830000Y-125580000D01*
X133294990Y-126705010D02*
X121955010Y-126705010D01*
X120830000Y-125580000D02*
X120000000Y-125580000D01*
X134000000Y-126000000D02*
X133294990Y-126705010D01*
X141750000Y-98120000D02*
X142000000Y-98370000D01*
X136120000Y-98120000D02*
X141750000Y-98120000D01*
X135250000Y-97250000D02*
X136120000Y-98120000D01*
X134000000Y-97250000D02*
X135250000Y-97250000D01*
%TO.N,Net-(J3-Pad11)*%
X121125010Y-134325010D02*
X139674990Y-134325010D01*
X120000000Y-133200000D02*
X121125010Y-134325010D01*
X139674990Y-134325010D02*
X139674990Y-134325010D01*
X143175001Y-104814999D02*
X144540000Y-103450000D01*
X140185001Y-104814999D02*
X143175001Y-104814999D01*
X139674990Y-105325010D02*
X140185001Y-104814999D01*
%TO.N,Net-(J3-Pad10)*%
X144620000Y-105740000D02*
X146740000Y-105740000D01*
X146740000Y-105740000D02*
X146740000Y-105740000D01*
X146740000Y-135740000D02*
X144620000Y-135740000D01*
%TO.N,Net-(J3-Pad9)*%
X144620000Y-128120000D02*
X148630000Y-128120000D01*
X148630000Y-128120000D02*
X148630000Y-128120000D01*
X144710000Y-108370000D02*
X144620000Y-108280000D01*
X148630000Y-108370000D02*
X144710000Y-108370000D01*
%TO.N,Net-(R1-Pad2)*%
X111745010Y-70205010D02*
X113294990Y-70205010D01*
X110620000Y-69080000D02*
X111745010Y-70205010D01*
X134955010Y-70205010D02*
X134955010Y-70205010D01*
X113294990Y-70205010D02*
X134955010Y-70205010D01*
X110875010Y-76955010D02*
X110620000Y-76700000D01*
X113294990Y-76955010D02*
X110875010Y-76955010D01*
%TO.N,Net-(R2-Pad1)*%
X84874990Y-91625010D02*
X86000000Y-90500000D01*
X70125010Y-91625010D02*
X70874990Y-91625010D01*
X69000000Y-90500000D02*
X70125010Y-91625010D01*
X101874990Y-91625010D02*
X103000000Y-90500000D01*
X87125010Y-91625010D02*
X101874990Y-91625010D01*
X86000000Y-90500000D02*
X87125010Y-91625010D01*
X118874990Y-91625010D02*
X120000000Y-90500000D01*
X104125010Y-91625010D02*
X108374990Y-91625010D01*
X103000000Y-90500000D02*
X104125010Y-91625010D01*
X76620000Y-105740000D02*
X70760000Y-105740000D01*
X108374990Y-91625010D02*
X118874990Y-91625010D01*
X70874990Y-91625010D02*
X84874990Y-91625010D01*
X70760000Y-105740000D02*
X69000000Y-105740000D01*
X77745010Y-107154990D02*
X76620000Y-108280000D01*
X92494990Y-107154990D02*
X77745010Y-107154990D01*
X93620000Y-108280000D02*
X92494990Y-107154990D01*
X93620000Y-108280000D02*
X94745010Y-107154990D01*
X94745010Y-107154990D02*
X107154990Y-107154990D01*
X108280000Y-108280000D02*
X110620000Y-108280000D01*
X107154990Y-107154990D02*
X108280000Y-108280000D01*
X110620000Y-108280000D02*
X116720000Y-108280000D01*
X126494990Y-107154990D02*
X127620000Y-108280000D01*
X117845010Y-107154990D02*
X126494990Y-107154990D01*
X116720000Y-108280000D02*
X117845010Y-107154990D01*
%TO.N,Net-(UA2-Pad10)*%
X76620000Y-95580000D02*
X76420000Y-95580000D01*
X76620000Y-123040000D02*
X69000000Y-123040000D01*
X76620000Y-130660000D02*
X69000000Y-130660000D01*
X76620000Y-123040000D02*
X78040000Y-123040000D01*
X78040000Y-123040000D02*
X80000000Y-125000000D01*
X80000000Y-125000000D02*
X82000000Y-125000000D01*
X82000000Y-125000000D02*
X82000000Y-125000000D01*
X137000000Y-114000000D02*
X137000000Y-114000000D01*
X137000000Y-114000000D02*
X137000000Y-114000000D01*
X137000000Y-114000000D02*
X82000000Y-114000000D01*
X76679991Y-95520009D02*
X76620000Y-95580000D01*
X81520009Y-95520009D02*
X76679991Y-95520009D01*
%TO.N,Net-(UA2-Pad12)*%
X145065010Y-132754990D02*
X144620000Y-133200000D01*
X135008996Y-98120000D02*
X127620000Y-98120000D01*
X144954990Y-125245010D02*
X144620000Y-125580000D01*
X147754990Y-125245010D02*
X144954990Y-125245010D01*
X147754990Y-132754990D02*
X146245010Y-132754990D01*
X146245010Y-132754990D02*
X145065010Y-132754990D01*
X146754990Y-132754990D02*
X146245010Y-132754990D01*
X78034990Y-126994990D02*
X113744990Y-126994990D01*
X76620000Y-125580000D02*
X78034990Y-126994990D01*
X113744990Y-126994990D02*
X113744990Y-126994990D01*
X126355011Y-96855011D02*
X127620000Y-98120000D01*
X114144989Y-96855011D02*
X126355011Y-96855011D01*
X113744990Y-97255010D02*
X114144989Y-96855011D01*
X136623995Y-99734999D02*
X135008996Y-98120000D01*
X145104001Y-99734999D02*
X136623995Y-99734999D01*
X145119002Y-99750000D02*
X145104001Y-99734999D01*
X147754990Y-99750000D02*
X145119002Y-99750000D01*
%TO.N,Net-(UA2-Pad4)*%
X110620000Y-100660000D02*
X110710000Y-100750000D01*
X110710000Y-100750000D02*
X111500000Y-100750000D01*
X112824990Y-102074990D02*
X129425010Y-102074990D01*
X111500000Y-100750000D02*
X112824990Y-102074990D01*
X129425010Y-102074990D02*
X129425010Y-102074990D01*
X127715010Y-125675010D02*
X127620000Y-125580000D01*
X129425010Y-125675010D02*
X127715010Y-125675010D01*
X84874990Y-129245010D02*
X70125010Y-129245010D01*
X70125010Y-129245010D02*
X69000000Y-128120000D01*
X86000000Y-128120000D02*
X84874990Y-129245010D01*
X101585010Y-129245010D02*
X103000000Y-130660000D01*
X87125010Y-129245010D02*
X101585010Y-129245010D01*
X86000000Y-128120000D02*
X87125010Y-129245010D01*
X104125010Y-129534990D02*
X122465010Y-129534990D01*
X103000000Y-130660000D02*
X104125010Y-129534990D01*
X122465010Y-129534990D02*
X122465010Y-129534990D01*
X127574990Y-125534990D02*
X127620000Y-125580000D01*
X122465010Y-125534990D02*
X127574990Y-125534990D01*
%TO.N,Net-(UA2-Pad9)*%
X92205010Y-134614990D02*
X93620000Y-133200000D01*
X78034990Y-134614990D02*
X92205010Y-134614990D01*
X76620000Y-133200000D02*
X78034990Y-134614990D01*
X109494990Y-134325010D02*
X110620000Y-133200000D01*
X94745010Y-134325010D02*
X109494990Y-134325010D01*
X93620000Y-133200000D02*
X94745010Y-134325010D01*
X110620000Y-133200000D02*
X114800000Y-133200000D01*
X114800000Y-133200000D02*
X115000000Y-133000000D01*
X115000000Y-133000000D02*
X115000000Y-133000000D01*
X110820000Y-103000000D02*
X110620000Y-103200000D01*
X115000000Y-103000000D02*
X110820000Y-103000000D01*
%TO.N,Net-(UA2-Pad1)*%
X103380000Y-120880000D02*
X103000000Y-120500000D01*
X106120000Y-120880000D02*
X103380000Y-120880000D01*
X69000000Y-120500000D02*
X70250000Y-119250000D01*
X84750000Y-119250000D02*
X86000000Y-120500000D01*
X70250000Y-119250000D02*
X84750000Y-119250000D01*
X101874990Y-119374990D02*
X103000000Y-120500000D01*
X87125010Y-119374990D02*
X101874990Y-119374990D01*
X86000000Y-120500000D02*
X87125010Y-119374990D01*
X118874990Y-119374990D02*
X120000000Y-120500000D01*
X104125010Y-119374990D02*
X118874990Y-119374990D01*
X103000000Y-120500000D02*
X104125010Y-119374990D01*
X106750000Y-98120000D02*
X110620000Y-98120000D01*
%TO.N,Net-(UA3-Pad13)*%
X93670000Y-66590000D02*
X93620000Y-66540000D01*
X93620000Y-66540000D02*
X96960000Y-66540000D01*
X96960000Y-66540000D02*
X96960000Y-66540000D01*
X97000000Y-87000000D02*
X80750000Y-87000000D01*
X80750000Y-87000000D02*
X80750000Y-87000000D01*
X76820000Y-103000000D02*
X76620000Y-103200000D01*
X80750000Y-103000000D02*
X76820000Y-103000000D01*
X85540000Y-123500000D02*
X86000000Y-123040000D01*
X80750000Y-123500000D02*
X85540000Y-123500000D01*
X86000000Y-123040000D02*
X93620000Y-123040000D01*
X93620000Y-123040000D02*
X100960000Y-123040000D01*
X100960000Y-123040000D02*
X100960000Y-123040000D01*
X102840000Y-127960000D02*
X103000000Y-128120000D01*
X100960000Y-127960000D02*
X102840000Y-127960000D01*
%TO.N,Net-(UA3-Pad12)*%
X127620000Y-95580000D02*
X134920000Y-95580000D01*
X134920000Y-95580000D02*
X134920000Y-95580000D01*
X136880000Y-122920000D02*
X137000000Y-123040000D01*
X134920000Y-122920000D02*
X136880000Y-122920000D01*
X109494990Y-124454990D02*
X110620000Y-125580000D01*
X94745010Y-124454990D02*
X109494990Y-124454990D01*
X93620000Y-125580000D02*
X94745010Y-124454990D01*
X110620000Y-125580000D02*
X116420000Y-125580000D01*
X116420000Y-125580000D02*
X116580000Y-125580000D01*
X119700000Y-128420000D02*
X120000000Y-128120000D01*
X116420000Y-128420000D02*
X119700000Y-128420000D01*
X120000000Y-128120000D02*
X123880000Y-128120000D01*
X123880000Y-128120000D02*
X124000000Y-128000000D01*
X124000000Y-128000000D02*
X124000000Y-128000000D01*
X133914990Y-121914990D02*
X134920000Y-122920000D01*
X124085010Y-121914990D02*
X133914990Y-121914990D01*
X124000000Y-122000000D02*
X124085010Y-121914990D01*
%TO.N,Net-(UA3-Pad10)*%
X93620000Y-76700000D02*
X95450000Y-76700000D01*
X95450000Y-76700000D02*
X95450000Y-76700000D01*
X95450000Y-85450000D02*
X79050000Y-85450000D01*
X79050000Y-85450000D02*
X79050000Y-85450000D01*
X76790000Y-97950000D02*
X76620000Y-98120000D01*
X79050000Y-97950000D02*
X76790000Y-97950000D01*
X85790000Y-130450000D02*
X86000000Y-130660000D01*
X79050000Y-130450000D02*
X85790000Y-130450000D01*
X86000000Y-130660000D02*
X93620000Y-130660000D01*
X118874990Y-131785010D02*
X120000000Y-130660000D01*
X94745010Y-131785010D02*
X118874990Y-131785010D01*
X93620000Y-130660000D02*
X94745010Y-131785010D01*
X143494990Y-131785010D02*
X144620000Y-130660000D01*
X121125010Y-131785010D02*
X143494990Y-131785010D01*
X120000000Y-130660000D02*
X121125010Y-131785010D01*
%TO.N,Net-(UA4-Pad10)*%
X93740000Y-71500000D02*
X93620000Y-71620000D01*
X93620000Y-71620000D02*
X96130000Y-71620000D01*
X96130000Y-71620000D02*
X96130000Y-71620000D01*
X96250000Y-86250000D02*
X80000000Y-86250000D01*
X80000000Y-86250000D02*
X80000000Y-86250000D01*
X76780000Y-100500000D02*
X76620000Y-100660000D01*
X80000000Y-100500000D02*
X76780000Y-100500000D01*
X101874990Y-121914990D02*
X103000000Y-123040000D01*
X85134006Y-121914990D02*
X101874990Y-121914990D01*
X85048996Y-122000000D02*
X85134006Y-121914990D01*
X80000000Y-122000000D02*
X85048996Y-122000000D01*
X103000000Y-123040000D02*
X110620000Y-123040000D01*
X126494990Y-124165010D02*
X127620000Y-123040000D01*
X143494990Y-124165010D02*
X144620000Y-123040000D01*
X128745010Y-124165010D02*
X143494990Y-124165010D01*
X127620000Y-123040000D02*
X128745010Y-124165010D01*
X110864990Y-130415010D02*
X110620000Y-130660000D01*
X112834990Y-130415010D02*
X110864990Y-130415010D01*
X112834990Y-123250000D02*
X117750000Y-123250000D01*
X118665010Y-124165010D02*
X126494990Y-124165010D01*
X117750000Y-123250000D02*
X118665010Y-124165010D01*
X110830000Y-123250000D02*
X110620000Y-123040000D01*
X112834990Y-123250000D02*
X110830000Y-123250000D01*
%TO.N,Net-(UA5-Pad10)*%
X127620000Y-79240000D02*
X131490000Y-79240000D01*
X131490000Y-79240000D02*
X131490000Y-79240000D01*
X127700000Y-130740000D02*
X127620000Y-130660000D01*
X131490000Y-130740000D02*
X127700000Y-130740000D01*
%TO.N,Net-(UA5-Pad9)*%
X127620000Y-100660000D02*
X130160000Y-100660000D01*
X130160000Y-100660000D02*
X130160000Y-100660000D01*
X127730000Y-133090000D02*
X127620000Y-133200000D01*
X130160000Y-133090000D02*
X127730000Y-133090000D01*
%TO.N,Net-(UA5-Pad8)*%
X86000000Y-64000000D02*
X89750000Y-64000000D01*
X89750000Y-64000000D02*
X89750000Y-64000000D01*
X90915010Y-67665010D02*
X106665010Y-67665010D01*
X89750000Y-66500000D02*
X90915010Y-67665010D01*
X106665010Y-67665010D02*
X106665010Y-67665010D01*
X110545010Y-79165010D02*
X110620000Y-79240000D01*
X106665010Y-79165010D02*
X110545010Y-79165010D01*
X110620000Y-79240000D02*
X113240000Y-79240000D01*
X113240000Y-79240000D02*
X113240000Y-79240000D01*
X113240000Y-86760000D02*
X132240000Y-86760000D01*
X132240000Y-86760000D02*
X132240000Y-86760000D01*
X132240000Y-135740000D02*
X127620000Y-135740000D01*
%TO.N,Net-(UB2-Pad15)*%
X76620000Y-93040000D02*
X83960000Y-93040000D01*
X83960000Y-93040000D02*
X83960000Y-93040000D01*
X86000000Y-105740000D02*
X103000000Y-105740000D01*
X103000000Y-106000000D02*
X103500000Y-106500000D01*
X103000000Y-105740000D02*
X103000000Y-106000000D01*
X109388996Y-106500000D02*
X109754006Y-106865010D01*
X103500000Y-106500000D02*
X109388996Y-106500000D01*
X109754006Y-106865010D02*
X116134990Y-106865010D01*
X117260000Y-105740000D02*
X120000000Y-105740000D01*
X116134990Y-106865010D02*
X117260000Y-105740000D01*
%TO.N,Net-(UB2-Pad2)*%
X84874990Y-94165010D02*
X86000000Y-93040000D01*
X70125010Y-94165010D02*
X84874990Y-94165010D01*
X69000000Y-93040000D02*
X70125010Y-94165010D01*
X86000000Y-93040000D02*
X87414990Y-94454990D01*
X118585010Y-94454990D02*
X120000000Y-93040000D01*
X108130020Y-93040000D02*
X109545010Y-94454990D01*
X103000000Y-93040000D02*
X108130020Y-93040000D01*
X109545010Y-94454990D02*
X118585010Y-94454990D01*
X95869980Y-93040000D02*
X94454990Y-94454990D01*
X103000000Y-93040000D02*
X95869980Y-93040000D01*
X87414990Y-94454990D02*
X88795010Y-94454990D01*
X88795010Y-94454990D02*
X94454990Y-94454990D01*
X69000000Y-93040000D02*
X67960000Y-93040000D01*
X67960000Y-93040000D02*
X67000000Y-94000000D01*
X67000000Y-94000000D02*
X67000000Y-94000000D01*
%TO.N,Net-(UB3-Pad15)*%
X109000000Y-105500000D02*
X105000000Y-105500000D01*
X105000000Y-105500000D02*
X105000000Y-105500000D01*
X104994990Y-96994990D02*
X95505010Y-96994990D01*
X105000000Y-97000000D02*
X104994990Y-96994990D01*
%TO.N,Net-(UB3-Pad14)*%
X92494990Y-96705010D02*
X78294990Y-96705010D01*
X93620000Y-95580000D02*
X92494990Y-96705010D01*
X78294990Y-96705010D02*
X78294990Y-96705010D01*
%TO.N,Net-(UB3-Pad13)*%
X92494990Y-99245010D02*
X82245010Y-99245010D01*
X93620000Y-98120000D02*
X92494990Y-99245010D01*
X82245010Y-99245010D02*
X82245010Y-99245010D01*
X77245010Y-72245010D02*
X76620000Y-71620000D01*
X82245010Y-72245010D02*
X77245010Y-72245010D01*
X94745010Y-99245010D02*
X129754990Y-99245010D01*
X93620000Y-98120000D02*
X94745010Y-99245010D01*
X129754990Y-99245010D02*
X129754990Y-99245010D01*
X127705010Y-74245010D02*
X127620000Y-74160000D01*
X129754990Y-74245010D02*
X127705010Y-74245010D01*
%TO.N,Net-(UB3-Pad12)*%
X92494990Y-101785010D02*
X83785010Y-101785010D01*
X93620000Y-100660000D02*
X92494990Y-101785010D01*
X83785010Y-101785010D02*
X83214990Y-101785010D01*
X83214990Y-101785010D02*
X83214990Y-101785010D01*
X77294990Y-67214990D02*
X76620000Y-66540000D01*
X83214990Y-67214990D02*
X77294990Y-67214990D01*
%TO.N,Net-(UB3-Pad11)*%
X92320000Y-104500000D02*
X72000000Y-104500000D01*
X93620000Y-103200000D02*
X92320000Y-104500000D01*
X72000000Y-104500000D02*
X72000000Y-104500000D01*
X69090000Y-74250000D02*
X69000000Y-74160000D01*
X72000000Y-74250000D02*
X69090000Y-74250000D01*
%TO.N,Net-(UB4-Pad15)*%
X110620000Y-93040000D02*
X117960000Y-93040000D01*
X117960000Y-93040000D02*
X117960000Y-93040000D01*
X126340000Y-104460000D02*
X127620000Y-105740000D01*
X117960000Y-104460000D02*
X126340000Y-104460000D01*
%TO.N,Net-(UB4-Pad14)*%
X110620000Y-95580000D02*
X109080000Y-95580000D01*
X109080000Y-95580000D02*
X108500000Y-95000000D01*
X107954990Y-94454990D02*
X96295010Y-94454990D01*
X108500000Y-95000000D02*
X107954990Y-94454990D01*
X96295010Y-94454990D02*
X96045010Y-94454990D01*
X96295010Y-88204990D02*
X84204990Y-88204990D01*
X84204990Y-88204990D02*
X84204990Y-88204990D01*
X84204990Y-88204990D02*
X67795010Y-88204990D01*
X67795010Y-88204990D02*
X67045010Y-88204990D01*
X67045010Y-88204990D02*
X67045010Y-88204990D01*
%TO.N,Net-(UB5-Pad15)*%
X88625010Y-62874990D02*
X88625010Y-62874990D01*
X86205010Y-68874990D02*
X86000000Y-69080000D01*
X88625010Y-68874990D02*
X86205010Y-68874990D01*
X127660000Y-93000000D02*
X127620000Y-93040000D01*
X130500000Y-93000000D02*
X127660000Y-93000000D01*
X130500000Y-85500000D02*
X100000000Y-85500000D01*
X100000000Y-85500000D02*
X100000000Y-85500000D01*
X100000000Y-64000000D02*
X103000000Y-64000000D01*
%TO.N,Net-(UB5-Pad11)*%
X127620000Y-103200000D02*
X122800000Y-103200000D01*
X122800000Y-103200000D02*
X122800000Y-103200000D01*
X122800000Y-84550000D02*
X129450000Y-84550000D01*
X129450000Y-84550000D02*
X130500000Y-83500000D01*
X130500000Y-83500000D02*
X130500000Y-83500000D01*
X127920000Y-77000000D02*
X127620000Y-76700000D01*
X130500000Y-77000000D02*
X127920000Y-77000000D01*
%TO.N,Net-(UC2-Pad5)*%
X89962008Y-75285010D02*
X101874990Y-75285010D01*
X101874990Y-75285010D02*
X103000000Y-74160000D01*
X88836998Y-74160000D02*
X89962008Y-75285010D01*
X86000000Y-74160000D02*
X88836998Y-74160000D01*
%TO.N,Net-(UC2-Pad4)*%
X101874990Y-72745010D02*
X103000000Y-71620000D01*
X87125010Y-72745010D02*
X101874990Y-72745010D01*
X86000000Y-71620000D02*
X87125010Y-72745010D01*
%TO.N,Net-(UC2-Pad2)*%
X86255010Y-66795010D02*
X86000000Y-66540000D01*
X87710000Y-66540000D02*
X87750000Y-66500000D01*
X86000000Y-66540000D02*
X87710000Y-66540000D01*
X109494990Y-70494990D02*
X87755010Y-70494990D01*
X110620000Y-71620000D02*
X109494990Y-70494990D01*
X87755010Y-70494990D02*
X87755010Y-70494990D01*
%TO.N,Net-(UC4-Pad3)*%
X120000000Y-66540000D02*
X119460000Y-66540000D01*
X118045010Y-67954990D02*
X108545010Y-67954990D01*
X119460000Y-66540000D02*
X118045010Y-67954990D01*
X107420000Y-69080000D02*
X103000000Y-69080000D01*
X108545010Y-67954990D02*
X107420000Y-69080000D01*
%TO.N,Net-(J3_2-Pad16)*%
X61614999Y-91925001D02*
X62790000Y-90750000D01*
X55715001Y-91925001D02*
X61614999Y-91925001D01*
X54540000Y-90750000D02*
X55715001Y-91925001D01*
%TO.N,Net-(J3_2-Pad15)*%
X61425001Y-94654999D02*
X62790000Y-93290000D01*
X55904999Y-94654999D02*
X61425001Y-94654999D01*
X54540000Y-93290000D02*
X55904999Y-94654999D01*
%TO.N,Net-(J3_2-Pad14)*%
X61614999Y-97005001D02*
X62790000Y-95830000D01*
X55715001Y-97005001D02*
X61614999Y-97005001D01*
X54540000Y-95830000D02*
X55715001Y-97005001D01*
%TO.N,Net-(J3_2-Pad13)*%
X61614999Y-99545001D02*
X62790000Y-98370000D01*
X55715001Y-99545001D02*
X61614999Y-99545001D01*
X54540000Y-98370000D02*
X55715001Y-99545001D01*
%TO.N,Net-(J3_2-Pad12)*%
X61614999Y-102085001D02*
X62790000Y-100910000D01*
X55715001Y-102085001D02*
X61614999Y-102085001D01*
X54540000Y-100910000D02*
X55715001Y-102085001D01*
%TO.N,Net-(J3_2-Pad11)*%
X61614999Y-104625001D02*
X62790000Y-103450000D01*
X55715001Y-104625001D02*
X61614999Y-104625001D01*
X54540000Y-103450000D02*
X55715001Y-104625001D01*
%TO.N,Net-(J3_2-Pad10)*%
X61614999Y-107165001D02*
X62790000Y-105990000D01*
X55715001Y-107165001D02*
X61614999Y-107165001D01*
X54540000Y-105990000D02*
X55715001Y-107165001D01*
%TO.N,Net-(J3_2-Pad9)*%
X61614999Y-109705001D02*
X62790000Y-108530000D01*
X55715001Y-109705001D02*
X61614999Y-109705001D01*
X54540000Y-108530000D02*
X55715001Y-109705001D01*
%TD*%
M02*
