M48
; DRILL file {KiCad (5.1.9)-1} date 02/24/22 19:51:13
; FORMAT={-:-/ absolute / metric / decimal}
; #@! TF.CreationDate,2022-02-24T19:51:13-05:00
; #@! TF.GenerationSoftware,Kicad,Pcbnew,(5.1.9)-1
; #@! TF.FileFunction,Plated,1,2,PTH
FMAT,2
METRIC
T1C0.400
T2C0.800
T3C0.900
T4C1.000
T5C1.320
%
G90
G05
T1
X54.75Y-85.0
X59.25Y-59.25
X61.46Y-66.54
X61.46Y-76.71
X61.5Y-112.0
X62.25Y-64.0
X62.25Y-71.5
X62.25Y-115.5
X62.25Y-127.0
X62.37Y-128.38
X62.37Y-143.88
X62.41Y-74.16
X62.41Y-77.84
X63.16Y-116.09
X63.16Y-125.84
X63.24Y-67.76
X63.24Y-79.24
X63.495Y-129.505
X63.495Y-143.005
X64.25Y-116.75
X64.25Y-124.5
X64.42Y-130.92
X64.42Y-142.17
X65.165Y-132.335
X65.165Y-141.165
X65.2Y-117.3
X65.2Y-123.3
X65.5Y-82.5
X66.095Y-119.345
X66.095Y-132.655
X66.97Y-118.22
X66.97Y-125.47
X67.0Y-94.0
X67.045Y-88.205
X68.0Y-82.5
X70.76Y-105.74
X70.875Y-91.625
X72.0Y-74.25
X72.0Y-104.5
X72.415Y-121.915
X72.415Y-135.665
X74.0Y-82.5
X74.0Y-86.0
X74.0Y-111.5
X74.0Y-139.0
X75.0Y-123.0
X78.295Y-96.705
X79.05Y-85.45
X79.05Y-97.95
X79.05Y-130.45
X79.75Y-59.0
X80.0Y-86.25
X80.0Y-100.5
X80.0Y-122.0
X80.75Y-87.0
X80.75Y-103.0
X80.75Y-123.5
X81.52Y-95.52
X82.0Y-114.0
X82.0Y-125.0
X82.245Y-72.245
X82.245Y-99.245
X82.85Y-116.35
X82.85Y-132.85
X83.215Y-67.215
X83.215Y-101.785
X83.95Y-117.3
X83.95Y-125.2
X83.96Y-93.04
X87.75Y-66.5
X87.755Y-70.495
X87.975Y-79.275
X87.975Y-84.725
X88.5Y-116.0
X88.5Y-135.75
X88.625Y-62.875
X88.625Y-68.875
X88.795Y-94.455
X89.6Y-115.1
X89.6Y-127.85
X89.75Y-64.0
X89.75Y-66.5
X89.955Y-67.955
X89.955Y-74.205
X91.0Y-82.5
X91.0Y-111.5
X91.0Y-139.0
X91.75Y-76.0
X95.45Y-76.7
X95.45Y-85.45
X95.505Y-96.995
X96.13Y-71.62
X96.25Y-86.25
X96.295Y-88.205
X96.295Y-94.455
X96.96Y-66.54
X97.0Y-87.0
X97.925Y-77.825
X97.925Y-87.675
X99.37Y-125.63
X99.37Y-143.88
X100.0Y-64.0
X100.0Y-85.5
X100.495Y-133.255
X100.495Y-143.005
X100.96Y-123.04
X100.96Y-127.96
X105.0Y-97.0
X105.0Y-105.5
X106.12Y-120.88
X106.25Y-91.625
X106.665Y-67.665
X106.665Y-79.165
X106.75Y-98.12
X108.0Y-111.5
X108.0Y-139.0
X108.25Y-82.5
X109.0Y-105.5
X110.83Y-142.17
X112.5Y-84.5
X112.835Y-123.25
X112.835Y-130.415
X113.24Y-79.24
X113.24Y-86.76
X113.295Y-70.205
X113.295Y-76.955
X113.745Y-97.255
X113.745Y-126.995
X113.8Y-141.4
X113.835Y-128.585
X115.0Y-103.0
X115.0Y-133.0
X116.42Y-125.58
X116.42Y-128.42
X117.96Y-93.04
X117.96Y-104.46
X122.465Y-125.535
X122.465Y-129.535
X122.8Y-84.55
X122.8Y-103.2
X124.0Y-122.0
X124.0Y-128.0
X125.0Y-82.5
X125.0Y-111.5
X125.0Y-139.0
X129.425Y-102.075
X129.425Y-125.675
X129.755Y-74.245
X129.755Y-99.245
X130.16Y-100.66
X130.16Y-133.09
X130.5Y-77.0
X130.5Y-83.5
X130.5Y-85.5
X130.5Y-93.0
X131.49Y-79.24
X131.49Y-130.74
X132.24Y-86.76
X132.24Y-135.74
X133.0Y-101.0
X133.0Y-128.0
X134.0Y-97.25
X134.0Y-126.0
X134.92Y-95.58
X134.92Y-122.92
X134.955Y-70.205
X135.25Y-84.25
X137.0Y-114.0
X138.5Y-94.5
X138.92Y-125.58
X139.675Y-105.325
X139.675Y-134.325
X142.0Y-139.0
X142.25Y-82.5
X144.425Y-87.675
X146.74Y-105.74
X146.74Y-135.74
X147.755Y-99.75
X147.755Y-125.245
X147.755Y-132.755
X148.63Y-108.37
X148.63Y-128.12
T2
X69.0Y-64.0
X69.0Y-66.54
X69.0Y-69.08
X69.0Y-71.62
X69.0Y-74.16
X69.0Y-76.7
X69.0Y-79.24
X69.0Y-90.5
X69.0Y-93.04
X69.0Y-95.58
X69.0Y-98.12
X69.0Y-100.66
X69.0Y-103.2
X69.0Y-105.74
X69.0Y-108.28
X69.0Y-120.5
X69.0Y-123.04
X69.0Y-125.58
X69.0Y-128.12
X69.0Y-130.66
X69.0Y-133.2
X69.0Y-135.74
X76.0Y-54.0
X76.0Y-56.5
X76.62Y-64.0
X76.62Y-66.54
X76.62Y-69.08
X76.62Y-71.62
X76.62Y-74.16
X76.62Y-76.7
X76.62Y-79.24
X76.62Y-90.5
X76.62Y-93.04
X76.62Y-95.58
X76.62Y-98.12
X76.62Y-100.66
X76.62Y-103.2
X76.62Y-105.74
X76.62Y-108.28
X76.62Y-120.5
X76.62Y-123.04
X76.62Y-125.58
X76.62Y-128.12
X76.62Y-130.66
X76.62Y-133.2
X76.62Y-135.74
X86.0Y-64.0
X86.0Y-66.54
X86.0Y-69.08
X86.0Y-71.62
X86.0Y-74.16
X86.0Y-76.7
X86.0Y-79.24
X86.0Y-90.5
X86.0Y-93.04
X86.0Y-95.58
X86.0Y-98.12
X86.0Y-100.66
X86.0Y-103.2
X86.0Y-105.74
X86.0Y-108.28
X86.0Y-120.5
X86.0Y-123.04
X86.0Y-125.58
X86.0Y-128.12
X86.0Y-130.66
X86.0Y-133.2
X86.0Y-135.74
X93.62Y-64.0
X93.62Y-66.54
X93.62Y-69.08
X93.62Y-71.62
X93.62Y-74.16
X93.62Y-76.7
X93.62Y-79.24
X93.62Y-90.5
X93.62Y-93.04
X93.62Y-95.58
X93.62Y-98.12
X93.62Y-100.66
X93.62Y-103.2
X93.62Y-105.74
X93.62Y-108.28
X93.62Y-120.5
X93.62Y-123.04
X93.62Y-125.58
X93.62Y-128.12
X93.62Y-130.66
X93.62Y-133.2
X93.62Y-135.74
X103.0Y-64.0
X103.0Y-66.54
X103.0Y-69.08
X103.0Y-71.62
X103.0Y-74.16
X103.0Y-76.7
X103.0Y-79.24
X103.0Y-90.5
X103.0Y-93.04
X103.0Y-95.58
X103.0Y-98.12
X103.0Y-100.66
X103.0Y-103.2
X103.0Y-105.74
X103.0Y-108.28
X103.0Y-120.5
X103.0Y-123.04
X103.0Y-125.58
X103.0Y-128.12
X103.0Y-130.66
X103.0Y-133.2
X103.0Y-135.74
X110.62Y-64.0
X110.62Y-66.54
X110.62Y-69.08
X110.62Y-71.62
X110.62Y-74.16
X110.62Y-76.7
X110.62Y-79.24
X110.62Y-90.5
X110.62Y-93.04
X110.62Y-95.58
X110.62Y-98.12
X110.62Y-100.66
X110.62Y-103.2
X110.62Y-105.74
X110.62Y-108.28
X110.62Y-120.5
X110.62Y-123.04
X110.62Y-125.58
X110.62Y-128.12
X110.62Y-130.66
X110.62Y-133.2
X110.62Y-135.74
X120.0Y-64.0
X120.0Y-66.54
X120.0Y-69.08
X120.0Y-71.62
X120.0Y-74.16
X120.0Y-76.7
X120.0Y-79.24
X120.0Y-90.5
X120.0Y-93.04
X120.0Y-95.58
X120.0Y-98.12
X120.0Y-100.66
X120.0Y-103.2
X120.0Y-105.74
X120.0Y-108.28
X120.0Y-120.5
X120.0Y-123.04
X120.0Y-125.58
X120.0Y-128.12
X120.0Y-130.66
X120.0Y-133.2
X120.0Y-135.74
X127.62Y-64.0
X127.62Y-66.54
X127.62Y-69.08
X127.62Y-71.62
X127.62Y-74.16
X127.62Y-76.7
X127.62Y-79.24
X127.62Y-90.5
X127.62Y-93.04
X127.62Y-95.58
X127.62Y-98.12
X127.62Y-100.66
X127.62Y-103.2
X127.62Y-105.74
X127.62Y-108.28
X127.62Y-120.5
X127.62Y-123.04
X127.62Y-125.58
X127.62Y-128.12
X127.62Y-130.66
X127.62Y-133.2
X127.62Y-135.74
X137.0Y-64.0
X137.0Y-66.54
X137.0Y-69.08
X137.0Y-71.62
X137.0Y-74.16
X137.0Y-76.7
X137.0Y-79.24
X137.0Y-120.5
X137.0Y-123.04
X137.0Y-125.58
X137.0Y-128.12
X137.0Y-130.66
X137.0Y-133.2
X137.0Y-135.74
X144.62Y-64.0
X144.62Y-66.54
X144.62Y-69.08
X144.62Y-71.62
X144.62Y-74.16
X144.62Y-76.7
X144.62Y-79.24
X144.62Y-120.5
X144.62Y-123.04
X144.62Y-125.58
X144.62Y-128.12
X144.62Y-130.66
X144.62Y-133.2
X144.62Y-135.74
T3
X82.0Y-54.0
X84.54Y-54.0
T4
X52.0Y-64.0
X52.0Y-66.54
X52.0Y-69.08
X52.0Y-71.62
X52.0Y-74.16
X52.0Y-76.7
X52.0Y-79.24
X52.0Y-81.78
X52.0Y-90.75
X52.0Y-93.29
X52.0Y-95.83
X52.0Y-98.37
X52.0Y-100.91
X52.0Y-103.45
X52.0Y-105.99
X52.0Y-108.53
X52.0Y-118.22
X52.0Y-120.76
X52.0Y-123.3
X52.0Y-125.84
X52.0Y-128.38
X52.0Y-130.92
X52.0Y-133.46
X52.0Y-136.0
X54.54Y-64.0
X54.54Y-66.54
X54.54Y-69.08
X54.54Y-71.62
X54.54Y-74.16
X54.54Y-76.7
X54.54Y-79.24
X54.54Y-81.78
X54.54Y-90.75
X54.54Y-93.29
X54.54Y-95.83
X54.54Y-98.37
X54.54Y-100.91
X54.54Y-103.45
X54.54Y-105.99
X54.54Y-108.53
X54.54Y-118.22
X54.54Y-120.76
X54.54Y-123.3
X54.54Y-125.84
X54.54Y-128.38
X54.54Y-130.92
X54.54Y-133.46
X54.54Y-136.0
X60.25Y-90.75
X60.25Y-93.29
X60.25Y-95.83
X60.25Y-98.37
X60.25Y-100.91
X60.25Y-103.45
X60.25Y-105.99
X60.25Y-108.53
X62.79Y-90.75
X62.79Y-93.29
X62.79Y-95.83
X62.79Y-98.37
X62.79Y-100.91
X62.79Y-103.45
X62.79Y-105.99
X62.79Y-108.53
X142.0Y-90.75
X142.0Y-93.29
X142.0Y-95.83
X142.0Y-98.37
X142.0Y-100.91
X142.0Y-103.45
X142.0Y-105.99
X142.0Y-108.53
X144.54Y-90.75
X144.54Y-93.29
X144.54Y-95.83
X144.54Y-98.37
X144.54Y-100.91
X144.54Y-103.45
X144.54Y-105.99
X144.54Y-108.53
T5
X63.0Y-54.0
X68.0Y-54.0
X121.0Y-54.0
X126.0Y-54.0
X131.0Y-54.0
X136.0Y-54.0
T0
M30
