M48
; DRILL file {KiCad (5.1.9)-1} date 04/24/22 21:02:00
; FORMAT={-:-/ absolute / metric / decimal}
; #@! TF.CreationDate,2022-04-24T21:02:00-04:00
; #@! TF.GenerationSoftware,Kicad,Pcbnew,(5.1.9)-1
; #@! TF.FileFunction,Plated,1,2,PTH
FMAT,2
METRIC
T1C0.400
T2C0.800
T3C0.900
T4C1.000
%
G90
G05
T1
X35.32Y-113.27
X36.974Y-111.362
X37.871Y-86.381
X38.996Y-75.006
X38.996Y-85.256
X39.409Y-114.261
X41.496Y-85.256
X41.496Y-87.256
X41.536Y-78.046
X41.921Y-112.279
X42.211Y-91.791
X42.661Y-68.341
X42.951Y-85.051
X42.951Y-115.291
X43.871Y-86.381
X44.454Y-110.486
X45.201Y-40.051
X45.201Y-61.711
X45.201Y-114.261
X45.491Y-87.251
X46.496Y-113.27
X46.616Y-78.876
X47.015Y-116.307
X47.241Y-92.761
X47.741Y-112.279
X49.201Y-85.051
X49.241Y-45.251
X49.246Y-103.006
X49.505Y-115.291
X50.571Y-116.307
X50.996Y-83.256
X51.696Y-79.556
X51.706Y-111.362
X51.951Y-61.711
X51.996Y-44.506
X52.07Y-112.522
X52.821Y-77.081
X52.836Y-110.486
X53.086Y-94.742
X54.161Y-68.341
X54.236Y-43.516
X54.236Y-61.766
X56.134Y-114.046
X57.496Y-50.006
X57.496Y-66.756
X57.496Y-84.006
X57.496Y-101.006
X57.496Y-107.006
X57.496Y-109.506
X58.496Y-44.506
X59.246Y-39.756
X59.496Y-62.506
X59.546Y-52.206
X59.69Y-94.742
X59.69Y-112.522
X60.446Y-79.556
X60.446Y-95.956
X60.496Y-44.506
X60.496Y-75.006
X60.996Y-101.006
X61.246Y-78.756
X61.246Y-95.006
X61.756Y-42.766
X61.756Y-61.766
X61.996Y-78.006
X61.996Y-94.256
X62.671Y-77.081
X63.455Y-78.711
X63.455Y-107.961
X66.621Y-68.756
X66.621Y-104.131
X67.996Y-44.506
X68.036Y-57.046
X68.036Y-91.046
X68.996Y-108.006
X69.451Y-78.711
X69.451Y-86.211
X70.516Y-93.486
X70.658Y-39.832
X71.701Y-96.711
X71.991Y-79.501
X71.996Y-70.006
X72.251Y-61.261
X72.946Y-95.956
X73.116Y-68.256
X74.241Y-45.251
X74.241Y-92.761
X75.496Y-95.006
X75.656Y-44.846
X76.781Y-91.791
X77.071Y-45.581
X77.996Y-60.006
X77.996Y-94.256
X78.196Y-52.206
X79.456Y-57.046
X79.496Y-103.006
X80.496Y-66.006
X80.496Y-70.006
X80.736Y-104.246
X83.566Y-114.808
X85.344Y-114.808
X86.496Y-50.006
X86.496Y-67.006
X86.496Y-84.006
X86.496Y-101.006
X87.63Y-114.046
X88.392Y-57.15
X88.646Y-41.783
X89.408Y-51.562
X90.17Y-59.182
X90.94Y-27.948
X91.282Y-110.332
X91.694Y-33.782
X92.552Y-37.752
X92.552Y-92.752
X93.652Y-85.152
X94.902Y-91.902
X95.852Y-90.802
X96.882Y-86.252
X99.432Y-68.632
X100.467Y-102.337
X100.467Y-107.813
X100.552Y-50.752
X100.552Y-94.752
X101.472Y-39.832
X101.552Y-99.752
X101.592Y-73.792
X101.802Y-61.917
X102.052Y-94.002
X103.505Y-41.783
X103.552Y-92.752
X103.752Y-90.802
X103.797Y-26.997
X104.087Y-52.287
X104.132Y-58.332
X104.132Y-108.704
X104.14Y-57.15
X104.182Y-75.382
X104.227Y-45.327
X105.547Y-61.007
X106.402Y-85.152
X106.426Y-33.782
X106.512Y-73.792
X106.552Y-50.752
X106.972Y-58.332
X107.137Y-60.917
X108.087Y-52.287
X108.967Y-61.917
X109.002Y-95.702
X109.22Y-51.562
X109.292Y-43.262
X111.307Y-26.997
X111.402Y-91.902
X111.506Y-58.166
X111.552Y-59.752
X111.642Y-44.592
X111.807Y-74.257
X112.768Y-108.704
X112.877Y-35.077
X113.792Y-108.458
X114.217Y-102.337
X114.292Y-27.948
X114.292Y-42.512
X114.302Y-86.252
X117.552Y-32.752
X117.552Y-49.752
X117.552Y-66.752
X117.552Y-83.752
X117.552Y-100.752
X119.717Y-109.587
X119.952Y-60.952
X120.722Y-63.922
X120.722Y-110.332
X121.557Y-74.257
X121.557Y-111.257
X122.432Y-75.382
X122.432Y-112.382
T2
X28.956Y-72.136
X28.956Y-74.636
X38.996Y-30.386
X38.996Y-38.006
X38.996Y-47.386
X38.996Y-55.006
X38.996Y-64.386
X38.996Y-72.006
X38.996Y-81.386
X38.996Y-89.006
X38.996Y-98.386
X38.996Y-106.006
X41.536Y-30.386
X41.536Y-38.006
X41.536Y-47.386
X41.536Y-55.006
X41.536Y-64.386
X41.536Y-72.006
X41.536Y-81.386
X41.536Y-89.006
X41.536Y-98.386
X41.536Y-106.006
X44.076Y-30.386
X44.076Y-38.006
X44.076Y-47.386
X44.076Y-55.006
X44.076Y-64.386
X44.076Y-72.006
X44.076Y-81.386
X44.076Y-89.006
X44.076Y-98.386
X44.076Y-106.006
X46.616Y-30.386
X46.616Y-38.006
X46.616Y-47.386
X46.616Y-55.006
X46.616Y-64.386
X46.616Y-72.006
X46.616Y-81.386
X46.616Y-89.006
X46.616Y-98.386
X46.616Y-106.006
X49.156Y-30.386
X49.156Y-38.006
X49.156Y-47.386
X49.156Y-55.006
X49.156Y-64.386
X49.156Y-72.006
X49.156Y-81.386
X49.156Y-89.006
X49.156Y-98.386
X49.156Y-106.006
X51.696Y-30.386
X51.696Y-38.006
X51.696Y-47.386
X51.696Y-55.006
X51.696Y-64.386
X51.696Y-72.006
X51.696Y-81.386
X51.696Y-89.006
X51.696Y-98.386
X51.696Y-106.006
X54.236Y-30.386
X54.236Y-38.006
X54.236Y-47.386
X54.236Y-55.006
X54.236Y-64.386
X54.236Y-72.006
X54.236Y-81.386
X54.236Y-89.006
X54.236Y-98.386
X54.236Y-106.006
X65.496Y-47.386
X65.496Y-55.006
X65.496Y-64.386
X65.496Y-72.006
X65.496Y-81.386
X65.496Y-89.006
X65.496Y-98.386
X65.496Y-106.006
X68.036Y-47.386
X68.036Y-55.006
X68.036Y-64.386
X68.036Y-72.006
X68.036Y-81.386
X68.036Y-89.006
X68.036Y-98.386
X68.036Y-106.006
X70.576Y-47.386
X70.576Y-55.006
X70.576Y-64.386
X70.576Y-72.006
X70.576Y-81.386
X70.576Y-89.006
X70.576Y-98.386
X70.576Y-106.006
X73.116Y-47.386
X73.116Y-55.006
X73.116Y-64.386
X73.116Y-72.006
X73.116Y-81.386
X73.116Y-89.006
X73.116Y-98.386
X73.116Y-106.006
X75.656Y-47.386
X75.656Y-55.006
X75.656Y-64.386
X75.656Y-72.006
X75.656Y-81.386
X75.656Y-89.006
X75.656Y-98.386
X75.656Y-106.006
X78.196Y-47.386
X78.196Y-55.006
X78.196Y-64.386
X78.196Y-72.006
X78.196Y-81.386
X78.196Y-89.006
X78.196Y-98.386
X78.196Y-106.006
X80.736Y-47.386
X80.736Y-55.006
X80.736Y-64.386
X80.736Y-72.006
X80.736Y-81.386
X80.736Y-89.006
X80.736Y-98.386
X80.736Y-106.006
X83.276Y-47.386
X83.276Y-55.006
X83.276Y-64.386
X83.276Y-72.006
X83.276Y-81.386
X83.276Y-89.006
X83.276Y-98.386
X83.276Y-106.006
X99.052Y-30.132
X99.052Y-37.752
X99.052Y-47.132
X99.052Y-54.752
X99.052Y-64.132
X99.052Y-71.752
X99.052Y-81.132
X99.052Y-88.752
X99.075Y-98.171
X99.075Y-105.791
X101.592Y-30.132
X101.592Y-37.752
X101.592Y-47.132
X101.592Y-54.752
X101.592Y-64.132
X101.592Y-71.752
X101.592Y-81.132
X101.592Y-88.752
X101.615Y-98.171
X101.615Y-105.791
X104.132Y-30.132
X104.132Y-37.752
X104.132Y-47.132
X104.132Y-54.752
X104.132Y-64.132
X104.132Y-71.752
X104.132Y-81.132
X104.132Y-88.752
X104.155Y-98.171
X104.155Y-105.791
X106.672Y-30.132
X106.672Y-37.752
X106.672Y-47.132
X106.672Y-54.752
X106.672Y-64.132
X106.672Y-71.752
X106.672Y-81.132
X106.672Y-88.752
X106.695Y-98.171
X106.695Y-105.791
X109.212Y-30.132
X109.212Y-37.752
X109.212Y-47.132
X109.212Y-54.752
X109.212Y-64.132
X109.212Y-71.752
X109.212Y-81.132
X109.212Y-88.752
X109.235Y-98.171
X109.235Y-105.791
X111.752Y-30.132
X111.752Y-37.752
X111.752Y-47.132
X111.752Y-54.752
X111.752Y-64.132
X111.752Y-71.752
X111.752Y-81.132
X111.752Y-88.752
X111.775Y-98.171
X111.775Y-105.791
X114.292Y-30.132
X114.292Y-37.752
X114.292Y-47.132
X114.292Y-54.752
X114.292Y-64.132
X114.292Y-71.752
X114.292Y-81.132
X114.292Y-88.752
X114.315Y-98.171
X114.315Y-105.791
T3
X28.956Y-80.01
X28.956Y-82.55
T4
X28.844Y-43.18
X28.844Y-45.72
X28.844Y-48.26
X28.844Y-50.8
X28.844Y-53.34
X28.844Y-63.5
X28.844Y-66.04
X29.21Y-106.68
X29.21Y-109.22
X34.29Y-120.466
X34.29Y-123.006
X36.83Y-120.466
X36.83Y-123.006
X39.37Y-120.466
X39.37Y-123.006
X41.91Y-120.466
X41.91Y-123.006
X44.45Y-120.466
X44.45Y-123.006
X46.99Y-120.466
X46.99Y-123.006
X49.53Y-120.466
X49.53Y-123.006
X52.07Y-120.466
X52.07Y-123.006
X59.69Y-120.396
X59.69Y-122.936
X62.23Y-120.396
X62.23Y-122.936
X64.77Y-120.396
X64.77Y-122.936
X67.31Y-120.396
X67.31Y-122.936
X69.85Y-120.396
X69.85Y-122.936
X72.39Y-120.396
X72.39Y-122.936
X74.93Y-120.396
X74.93Y-122.936
X77.47Y-120.396
X77.47Y-122.936
X85.09Y-120.396
X85.09Y-122.936
X87.63Y-120.396
X87.63Y-122.936
X90.17Y-120.396
X90.17Y-122.936
X97.79Y-120.396
X97.79Y-122.936
X100.33Y-120.396
X100.33Y-122.936
X102.87Y-120.396
X102.87Y-122.936
X110.49Y-120.396
X110.49Y-122.936
X113.03Y-120.396
X113.03Y-122.936
X115.57Y-120.396
X115.57Y-122.936
T0
M30
