%TF.GenerationSoftware,KiCad,Pcbnew,(5.1.9)-1*%
%TF.CreationDate,2022-04-24T21:30:29-04:00*%
%TF.ProjectId,exorcisortry2,65786f72-6369-4736-9f72-747279322e6b,rev?*%
%TF.SameCoordinates,Original*%
%TF.FileFunction,Soldermask,Bot*%
%TF.FilePolarity,Negative*%
%FSLAX46Y46*%
G04 Gerber Fmt 4.6, Leading zero omitted, Abs format (unit mm)*
G04 Created by KiCad (PCBNEW (5.1.9)-1) date 2022-04-24 21:30:29*
%MOMM*%
%LPD*%
G01*
G04 APERTURE LIST*
%ADD10O,1.700000X1.700000*%
%ADD11R,1.700000X1.700000*%
%ADD12R,1.800000X1.800000*%
%ADD13C,1.800000*%
%ADD14C,4.500000*%
%ADD15O,1.600000X2.400000*%
%ADD16R,1.600000X2.400000*%
%ADD17C,1.600000*%
%ADD18R,1.600000X1.600000*%
G04 APERTURE END LIST*
D10*
%TO.C,J6*%
X29210000Y-109220000D03*
D11*
X29210000Y-106680000D03*
%TD*%
D12*
%TO.C,D1*%
X28956000Y-82550000D03*
D13*
X28956000Y-80010000D03*
%TD*%
D14*
%TO.C,REF\u002A\u002A*%
X30000000Y-116000000D03*
%TD*%
%TO.C,REF\u002A\u002A*%
X120000000Y-116000000D03*
%TD*%
%TO.C,REF\u002A\u002A*%
X120000000Y-30000000D03*
%TD*%
%TO.C,REF\u002A\u002A*%
X30000000Y-30000000D03*
%TD*%
D10*
%TO.C,J5*%
X28844000Y-43180000D03*
X28844000Y-45720000D03*
X28844000Y-48260000D03*
X28844000Y-50800000D03*
D11*
X28844000Y-53340000D03*
%TD*%
D10*
%TO.C,J4*%
X28844000Y-63500000D03*
D11*
X28844000Y-66040000D03*
%TD*%
D10*
%TO.C,J2T1*%
X90170000Y-120396000D03*
X90170000Y-122936000D03*
X87630000Y-120396000D03*
X87630000Y-122936000D03*
X85090000Y-120396000D03*
D11*
X85090000Y-122936000D03*
%TD*%
D10*
%TO.C,J2R1*%
X102870000Y-120396000D03*
X102870000Y-122936000D03*
X100330000Y-120396000D03*
X100330000Y-122936000D03*
X97790000Y-120396000D03*
D11*
X97790000Y-122936000D03*
%TD*%
D10*
%TO.C,J2N1*%
X115570000Y-120396000D03*
X115570000Y-122936000D03*
X113030000Y-120396000D03*
X113030000Y-122936000D03*
X110490000Y-120396000D03*
D11*
X110490000Y-122936000D03*
%TD*%
D15*
%TO.C,UA2*%
X99075000Y-98171000D03*
X114315000Y-105791000D03*
X101615000Y-98171000D03*
X111775000Y-105791000D03*
X104155000Y-98171000D03*
X109235000Y-105791000D03*
X106695000Y-98171000D03*
X106695000Y-105791000D03*
X109235000Y-98171000D03*
X104155000Y-105791000D03*
X111775000Y-98171000D03*
X101615000Y-105791000D03*
X114315000Y-98171000D03*
D16*
X99075000Y-105791000D03*
%TD*%
D10*
%TO.C,J3*%
X59690000Y-120396000D03*
X62230000Y-120396000D03*
X64770000Y-120396000D03*
X67310000Y-120396000D03*
X69850000Y-120396000D03*
X72390000Y-120396000D03*
X74930000Y-120396000D03*
X77470000Y-120396000D03*
X77470000Y-122936000D03*
X74930000Y-122936000D03*
X72390000Y-122936000D03*
X69850000Y-122936000D03*
X67310000Y-122936000D03*
X64770000Y-122936000D03*
X62230000Y-122936000D03*
D11*
X59690000Y-122936000D03*
%TD*%
D15*
%TO.C,UB5*%
X65496000Y-47386000D03*
X83276000Y-55006000D03*
X68036000Y-47386000D03*
X80736000Y-55006000D03*
X70576000Y-47386000D03*
X78196000Y-55006000D03*
X73116000Y-47386000D03*
X75656000Y-55006000D03*
X75656000Y-47386000D03*
X73116000Y-55006000D03*
X78196000Y-47386000D03*
X70576000Y-55006000D03*
X80736000Y-47386000D03*
X68036000Y-55006000D03*
X83276000Y-47386000D03*
D16*
X65496000Y-55006000D03*
%TD*%
D10*
%TO.C,J1*%
X34290000Y-120466000D03*
X36830000Y-120466000D03*
X39370000Y-120466000D03*
X41910000Y-120466000D03*
X44450000Y-120466000D03*
X46990000Y-120466000D03*
X49530000Y-120466000D03*
X52070000Y-120466000D03*
X52070000Y-123006000D03*
X49530000Y-123006000D03*
X46990000Y-123006000D03*
X44450000Y-123006000D03*
X41910000Y-123006000D03*
X39370000Y-123006000D03*
X36830000Y-123006000D03*
D11*
X34290000Y-123006000D03*
%TD*%
D15*
%TO.C,UB3*%
X65496000Y-81386000D03*
X83276000Y-89006000D03*
X68036000Y-81386000D03*
X80736000Y-89006000D03*
X70576000Y-81386000D03*
X78196000Y-89006000D03*
X73116000Y-81386000D03*
X75656000Y-89006000D03*
X75656000Y-81386000D03*
X73116000Y-89006000D03*
X78196000Y-81386000D03*
X70576000Y-89006000D03*
X80736000Y-81386000D03*
X68036000Y-89006000D03*
X83276000Y-81386000D03*
D16*
X65496000Y-89006000D03*
%TD*%
D15*
%TO.C,UA5*%
X99052000Y-47132000D03*
X114292000Y-54752000D03*
X101592000Y-47132000D03*
X111752000Y-54752000D03*
X104132000Y-47132000D03*
X109212000Y-54752000D03*
X106672000Y-47132000D03*
X106672000Y-54752000D03*
X109212000Y-47132000D03*
X104132000Y-54752000D03*
X111752000Y-47132000D03*
X101592000Y-54752000D03*
X114292000Y-47132000D03*
D16*
X99052000Y-54752000D03*
%TD*%
D15*
%TO.C,UC6*%
X38996000Y-30386000D03*
X54236000Y-38006000D03*
X41536000Y-30386000D03*
X51696000Y-38006000D03*
X44076000Y-30386000D03*
X49156000Y-38006000D03*
X46616000Y-30386000D03*
X46616000Y-38006000D03*
X49156000Y-30386000D03*
X44076000Y-38006000D03*
X51696000Y-30386000D03*
X41536000Y-38006000D03*
X54236000Y-30386000D03*
D16*
X38996000Y-38006000D03*
%TD*%
D15*
%TO.C,UC5*%
X38996000Y-47386000D03*
X54236000Y-55006000D03*
X41536000Y-47386000D03*
X51696000Y-55006000D03*
X44076000Y-47386000D03*
X49156000Y-55006000D03*
X46616000Y-47386000D03*
X46616000Y-55006000D03*
X49156000Y-47386000D03*
X44076000Y-55006000D03*
X51696000Y-47386000D03*
X41536000Y-55006000D03*
X54236000Y-47386000D03*
D16*
X38996000Y-55006000D03*
%TD*%
D15*
%TO.C,UC4*%
X38996000Y-64386000D03*
X54236000Y-72006000D03*
X41536000Y-64386000D03*
X51696000Y-72006000D03*
X44076000Y-64386000D03*
X49156000Y-72006000D03*
X46616000Y-64386000D03*
X46616000Y-72006000D03*
X49156000Y-64386000D03*
X44076000Y-72006000D03*
X51696000Y-64386000D03*
X41536000Y-72006000D03*
X54236000Y-64386000D03*
D16*
X38996000Y-72006000D03*
%TD*%
D15*
%TO.C,UC3*%
X38996000Y-98386000D03*
X54236000Y-106006000D03*
X41536000Y-98386000D03*
X51696000Y-106006000D03*
X44076000Y-98386000D03*
X49156000Y-106006000D03*
X46616000Y-98386000D03*
X46616000Y-106006000D03*
X49156000Y-98386000D03*
X44076000Y-106006000D03*
X51696000Y-98386000D03*
X41536000Y-106006000D03*
X54236000Y-98386000D03*
D16*
X38996000Y-106006000D03*
%TD*%
D15*
%TO.C,UC2*%
X38996000Y-81386000D03*
X54236000Y-89006000D03*
X41536000Y-81386000D03*
X51696000Y-89006000D03*
X44076000Y-81386000D03*
X49156000Y-89006000D03*
X46616000Y-81386000D03*
X46616000Y-89006000D03*
X49156000Y-81386000D03*
X44076000Y-89006000D03*
X51696000Y-81386000D03*
X41536000Y-89006000D03*
X54236000Y-81386000D03*
D16*
X38996000Y-89006000D03*
%TD*%
D15*
%TO.C,UB4*%
X65496000Y-64386000D03*
X83276000Y-72006000D03*
X68036000Y-64386000D03*
X80736000Y-72006000D03*
X70576000Y-64386000D03*
X78196000Y-72006000D03*
X73116000Y-64386000D03*
X75656000Y-72006000D03*
X75656000Y-64386000D03*
X73116000Y-72006000D03*
X78196000Y-64386000D03*
X70576000Y-72006000D03*
X80736000Y-64386000D03*
X68036000Y-72006000D03*
X83276000Y-64386000D03*
D16*
X65496000Y-72006000D03*
%TD*%
D15*
%TO.C,UB2*%
X65496000Y-98386000D03*
X83276000Y-106006000D03*
X68036000Y-98386000D03*
X80736000Y-106006000D03*
X70576000Y-98386000D03*
X78196000Y-106006000D03*
X73116000Y-98386000D03*
X75656000Y-106006000D03*
X75656000Y-98386000D03*
X73116000Y-106006000D03*
X78196000Y-98386000D03*
X70576000Y-106006000D03*
X80736000Y-98386000D03*
X68036000Y-106006000D03*
X83276000Y-98386000D03*
D16*
X65496000Y-106006000D03*
%TD*%
%TO.C,UA6*%
X99052000Y-37752000D03*
D15*
X114292000Y-30132000D03*
X101592000Y-37752000D03*
X111752000Y-30132000D03*
X104132000Y-37752000D03*
X109212000Y-30132000D03*
X106672000Y-37752000D03*
X106672000Y-30132000D03*
X109212000Y-37752000D03*
X104132000Y-30132000D03*
X111752000Y-37752000D03*
X101592000Y-30132000D03*
X114292000Y-37752000D03*
X99052000Y-30132000D03*
%TD*%
%TO.C,UA4*%
X99052000Y-64132000D03*
X114292000Y-71752000D03*
X101592000Y-64132000D03*
X111752000Y-71752000D03*
X104132000Y-64132000D03*
X109212000Y-71752000D03*
X106672000Y-64132000D03*
X106672000Y-71752000D03*
X109212000Y-64132000D03*
X104132000Y-71752000D03*
X111752000Y-64132000D03*
X101592000Y-71752000D03*
X114292000Y-64132000D03*
D16*
X99052000Y-71752000D03*
%TD*%
D15*
%TO.C,UA3*%
X99052000Y-81132000D03*
X114292000Y-88752000D03*
X101592000Y-81132000D03*
X111752000Y-88752000D03*
X104132000Y-81132000D03*
X109212000Y-88752000D03*
X106672000Y-81132000D03*
X106672000Y-88752000D03*
X109212000Y-81132000D03*
X104132000Y-88752000D03*
X111752000Y-81132000D03*
X101592000Y-88752000D03*
X114292000Y-81132000D03*
D16*
X99052000Y-88752000D03*
%TD*%
D17*
%TO.C,C3*%
X28956000Y-74636000D03*
D18*
X28956000Y-72136000D03*
%TD*%
M02*
