%TF.GenerationSoftware,KiCad,Pcbnew,(5.1.9)-1*%
%TF.CreationDate,2022-04-24T21:30:28-04:00*%
%TF.ProjectId,exorcisortry2,65786f72-6369-4736-9f72-747279322e6b,rev?*%
%TF.SameCoordinates,Original*%
%TF.FileFunction,Copper,L1,Top*%
%TF.FilePolarity,Positive*%
%FSLAX46Y46*%
G04 Gerber Fmt 4.6, Leading zero omitted, Abs format (unit mm)*
G04 Created by KiCad (PCBNEW (5.1.9)-1) date 2022-04-24 21:30:28*
%MOMM*%
%LPD*%
G01*
G04 APERTURE LIST*
%TA.AperFunction,ComponentPad*%
%ADD10O,1.700000X1.700000*%
%TD*%
%TA.AperFunction,ComponentPad*%
%ADD11R,1.700000X1.700000*%
%TD*%
%TA.AperFunction,ComponentPad*%
%ADD12R,1.800000X1.800000*%
%TD*%
%TA.AperFunction,ComponentPad*%
%ADD13C,1.800000*%
%TD*%
%TA.AperFunction,ComponentPad*%
%ADD14O,1.600000X2.400000*%
%TD*%
%TA.AperFunction,ComponentPad*%
%ADD15R,1.600000X2.400000*%
%TD*%
%TA.AperFunction,ComponentPad*%
%ADD16C,1.600000*%
%TD*%
%TA.AperFunction,ComponentPad*%
%ADD17R,1.600000X1.600000*%
%TD*%
%TA.AperFunction,ViaPad*%
%ADD18C,0.800000*%
%TD*%
%TA.AperFunction,Conductor*%
%ADD19C,0.500000*%
%TD*%
%TA.AperFunction,Conductor*%
%ADD20C,0.250000*%
%TD*%
G04 APERTURE END LIST*
%TO.P,C2,2*%
%TO.N,Net-(C2-Pad2)*%
%TA.AperFunction,SMDPad,CuDef*%
G36*
G01*
X34909999Y-30364000D02*
X36210001Y-30364000D01*
G75*
G02*
X36460000Y-30613999I0J-249999D01*
G01*
X36460000Y-31439001D01*
G75*
G02*
X36210001Y-31689000I-249999J0D01*
G01*
X34909999Y-31689000D01*
G75*
G02*
X34660000Y-31439001I0J249999D01*
G01*
X34660000Y-30613999D01*
G75*
G02*
X34909999Y-30364000I249999J0D01*
G01*
G37*
%TD.AperFunction*%
%TO.P,C2,1*%
%TO.N,+5V*%
%TA.AperFunction,SMDPad,CuDef*%
G36*
G01*
X34909999Y-27239000D02*
X36210001Y-27239000D01*
G75*
G02*
X36460000Y-27488999I0J-249999D01*
G01*
X36460000Y-28314001D01*
G75*
G02*
X36210001Y-28564000I-249999J0D01*
G01*
X34909999Y-28564000D01*
G75*
G02*
X34660000Y-28314001I0J249999D01*
G01*
X34660000Y-27488999D01*
G75*
G02*
X34909999Y-27239000I249999J0D01*
G01*
G37*
%TD.AperFunction*%
%TD*%
D10*
%TO.P,J6,2*%
%TO.N,GND*%
X29210000Y-109220000D03*
D11*
%TO.P,J6,1*%
%TO.N,+5V*%
X29210000Y-106680000D03*
%TD*%
D12*
%TO.P,D1,1*%
%TO.N,GND*%
X28956000Y-82550000D03*
D13*
%TO.P,D1,2*%
%TO.N,Net-(D1-Pad2)*%
X28956000Y-80010000D03*
%TD*%
D10*
%TO.P,J5,5*%
%TO.N,GND*%
X28844000Y-43180000D03*
%TO.P,J5,4*%
%TO.N,CLOCK*%
X28844000Y-45720000D03*
%TO.P,J5,3*%
X28844000Y-48260000D03*
%TO.P,J5,2*%
%TO.N,START-STOP*%
X28844000Y-50800000D03*
D11*
%TO.P,J5,1*%
X28844000Y-53340000D03*
%TD*%
D10*
%TO.P,J4,2*%
%TO.N,GND*%
X28844000Y-63500000D03*
D11*
%TO.P,J4,1*%
%TO.N,+5V*%
X28844000Y-66040000D03*
%TD*%
D10*
%TO.P,J2T1,6*%
%TO.N,GND*%
X90170000Y-120396000D03*
%TO.P,J2T1,5*%
X90170000Y-122936000D03*
%TO.P,J2T1,4*%
%TO.N,J2-12*%
X87630000Y-120396000D03*
%TO.P,J2T1,3*%
%TO.N,J2-11*%
X87630000Y-122936000D03*
%TO.P,J2T1,2*%
%TO.N,J2-6*%
X85090000Y-120396000D03*
D11*
%TO.P,J2T1,1*%
%TO.N,J2-5*%
X85090000Y-122936000D03*
%TD*%
D10*
%TO.P,J2R1,6*%
%TO.N,GND*%
X102870000Y-120396000D03*
%TO.P,J2R1,5*%
X102870000Y-122936000D03*
%TO.P,J2R1,4*%
%TO.N,J2-14*%
X100330000Y-120396000D03*
%TO.P,J2R1,3*%
%TO.N,J2-13*%
X100330000Y-122936000D03*
%TO.P,J2R1,2*%
%TO.N,J2-4*%
X97790000Y-120396000D03*
D11*
%TO.P,J2R1,1*%
%TO.N,J2-3*%
X97790000Y-122936000D03*
%TD*%
D10*
%TO.P,J2N1,6*%
%TO.N,GND*%
X115570000Y-120396000D03*
%TO.P,J2N1,5*%
X115570000Y-122936000D03*
%TO.P,J2N1,4*%
%TO.N,J2-16*%
X113030000Y-120396000D03*
%TO.P,J2N1,3*%
%TO.N,J2-15*%
X113030000Y-122936000D03*
%TO.P,J2N1,2*%
%TO.N,J2-2*%
X110490000Y-120396000D03*
D11*
%TO.P,J2N1,1*%
%TO.N,J2-1*%
X110490000Y-122936000D03*
%TD*%
D14*
%TO.P,UA2,14*%
%TO.N,+5V*%
X99075000Y-98171000D03*
%TO.P,UA2,7*%
%TO.N,GND*%
X114315000Y-105791000D03*
%TO.P,UA2,13*%
%TO.N,Net-(UA2-Pad10)*%
X101615000Y-98171000D03*
%TO.P,UA2,6*%
%TO.N,J2-1*%
X111775000Y-105791000D03*
%TO.P,UA2,12*%
%TO.N,Net-(UA2-Pad12)*%
X104155000Y-98171000D03*
%TO.P,UA2,5*%
%TO.N,Net-(UA2-Pad10)*%
X109235000Y-105791000D03*
%TO.P,UA2,11*%
%TO.N,J2-2*%
X106695000Y-98171000D03*
%TO.P,UA2,4*%
%TO.N,Net-(UA2-Pad4)*%
X106695000Y-105791000D03*
%TO.P,UA2,10*%
%TO.N,Net-(UA2-Pad10)*%
X109235000Y-98171000D03*
%TO.P,UA2,3*%
%TO.N,J2-16*%
X104155000Y-105791000D03*
%TO.P,UA2,9*%
%TO.N,Net-(UA2-Pad9)*%
X111775000Y-98171000D03*
%TO.P,UA2,2*%
%TO.N,Net-(UA2-Pad10)*%
X101615000Y-105791000D03*
%TO.P,UA2,8*%
%TO.N,J2-15*%
X114315000Y-98171000D03*
D15*
%TO.P,UA2,1*%
%TO.N,Net-(UA2-Pad1)*%
X99075000Y-105791000D03*
%TD*%
D10*
%TO.P,J3,16*%
%TO.N,J3-16*%
X59690000Y-120396000D03*
%TO.P,J3,15*%
%TO.N,Net-(J3-Pad15)*%
X62230000Y-120396000D03*
%TO.P,J3,14*%
%TO.N,J3-14*%
X64770000Y-120396000D03*
%TO.P,J3,13*%
%TO.N,GND*%
X67310000Y-120396000D03*
%TO.P,J3,12*%
X69850000Y-120396000D03*
%TO.P,J3,11*%
%TO.N,J3-11*%
X72390000Y-120396000D03*
%TO.P,J3,10*%
%TO.N,J3-10*%
X74930000Y-120396000D03*
%TO.P,J3,9*%
%TO.N,J3-9*%
X77470000Y-120396000D03*
%TO.P,J3,8*%
%TO.N,GND*%
X77470000Y-122936000D03*
%TO.P,J3,7*%
X74930000Y-122936000D03*
%TO.P,J3,6*%
X72390000Y-122936000D03*
%TO.P,J3,5*%
%TO.N,J3-5*%
X69850000Y-122936000D03*
%TO.P,J3,4*%
%TO.N,J3-4*%
X67310000Y-122936000D03*
%TO.P,J3,3*%
%TO.N,GND*%
X64770000Y-122936000D03*
%TO.P,J3,2*%
X62230000Y-122936000D03*
D11*
%TO.P,J3,1*%
X59690000Y-122936000D03*
%TD*%
%TO.P,C6,2*%
%TO.N,GND*%
%TA.AperFunction,SMDPad,CuDef*%
G36*
G01*
X56845998Y-70906000D02*
X58146002Y-70906000D01*
G75*
G02*
X58396000Y-71155998I0J-249998D01*
G01*
X58396000Y-71981002D01*
G75*
G02*
X58146002Y-72231000I-249998J0D01*
G01*
X56845998Y-72231000D01*
G75*
G02*
X56596000Y-71981002I0J249998D01*
G01*
X56596000Y-71155998D01*
G75*
G02*
X56845998Y-70906000I249998J0D01*
G01*
G37*
%TD.AperFunction*%
%TO.P,C6,1*%
%TO.N,+5V*%
%TA.AperFunction,SMDPad,CuDef*%
G36*
G01*
X56845998Y-67781000D02*
X58146002Y-67781000D01*
G75*
G02*
X58396000Y-68030998I0J-249998D01*
G01*
X58396000Y-68856002D01*
G75*
G02*
X58146002Y-69106000I-249998J0D01*
G01*
X56845998Y-69106000D01*
G75*
G02*
X56596000Y-68856002I0J249998D01*
G01*
X56596000Y-68030998D01*
G75*
G02*
X56845998Y-67781000I249998J0D01*
G01*
G37*
%TD.AperFunction*%
%TD*%
D14*
%TO.P,UB5,16*%
%TO.N,+5V*%
X65496000Y-47386000D03*
%TO.P,UB5,8*%
%TO.N,GND*%
X83276000Y-55006000D03*
%TO.P,UB5,15*%
%TO.N,Net-(UB5-Pad15)*%
X68036000Y-47386000D03*
%TO.P,UB5,7*%
%TO.N,Net-(UB2-Pad15)*%
X80736000Y-55006000D03*
%TO.P,UB5,14*%
%TO.N,Net-(UA3-Pad12)*%
X70576000Y-47386000D03*
%TO.P,UB5,6*%
%TO.N,Net-(UB5-Pad6)*%
X78196000Y-55006000D03*
%TO.P,UB5,13*%
%TO.N,Net-(UA2-Pad12)*%
X73116000Y-47386000D03*
%TO.P,UB5,5*%
%TO.N,Net-(UB5-Pad5)*%
X75656000Y-55006000D03*
%TO.P,UB5,12*%
%TO.N,Net-(UA5-Pad9)*%
X75656000Y-47386000D03*
%TO.P,UB5,4*%
%TO.N,Net-(UB5-Pad4)*%
X73116000Y-55006000D03*
%TO.P,UB5,11*%
%TO.N,Net-(UB5-Pad11)*%
X78196000Y-47386000D03*
%TO.P,UB5,3*%
%TO.N,Net-(UB5-Pad3)*%
X70576000Y-55006000D03*
%TO.P,UB5,10*%
%TO.N,Net-(UB4-Pad15)*%
X80736000Y-47386000D03*
%TO.P,UB5,2*%
%TO.N,Net-(UB2-Pad2)*%
X68036000Y-55006000D03*
%TO.P,UB5,9*%
%TO.N,Net-(R2-Pad1)*%
X83276000Y-47386000D03*
D15*
%TO.P,UB5,1*%
X65496000Y-55006000D03*
%TD*%
D10*
%TO.P,J1,16*%
%TO.N,Net-(J1-Pad16)*%
X34290000Y-120466000D03*
%TO.P,J1,15*%
%TO.N,Net-(J1-Pad15)*%
X36830000Y-120466000D03*
%TO.P,J1,14*%
%TO.N,Net-(J1-Pad14)*%
X39370000Y-120466000D03*
%TO.P,J1,13*%
%TO.N,Net-(J1-Pad13)*%
X41910000Y-120466000D03*
%TO.P,J1,12*%
%TO.N,Net-(J1-Pad12)*%
X44450000Y-120466000D03*
%TO.P,J1,11*%
%TO.N,Net-(J1-Pad11)*%
X46990000Y-120466000D03*
%TO.P,J1,10*%
%TO.N,Net-(J1-Pad10)*%
X49530000Y-120466000D03*
%TO.P,J1,9*%
%TO.N,Net-(J1-Pad9)*%
X52070000Y-120466000D03*
%TO.P,J1,8*%
%TO.N,GND*%
X52070000Y-123006000D03*
%TO.P,J1,7*%
X49530000Y-123006000D03*
%TO.P,J1,6*%
X46990000Y-123006000D03*
%TO.P,J1,5*%
X44450000Y-123006000D03*
%TO.P,J1,4*%
X41910000Y-123006000D03*
%TO.P,J1,3*%
X39370000Y-123006000D03*
%TO.P,J1,2*%
X36830000Y-123006000D03*
D11*
%TO.P,J1,1*%
X34290000Y-123006000D03*
%TD*%
D14*
%TO.P,UB3,16*%
%TO.N,+5V*%
X65496000Y-81386000D03*
%TO.P,UB3,8*%
%TO.N,GND*%
X83276000Y-89006000D03*
%TO.P,UB3,15*%
%TO.N,Net-(UB3-Pad15)*%
X68036000Y-81386000D03*
%TO.P,UB3,7*%
%TO.N,Net-(UB2-Pad15)*%
X80736000Y-89006000D03*
%TO.P,UB3,14*%
%TO.N,Net-(UB3-Pad14)*%
X70576000Y-81386000D03*
%TO.P,UB3,6*%
%TO.N,Net-(UB3-Pad6)*%
X78196000Y-89006000D03*
%TO.P,UB3,13*%
%TO.N,Net-(UB3-Pad13)*%
X73116000Y-81386000D03*
%TO.P,UB3,5*%
%TO.N,Net-(UB3-Pad5)*%
X75656000Y-89006000D03*
%TO.P,UB3,12*%
%TO.N,Net-(UB3-Pad12)*%
X75656000Y-81386000D03*
%TO.P,UB3,4*%
%TO.N,Net-(UB3-Pad4)*%
X73116000Y-89006000D03*
%TO.P,UB3,11*%
%TO.N,Net-(UB3-Pad11)*%
X78196000Y-81386000D03*
%TO.P,UB3,3*%
%TO.N,Net-(UB3-Pad3)*%
X70576000Y-89006000D03*
%TO.P,UB3,10*%
%TO.N,Net-(UB2-Pad15)*%
X80736000Y-81386000D03*
%TO.P,UB3,2*%
%TO.N,Net-(UB2-Pad2)*%
X68036000Y-89006000D03*
%TO.P,UB3,9*%
%TO.N,Net-(R2-Pad1)*%
X83276000Y-81386000D03*
D15*
%TO.P,UB3,1*%
X65496000Y-89006000D03*
%TD*%
%TO.P,C17,2*%
%TO.N,GND*%
%TA.AperFunction,SMDPad,CuDef*%
G36*
G01*
X116901998Y-36902000D02*
X118202002Y-36902000D01*
G75*
G02*
X118452000Y-37151998I0J-249998D01*
G01*
X118452000Y-37977002D01*
G75*
G02*
X118202002Y-38227000I-249998J0D01*
G01*
X116901998Y-38227000D01*
G75*
G02*
X116652000Y-37977002I0J249998D01*
G01*
X116652000Y-37151998D01*
G75*
G02*
X116901998Y-36902000I249998J0D01*
G01*
G37*
%TD.AperFunction*%
%TO.P,C17,1*%
%TO.N,+5V*%
%TA.AperFunction,SMDPad,CuDef*%
G36*
G01*
X116901998Y-33777000D02*
X118202002Y-33777000D01*
G75*
G02*
X118452000Y-34026998I0J-249998D01*
G01*
X118452000Y-34852002D01*
G75*
G02*
X118202002Y-35102000I-249998J0D01*
G01*
X116901998Y-35102000D01*
G75*
G02*
X116652000Y-34852002I0J249998D01*
G01*
X116652000Y-34026998D01*
G75*
G02*
X116901998Y-33777000I249998J0D01*
G01*
G37*
%TD.AperFunction*%
%TD*%
%TO.P,C16,2*%
%TO.N,GND*%
%TA.AperFunction,SMDPad,CuDef*%
G36*
G01*
X116901998Y-53902000D02*
X118202002Y-53902000D01*
G75*
G02*
X118452000Y-54151998I0J-249998D01*
G01*
X118452000Y-54977002D01*
G75*
G02*
X118202002Y-55227000I-249998J0D01*
G01*
X116901998Y-55227000D01*
G75*
G02*
X116652000Y-54977002I0J249998D01*
G01*
X116652000Y-54151998D01*
G75*
G02*
X116901998Y-53902000I249998J0D01*
G01*
G37*
%TD.AperFunction*%
%TO.P,C16,1*%
%TO.N,+5V*%
%TA.AperFunction,SMDPad,CuDef*%
G36*
G01*
X116901998Y-50777000D02*
X118202002Y-50777000D01*
G75*
G02*
X118452000Y-51026998I0J-249998D01*
G01*
X118452000Y-51852002D01*
G75*
G02*
X118202002Y-52102000I-249998J0D01*
G01*
X116901998Y-52102000D01*
G75*
G02*
X116652000Y-51852002I0J249998D01*
G01*
X116652000Y-51026998D01*
G75*
G02*
X116901998Y-50777000I249998J0D01*
G01*
G37*
%TD.AperFunction*%
%TD*%
%TO.P,C15,2*%
%TO.N,GND*%
%TA.AperFunction,SMDPad,CuDef*%
G36*
G01*
X116901998Y-71089500D02*
X118202002Y-71089500D01*
G75*
G02*
X118452000Y-71339498I0J-249998D01*
G01*
X118452000Y-72164502D01*
G75*
G02*
X118202002Y-72414500I-249998J0D01*
G01*
X116901998Y-72414500D01*
G75*
G02*
X116652000Y-72164502I0J249998D01*
G01*
X116652000Y-71339498D01*
G75*
G02*
X116901998Y-71089500I249998J0D01*
G01*
G37*
%TD.AperFunction*%
%TO.P,C15,1*%
%TO.N,+5V*%
%TA.AperFunction,SMDPad,CuDef*%
G36*
G01*
X116901998Y-67964500D02*
X118202002Y-67964500D01*
G75*
G02*
X118452000Y-68214498I0J-249998D01*
G01*
X118452000Y-69039502D01*
G75*
G02*
X118202002Y-69289500I-249998J0D01*
G01*
X116901998Y-69289500D01*
G75*
G02*
X116652000Y-69039502I0J249998D01*
G01*
X116652000Y-68214498D01*
G75*
G02*
X116901998Y-67964500I249998J0D01*
G01*
G37*
%TD.AperFunction*%
%TD*%
%TO.P,C14,2*%
%TO.N,GND*%
%TA.AperFunction,SMDPad,CuDef*%
G36*
G01*
X116901998Y-88089500D02*
X118202002Y-88089500D01*
G75*
G02*
X118452000Y-88339498I0J-249998D01*
G01*
X118452000Y-89164502D01*
G75*
G02*
X118202002Y-89414500I-249998J0D01*
G01*
X116901998Y-89414500D01*
G75*
G02*
X116652000Y-89164502I0J249998D01*
G01*
X116652000Y-88339498D01*
G75*
G02*
X116901998Y-88089500I249998J0D01*
G01*
G37*
%TD.AperFunction*%
%TO.P,C14,1*%
%TO.N,+5V*%
%TA.AperFunction,SMDPad,CuDef*%
G36*
G01*
X116901998Y-84964500D02*
X118202002Y-84964500D01*
G75*
G02*
X118452000Y-85214498I0J-249998D01*
G01*
X118452000Y-86039502D01*
G75*
G02*
X118202002Y-86289500I-249998J0D01*
G01*
X116901998Y-86289500D01*
G75*
G02*
X116652000Y-86039502I0J249998D01*
G01*
X116652000Y-85214498D01*
G75*
G02*
X116901998Y-84964500I249998J0D01*
G01*
G37*
%TD.AperFunction*%
%TD*%
D14*
%TO.P,UA5,14*%
%TO.N,+5V*%
X99052000Y-47132000D03*
%TO.P,UA5,7*%
%TO.N,GND*%
X114292000Y-54752000D03*
%TO.P,UA5,13*%
%TO.N,Net-(UA4-Pad10)*%
X101592000Y-47132000D03*
%TO.P,UA5,6*%
%TO.N,J3-11*%
X111752000Y-54752000D03*
%TO.P,UA5,12*%
%TO.N,Net-(UA2-Pad4)*%
X104132000Y-47132000D03*
%TO.P,UA5,5*%
%TO.N,Net-(UA3-Pad10)*%
X109212000Y-54752000D03*
%TO.P,UA5,11*%
%TO.N,J3-5*%
X106672000Y-47132000D03*
%TO.P,UA5,4*%
%TO.N,Net-(UA3-Pad12)*%
X106672000Y-54752000D03*
%TO.P,UA5,10*%
%TO.N,Net-(UA5-Pad10)*%
X109212000Y-47132000D03*
%TO.P,UA5,3*%
%TO.N,J3-4*%
X104132000Y-54752000D03*
%TO.P,UA5,9*%
%TO.N,Net-(UA5-Pad9)*%
X111752000Y-47132000D03*
%TO.P,UA5,2*%
%TO.N,Net-(UA3-Pad10)*%
X101592000Y-54752000D03*
%TO.P,UA5,8*%
%TO.N,Net-(UA5-Pad8)*%
X114292000Y-47132000D03*
D15*
%TO.P,UA5,1*%
%TO.N,Net-(UA2-Pad1)*%
X99052000Y-54752000D03*
%TD*%
D14*
%TO.P,UC6,14*%
%TO.N,+5V*%
X38996000Y-30386000D03*
%TO.P,UC6,7*%
%TO.N,GND*%
X54236000Y-38006000D03*
%TO.P,UC6,13*%
%TO.N,N/C*%
X41536000Y-30386000D03*
%TO.P,UC6,6*%
X51696000Y-38006000D03*
%TO.P,UC6,12*%
X44076000Y-30386000D03*
%TO.P,UC6,5*%
X49156000Y-38006000D03*
%TO.P,UC6,11*%
X46616000Y-30386000D03*
%TO.P,UC6,4*%
X46616000Y-38006000D03*
%TO.P,UC6,10*%
X49156000Y-30386000D03*
%TO.P,UC6,3*%
X44076000Y-38006000D03*
%TO.P,UC6,9*%
X51696000Y-30386000D03*
%TO.P,UC6,2*%
%TO.N,Net-(R1-Pad2)*%
X41536000Y-38006000D03*
%TO.P,UC6,8*%
%TO.N,N/C*%
X54236000Y-30386000D03*
D15*
%TO.P,UC6,1*%
%TO.N,Net-(C2-Pad2)*%
X38996000Y-38006000D03*
%TD*%
D14*
%TO.P,UC5,14*%
%TO.N,+5V*%
X38996000Y-47386000D03*
%TO.P,UC5,7*%
%TO.N,GND*%
X54236000Y-55006000D03*
%TO.P,UC5,13*%
%TO.N,N/C*%
X41536000Y-47386000D03*
%TO.P,UC5,6*%
X51696000Y-55006000D03*
%TO.P,UC5,12*%
X44076000Y-47386000D03*
%TO.P,UC5,5*%
X49156000Y-55006000D03*
%TO.P,UC5,11*%
X46616000Y-47386000D03*
%TO.P,UC5,4*%
X46616000Y-55006000D03*
%TO.P,UC5,10*%
%TO.N,Net-(UB3-Pad13)*%
X49156000Y-47386000D03*
%TO.P,UC5,3*%
%TO.N,START-STOP*%
X44076000Y-55006000D03*
%TO.P,UC5,9*%
%TO.N,Net-(UB5-Pad11)*%
X51696000Y-47386000D03*
%TO.P,UC5,2*%
%TO.N,Net-(UC4-Pad3)*%
X41536000Y-55006000D03*
%TO.P,UC5,8*%
%TO.N,Net-(UA5-Pad10)*%
X54236000Y-47386000D03*
D15*
%TO.P,UC5,1*%
%TO.N,Net-(UC4-Pad3)*%
X38996000Y-55006000D03*
%TD*%
D14*
%TO.P,UC4,14*%
%TO.N,+5V*%
X38996000Y-64386000D03*
%TO.P,UC4,7*%
%TO.N,GND*%
X54236000Y-72006000D03*
%TO.P,UC4,13*%
%TO.N,Net-(R2-Pad1)*%
X41536000Y-64386000D03*
%TO.P,UC4,6*%
%TO.N,Net-(UC4-Pad6)*%
X51696000Y-72006000D03*
%TO.P,UC4,12*%
%TO.N,Net-(R1-Pad2)*%
X44076000Y-64386000D03*
%TO.P,UC4,5*%
%TO.N,Net-(UC2-Pad5)*%
X49156000Y-72006000D03*
%TO.P,UC4,11*%
%TO.N,Net-(UC2-Pad2)*%
X46616000Y-64386000D03*
%TO.P,UC4,4*%
%TO.N,Net-(UC2-Pad4)*%
X46616000Y-72006000D03*
%TO.P,UC4,10*%
%TO.N,Net-(R2-Pad1)*%
X49156000Y-64386000D03*
%TO.P,UC4,3*%
%TO.N,Net-(UC4-Pad3)*%
X44076000Y-72006000D03*
%TO.P,UC4,9*%
%TO.N,Net-(R1-Pad2)*%
X51696000Y-64386000D03*
%TO.P,UC4,2*%
%TO.N,Net-(UC4-Pad2)*%
X41536000Y-72006000D03*
%TO.P,UC4,8*%
%TO.N,Net-(UA5-Pad8)*%
X54236000Y-64386000D03*
D15*
%TO.P,UC4,1*%
%TO.N,Net-(UB5-Pad15)*%
X38996000Y-72006000D03*
%TD*%
D14*
%TO.P,UC3,14*%
%TO.N,+5V*%
X38996000Y-98386000D03*
%TO.P,UC3,7*%
%TO.N,GND*%
X54236000Y-106006000D03*
%TO.P,UC3,13*%
%TO.N,Net-(UB3-Pad12)*%
X41536000Y-98386000D03*
%TO.P,UC3,6*%
%TO.N,Net-(J1-Pad15)*%
X51696000Y-106006000D03*
%TO.P,UC3,12*%
%TO.N,Net-(J1-Pad14)*%
X44076000Y-98386000D03*
%TO.P,UC3,5*%
%TO.N,Net-(UB3-Pad11)*%
X49156000Y-106006000D03*
%TO.P,UC3,11*%
%TO.N,Net-(UB3-Pad13)*%
X46616000Y-98386000D03*
%TO.P,UC3,4*%
%TO.N,Net-(J1-Pad16)*%
X46616000Y-106006000D03*
%TO.P,UC3,10*%
%TO.N,Net-(J1-Pad13)*%
X49156000Y-98386000D03*
%TO.P,UC3,3*%
%TO.N,Net-(UB4-Pad14)*%
X44076000Y-106006000D03*
%TO.P,UC3,9*%
%TO.N,Net-(UB3-Pad14)*%
X51696000Y-98386000D03*
%TO.P,UC3,2*%
%TO.N,Net-(UB2-Pad2)*%
X41536000Y-106006000D03*
%TO.P,UC3,8*%
%TO.N,Net-(J1-Pad12)*%
X54236000Y-98386000D03*
D15*
%TO.P,UC3,1*%
%TO.N,Net-(C2-Pad2)*%
X38996000Y-106006000D03*
%TD*%
D14*
%TO.P,UC2,14*%
%TO.N,+5V*%
X38996000Y-81386000D03*
%TO.P,UC2,7*%
%TO.N,GND*%
X54236000Y-89006000D03*
%TO.P,UC2,13*%
%TO.N,Net-(UA3-Pad13)*%
X41536000Y-81386000D03*
%TO.P,UC2,6*%
%TO.N,J3-16*%
X51696000Y-89006000D03*
%TO.P,UC2,12*%
%TO.N,Net-(J1-Pad11)*%
X44076000Y-81386000D03*
%TO.P,UC2,5*%
%TO.N,Net-(UC2-Pad5)*%
X49156000Y-89006000D03*
%TO.P,UC2,11*%
%TO.N,Net-(UA4-Pad10)*%
X46616000Y-81386000D03*
%TO.P,UC2,4*%
%TO.N,Net-(UC2-Pad4)*%
X46616000Y-89006000D03*
%TO.P,UC2,10*%
%TO.N,Net-(J1-Pad10)*%
X49156000Y-81386000D03*
%TO.P,UC2,3*%
%TO.N,Net-(UB5-Pad15)*%
X44076000Y-89006000D03*
%TO.P,UC2,9*%
%TO.N,Net-(UA3-Pad10)*%
X51696000Y-81386000D03*
%TO.P,UC2,2*%
%TO.N,Net-(UC2-Pad2)*%
X41536000Y-89006000D03*
%TO.P,UC2,8*%
%TO.N,Net-(J1-Pad9)*%
X54236000Y-81386000D03*
D15*
%TO.P,UC2,1*%
%TO.N,Net-(UA5-Pad8)*%
X38996000Y-89006000D03*
%TD*%
D14*
%TO.P,UB4,16*%
%TO.N,+5V*%
X65496000Y-64386000D03*
%TO.P,UB4,8*%
%TO.N,GND*%
X83276000Y-72006000D03*
%TO.P,UB4,15*%
%TO.N,Net-(UB4-Pad15)*%
X68036000Y-64386000D03*
%TO.P,UB4,7*%
%TO.N,Net-(UB2-Pad15)*%
X80736000Y-72006000D03*
%TO.P,UB4,14*%
%TO.N,Net-(UB4-Pad14)*%
X70576000Y-64386000D03*
%TO.P,UB4,6*%
%TO.N,Net-(UB4-Pad6)*%
X78196000Y-72006000D03*
%TO.P,UB4,13*%
%TO.N,Net-(UA2-Pad1)*%
X73116000Y-64386000D03*
%TO.P,UB4,5*%
%TO.N,Net-(UB4-Pad5)*%
X75656000Y-72006000D03*
%TO.P,UB4,12*%
%TO.N,Net-(UA2-Pad4)*%
X75656000Y-64386000D03*
%TO.P,UB4,4*%
%TO.N,Net-(UB4-Pad4)*%
X73116000Y-72006000D03*
%TO.P,UB4,11*%
%TO.N,Net-(UA2-Pad9)*%
X78196000Y-64386000D03*
%TO.P,UB4,3*%
%TO.N,Net-(UB4-Pad3)*%
X70576000Y-72006000D03*
%TO.P,UB4,10*%
%TO.N,Net-(UB3-Pad15)*%
X80736000Y-64386000D03*
%TO.P,UB4,2*%
%TO.N,Net-(UB2-Pad2)*%
X68036000Y-72006000D03*
%TO.P,UB4,9*%
%TO.N,Net-(R2-Pad1)*%
X83276000Y-64386000D03*
D15*
%TO.P,UB4,1*%
X65496000Y-72006000D03*
%TD*%
D14*
%TO.P,UB2,16*%
%TO.N,+5V*%
X65496000Y-98386000D03*
%TO.P,UB2,8*%
%TO.N,GND*%
X83276000Y-106006000D03*
%TO.P,UB2,15*%
%TO.N,Net-(UB2-Pad15)*%
X68036000Y-98386000D03*
%TO.P,UB2,7*%
%TO.N,Net-(R2-Pad1)*%
X80736000Y-106006000D03*
%TO.P,UB2,14*%
%TO.N,Net-(UA2-Pad10)*%
X70576000Y-98386000D03*
%TO.P,UB2,6*%
%TO.N,Net-(UB2-Pad6)*%
X78196000Y-106006000D03*
%TO.P,UB2,13*%
%TO.N,Net-(UA3-Pad10)*%
X73116000Y-98386000D03*
%TO.P,UB2,5*%
%TO.N,Net-(UB2-Pad5)*%
X75656000Y-106006000D03*
%TO.P,UB2,12*%
%TO.N,Net-(UA4-Pad10)*%
X75656000Y-98386000D03*
%TO.P,UB2,4*%
%TO.N,Net-(UB2-Pad4)*%
X73116000Y-106006000D03*
%TO.P,UB2,11*%
%TO.N,Net-(UA3-Pad13)*%
X78196000Y-98386000D03*
%TO.P,UB2,3*%
%TO.N,Net-(UB2-Pad3)*%
X70576000Y-106006000D03*
%TO.P,UB2,10*%
%TO.N,Net-(R2-Pad1)*%
X80736000Y-98386000D03*
%TO.P,UB2,2*%
%TO.N,Net-(UB2-Pad2)*%
X68036000Y-106006000D03*
%TO.P,UB2,9*%
%TO.N,Net-(R2-Pad1)*%
X83276000Y-98386000D03*
D15*
%TO.P,UB2,1*%
X65496000Y-106006000D03*
%TD*%
%TO.P,UA6,1*%
%TO.N,Net-(UA2-Pad10)*%
X99052000Y-37752000D03*
D14*
%TO.P,UA6,8*%
%TO.N,J3-10*%
X114292000Y-30132000D03*
%TO.P,UA6,2*%
%TO.N,Net-(UA3-Pad12)*%
X101592000Y-37752000D03*
%TO.P,UA6,9*%
%TO.N,Net-(UA2-Pad12)*%
X111752000Y-30132000D03*
%TO.P,UA6,3*%
%TO.N,J3-14*%
X104132000Y-37752000D03*
%TO.P,UA6,10*%
%TO.N,Net-(UA3-Pad10)*%
X109212000Y-30132000D03*
%TO.P,UA6,4*%
%TO.N,N/C*%
X106672000Y-37752000D03*
%TO.P,UA6,11*%
%TO.N,J3-9*%
X106672000Y-30132000D03*
%TO.P,UA6,5*%
%TO.N,N/C*%
X109212000Y-37752000D03*
%TO.P,UA6,12*%
%TO.N,Net-(UA2-Pad12)*%
X104132000Y-30132000D03*
%TO.P,UA6,6*%
%TO.N,N/C*%
X111752000Y-37752000D03*
%TO.P,UA6,13*%
%TO.N,Net-(UA4-Pad10)*%
X101592000Y-30132000D03*
%TO.P,UA6,7*%
%TO.N,GND*%
X114292000Y-37752000D03*
%TO.P,UA6,14*%
%TO.N,+5V*%
X99052000Y-30132000D03*
%TD*%
%TO.P,UA4,14*%
%TO.N,+5V*%
X99052000Y-64132000D03*
%TO.P,UA4,7*%
%TO.N,GND*%
X114292000Y-71752000D03*
%TO.P,UA4,13*%
%TO.N,Net-(UA4-Pad10)*%
X101592000Y-64132000D03*
%TO.P,UA4,6*%
%TO.N,J2-5*%
X111752000Y-71752000D03*
%TO.P,UA4,12*%
%TO.N,Net-(UA3-Pad12)*%
X104132000Y-64132000D03*
%TO.P,UA4,5*%
%TO.N,Net-(UA2-Pad4)*%
X109212000Y-71752000D03*
%TO.P,UA4,11*%
%TO.N,J2-6*%
X106672000Y-64132000D03*
%TO.P,UA4,4*%
%TO.N,Net-(UA3-Pad13)*%
X106672000Y-71752000D03*
%TO.P,UA4,10*%
%TO.N,Net-(UA4-Pad10)*%
X109212000Y-64132000D03*
%TO.P,UA4,3*%
%TO.N,J2-12*%
X104132000Y-71752000D03*
%TO.P,UA4,9*%
%TO.N,Net-(UA2-Pad9)*%
X111752000Y-64132000D03*
%TO.P,UA4,2*%
%TO.N,Net-(UA4-Pad10)*%
X101592000Y-71752000D03*
%TO.P,UA4,8*%
%TO.N,J2-11*%
X114292000Y-64132000D03*
D15*
%TO.P,UA4,1*%
%TO.N,Net-(UA2-Pad1)*%
X99052000Y-71752000D03*
%TD*%
D14*
%TO.P,UA3,14*%
%TO.N,+5V*%
X99052000Y-81132000D03*
%TO.P,UA3,7*%
%TO.N,GND*%
X114292000Y-88752000D03*
%TO.P,UA3,13*%
%TO.N,Net-(UA3-Pad13)*%
X101592000Y-81132000D03*
%TO.P,UA3,6*%
%TO.N,J2-3*%
X111752000Y-88752000D03*
%TO.P,UA3,12*%
%TO.N,Net-(UA3-Pad12)*%
X104132000Y-81132000D03*
%TO.P,UA3,5*%
%TO.N,Net-(UA3-Pad10)*%
X109212000Y-88752000D03*
%TO.P,UA3,11*%
%TO.N,J2-4*%
X106672000Y-81132000D03*
%TO.P,UA3,4*%
%TO.N,Net-(UA2-Pad4)*%
X106672000Y-88752000D03*
%TO.P,UA3,10*%
%TO.N,Net-(UA3-Pad10)*%
X109212000Y-81132000D03*
%TO.P,UA3,3*%
%TO.N,J2-14*%
X104132000Y-88752000D03*
%TO.P,UA3,9*%
%TO.N,Net-(UA2-Pad9)*%
X111752000Y-81132000D03*
%TO.P,UA3,2*%
%TO.N,Net-(UA3-Pad13)*%
X101592000Y-88752000D03*
%TO.P,UA3,8*%
%TO.N,J2-13*%
X114292000Y-81132000D03*
D15*
%TO.P,UA3,1*%
%TO.N,Net-(UA2-Pad1)*%
X99052000Y-88752000D03*
%TD*%
%TO.P,R5,1*%
%TO.N,+5V*%
%TA.AperFunction,SMDPad,CuDef*%
G36*
G01*
X33893998Y-76261000D02*
X35194002Y-76261000D01*
G75*
G02*
X35444000Y-76510998I0J-249998D01*
G01*
X35444000Y-77336002D01*
G75*
G02*
X35194002Y-77586000I-249998J0D01*
G01*
X33893998Y-77586000D01*
G75*
G02*
X33644000Y-77336002I0J249998D01*
G01*
X33644000Y-76510998D01*
G75*
G02*
X33893998Y-76261000I249998J0D01*
G01*
G37*
%TD.AperFunction*%
%TO.P,R5,2*%
%TO.N,Net-(D1-Pad2)*%
%TA.AperFunction,SMDPad,CuDef*%
G36*
G01*
X33893998Y-79386000D02*
X35194002Y-79386000D01*
G75*
G02*
X35444000Y-79635998I0J-249998D01*
G01*
X35444000Y-80461002D01*
G75*
G02*
X35194002Y-80711000I-249998J0D01*
G01*
X33893998Y-80711000D01*
G75*
G02*
X33644000Y-80461002I0J249998D01*
G01*
X33644000Y-79635998D01*
G75*
G02*
X33893998Y-79386000I249998J0D01*
G01*
G37*
%TD.AperFunction*%
%TD*%
%TO.P,R4,1*%
%TO.N,+5V*%
%TA.AperFunction,SMDPad,CuDef*%
G36*
G01*
X55483998Y-116139000D02*
X56784002Y-116139000D01*
G75*
G02*
X57034000Y-116388998I0J-249998D01*
G01*
X57034000Y-117214002D01*
G75*
G02*
X56784002Y-117464000I-249998J0D01*
G01*
X55483998Y-117464000D01*
G75*
G02*
X55234000Y-117214002I0J249998D01*
G01*
X55234000Y-116388998D01*
G75*
G02*
X55483998Y-116139000I249998J0D01*
G01*
G37*
%TD.AperFunction*%
%TO.P,R4,2*%
%TO.N,Net-(J3-Pad15)*%
%TA.AperFunction,SMDPad,CuDef*%
G36*
G01*
X55483998Y-119264000D02*
X56784002Y-119264000D01*
G75*
G02*
X57034000Y-119513998I0J-249998D01*
G01*
X57034000Y-120339002D01*
G75*
G02*
X56784002Y-120589000I-249998J0D01*
G01*
X55483998Y-120589000D01*
G75*
G02*
X55234000Y-120339002I0J249998D01*
G01*
X55234000Y-119513998D01*
G75*
G02*
X55483998Y-119264000I249998J0D01*
G01*
G37*
%TD.AperFunction*%
%TD*%
%TO.P,R3,1*%
%TO.N,Net-(C2-Pad2)*%
%TA.AperFunction,SMDPad,CuDef*%
G36*
G01*
X34655998Y-37399000D02*
X35956002Y-37399000D01*
G75*
G02*
X36206000Y-37648998I0J-249998D01*
G01*
X36206000Y-38474002D01*
G75*
G02*
X35956002Y-38724000I-249998J0D01*
G01*
X34655998Y-38724000D01*
G75*
G02*
X34406000Y-38474002I0J249998D01*
G01*
X34406000Y-37648998D01*
G75*
G02*
X34655998Y-37399000I249998J0D01*
G01*
G37*
%TD.AperFunction*%
%TO.P,R3,2*%
%TO.N,CLOCK*%
%TA.AperFunction,SMDPad,CuDef*%
G36*
G01*
X34655998Y-40524000D02*
X35956002Y-40524000D01*
G75*
G02*
X36206000Y-40773998I0J-249998D01*
G01*
X36206000Y-41599002D01*
G75*
G02*
X35956002Y-41849000I-249998J0D01*
G01*
X34655998Y-41849000D01*
G75*
G02*
X34406000Y-41599002I0J249998D01*
G01*
X34406000Y-40773998D01*
G75*
G02*
X34655998Y-40524000I249998J0D01*
G01*
G37*
%TD.AperFunction*%
%TD*%
%TO.P,R2,2*%
%TO.N,+5V*%
%TA.AperFunction,SMDPad,CuDef*%
G36*
G01*
X61646002Y-103106000D02*
X60345998Y-103106000D01*
G75*
G02*
X60096000Y-102856002I0J249998D01*
G01*
X60096000Y-102030998D01*
G75*
G02*
X60345998Y-101781000I249998J0D01*
G01*
X61646002Y-101781000D01*
G75*
G02*
X61896000Y-102030998I0J-249998D01*
G01*
X61896000Y-102856002D01*
G75*
G02*
X61646002Y-103106000I-249998J0D01*
G01*
G37*
%TD.AperFunction*%
%TO.P,R2,1*%
%TO.N,Net-(R2-Pad1)*%
%TA.AperFunction,SMDPad,CuDef*%
G36*
G01*
X61646002Y-106231000D02*
X60345998Y-106231000D01*
G75*
G02*
X60096000Y-105981002I0J249998D01*
G01*
X60096000Y-105155998D01*
G75*
G02*
X60345998Y-104906000I249998J0D01*
G01*
X61646002Y-104906000D01*
G75*
G02*
X61896000Y-105155998I0J-249998D01*
G01*
X61896000Y-105981002D01*
G75*
G02*
X61646002Y-106231000I-249998J0D01*
G01*
G37*
%TD.AperFunction*%
%TD*%
%TO.P,R1,1*%
%TO.N,+5V*%
%TA.AperFunction,SMDPad,CuDef*%
G36*
G01*
X58471000Y-40605998D02*
X58471000Y-41906002D01*
G75*
G02*
X58221002Y-42156000I-249998J0D01*
G01*
X57395998Y-42156000D01*
G75*
G02*
X57146000Y-41906002I0J249998D01*
G01*
X57146000Y-40605998D01*
G75*
G02*
X57395998Y-40356000I249998J0D01*
G01*
X58221002Y-40356000D01*
G75*
G02*
X58471000Y-40605998I0J-249998D01*
G01*
G37*
%TD.AperFunction*%
%TO.P,R1,2*%
%TO.N,Net-(R1-Pad2)*%
%TA.AperFunction,SMDPad,CuDef*%
G36*
G01*
X55346000Y-40605998D02*
X55346000Y-41906002D01*
G75*
G02*
X55096002Y-42156000I-249998J0D01*
G01*
X54270998Y-42156000D01*
G75*
G02*
X54021000Y-41906002I0J249998D01*
G01*
X54021000Y-40605998D01*
G75*
G02*
X54270998Y-40356000I249998J0D01*
G01*
X55096002Y-40356000D01*
G75*
G02*
X55346000Y-40605998I0J-249998D01*
G01*
G37*
%TD.AperFunction*%
%TD*%
%TO.P,C13,2*%
%TO.N,GND*%
%TA.AperFunction,SMDPad,CuDef*%
G36*
G01*
X116901998Y-104652000D02*
X118202002Y-104652000D01*
G75*
G02*
X118452000Y-104901998I0J-249998D01*
G01*
X118452000Y-105727002D01*
G75*
G02*
X118202002Y-105977000I-249998J0D01*
G01*
X116901998Y-105977000D01*
G75*
G02*
X116652000Y-105727002I0J249998D01*
G01*
X116652000Y-104901998D01*
G75*
G02*
X116901998Y-104652000I249998J0D01*
G01*
G37*
%TD.AperFunction*%
%TO.P,C13,1*%
%TO.N,+5V*%
%TA.AperFunction,SMDPad,CuDef*%
G36*
G01*
X116901998Y-101527000D02*
X118202002Y-101527000D01*
G75*
G02*
X118452000Y-101776998I0J-249998D01*
G01*
X118452000Y-102602002D01*
G75*
G02*
X118202002Y-102852000I-249998J0D01*
G01*
X116901998Y-102852000D01*
G75*
G02*
X116652000Y-102602002I0J249998D01*
G01*
X116652000Y-101776998D01*
G75*
G02*
X116901998Y-101527000I249998J0D01*
G01*
G37*
%TD.AperFunction*%
%TD*%
%TO.P,C12,2*%
%TO.N,GND*%
%TA.AperFunction,SMDPad,CuDef*%
G36*
G01*
X85845998Y-53906000D02*
X87146002Y-53906000D01*
G75*
G02*
X87396000Y-54155998I0J-249998D01*
G01*
X87396000Y-54981002D01*
G75*
G02*
X87146002Y-55231000I-249998J0D01*
G01*
X85845998Y-55231000D01*
G75*
G02*
X85596000Y-54981002I0J249998D01*
G01*
X85596000Y-54155998D01*
G75*
G02*
X85845998Y-53906000I249998J0D01*
G01*
G37*
%TD.AperFunction*%
%TO.P,C12,1*%
%TO.N,+5V*%
%TA.AperFunction,SMDPad,CuDef*%
G36*
G01*
X85845998Y-50781000D02*
X87146002Y-50781000D01*
G75*
G02*
X87396000Y-51030998I0J-249998D01*
G01*
X87396000Y-51856002D01*
G75*
G02*
X87146002Y-52106000I-249998J0D01*
G01*
X85845998Y-52106000D01*
G75*
G02*
X85596000Y-51856002I0J249998D01*
G01*
X85596000Y-51030998D01*
G75*
G02*
X85845998Y-50781000I249998J0D01*
G01*
G37*
%TD.AperFunction*%
%TD*%
%TO.P,C11,2*%
%TO.N,GND*%
%TA.AperFunction,SMDPad,CuDef*%
G36*
G01*
X85845998Y-70906000D02*
X87146002Y-70906000D01*
G75*
G02*
X87396000Y-71155998I0J-249998D01*
G01*
X87396000Y-71981002D01*
G75*
G02*
X87146002Y-72231000I-249998J0D01*
G01*
X85845998Y-72231000D01*
G75*
G02*
X85596000Y-71981002I0J249998D01*
G01*
X85596000Y-71155998D01*
G75*
G02*
X85845998Y-70906000I249998J0D01*
G01*
G37*
%TD.AperFunction*%
%TO.P,C11,1*%
%TO.N,+5V*%
%TA.AperFunction,SMDPad,CuDef*%
G36*
G01*
X85845998Y-67781000D02*
X87146002Y-67781000D01*
G75*
G02*
X87396000Y-68030998I0J-249998D01*
G01*
X87396000Y-68856002D01*
G75*
G02*
X87146002Y-69106000I-249998J0D01*
G01*
X85845998Y-69106000D01*
G75*
G02*
X85596000Y-68856002I0J249998D01*
G01*
X85596000Y-68030998D01*
G75*
G02*
X85845998Y-67781000I249998J0D01*
G01*
G37*
%TD.AperFunction*%
%TD*%
%TO.P,C10,2*%
%TO.N,GND*%
%TA.AperFunction,SMDPad,CuDef*%
G36*
G01*
X85845998Y-87906000D02*
X87146002Y-87906000D01*
G75*
G02*
X87396000Y-88155998I0J-249998D01*
G01*
X87396000Y-88981002D01*
G75*
G02*
X87146002Y-89231000I-249998J0D01*
G01*
X85845998Y-89231000D01*
G75*
G02*
X85596000Y-88981002I0J249998D01*
G01*
X85596000Y-88155998D01*
G75*
G02*
X85845998Y-87906000I249998J0D01*
G01*
G37*
%TD.AperFunction*%
%TO.P,C10,1*%
%TO.N,+5V*%
%TA.AperFunction,SMDPad,CuDef*%
G36*
G01*
X85845998Y-84781000D02*
X87146002Y-84781000D01*
G75*
G02*
X87396000Y-85030998I0J-249998D01*
G01*
X87396000Y-85856002D01*
G75*
G02*
X87146002Y-86106000I-249998J0D01*
G01*
X85845998Y-86106000D01*
G75*
G02*
X85596000Y-85856002I0J249998D01*
G01*
X85596000Y-85030998D01*
G75*
G02*
X85845998Y-84781000I249998J0D01*
G01*
G37*
%TD.AperFunction*%
%TD*%
%TO.P,C9,2*%
%TO.N,GND*%
%TA.AperFunction,SMDPad,CuDef*%
G36*
G01*
X85845998Y-104906000D02*
X87146002Y-104906000D01*
G75*
G02*
X87396000Y-105155998I0J-249998D01*
G01*
X87396000Y-105981002D01*
G75*
G02*
X87146002Y-106231000I-249998J0D01*
G01*
X85845998Y-106231000D01*
G75*
G02*
X85596000Y-105981002I0J249998D01*
G01*
X85596000Y-105155998D01*
G75*
G02*
X85845998Y-104906000I249998J0D01*
G01*
G37*
%TD.AperFunction*%
%TO.P,C9,1*%
%TO.N,+5V*%
%TA.AperFunction,SMDPad,CuDef*%
G36*
G01*
X85845998Y-101781000D02*
X87146002Y-101781000D01*
G75*
G02*
X87396000Y-102030998I0J-249998D01*
G01*
X87396000Y-102856002D01*
G75*
G02*
X87146002Y-103106000I-249998J0D01*
G01*
X85845998Y-103106000D01*
G75*
G02*
X85596000Y-102856002I0J249998D01*
G01*
X85596000Y-102030998D01*
G75*
G02*
X85845998Y-101781000I249998J0D01*
G01*
G37*
%TD.AperFunction*%
%TD*%
%TO.P,C8,1*%
%TO.N,+5V*%
%TA.AperFunction,SMDPad,CuDef*%
G36*
G01*
X56845998Y-33781000D02*
X58146002Y-33781000D01*
G75*
G02*
X58396000Y-34030998I0J-249998D01*
G01*
X58396000Y-34856002D01*
G75*
G02*
X58146002Y-35106000I-249998J0D01*
G01*
X56845998Y-35106000D01*
G75*
G02*
X56596000Y-34856002I0J249998D01*
G01*
X56596000Y-34030998D01*
G75*
G02*
X56845998Y-33781000I249998J0D01*
G01*
G37*
%TD.AperFunction*%
%TO.P,C8,2*%
%TO.N,GND*%
%TA.AperFunction,SMDPad,CuDef*%
G36*
G01*
X56845998Y-36906000D02*
X58146002Y-36906000D01*
G75*
G02*
X58396000Y-37155998I0J-249998D01*
G01*
X58396000Y-37981002D01*
G75*
G02*
X58146002Y-38231000I-249998J0D01*
G01*
X56845998Y-38231000D01*
G75*
G02*
X56596000Y-37981002I0J249998D01*
G01*
X56596000Y-37155998D01*
G75*
G02*
X56845998Y-36906000I249998J0D01*
G01*
G37*
%TD.AperFunction*%
%TD*%
%TO.P,C7,2*%
%TO.N,GND*%
%TA.AperFunction,SMDPad,CuDef*%
G36*
G01*
X56845998Y-53906000D02*
X58146002Y-53906000D01*
G75*
G02*
X58396000Y-54155998I0J-249998D01*
G01*
X58396000Y-54981002D01*
G75*
G02*
X58146002Y-55231000I-249998J0D01*
G01*
X56845998Y-55231000D01*
G75*
G02*
X56596000Y-54981002I0J249998D01*
G01*
X56596000Y-54155998D01*
G75*
G02*
X56845998Y-53906000I249998J0D01*
G01*
G37*
%TD.AperFunction*%
%TO.P,C7,1*%
%TO.N,+5V*%
%TA.AperFunction,SMDPad,CuDef*%
G36*
G01*
X56845998Y-50781000D02*
X58146002Y-50781000D01*
G75*
G02*
X58396000Y-51030998I0J-249998D01*
G01*
X58396000Y-51856002D01*
G75*
G02*
X58146002Y-52106000I-249998J0D01*
G01*
X56845998Y-52106000D01*
G75*
G02*
X56596000Y-51856002I0J249998D01*
G01*
X56596000Y-51030998D01*
G75*
G02*
X56845998Y-50781000I249998J0D01*
G01*
G37*
%TD.AperFunction*%
%TD*%
%TO.P,C5,2*%
%TO.N,GND*%
%TA.AperFunction,SMDPad,CuDef*%
G36*
G01*
X56845998Y-87906000D02*
X58146002Y-87906000D01*
G75*
G02*
X58396000Y-88155998I0J-249998D01*
G01*
X58396000Y-88981002D01*
G75*
G02*
X58146002Y-89231000I-249998J0D01*
G01*
X56845998Y-89231000D01*
G75*
G02*
X56596000Y-88981002I0J249998D01*
G01*
X56596000Y-88155998D01*
G75*
G02*
X56845998Y-87906000I249998J0D01*
G01*
G37*
%TD.AperFunction*%
%TO.P,C5,1*%
%TO.N,+5V*%
%TA.AperFunction,SMDPad,CuDef*%
G36*
G01*
X56845998Y-84781000D02*
X58146002Y-84781000D01*
G75*
G02*
X58396000Y-85030998I0J-249998D01*
G01*
X58396000Y-85856002D01*
G75*
G02*
X58146002Y-86106000I-249998J0D01*
G01*
X56845998Y-86106000D01*
G75*
G02*
X56596000Y-85856002I0J249998D01*
G01*
X56596000Y-85030998D01*
G75*
G02*
X56845998Y-84781000I249998J0D01*
G01*
G37*
%TD.AperFunction*%
%TD*%
%TO.P,C4,2*%
%TO.N,GND*%
%TA.AperFunction,SMDPad,CuDef*%
G36*
G01*
X56845998Y-104906000D02*
X58146002Y-104906000D01*
G75*
G02*
X58396000Y-105155998I0J-249998D01*
G01*
X58396000Y-105981002D01*
G75*
G02*
X58146002Y-106231000I-249998J0D01*
G01*
X56845998Y-106231000D01*
G75*
G02*
X56596000Y-105981002I0J249998D01*
G01*
X56596000Y-105155998D01*
G75*
G02*
X56845998Y-104906000I249998J0D01*
G01*
G37*
%TD.AperFunction*%
%TO.P,C4,1*%
%TO.N,+5V*%
%TA.AperFunction,SMDPad,CuDef*%
G36*
G01*
X56845998Y-101781000D02*
X58146002Y-101781000D01*
G75*
G02*
X58396000Y-102030998I0J-249998D01*
G01*
X58396000Y-102856002D01*
G75*
G02*
X58146002Y-103106000I-249998J0D01*
G01*
X56845998Y-103106000D01*
G75*
G02*
X56596000Y-102856002I0J249998D01*
G01*
X56596000Y-102030998D01*
G75*
G02*
X56845998Y-101781000I249998J0D01*
G01*
G37*
%TD.AperFunction*%
%TD*%
D16*
%TO.P,C3,2*%
%TO.N,GND*%
X28956000Y-74636000D03*
D17*
%TO.P,C3,1*%
%TO.N,+5V*%
X28956000Y-72136000D03*
%TD*%
D18*
%TO.N,+5V*%
X60996000Y-101006000D03*
X117552000Y-32752000D03*
X117552000Y-49752000D03*
X117552000Y-66752000D03*
X117552000Y-83752000D03*
X117552000Y-100752000D03*
X86496000Y-50006000D03*
X86496000Y-67006000D03*
X86496000Y-84006000D03*
X86496000Y-101006000D03*
X57496000Y-66756000D03*
X57496000Y-84006000D03*
X57496000Y-50006000D03*
X59246000Y-39756000D03*
X57496000Y-101006000D03*
X56134000Y-114046000D03*
%TO.N,GND*%
X57496000Y-109506000D03*
X57496000Y-107006000D03*
%TO.N,Net-(J1-Pad16)*%
X46496000Y-113270000D03*
X35320000Y-113270000D03*
%TO.N,Net-(J1-Pad15)*%
X51706000Y-111362000D03*
X36974000Y-111362000D03*
%TO.N,Net-(J1-Pad14)*%
X45201010Y-114260990D03*
X39409010Y-114260990D03*
%TO.N,Net-(J1-Pad13)*%
X47741010Y-112278990D03*
X41920990Y-112278990D03*
%TO.N,Net-(J1-Pad12)*%
X52836000Y-110486000D03*
X44454000Y-110486000D03*
%TO.N,Net-(J1-Pad11)*%
X50996000Y-83256000D03*
X50570990Y-116307010D03*
X47014990Y-116307010D03*
%TO.N,Net-(J1-Pad10)*%
X42950990Y-85051010D03*
X49200990Y-85051010D03*
X42950990Y-115291010D03*
X49505010Y-115291010D03*
%TO.N,Net-(J1-Pad9)*%
X53086000Y-94742000D03*
X59690000Y-94742000D03*
X59690000Y-112522000D03*
X52070000Y-112522000D03*
%TO.N,Net-(R1-Pad2)*%
X45201010Y-40050990D03*
X45201010Y-61711010D03*
X51951010Y-61711010D03*
%TO.N,Net-(R2-Pad1)*%
X66621010Y-68756000D03*
X66621010Y-104131010D03*
X80736000Y-104246000D03*
%TO.N,Net-(UA2-Pad10)*%
X101552000Y-99752000D03*
X103552000Y-92752000D03*
X92552000Y-92752000D03*
X92552000Y-37752000D03*
X70516009Y-93485991D03*
%TO.N,Net-(UA2-Pad12)*%
X103797010Y-26997010D03*
X111306990Y-26997010D03*
X105546990Y-61007010D03*
X72251010Y-61261010D03*
%TO.N,Net-(UA2-Pad4)*%
X77070990Y-45580990D03*
X104227010Y-45326990D03*
X108086990Y-52286990D03*
X104086990Y-52286990D03*
%TO.N,Net-(UA2-Pad9)*%
X111552000Y-59752000D03*
X77996000Y-60006000D03*
%TO.N,Net-(UA2-Pad1)*%
X73116000Y-68256000D03*
X99432000Y-68632000D03*
%TO.N,Net-(UA3-Pad13)*%
X41536000Y-78046000D03*
X61996000Y-78006000D03*
X61996000Y-94256000D03*
X77996000Y-94256000D03*
X102052000Y-94002000D03*
X101592000Y-73792000D03*
X106512000Y-73792000D03*
%TO.N,Net-(UA3-Pad12)*%
X101472000Y-39832000D03*
X104132000Y-58332000D03*
X106972000Y-58332000D03*
X106552000Y-50752000D03*
X100552000Y-50752000D03*
X70658000Y-39832000D03*
%TO.N,Net-(UA3-Pad10)*%
X51696000Y-79556000D03*
X60446000Y-79556000D03*
X60446000Y-95956000D03*
X72946000Y-95956000D03*
X109002000Y-95702000D03*
%TO.N,Net-(UA4-Pad10)*%
X46616000Y-78876000D03*
X61246000Y-78756000D03*
X61246000Y-95006000D03*
X75496000Y-95006000D03*
X100552000Y-94752000D03*
X101802000Y-61917010D03*
X108967010Y-61917010D03*
%TO.N,Net-(UA5-Pad10)*%
X54236000Y-43516000D03*
X109292000Y-43262000D03*
%TO.N,Net-(UA5-Pad9)*%
X75656000Y-44846000D03*
X111642000Y-44592000D03*
%TO.N,Net-(UA5-Pad8)*%
X38996000Y-85256000D03*
X41496000Y-85256000D03*
X42661010Y-68340990D03*
X54161010Y-68340990D03*
X54236000Y-61766000D03*
X61756000Y-61766000D03*
X61756000Y-42766000D03*
X114292000Y-42512000D03*
%TO.N,Net-(UB2-Pad15)*%
X68036000Y-91046000D03*
%TO.N,Net-(UB2-Pad2)*%
X69450990Y-86210990D03*
X68996000Y-108006000D03*
%TO.N,Net-(UB3-Pad15)*%
X80496000Y-66006000D03*
X80496000Y-70006000D03*
X71996000Y-70006000D03*
X71990990Y-79500990D03*
%TO.N,Net-(UB3-Pad14)*%
X71701010Y-96711010D03*
%TO.N,Net-(UB3-Pad13)*%
X74241010Y-92760990D03*
X47241010Y-92760990D03*
X74241010Y-45251010D03*
X49241010Y-45251010D03*
%TO.N,Net-(UB3-Pad12)*%
X76781010Y-91791010D03*
X42210990Y-91791010D03*
%TO.N,Net-(UB3-Pad11)*%
X79496000Y-103006000D03*
X49246000Y-103006000D03*
%TO.N,Net-(UB4-Pad15)*%
X68036000Y-57046000D03*
X79456000Y-57046000D03*
%TO.N,Net-(UB4-Pad14)*%
X69450990Y-78710990D03*
X63454990Y-78710990D03*
X63454990Y-107960990D03*
%TO.N,Net-(UB5-Pad15)*%
X37870990Y-86380990D03*
X43870990Y-86380990D03*
X67996000Y-44506000D03*
X60496000Y-44506000D03*
X60496000Y-75006000D03*
X38996000Y-75006000D03*
%TO.N,Net-(UB5-Pad11)*%
X78196000Y-52206000D03*
X59546000Y-52206000D03*
X58496000Y-44506000D03*
X51996000Y-44506000D03*
%TO.N,Net-(UC2-Pad2)*%
X41496000Y-87256000D03*
X59496000Y-62506000D03*
X45490990Y-87250990D03*
%TO.N,J2-16*%
X104132000Y-108704000D03*
X112768000Y-108704000D03*
%TO.N,J2-15*%
X100466990Y-102337010D03*
X114216990Y-102337010D03*
X100466990Y-107813010D03*
X113792000Y-108458000D03*
%TO.N,J2-14*%
X95852000Y-90802000D03*
X103752000Y-90802000D03*
%TO.N,J2-13*%
X114302000Y-86252000D03*
X96882000Y-86252000D03*
%TO.N,J2-12*%
X122432000Y-112382000D03*
X122432000Y-75382000D03*
X104182000Y-75382000D03*
X87630000Y-114046000D03*
%TO.N,J2-11*%
X120722000Y-110332000D03*
X120722000Y-63922000D03*
X91282000Y-110332000D03*
%TO.N,J2-6*%
X119717010Y-109586990D03*
X119952000Y-60952000D03*
X107136990Y-60917010D03*
X83566000Y-114808000D03*
%TO.N,J2-5*%
X121557010Y-111257010D03*
X121557010Y-74257010D03*
X111807010Y-74257010D03*
X85344000Y-114808000D03*
%TO.N,J2-4*%
X93652001Y-85151999D03*
X106402001Y-85151999D03*
%TO.N,J2-3*%
X94902001Y-91901999D03*
X111402001Y-91901999D03*
%TO.N,J3-16*%
X52821010Y-77081010D03*
X62670990Y-77081010D03*
%TO.N,J3-14*%
X88646000Y-41783000D03*
X103505000Y-41783000D03*
%TO.N,J3-11*%
X112877010Y-35077010D03*
X90170000Y-59182000D03*
X111506000Y-58166000D03*
%TO.N,J3-10*%
X114292000Y-27948000D03*
X90940000Y-27948000D03*
%TO.N,J3-9*%
X91694000Y-33782000D03*
X106426000Y-33782000D03*
%TO.N,J3-5*%
X89408000Y-51562000D03*
X109219989Y-51561989D03*
%TO.N,J3-4*%
X88392000Y-57150000D03*
X104140000Y-57150000D03*
%TD*%
D19*
%TO.N,+5V*%
X57496000Y-85443500D02*
X56058500Y-84006000D01*
X56058500Y-84006000D02*
X41616000Y-84006000D01*
X41616000Y-84006000D02*
X38996000Y-81386000D01*
X117552000Y-34189500D02*
X117552000Y-32752000D01*
X117552000Y-51189500D02*
X117552000Y-49752000D01*
X117552000Y-68189500D02*
X117552000Y-66752000D01*
X117552000Y-85189500D02*
X117552000Y-83752000D01*
X117552000Y-102189500D02*
X117552000Y-100752000D01*
X57496000Y-51443500D02*
X57496000Y-50006000D01*
X57496000Y-85443500D02*
X57496000Y-84006000D01*
X86496000Y-51443500D02*
X86496000Y-50006000D01*
X86496000Y-68443500D02*
X86496000Y-67006000D01*
X86496000Y-102443500D02*
X86496000Y-101006000D01*
X57496000Y-102443500D02*
X56058500Y-101006000D01*
X41616000Y-101006000D02*
X38996000Y-98386000D01*
X56058500Y-101006000D02*
X41616000Y-101006000D01*
X57496000Y-68443500D02*
X57496000Y-66756000D01*
X57496000Y-51443500D02*
X57496000Y-50006000D01*
X59246000Y-39818500D02*
X57808500Y-41256000D01*
X59246000Y-39756000D02*
X59246000Y-39818500D01*
X57496000Y-101006000D02*
X57496000Y-102443500D01*
X41866000Y-67256000D02*
X38996000Y-64386000D01*
X56308500Y-67256000D02*
X41866000Y-67256000D01*
X57496000Y-68443500D02*
X56308500Y-67256000D01*
X57496000Y-51443500D02*
X57183500Y-51443500D01*
X57183500Y-51443500D02*
X55746000Y-50006000D01*
X41616000Y-50006000D02*
X38996000Y-47386000D01*
X55746000Y-50006000D02*
X41616000Y-50006000D01*
X57496000Y-34443500D02*
X57183500Y-34443500D01*
X57183500Y-34443500D02*
X55746000Y-33006000D01*
X41616000Y-33006000D02*
X38996000Y-30386000D01*
X55746000Y-33006000D02*
X41616000Y-33006000D01*
X60996000Y-101006000D02*
X57496000Y-101006000D01*
X60996000Y-101006000D02*
X60996000Y-102443500D01*
X86496000Y-85443500D02*
X86496000Y-84006000D01*
X86496000Y-102443500D02*
X86183500Y-102443500D01*
X86183500Y-102443500D02*
X84746000Y-101006000D01*
X68116000Y-101006000D02*
X65496000Y-98386000D01*
X86496000Y-85443500D02*
X86183500Y-85443500D01*
X86183500Y-85443500D02*
X84746000Y-84006000D01*
X65496000Y-82256000D02*
X65496000Y-81386000D01*
X67246000Y-84006000D02*
X65496000Y-82256000D01*
X65496000Y-65256000D02*
X65496000Y-64386000D01*
X67096001Y-66856001D02*
X65496000Y-65256000D01*
X83846001Y-66856001D02*
X67096001Y-66856001D01*
X85433500Y-68443500D02*
X83846001Y-66856001D01*
X86496000Y-68443500D02*
X85433500Y-68443500D01*
X86496000Y-51443500D02*
X85683500Y-51443500D01*
X85683500Y-51443500D02*
X84246000Y-50006000D01*
X65496000Y-48256000D02*
X65496000Y-47386000D01*
X67246000Y-50006000D02*
X65496000Y-48256000D01*
X117552000Y-34439500D02*
X117239500Y-34439500D01*
X117239500Y-34439500D02*
X115302000Y-32502000D01*
X115302000Y-32502000D02*
X100552000Y-32502000D01*
X99052000Y-31002000D02*
X99052000Y-30132000D01*
X100552000Y-32502000D02*
X99052000Y-31002000D01*
X117552000Y-51439500D02*
X117239500Y-51439500D01*
X117239500Y-51439500D02*
X115302000Y-49502000D01*
X99052000Y-48252000D02*
X99052000Y-47132000D01*
X100302000Y-49502000D02*
X99052000Y-48252000D01*
X117552000Y-68627000D02*
X117427000Y-68627000D01*
X117427000Y-68627000D02*
X115552000Y-66752000D01*
X99052000Y-65002000D02*
X99052000Y-64132000D01*
X100802000Y-66752000D02*
X99052000Y-65002000D01*
X99052000Y-82252000D02*
X99052000Y-81132000D01*
X100802000Y-84002000D02*
X99052000Y-82252000D01*
X115552000Y-84002000D02*
X100802000Y-84002000D01*
X117177000Y-85627000D02*
X115552000Y-84002000D01*
X117552000Y-85627000D02*
X117177000Y-85627000D01*
X117552000Y-102189500D02*
X117239500Y-102189500D01*
X117239500Y-102189500D02*
X115802000Y-100752000D01*
X99052000Y-99252000D02*
X99052000Y-98132000D01*
X100552000Y-100752000D02*
X99052000Y-99252000D01*
X84746000Y-84006000D02*
X67246000Y-84006000D01*
X115552000Y-66752000D02*
X100802000Y-66752000D01*
X60996000Y-101006000D02*
X83246000Y-101006000D01*
X83246000Y-101006000D02*
X68116000Y-101006000D01*
X101810002Y-100752000D02*
X105302000Y-100752000D01*
X105302000Y-100752000D02*
X100552000Y-100752000D01*
X115802000Y-100752000D02*
X105302000Y-100752000D01*
X84246000Y-50006000D02*
X67246000Y-50006000D01*
X115302000Y-49502000D02*
X101802000Y-49502000D01*
X101802000Y-49502000D02*
X100302000Y-49502000D01*
X67246000Y-50006000D02*
X55746000Y-50006000D01*
X83746000Y-101006000D02*
X83246000Y-101006000D01*
X86496000Y-101006000D02*
X83746000Y-101006000D01*
X84746000Y-101006000D02*
X83746000Y-101006000D01*
X34544000Y-76923500D02*
X34544000Y-74422000D01*
X32258000Y-72136000D02*
X28956000Y-72136000D01*
X34544000Y-74422000D02*
X32258000Y-72136000D01*
X59246000Y-36193500D02*
X57496000Y-34443500D01*
X59246000Y-39756000D02*
X59246000Y-36193500D01*
X56134000Y-116801500D02*
X56134000Y-114046000D01*
X99075000Y-99381000D02*
X97450000Y-101006000D01*
X99075000Y-98171000D02*
X99075000Y-99381000D01*
X86496000Y-101006000D02*
X97450000Y-101006000D01*
X38996000Y-30386000D02*
X38996000Y-28328000D01*
X38569500Y-27901500D02*
X35560000Y-27901500D01*
X38996000Y-28328000D02*
X38569500Y-27901500D01*
%TO.N,GND*%
X114302000Y-37752000D02*
X117084500Y-37752000D01*
X117052000Y-54752000D02*
X114269500Y-54752000D01*
X117552000Y-71752000D02*
X114769500Y-71752000D01*
X114519500Y-88752000D02*
X117302000Y-88752000D01*
X114802000Y-105502000D02*
X117584500Y-105502000D01*
X83746000Y-54506000D02*
X86528500Y-54506000D01*
X83746000Y-88506000D02*
X86528500Y-88506000D01*
X83713500Y-105568500D02*
X86496000Y-105568500D01*
X54236000Y-38006000D02*
X54236000Y-37246000D01*
X36496000Y-109506000D02*
X57496000Y-109506000D01*
X54673500Y-105568500D02*
X54236000Y-106006000D01*
X57496000Y-105568500D02*
X54673500Y-105568500D01*
X54673500Y-88568500D02*
X54236000Y-89006000D01*
X57496000Y-88568500D02*
X54673500Y-88568500D01*
X54673500Y-71568500D02*
X54236000Y-72006000D01*
X57496000Y-71568500D02*
X54673500Y-71568500D01*
X54673500Y-54568500D02*
X54236000Y-55006000D01*
X57496000Y-54568500D02*
X54673500Y-54568500D01*
X54673500Y-37568500D02*
X54236000Y-38006000D01*
X57496000Y-37568500D02*
X54673500Y-37568500D01*
X83713500Y-71568500D02*
X86496000Y-71568500D01*
X57496000Y-107006000D02*
X57496000Y-105568500D01*
X34004000Y-109506000D02*
X34004000Y-117126000D01*
X36496000Y-109506000D02*
X34004000Y-109506000D01*
X34004000Y-117126000D02*
X31750000Y-119380000D01*
X31750000Y-119380000D02*
X31750000Y-121920000D01*
X32766000Y-122936000D02*
X59690000Y-122936000D01*
X31750000Y-121920000D02*
X32766000Y-122936000D01*
X59690000Y-122936000D02*
X64770000Y-122936000D01*
X64770000Y-122936000D02*
X67310000Y-120396000D01*
X67310000Y-120396000D02*
X69850000Y-120396000D01*
X69850000Y-120396000D02*
X72390000Y-122936000D01*
X72390000Y-122936000D02*
X77470000Y-122936000D01*
X34004000Y-87598000D02*
X28956000Y-82550000D01*
X34004000Y-109506000D02*
X34004000Y-87598000D01*
X90170000Y-122936000D02*
X88575010Y-124530990D01*
X79064990Y-124530990D02*
X77470000Y-122936000D01*
X88575010Y-124530990D02*
X79064990Y-124530990D01*
X102870000Y-122936000D02*
X101346000Y-124460000D01*
X91694000Y-124460000D02*
X90170000Y-122936000D01*
X101346000Y-124460000D02*
X91694000Y-124460000D01*
X115570000Y-122936000D02*
X114046000Y-124460000D01*
X104394000Y-124460000D02*
X102870000Y-122936000D01*
X114046000Y-124460000D02*
X104394000Y-124460000D01*
X86496000Y-105568500D02*
X86496000Y-107052000D01*
X84042000Y-109506000D02*
X57496000Y-109506000D01*
X86496000Y-107052000D02*
X84042000Y-109506000D01*
X29496000Y-109506000D02*
X29210000Y-109220000D01*
X34004000Y-109506000D02*
X29496000Y-109506000D01*
D20*
%TO.N,Net-(D1-Pad2)*%
X28994500Y-80048500D02*
X28956000Y-80010000D01*
X34544000Y-80048500D02*
X28994500Y-80048500D01*
%TO.N,Net-(J1-Pad16)*%
X46496000Y-113270000D02*
X35320000Y-113270000D01*
X35320000Y-113270000D02*
X35320000Y-113270000D01*
%TO.N,Net-(J1-Pad15)*%
X51706000Y-111362000D02*
X36974000Y-111362000D01*
X36974000Y-111362000D02*
X36974000Y-111362000D01*
%TO.N,Net-(J1-Pad14)*%
X45201010Y-114260990D02*
X39409010Y-114260990D01*
X39409010Y-114260990D02*
X39409010Y-114260990D01*
%TO.N,Net-(J1-Pad13)*%
X47741010Y-112278990D02*
X41920990Y-112278990D01*
X41920990Y-112278990D02*
X41920990Y-112278990D01*
%TO.N,Net-(J1-Pad12)*%
X52836000Y-110486000D02*
X44454000Y-110486000D01*
X44454000Y-110486000D02*
X44454000Y-110486000D01*
%TO.N,Net-(J1-Pad11)*%
X44076000Y-82336000D02*
X44076000Y-81386000D01*
X44076000Y-82836000D02*
X44076000Y-81386000D01*
X44496000Y-83256000D02*
X44076000Y-82836000D01*
X50996000Y-83256000D02*
X44496000Y-83256000D01*
X50570990Y-116307010D02*
X47014990Y-116307010D01*
X47014990Y-116307010D02*
X47014990Y-116307010D01*
%TO.N,Net-(J1-Pad10)*%
X42950990Y-85051010D02*
X49200990Y-85051010D01*
X49200990Y-85051010D02*
X49200990Y-85051010D01*
X42950990Y-115291010D02*
X49505010Y-115291010D01*
X49505010Y-115291010D02*
X49505010Y-115291010D01*
%TO.N,Net-(J1-Pad9)*%
X53086000Y-94742000D02*
X59690000Y-94742000D01*
X59690000Y-94742000D02*
X59690000Y-94742000D01*
X59690000Y-112522000D02*
X52070000Y-112522000D01*
X52070000Y-112522000D02*
X52070000Y-112522000D01*
%TO.N,Net-(J3-Pad15)*%
X61054999Y-121571001D02*
X57055001Y-121571001D01*
X62230000Y-120396000D02*
X61054999Y-121571001D01*
X56134000Y-120650000D02*
X56134000Y-119926500D01*
X57055001Y-121571001D02*
X56134000Y-120650000D01*
%TO.N,Net-(R1-Pad2)*%
X45201010Y-40050990D02*
X42040990Y-40050990D01*
X41536000Y-39546000D02*
X41536000Y-38006000D01*
X42040990Y-40050990D02*
X41536000Y-39546000D01*
X45201010Y-61711010D02*
X51951010Y-61711010D01*
X51951010Y-61711010D02*
X51951010Y-61711010D01*
X46406020Y-41256000D02*
X45201010Y-40050990D01*
X54683500Y-41256000D02*
X46406020Y-41256000D01*
%TO.N,Net-(R2-Pad1)*%
X83276000Y-98386000D02*
X80736000Y-98386000D01*
X49156000Y-65166000D02*
X49156000Y-64386000D01*
X49996000Y-66006000D02*
X49156000Y-65166000D01*
X80621010Y-104131010D02*
X80736000Y-104246000D01*
X66621010Y-104131010D02*
X80621010Y-104131010D01*
X49996000Y-66006000D02*
X42246000Y-66006000D01*
X41536000Y-65296000D02*
X41536000Y-64386000D01*
X42246000Y-66006000D02*
X41536000Y-65296000D01*
X65496000Y-106006000D02*
X65496000Y-106506000D01*
X65496000Y-106506000D02*
X64996000Y-107006000D01*
X49996000Y-66006000D02*
X62246000Y-66006000D01*
X62246000Y-66006000D02*
X64996000Y-68756000D01*
X64996000Y-68756000D02*
X66496000Y-68756000D01*
X61433500Y-106006000D02*
X60996000Y-105568500D01*
X65496000Y-106006000D02*
X61433500Y-106006000D01*
%TO.N,Net-(UA2-Pad10)*%
X101552000Y-98172000D02*
X101592000Y-98132000D01*
X101552000Y-99752000D02*
X101552000Y-98172000D01*
X101552000Y-99752000D02*
X101552000Y-99752000D01*
X107686990Y-104226990D02*
X103117010Y-104226990D01*
X103117010Y-104226990D02*
X101592000Y-105752000D01*
X109212000Y-105752000D02*
X107686990Y-104226990D01*
X103552000Y-92752000D02*
X92552000Y-92752000D01*
X92552000Y-92752000D02*
X92552000Y-92752000D01*
X92552000Y-37752000D02*
X99052000Y-37752000D01*
X92552000Y-92752000D02*
X92552000Y-92752000D01*
X70516009Y-93485991D02*
X70516009Y-93485991D01*
X92298000Y-93006000D02*
X92552000Y-92752000D01*
X76496000Y-93006000D02*
X92298000Y-93006000D01*
X76016009Y-93485991D02*
X76496000Y-93006000D01*
X70516009Y-93485991D02*
X76016009Y-93485991D01*
%TO.N,Net-(UA2-Pad12)*%
X103797010Y-26997010D02*
X111306990Y-26997010D01*
X111306990Y-26997010D02*
X111306990Y-26997010D01*
X101990990Y-61261010D02*
X72251010Y-61261010D01*
X72251010Y-61261010D02*
X72251010Y-61261010D01*
X102175989Y-61007010D02*
X101990990Y-61192009D01*
X105546990Y-61007010D02*
X102175989Y-61007010D01*
%TO.N,Net-(UA2-Pad4)*%
X104227010Y-45326990D02*
X104227010Y-45326990D01*
X108086990Y-52286990D02*
X104086990Y-52286990D01*
X104086990Y-52286990D02*
X104017010Y-52286990D01*
X103973010Y-45580990D02*
X104227010Y-45326990D01*
X77070990Y-45580990D02*
X103973010Y-45580990D01*
%TO.N,Net-(UA2-Pad9)*%
X77996000Y-60006000D02*
X77996000Y-60006000D01*
X111298000Y-60006000D02*
X111552000Y-59752000D01*
X77996000Y-60006000D02*
X111298000Y-60006000D01*
%TO.N,Net-(UA2-Pad1)*%
X99432000Y-68632000D02*
X99432000Y-68632000D01*
X94922000Y-68632000D02*
X99432000Y-68632000D01*
X93548000Y-70006000D02*
X94922000Y-68632000D01*
X84496000Y-70006000D02*
X93548000Y-70006000D01*
X82746000Y-68256000D02*
X84496000Y-70006000D01*
X73246000Y-68256000D02*
X82746000Y-68256000D01*
%TO.N,Net-(UA3-Pad13)*%
X41536000Y-78046000D02*
X41576000Y-78006000D01*
X41576000Y-78006000D02*
X61996000Y-78006000D01*
X61996000Y-78006000D02*
X61996000Y-78006000D01*
X61996000Y-94256000D02*
X77996000Y-94256000D01*
X77996000Y-94256000D02*
X77996000Y-94256000D01*
X77996000Y-94256000D02*
X98496000Y-94256000D01*
X102052000Y-94002000D02*
X102052000Y-94002000D01*
X101592000Y-73792000D02*
X106512000Y-73792000D01*
X106512000Y-73792000D02*
X106512000Y-73792000D01*
X98750000Y-94002000D02*
X102052000Y-94002000D01*
X98496000Y-94256000D02*
X98750000Y-94002000D01*
%TO.N,Net-(UA3-Pad12)*%
X101472000Y-39832000D02*
X101472000Y-39832000D01*
X104132000Y-58332000D02*
X106972000Y-58332000D01*
X106972000Y-58332000D02*
X106972000Y-58332000D01*
X106552000Y-50752000D02*
X100552000Y-50752000D01*
X100552000Y-50752000D02*
X100552000Y-50752000D01*
X101472000Y-39832000D02*
X70658000Y-39832000D01*
X70658000Y-39832000D02*
X70658000Y-39832000D01*
%TO.N,Net-(UA3-Pad10)*%
X51696000Y-79556000D02*
X60446000Y-79556000D01*
X60446000Y-79556000D02*
X60446000Y-79556000D01*
X60446000Y-95956000D02*
X72946000Y-95956000D01*
X72946000Y-95956000D02*
X72946000Y-95956000D01*
X109002000Y-95702000D02*
X109002000Y-95702000D01*
X103117010Y-53226990D02*
X101592000Y-54752000D01*
X107686990Y-53226990D02*
X103117010Y-53226990D01*
X109212000Y-54752000D02*
X107686990Y-53226990D01*
X108748000Y-95956000D02*
X109002000Y-95702000D01*
X72946000Y-95956000D02*
X108748000Y-95956000D01*
%TO.N,Net-(UA4-Pad10)*%
X46616000Y-78876000D02*
X46736000Y-78756000D01*
X46736000Y-78756000D02*
X57496000Y-78756000D01*
X57496000Y-78756000D02*
X61246000Y-78756000D01*
X61246000Y-78756000D02*
X61246000Y-78756000D01*
X61246000Y-95006000D02*
X75496000Y-95006000D01*
X75496000Y-95006000D02*
X75496000Y-95006000D01*
X100552000Y-94752000D02*
X100552000Y-94752000D01*
X102717010Y-61917010D02*
X108967010Y-61917010D01*
X108967010Y-61917010D02*
X108967010Y-61917010D01*
X102717010Y-61917010D02*
X101802000Y-61917010D01*
X100298000Y-95006000D02*
X100552000Y-94752000D01*
X75496000Y-95006000D02*
X100298000Y-95006000D01*
%TO.N,Net-(UA5-Pad10)*%
X109292000Y-43262000D02*
X109292000Y-43262000D01*
X109038000Y-43516000D02*
X109292000Y-43262000D01*
X54236000Y-43516000D02*
X109038000Y-43516000D01*
%TO.N,Net-(UA5-Pad9)*%
X111642000Y-44592000D02*
X111642000Y-44592000D01*
X111388000Y-44846000D02*
X111642000Y-44592000D01*
X75656000Y-44846000D02*
X111388000Y-44846000D01*
%TO.N,Net-(UA5-Pad8)*%
X38996000Y-85256000D02*
X41496000Y-85256000D01*
X41496000Y-85256000D02*
X41496000Y-85256000D01*
X42661010Y-68340990D02*
X54161010Y-68340990D01*
X54161010Y-68340990D02*
X54161010Y-68340990D01*
X54236000Y-61766000D02*
X61756000Y-61766000D01*
X61756000Y-61766000D02*
X61986000Y-61766000D01*
X114292000Y-42512000D02*
X114292000Y-42512000D01*
X114038000Y-42766000D02*
X114292000Y-42512000D01*
X61756000Y-42766000D02*
X114038000Y-42766000D01*
%TO.N,Net-(UB2-Pad15)*%
X68036000Y-91046000D02*
X79956000Y-91046000D01*
X80736000Y-90266000D02*
X80736000Y-89006000D01*
X79956000Y-91046000D02*
X80736000Y-90266000D01*
%TO.N,Net-(UB2-Pad2)*%
X41536000Y-107046000D02*
X41536000Y-106006000D01*
X68316009Y-108685991D02*
X42175991Y-108685991D01*
X68996000Y-108006000D02*
X68316009Y-108685991D01*
X41536000Y-108046000D02*
X41536000Y-106006000D01*
X42175991Y-108685991D02*
X41536000Y-108046000D01*
%TO.N,Net-(UB3-Pad15)*%
X80736000Y-64386000D02*
X80736000Y-65766000D01*
X80736000Y-65766000D02*
X80496000Y-66006000D01*
X80496000Y-66006000D02*
X80496000Y-66006000D01*
X80496000Y-70006000D02*
X71996000Y-70006000D01*
X71996000Y-70006000D02*
X71996000Y-70006000D01*
X71990990Y-79500990D02*
X68501010Y-79500990D01*
X68036000Y-79966000D02*
X68036000Y-81386000D01*
X68501010Y-79500990D02*
X68036000Y-79966000D01*
%TO.N,Net-(UB3-Pad14)*%
X71701010Y-96711010D02*
X52540990Y-96711010D01*
X51696000Y-97556000D02*
X51696000Y-98386000D01*
X52540990Y-96711010D02*
X51696000Y-97556000D01*
%TO.N,Net-(UB3-Pad13)*%
X74241010Y-92760990D02*
X47241010Y-92760990D01*
X47241010Y-92760990D02*
X47241010Y-92760990D01*
X74241010Y-45251010D02*
X49241010Y-45251010D01*
X49241010Y-45251010D02*
X49241010Y-45251010D01*
%TO.N,Net-(UB3-Pad12)*%
X76781010Y-91791010D02*
X42210990Y-91791010D01*
X42210990Y-91791010D02*
X42210990Y-91791010D01*
%TO.N,Net-(UB3-Pad11)*%
X49246000Y-103006000D02*
X49246000Y-103006000D01*
X54246000Y-103006000D02*
X49246000Y-103006000D01*
X62996000Y-104006000D02*
X55246000Y-104006000D01*
X63996000Y-103006000D02*
X62996000Y-104006000D01*
X55246000Y-104006000D02*
X54246000Y-103006000D01*
X79496000Y-103006000D02*
X63996000Y-103006000D01*
%TO.N,Net-(UB4-Pad15)*%
X68036000Y-57046000D02*
X79456000Y-57046000D01*
X79456000Y-57046000D02*
X79456000Y-57046000D01*
%TO.N,Net-(UB4-Pad14)*%
X69450990Y-78710990D02*
X63200990Y-78710990D01*
X63200990Y-78710990D02*
X63200990Y-78710990D01*
X63200990Y-107960990D02*
X44950990Y-107960990D01*
X44076000Y-107086000D02*
X44076000Y-106006000D01*
X44950990Y-107960990D02*
X44076000Y-107086000D01*
%TO.N,Net-(UB5-Pad15)*%
X44076000Y-90086000D02*
X44076000Y-89006000D01*
X37870990Y-86380990D02*
X43870990Y-86380990D01*
X43870990Y-86380990D02*
X43870990Y-86380990D01*
X67996000Y-44506000D02*
X68246000Y-44506000D01*
X37870990Y-73131010D02*
X38996000Y-72006000D01*
X37870990Y-86380990D02*
X37870990Y-73131010D01*
X67996000Y-44506000D02*
X60496000Y-44506000D01*
X60496000Y-44506000D02*
X60496000Y-44506000D01*
X60496000Y-75006000D02*
X39496000Y-75006000D01*
X39496000Y-75006000D02*
X38996000Y-75006000D01*
X38996000Y-75006000D02*
X38996000Y-75006000D01*
%TO.N,Net-(UB5-Pad11)*%
X51696000Y-47386000D02*
X51696000Y-48456000D01*
X78196000Y-48056000D02*
X78196000Y-47386000D01*
X51696000Y-47956000D02*
X51696000Y-47386000D01*
X78196000Y-52206000D02*
X59546000Y-52206000D01*
X59546000Y-52206000D02*
X59546000Y-52206000D01*
X58496000Y-44506000D02*
X57930315Y-44506000D01*
X57930315Y-44506000D02*
X54152998Y-44506000D01*
X54152998Y-44506000D02*
X51996000Y-44506000D01*
X51996000Y-44506000D02*
X51996000Y-44506000D01*
%TO.N,Net-(UC2-Pad5)*%
X49156000Y-87846000D02*
X49156000Y-89006000D01*
%TO.N,Net-(UC2-Pad2)*%
X41496000Y-87256000D02*
X44496000Y-87256000D01*
X46616000Y-63136000D02*
X46616000Y-64386000D01*
X47246000Y-62506000D02*
X46616000Y-63136000D01*
X59496000Y-62506000D02*
X47246000Y-62506000D01*
X44501010Y-87250990D02*
X44496000Y-87256000D01*
X45490990Y-87250990D02*
X44501010Y-87250990D01*
%TO.N,Net-(UC4-Pad3)*%
X41536000Y-55006000D02*
X38996000Y-55006000D01*
%TO.N,J2-16*%
X104132000Y-108704000D02*
X112768000Y-108704000D01*
X112768000Y-108704000D02*
X112768000Y-108704000D01*
%TO.N,J2-15*%
X100466990Y-102337010D02*
X114216990Y-102337010D01*
X114216990Y-102337010D02*
X114216990Y-102337010D01*
X100466990Y-107813010D02*
X113147010Y-107813010D01*
X113147010Y-107813010D02*
X113792000Y-108458000D01*
X113792000Y-108458000D02*
X113792000Y-108458000D01*
%TO.N,J2-14*%
X95852000Y-90802000D02*
X103752000Y-90802000D01*
X103752000Y-90802000D02*
X103752000Y-90802000D01*
%TO.N,J2-13*%
X94552000Y-86252000D02*
X96882000Y-86252000D01*
X114302000Y-86252000D02*
X114302000Y-86252000D01*
X96882000Y-86252000D02*
X114302000Y-86252000D01*
%TO.N,J2-12*%
X106932000Y-112382000D02*
X122432000Y-112382000D01*
X122432000Y-112382000D02*
X122672000Y-112382000D01*
X122432000Y-75382000D02*
X104182000Y-75382000D01*
X104182000Y-75382000D02*
X104172000Y-75382000D01*
X106932000Y-112382000D02*
X89294000Y-112382000D01*
X89294000Y-112382000D02*
X87630000Y-114046000D01*
X87630000Y-114046000D02*
X87630000Y-114046000D01*
%TO.N,J2-11*%
X109472000Y-110332000D02*
X120382000Y-110332000D01*
X120382000Y-110332000D02*
X120722000Y-110332000D01*
X120722000Y-110332000D02*
X120722000Y-110332000D01*
X114502000Y-63922000D02*
X114292000Y-64132000D01*
X120722000Y-63922000D02*
X114502000Y-63922000D01*
X109472000Y-110332000D02*
X91282000Y-110332000D01*
X91282000Y-110332000D02*
X91282000Y-110332000D01*
%TO.N,J2-6*%
X110886990Y-109586990D02*
X119717010Y-109586990D01*
X119717010Y-109586990D02*
X119717010Y-109586990D01*
X107136990Y-60917010D02*
X107136990Y-60917010D01*
X107171980Y-60952000D02*
X107136990Y-60917010D01*
X119952000Y-60952000D02*
X107171980Y-60952000D01*
X110886990Y-109586990D02*
X88787010Y-109586990D01*
X88787010Y-109586990D02*
X83566000Y-114808000D01*
X83566000Y-114808000D02*
X83566000Y-114808000D01*
%TO.N,J2-5*%
X108057010Y-111257010D02*
X121557010Y-111257010D01*
X121557010Y-111257010D02*
X121796990Y-111257010D01*
X121557010Y-74257010D02*
X111807010Y-74257010D01*
X111807010Y-74257010D02*
X111807010Y-74257010D01*
X108057010Y-111257010D02*
X88894990Y-111257010D01*
X88894990Y-111257010D02*
X85344000Y-114808000D01*
%TO.N,J2-4*%
X93652001Y-85151999D02*
X106402001Y-85151999D01*
%TO.N,J2-3*%
X94902001Y-91901999D02*
X111402001Y-91901999D01*
X111402001Y-91901999D02*
X111402001Y-91901999D01*
%TO.N,J3-16*%
X52821010Y-77081010D02*
X62670990Y-77081010D01*
X62670990Y-77081010D02*
X62670990Y-77081010D01*
%TO.N,J3-14*%
X103505000Y-41783000D02*
X103505000Y-41783000D01*
X88646000Y-41783000D02*
X103505000Y-41783000D01*
%TO.N,J3-11*%
X90170000Y-59182000D02*
X110490000Y-59182000D01*
X110490000Y-59182000D02*
X111506000Y-58166000D01*
X111506000Y-58166000D02*
X111506000Y-58166000D01*
%TO.N,J3-10*%
X114292000Y-27948000D02*
X90940000Y-27948000D01*
X90940000Y-27948000D02*
X90940000Y-27948000D01*
%TO.N,J3-9*%
X91694000Y-33782000D02*
X106426000Y-33782000D01*
X106426000Y-33782000D02*
X106426000Y-33782000D01*
%TO.N,J3-5*%
X103738989Y-51561989D02*
X109219989Y-51561989D01*
X103738978Y-51562000D02*
X103738989Y-51561989D01*
X89408000Y-51562000D02*
X103738978Y-51562000D01*
X109219989Y-51561989D02*
X109219989Y-51561989D01*
%TO.N,J3-4*%
X88392000Y-57150000D02*
X104140000Y-57150000D01*
X104140000Y-57150000D02*
X104140000Y-57150000D01*
%TO.N,START-STOP*%
X44076000Y-55006000D02*
X44076000Y-54086000D01*
X44076000Y-54086000D02*
X42996000Y-53006000D01*
X42996000Y-53006000D02*
X31996000Y-53006000D01*
X30996000Y-54006000D02*
X28996000Y-54006000D01*
X31996000Y-53006000D02*
X30996000Y-54006000D01*
X28844000Y-51308000D02*
X28844000Y-53848000D01*
%TO.N,CLOCK*%
X31683500Y-43388500D02*
X28844000Y-46228000D01*
X28844000Y-46228000D02*
X28844000Y-48768000D01*
X28844000Y-46228000D02*
X33543000Y-41529000D01*
X34963500Y-41529000D02*
X35306000Y-41186500D01*
X33543000Y-41529000D02*
X34963500Y-41529000D01*
%TO.N,Net-(C2-Pad2)*%
X35361500Y-38006000D02*
X35306000Y-38061500D01*
X38996000Y-38006000D02*
X35361500Y-38006000D01*
X35306000Y-31280500D02*
X35560000Y-31026500D01*
X35306000Y-38061500D02*
X35306000Y-31280500D01*
%TD*%
M02*
